<svg width="176" height="166" viewBox="0 0 176 166" fill="none" xmlns="http://www.w3.org/2000/svg">
<path fill-rule="evenodd" clip-rule="evenodd" d="M26.5795 0.336066C24.2622 1.20298 22.2423 3.32874 21.6258 5.54924C21.4251 6.27205 21.297 15.8845 21.296 30.3296C21.2943 51.5205 21.2407 53.9288 20.7722 53.9288C20.4851 53.9288 19.4672 54.717 18.5102 55.68C16.4683 57.735 15.9592 59.1243 15.9592 62.642C15.9592 65.0269 15.9285 65.1203 15.0156 65.5246C12.5459 66.6183 9.482 70.2781 8.61642 73.1681C8.22798 74.4646 8.12728 74.545 6.6432 74.7421C3.84407 75.1133 1.00593 77.613 0.267054 80.3572C0.0493257 81.1667 -0.0440343 85.3195 0.0196504 91.3912C0.131682 102.12 0.122013 102.066 2.34798 104.261C3.74004 105.634 4.84835 106.219 6.58818 106.497L7.9569 106.716V133.652C7.9569 153.596 7.98824 154.689 8.61809 156.709C9.84844 160.651 13.3034 164.108 17.2445 165.338C19.2728 165.971 20.3628 166 42.6334 166C64.904 166 65.994 165.971 68.0223 165.338C71.9634 164.108 75.4184 160.651 76.6487 156.709C77.2912 154.648 77.3099 153.552 77.3099 117.968C77.3099 82.3831 77.2912 75.2868 76.6487 73.2268C75.4734 69.4606 71.9857 65.8501 68.427 64.7164C66.7372 64.178 66.7099 64.148 66.5038 62.5929C66.1394 59.8434 63.6674 57.0072 60.9856 56.262C59.3158 55.7977 54.6985 55.8778 53.2484 56.3958C50.6947 57.3084 48.4954 59.9128 48.1106 62.4802L47.8926 63.9355H45.2628H42.6334V62.0563C42.6334 59.1383 42.0366 57.6466 40.0823 55.68C39.1254 54.717 38.1111 53.9288 37.8287 53.9288C37.3719 53.9288 37.3052 51.2506 37.2235 29.6625C37.1395 7.44287 37.0835 5.30774 36.558 4.34743C35.8131 2.98618 34.164 1.34708 32.8603 0.672626C31.4582 -0.0525283 28.0993 -0.232649 26.5795 0.336066ZM124.946 0.336066C122.629 1.20298 120.609 3.32874 119.992 5.54924C119.792 6.27205 119.664 15.8845 119.663 30.3296C119.661 51.5205 119.607 53.9288 119.139 53.9288C118.852 53.9288 117.834 54.717 116.877 55.68C114.835 57.735 114.326 59.1243 114.326 62.642C114.326 65.0269 114.295 65.1203 113.382 65.5246C110.912 66.6183 107.849 70.2781 106.983 73.1681C106.595 74.4646 106.494 74.545 105.01 74.7421C102.211 75.1133 99.3725 77.613 98.6337 80.3572C98.4159 81.1667 98.3226 85.3195 98.3863 91.3912C98.4983 102.12 98.4886 102.066 100.715 104.261C102.107 105.634 103.215 106.219 104.955 106.497L106.324 106.716V133.652C106.324 153.596 106.355 154.689 106.985 156.709C108.215 160.651 111.67 164.108 115.611 165.338C117.639 165.971 118.729 166 141 166C163.271 166 164.361 165.971 166.389 165.338C170.33 164.108 173.785 160.651 175.015 156.709C175.658 154.648 175.676 153.552 175.676 117.968C175.676 82.3831 175.658 75.2868 175.015 73.2268C173.84 69.4606 170.352 65.8501 166.794 64.7164C165.104 64.178 165.076 64.148 164.87 62.5929C164.506 59.8434 162.034 57.0072 159.352 56.262C157.682 55.7977 153.065 55.8778 151.615 56.3958C149.061 57.3084 146.862 59.9128 146.477 62.4802L146.259 63.9355H143.629H141V62.0563C141 59.1383 140.403 57.6466 138.449 55.68C137.492 54.717 136.478 53.9288 136.195 53.9288C135.738 53.9288 135.672 51.2506 135.59 29.6625C135.506 7.44287 135.45 5.30774 134.925 4.34743C134.18 2.98618 132.531 1.34708 131.227 0.672626C129.825 -0.0525283 126.466 -0.232649 124.946 0.336066ZM28.0839 5.61962C27.6922 5.80908 27.2047 6.33143 27.0003 6.78006C26.7389 7.35412 26.6289 14.3585 26.6289 30.4286V53.2617H29.2963H31.9637V30.4286C31.9637 14.4052 31.8533 7.35312 31.5936 6.78273C31.2328 5.9912 30.0048 5.20634 29.1973 5.25204C28.9765 5.26438 28.4757 5.42982 28.0839 5.61962ZM126.451 5.61962C126.059 5.80908 125.571 6.33143 125.367 6.78006C125.105 7.35412 124.995 14.3585 124.995 30.4286V53.2617H127.663H130.33V30.4286C130.33 14.4052 130.22 7.35312 129.96 6.78273C129.599 5.9912 128.371 5.20634 127.564 5.25204C127.343 5.26438 126.842 5.42982 126.451 5.61962ZM72.1031 15.5759C70.7486 16.0617 71.0551 18.2117 71.8083 19.12C72.7243 20.2241 73.7829 20.3551 76.1162 19.654C83.0479 17.5706 91.7243 17.6346 97.9004 19.8144C99.5325 20.3905 100.738 19.9365 101.434 18.4839C101.832 17.6543 101.584 15.9064 100.5 15.5C90.5 11.75 80.6808 12.5 72.1031 15.5759ZM81.6825 23.6647C80.4211 23.8268 78.7326 24.2498 77.9301 24.605C75.5474 25.6594 75.1956 27.8942 77.1799 29.3715C78.0378 30.0103 78.0994 30.011 80.6808 29.4106C84.0255 28.6324 89.4357 28.631 92.6099 29.4076C94.7068 29.9206 94.9796 29.9239 95.7091 29.4456C97.758 28.1027 97.4102 25.7978 94.9816 24.6213C92.3388 23.3418 87.1203 22.9662 81.6825 23.6647ZM82.2513 34.4459C80.3804 35.2602 79.8356 37.6017 81.2247 38.8582C81.9069 39.475 84.5 38.5 87 38.5C89.5 38.5 92.4779 40 92.4779 37.1137C92.4779 35.5914 91.5563 34.6154 89.7984 34.2758C87.5251 33.8372 83.4386 33.9293 82.2513 34.4459ZM22.7491 58.9889C21.7972 59.4498 21.294 60.6466 21.294 62.4502V63.9355H29.2963H37.2986V62.4502C37.2986 60.5853 36.7897 59.4448 35.7458 58.9688C34.7058 58.4949 23.734 58.5115 22.7491 58.9889ZM121.116 58.9889C120.164 59.4498 119.661 60.6466 119.661 62.4502V63.9355H127.663H135.665V62.4502C135.665 60.5853 135.156 59.4448 134.112 58.9688C133.072 58.4949 122.101 58.5115 121.116 58.9889ZM54.7582 61.6573C54.1673 61.9435 53.3031 63.207 53.3031 63.7844C53.3031 63.8675 55.1036 63.9355 57.3042 63.9355C59.5048 63.9355 61.3054 63.8675 61.3054 63.7844C61.3054 63.164 60.4221 61.9425 59.7526 61.6373C58.7483 61.1797 55.7191 61.1917 54.7582 61.6573ZM153.125 61.6573C152.534 61.9435 151.67 63.207 151.67 63.7844C151.67 63.8675 153.47 63.9355 155.671 63.9355C157.871 63.9355 159.672 63.8675 159.672 63.7844C159.672 63.164 158.789 61.9425 158.119 61.6373C157.115 61.1797 154.086 61.1917 153.125 61.6573ZM19.2914 69.5796C16.9895 70.2925 15.2463 71.7518 14.08 73.9422C13.4845 75.061 13.4585 82.6446 13.4585 117.968C13.4585 153.291 13.4845 154.874 14.08 155.993C14.9499 157.627 16.2326 158.934 17.793 159.776C19.1234 160.494 19.1858 160.496 42.6334 160.496C66.081 160.496 66.1434 160.494 67.4738 159.776C69.0342 158.934 70.3169 157.627 71.1868 155.993C71.7823 154.874 71.8083 153.291 71.8083 117.968C71.8083 82.6446 71.7823 75.061 71.1868 73.9422C70.3169 72.3081 69.0342 71.0016 67.4738 70.159C66.1474 69.4432 66.0134 69.4389 43.1335 69.3798C30.4799 69.3475 19.7509 69.4372 19.2914 69.5796ZM117.658 69.5796C115.356 70.2925 113.613 71.7518 112.447 73.9422C111.851 75.061 111.825 82.6446 111.825 117.968C111.825 153.291 111.851 154.874 112.447 155.993C113.316 157.627 114.599 158.934 116.16 159.776C117.49 160.494 117.552 160.496 141 160.496C164.448 160.496 164.51 160.494 165.84 159.776C167.401 158.934 168.684 157.627 169.553 155.993C170.149 154.874 170.175 153.291 170.175 117.968C170.175 82.6446 170.149 75.061 169.553 73.9422C168.684 72.3081 167.401 71.0016 165.84 70.159C164.514 69.4432 164.38 69.4389 141.5 69.3798C128.847 69.3475 118.118 69.4372 117.658 69.5796ZM23.9068 75.0693C21.3777 75.9849 19.1511 78.596 18.7843 81.076C18.6726 81.8305 18.6293 86.6507 18.6873 91.7875C18.804 102.075 18.8043 102.076 21.0199 104.261C23.3796 106.589 22.1546 106.464 42.6334 106.464C63.1152 106.464 61.9719 106.58 64.2805 104.27C66.4985 102.051 66.4735 102.207 66.4735 90.62C66.4735 79.0329 66.4985 79.1887 64.2805 76.9699C61.9825 74.671 63.0358 74.7841 43.1335 74.7017C28.8688 74.6427 24.8747 74.7191 23.9068 75.0693ZM122.273 75.0693C119.744 75.9849 117.518 78.596 117.151 81.076C117.039 81.8305 116.996 86.6507 117.054 91.7875C117.171 102.075 117.171 102.076 119.387 104.261C121.746 106.589 120.521 106.464 141 106.464C161.482 106.464 160.338 106.58 162.647 104.27C164.865 102.051 164.84 102.207 164.84 90.62C164.84 79.0329 164.865 79.1887 162.647 76.9699C160.349 74.671 161.402 74.7841 141.5 74.7017C127.235 74.6427 123.241 74.7191 122.273 75.0693ZM6.74456 80.3365C6.35278 80.526 5.86531 81.0483 5.66092 81.4969C5.15277 82.6127 5.15177 98.625 5.65958 99.7405C5.96467 100.41 7.18568 101.294 7.80586 101.294C7.88888 101.294 7.9569 96.4906 7.9569 90.62C7.9569 84.7494 7.84454 79.9562 7.70683 79.9689C7.56912 79.9812 7.13633 80.1467 6.74456 80.3365ZM25.4165 80.3365C24.0971 80.9753 23.9614 81.9355 23.9614 90.62C23.9614 99.4299 24.0885 100.273 25.5142 100.924C26.6519 101.442 58.6149 101.442 59.7526 100.924C61.1783 100.273 61.3054 99.4299 61.3054 90.62C61.3054 81.8101 61.1783 80.9666 59.7526 80.3165C58.6653 79.8211 26.4421 79.8395 25.4165 80.3365ZM105.111 80.3365C104.719 80.526 104.232 81.0483 104.028 81.4969C103.519 82.6127 103.518 98.625 104.026 99.7405C104.331 100.41 105.552 101.294 106.172 101.294C106.255 101.294 106.324 96.4906 106.324 90.62C106.324 84.7494 106.211 79.9562 106.073 79.9689C105.936 79.9812 105.503 80.1467 105.111 80.3365ZM123.783 80.3365C122.464 80.9753 122.328 81.9355 122.328 90.62C122.328 99.4299 122.455 100.273 123.881 100.924C125.018 101.442 156.982 101.442 158.119 100.924C159.545 100.273 159.672 99.4299 159.672 90.62C159.672 81.8101 159.545 80.9666 158.119 80.3165C157.032 79.8211 124.809 79.8395 123.783 80.3365ZM29.342 118.424C23.8847 120.4 22.3233 127.736 26.5148 131.707C30.3946 135.383 36.53 134.313 39.0484 129.523C40.0537 127.61 40.0537 124.336 39.0484 122.423C37.1789 118.867 32.941 117.121 29.342 118.424ZM50.6813 118.424C45.2241 120.4 43.6627 127.736 47.8542 131.707C51.734 135.383 57.8694 134.313 60.3878 129.523C61.393 127.61 61.393 124.336 60.3878 122.423C58.5182 118.867 54.2804 117.121 50.6813 118.424ZM127.709 118.424C122.251 120.4 120.69 127.736 124.881 131.707C128.761 135.383 134.897 134.313 137.415 129.523C138.42 127.61 138.42 124.336 137.415 122.423C135.545 118.867 131.308 117.121 127.709 118.424ZM149.048 118.424C143.591 120.4 142.029 127.736 146.221 131.707C150.101 135.383 156.236 134.313 158.754 129.523C159.76 127.61 159.76 124.336 158.754 122.423C156.885 118.867 152.647 117.121 149.048 118.424ZM30.737 123.701C28.8955 124.592 29.0569 127.518 30.9921 128.32C33.9613 129.55 36.0155 125.014 33.0924 123.681C32.1064 123.232 31.7003 123.235 30.737 123.701ZM52.0764 123.701C50.2349 124.592 50.3963 127.518 52.3315 128.32C55.3007 129.55 57.3549 125.014 54.4317 123.681C53.4458 123.232 53.0397 123.235 52.0764 123.701ZM129.104 123.701C127.262 124.592 127.423 127.518 129.359 128.32C132.328 129.55 134.382 125.014 131.459 123.681C130.473 123.232 130.067 123.235 129.104 123.701ZM150.443 123.701C148.601 124.592 148.763 127.518 150.698 128.32C153.667 129.55 155.721 125.014 152.798 123.681C151.812 123.232 151.406 123.235 150.443 123.701ZM29.342 139.772C23.8847 141.747 22.3233 149.084 26.5148 153.055C30.3946 156.73 36.53 155.661 39.0484 150.871C40.0537 148.958 40.0537 145.683 39.0484 143.771C37.1789 140.215 32.941 138.469 29.342 139.772ZM50.6813 139.772C45.2241 141.747 43.6627 149.084 47.8542 153.055C51.734 156.73 57.8694 155.661 60.3878 150.871C61.393 148.958 61.393 145.683 60.3878 143.771C58.5182 140.215 54.2804 138.469 50.6813 139.772ZM127.709 139.772C122.251 141.747 120.69 149.084 124.881 153.055C128.761 156.73 134.897 155.661 137.415 150.871C138.42 148.958 138.42 145.683 137.415 143.771C135.545 140.215 131.308 138.469 127.709 139.772ZM149.048 139.772C143.591 141.747 142.029 149.084 146.221 153.055C150.101 156.73 156.236 155.661 158.754 150.871C159.76 148.958 159.76 145.683 158.754 143.771C156.885 140.215 152.647 138.469 149.048 139.772ZM30.737 145.049C28.8955 145.939 29.0569 148.866 30.9921 149.667C33.9613 150.898 36.0155 146.361 33.0924 145.029C32.1064 144.579 31.7003 144.583 30.737 145.049ZM52.0764 145.049C50.2349 145.939 50.3963 148.866 52.3315 149.667C55.3007 150.898 57.3549 146.361 54.4317 145.029C53.4458 144.579 53.0397 144.583 52.0764 145.049ZM129.104 145.049C127.262 145.939 127.423 148.866 129.359 149.667C132.328 150.898 134.382 146.361 131.459 145.029C130.473 144.579 130.067 144.583 129.104 145.049ZM150.443 145.049C148.601 145.939 148.763 148.866 150.698 149.667C153.667 150.898 155.721 146.361 152.798 145.029C151.812 144.579 151.406 144.583 150.443 145.049Z" fill="#CB0447"/>
</svg>
