<svg width="64" height="60" viewBox="0 0 64 60" fill="none" xmlns="http://www.w3.org/2000/svg">
<path fill-rule="evenodd" clip-rule="evenodd" d="M54.599 0.0531317C54.8814 0.105406 55.2804 0.235229 55.4854 0.341381C55.9775 0.596342 56.6687 1.31832 56.8573 1.77424C56.9786 2.06767 57.1382 2.1769 57.6731 2.33262C59.151 2.76314 60.4224 3.97827 61.0669 5.57622C61.344 6.26318 61.3457 6.30892 61.383 13.6336L61.4204 21.0001H62.4602H63.5L63.4993 22.4488C63.497 26.8631 62.0029 30.4686 58.984 33.3442C57.2271 35.0177 55.2602 36.1967 52.9594 36.9554L51.9567 37.2861L51.9024 39.2836C51.8405 41.5606 51.6692 42.2621 50.9777 43.0715C50.485 43.6481 50.0262 43.9128 49.307 44.0354L48.7933 44.1231L48.7147 46.2158C48.6329 48.3962 48.4736 49.3232 47.9031 50.941C45.0123 59.1372 35.8247 62.519 28.8674 57.9478C25.9404 56.0247 23.7808 52.8687 22.9571 49.3107C22.5764 47.6659 22.5185 45.801 22.5165 35.1167C22.5145 23.3487 22.529 23.6033 21.7707 22.0713C20.7892 20.0879 19.2973 18.8061 17.2906 18.2216C16.3192 17.9387 14.4981 18.0239 13.5214 18.3979C11.5329 19.1592 10.0382 20.7944 9.28178 23.0356C9.00623 23.8518 8.93854 24.3093 8.88673 25.7037L8.82409 27.3867L9.5017 27.5277C11.0253 27.8445 12.7107 28.9553 13.721 30.3084C14.5955 31.4797 15.0362 32.7555 15.1056 34.3168C15.2005 36.4465 14.6047 38.1228 13.2266 39.6042C11.7348 41.2076 10.0327 41.9592 7.89259 41.9592C6.47853 41.9592 5.55872 41.7449 4.43597 41.1539C2.44066 40.1035 1.14328 38.362 0.679188 36.1109C0.440804 34.9548 0.440434 34.4175 0.677094 33.2698C1.28247 30.3336 3.49523 28.0993 6.40789 27.4836L6.72701 27.4161L6.80454 25.7184C6.89893 23.6497 7.1815 22.4489 7.93406 20.9173C8.95577 18.8378 10.8872 17.1336 13.1035 16.3558C14.0006 16.041 14.2356 16.0109 15.7495 16.0173C17.2154 16.0235 17.5168 16.062 18.3102 16.3447C20.8192 17.239 22.7419 19.0755 23.8288 21.616C24.6198 23.465 24.6104 23.2985 24.6108 35.3889C24.611 42.613 24.6573 46.7133 24.7469 47.4456C25.3592 52.4507 28.6569 56.4398 33.1637 57.6271C34.3359 57.936 36.5744 57.9965 37.7172 57.7503C41.3341 56.971 44.4707 54.1723 45.8476 50.496C46.4154 48.98 46.6387 47.7046 46.6723 45.7863L46.7012 44.1272L46.1875 44.0376C45.4663 43.9116 45.0085 43.6469 44.5168 43.0715C43.8253 42.2621 43.654 41.5606 43.5921 39.2836L43.5378 37.2861L42.5351 36.9554C40.2343 36.1967 38.2674 35.0177 36.5105 33.3442C33.4916 30.4686 31.9975 26.8631 31.9953 22.4488L31.9945 21.0001H33.0234H34.0521L34.1138 13.7569L34.1754 6.51371L34.4897 5.61456C35.0114 4.12228 36.1663 2.94943 37.612 2.44333C38.2978 2.20316 38.4792 2.08037 38.6551 1.73689C39.1524 0.765864 40.1095 0.151393 41.2596 0.0644742C43.1409 -0.0774311 44.7065 1.5448 44.5118 3.43445C44.3018 5.47216 42.3255 6.69235 40.3352 6.01291C39.7649 5.81824 38.8273 4.99911 38.6944 4.57931C38.596 4.26899 38.2637 4.30067 37.7166 4.67276C37.1132 5.08294 36.8408 5.40115 36.5099 6.0822C36.2433 6.63083 36.24 6.71701 36.2041 13.8186L36.1678 21.0001H37.2013H38.2348L38.3035 22.757C38.3825 24.7799 38.6803 25.9364 39.4677 27.2784C41.7799 31.2185 47.1576 32.6344 51.5624 30.4627C53.0577 29.7255 54.5175 28.2623 55.2221 26.7947C55.9266 25.3271 56.1159 24.4314 56.1159 22.5642V21.0001H57.7158H59.3157V13.933C59.3157 6.19698 59.3176 6.21954 58.5869 5.33137C58.3928 5.09564 57.9538 4.74982 57.6113 4.56316L56.9885 4.2235L56.8019 4.58498C55.6252 6.86446 52.2042 6.73624 51.1609 4.37354C50.1631 2.11353 52.162 -0.398475 54.599 0.0531317ZM54.5298 2.19564C54.9965 2.45393 55.2037 3.02044 55.0063 3.49782C54.5775 4.5348 53.0392 4.22843 53.0392 3.10601C53.0392 2.34815 53.8788 1.83539 54.5298 2.19564ZM41.7169 2.10071C42.8175 2.50374 42.6325 4.10958 41.4855 4.10958C40.9434 4.10958 40.6724 3.94338 40.4882 3.49782C40.2862 3.0096 40.5033 2.44469 40.9897 2.19281C41.3568 2.00257 41.4252 1.99394 41.7169 2.10071ZM61.4078 23.573C61.4078 24.2791 61.0833 26.0119 60.793 26.8563C59.2804 31.2557 55.1828 34.6463 50.3612 35.4887C48.9873 35.7287 46.3306 35.7245 45.0455 35.4803C40.2021 34.5599 36.2043 31.2269 34.7015 26.8563C34.4112 26.0119 34.0867 24.2791 34.0867 23.573V23.096H35.1239H36.1611L36.2347 23.8049C36.7155 28.4406 39.7707 32.0303 44.2398 33.2104C45.7339 33.6049 47.9821 33.6677 49.4702 33.3566C52.7209 32.6769 55.258 30.9289 56.7838 28.3177C57.5983 26.9239 58.2081 24.8896 58.2081 23.5665V23.096H59.808H61.4078V23.573ZM8.84439 29.5106C10.2593 29.8059 11.8473 30.9584 12.4385 32.1192C13.3088 33.8284 13.2425 35.9421 12.2701 37.4722C11.4687 38.7336 10.0588 39.6487 8.61155 39.8469C4.63977 40.3909 1.55211 36.5465 2.95152 32.7996C3.43862 31.4952 4.6698 30.2499 5.94454 29.7721C6.72947 29.478 8.09663 29.3547 8.84439 29.5106ZM8.44836 31.615C10.8051 32.0517 11.7644 35.0579 10.1119 36.8274C9.5849 37.3919 8.66718 37.7652 7.81161 37.7635C4.49713 37.7568 3.54028 33.1549 6.58092 31.8451C7.22026 31.5697 7.81087 31.4968 8.44836 31.615ZM8.11928 33.6626C8.22081 33.6999 8.42842 33.8439 8.58078 33.9827C9.17914 34.528 8.74237 35.6715 7.93578 35.6715C7.35047 35.6715 7.15147 35.5684 6.93782 35.1544C6.6731 34.6417 6.81709 34.1088 7.30026 33.8137C7.70257 33.5679 7.80779 33.5486 8.11928 33.6626ZM49.8387 39.1852C49.8376 41.7885 49.6243 42.0825 47.7375 42.0825C46.6628 42.0825 46.495 42.0521 46.2093 41.8051C45.7854 41.4388 45.6616 40.8361 45.6581 39.1236L45.6551 37.7058H47.7473H49.8394L49.8387 39.1852Z" fill="#CB0447"/>
</svg>
