<svg width="66" height="60" viewBox="0 0 66 60" fill="none" xmlns="http://www.w3.org/2000/svg">
<path fill-rule="evenodd" clip-rule="evenodd" d="M58.1456 0.138939C57.3581 0.326092 56.1454 0.961604 55.5207 1.51482L55.0051 1.97127L48.3792 2.02727C42.012 2.08126 41.7128 2.09697 40.7186 2.43098C38.9853 3.01329 37.6995 4.03851 33.9629 7.8172L30.4929 11.3267H25.5096C20.9241 11.3267 20.4807 11.3502 19.954 11.6214C19.2967 11.9596 18.9965 12.2715 18.5902 13.038C18.3286 13.5315 18.2971 14.0522 18.2533 18.5997L18.2051 23.6169H12.8097C8.56358 23.6169 7.30861 23.6627 6.91796 23.8318C6.31284 24.0935 5.49589 24.9388 5.27372 25.5328C5.16988 25.8107 5.11002 27.9308 5.11002 31.3341C5.11002 36.3821 5.12807 36.7331 5.4172 37.3045C5.78811 38.0375 6.51341 38.6172 7.34718 38.8468C7.73552 38.9538 9.86654 39.0172 13.0944 39.0176L18.2244 39.0186V41.3521V43.6857L12.7858 43.6876C6.88756 43.6896 6.48256 43.7346 4.82412 44.5711C3.63858 45.169 2.02968 46.7933 1.42626 48.0013C-1.0266 52.9121 1.59443 58.5561 6.90453 59.7979C7.75234 59.9961 10.234 60.0228 24.3601 59.9859L40.8275 59.943L41.8327 59.5477C46.4986 57.713 48.5201 52.7095 46.4184 48.1973C45.8585 46.9949 44.1723 45.2245 42.9759 44.5828C41.4212 43.7487 40.8566 43.6857 34.9322 43.6857H29.4874V41.3521V39.0186H34.6279C40.5874 39.0186 41.0004 38.9559 41.8822 37.9173C42.1755 37.5717 42.4921 36.9821 42.5857 36.607C42.6945 36.1711 42.7561 33.8677 42.7561 30.2266V24.5284L40.6644 19.9216L38.5727 15.315L41.087 12.7764L43.6011 10.2377H49.3198H55.0386L55.5233 10.7434L56.0083 11.249L56.7107 24.8946C57.0972 32.3998 57.4134 38.648 57.4134 38.7795C57.4134 38.9854 57.0392 39.0186 54.7133 39.0186C52.219 39.0186 51.9898 39.0422 51.7047 39.3297C51.535 39.5008 51.3962 39.8159 51.3962 40.0298C51.3962 40.2437 51.535 40.5587 51.7047 40.7299C52.0019 41.0295 52.219 41.041 57.5676 41.041C61.9141 41.041 63.1197 41.0833 63.111 41.2355C63.105 41.3425 62.7059 42.5851 62.2239 43.9969L61.3477 46.5638H56.8733H52.399L49.8304 41.8189C47.0513 36.6851 46.832 36.3978 46.0347 36.8454C45.1677 37.3322 45.2757 37.6422 48.1753 42.9941C50.0984 46.5439 50.9677 48.0007 51.3093 48.2463C51.7678 48.5761 51.9269 48.5877 56.6871 48.6314C63.2554 48.6917 62.6739 49.0604 64.4265 43.7259C65.3776 40.831 65.4466 40.5326 65.2815 40.0284C65.0958 39.4607 64.4913 39.0186 63.9011 39.0186H63.5848V24.8464V10.6744L64.1969 9.97342C65.1259 8.90916 65.5 7.80133 65.5 6.11508C65.5 5.02359 65.4225 4.51782 65.1487 3.82086C64.7397 2.78024 63.5722 1.41899 62.5914 0.839479C61.3133 0.0841772 59.5471 -0.194141 58.1456 0.138939ZM58.3954 2.16184C57.5082 2.42118 56.4589 3.27418 55.9939 4.11427C54.1442 7.45658 57.2844 11.2174 60.8905 9.9784C62.3957 9.46128 63.5848 7.75621 63.5848 6.11508C63.5848 3.45029 60.9237 1.42303 58.3954 2.16184ZM41.7933 4.25724C40.2205 4.64166 39.7013 5.03059 36.5397 8.19399L33.486 11.249L34.706 11.3313C35.7396 11.401 36.0145 11.4815 36.5047 11.8585C36.8228 12.1032 37.2244 12.5449 37.3972 12.84L37.711 13.3766L40.1179 10.9591C41.4416 9.62945 42.7201 8.46827 42.959 8.3785C43.2302 8.2766 45.3337 8.21531 48.5588 8.21531H53.7245L53.6017 7.63191C53.4442 6.88299 53.4442 5.34718 53.6017 4.59826L53.7245 4.01486L48.2016 4.02777C44.0487 4.03757 42.4592 4.09451 41.7933 4.25724ZM60.6534 12.1349C60.3564 12.2219 59.6426 12.2597 59.0673 12.2193L58.0212 12.1455L58.109 13.2529C58.1937 14.3204 59.4191 38.1556 59.4191 38.7343C59.4191 38.9825 59.5561 39.0186 60.4991 39.0186H61.5791V25.4838C61.5791 14.7523 61.5391 11.952 61.3862 11.963C61.2803 11.9708 60.9504 12.0481 60.6534 12.1349ZM20.5489 13.7604C20.2298 14.1694 20.2283 14.233 20.2678 25.5449L20.3073 36.9183H30.2148C39.5177 36.9183 40.1391 36.9014 40.3978 36.6406C40.6497 36.3868 40.6771 35.9056 40.7175 31.0012L40.7619 25.6394H35.896H31.0303L31.0299 28.0896C31.0298 30.791 30.8996 31.3036 30.0553 31.929C29.6727 32.2123 29.3561 32.2573 27.4284 32.301C25.381 32.3475 25.2087 32.3288 24.8162 32.0175C24.314 31.6191 24.2691 31.0567 24.7045 30.6177C24.9814 30.3384 25.2187 30.3065 27.0188 30.3065H29.0245V21.8279V13.3492H24.9472H20.8697L20.5489 13.7604ZM31.0303 18.4831V23.6169H35.5762H40.1222L39.8356 22.9558C38.3328 19.4901 35.6004 13.6981 35.3952 13.5436C35.219 13.4108 34.4858 13.3492 33.0837 13.3492H31.0303V18.4831ZM7.45873 25.8816C7.11606 26.1235 7.11575 26.1291 7.11807 31.2099C7.11945 34.0073 7.17145 36.3731 7.23378 36.4672C7.553 36.9491 8.0765 36.9961 13.1228 36.9961H18.2244V31.3178V25.6394H13.0131C8.54599 25.6394 7.75265 25.6739 7.45873 25.8816ZM9.87317 28.5408C9.7195 28.7273 9.64791 29.45 9.61212 31.1818C9.56305 33.5536 9.56475 33.5679 9.95232 33.9586C10.4005 34.4107 10.7611 34.4525 11.2471 34.1092C11.5776 33.8758 11.5901 33.7753 11.5901 31.333C11.5901 29.0756 11.5592 28.7709 11.3079 28.5416C10.9452 28.2105 10.146 28.21 9.87317 28.5408ZM14.0054 28.5686C13.7901 28.8085 13.7501 29.2457 13.7501 31.3601C13.7501 33.7744 13.7627 33.876 14.0931 34.1092C14.5968 34.465 15.0742 34.4054 15.436 33.9415C15.7265 33.5692 15.7558 33.3226 15.7558 31.2537C15.7558 29.4436 15.7065 28.9045 15.5156 28.6299C15.2129 28.194 14.3723 28.1598 14.0054 28.5686ZM20.2646 41.3133L20.3073 43.6079H23.8559H27.4045L27.4472 41.3133L27.4898 39.0186H23.8559H20.222L20.2646 41.3133ZM6.96146 45.8555C4.45538 46.639 2.7252 48.7849 2.53296 51.3486C2.33501 53.9871 3.68502 56.2447 6.17105 57.4324L7.19289 57.9206H23.8559H40.5189L41.4115 57.5573C42.6521 57.0525 44.0052 55.7553 44.6333 54.4689C45.036 53.644 45.1397 53.2187 45.1944 52.1672C45.3115 49.9179 44.406 48.0265 42.6049 46.7577C41.0336 45.6508 42.0488 45.7066 23.7892 45.7215C14.7462 45.7289 7.17361 45.7892 6.96146 45.8555ZM7.18719 47.9781C6.29679 48.2969 5.5539 48.971 5.03504 49.931C4.66521 50.6151 4.5856 50.9453 4.59038 51.7755C4.59717 52.9648 4.86995 53.6847 5.63953 54.5436C6.43874 55.4356 7.34055 55.8211 8.61835 55.8169C10.2689 55.8115 11.4864 55.0671 12.2217 53.6137C13.8462 50.4027 10.5914 46.7594 7.18719 47.9781ZM37.736 47.9781C34.9314 48.9822 34.2209 52.778 36.4564 54.8144C37.3013 55.584 37.9294 55.8203 39.1303 55.8203C40.3472 55.8203 41.0876 55.5358 41.882 54.7626C43.0738 53.6028 43.4521 52.1968 42.9969 50.618C42.3702 48.4445 39.8982 47.204 37.736 47.9781ZM15.0546 48.5792C14.8463 48.7893 14.6758 49.0388 14.6758 49.1339C14.6758 49.3736 14.9953 49.9627 15.2004 50.1007C15.2937 50.1636 19.2062 50.216 23.8945 50.2174C32.2147 50.2198 32.4262 50.2123 32.7274 49.9086C33.1401 49.4925 33.1164 49.0421 32.6572 48.5792L32.2786 48.1973H23.8559H15.4332L15.0546 48.5792ZM7.81004 49.9015C7.02842 50.2274 6.43041 51.3287 6.58469 52.1579C6.86133 53.6445 8.83034 54.3673 9.92547 53.3839C10.3029 53.0449 10.6644 52.2405 10.6644 51.7392C10.6644 50.4397 9.03477 49.3906 7.81004 49.9015ZM38.3589 49.9015C37.5773 50.2274 36.9793 51.3287 37.1335 52.1579C37.4102 53.6445 39.3792 54.3673 40.4743 53.3839C40.8517 53.0449 41.2132 52.2405 41.2132 51.7392C41.2132 50.4397 39.5836 49.3906 38.3589 49.9015ZM15.0546 53.7131C14.8463 53.9231 14.6758 54.1727 14.6758 54.2677C14.6758 54.5075 14.9953 55.0966 15.2004 55.2346C15.2937 55.2975 19.2062 55.3499 23.8945 55.3513C32.2147 55.3536 32.4262 55.3462 32.7274 55.0425C33.1401 54.6263 33.1164 54.1759 32.6572 53.7131L32.2786 53.3312H23.8559H15.4332L15.0546 53.7131Z" fill="#CB0447"/>
</svg>
