<svg width="78" height="51" viewBox="0 0 78 51" fill="none" xmlns="http://www.w3.org/2000/svg">
<path fill-rule="evenodd" clip-rule="evenodd" d="M14.4468 0.303559C14.162 0.586779 14.1415 0.809439 14.1415 3.63071V6.65416L11.3559 6.70425C7.21973 6.77847 7.42549 6.47461 7.42549 12.5068V16.8475H5.42946H3.43343L2.98727 17.2912C2.54172 17.7342 2.54111 17.7375 2.54111 19.6321C2.54111 21.4413 2.55912 21.5505 2.92789 21.9865C3.14067 22.238 3.46685 22.4652 3.65292 22.4914C3.98918 22.5389 3.99147 22.5594 4.03222 25.9163L4.07328 29.2934H2.80884C1.32231 29.2934 0.659406 29.5681 0.215997 30.3676C-0.162237 31.0495 -0.0727921 31.7082 0.716645 34.0576C1.63964 36.8042 3.15929 39.4837 5.19409 41.9518C5.66895 42.5278 6.09755 43.1582 6.1467 43.3526C6.20928 43.6009 5.92965 44.3505 5.20646 45.8721C4.64017 47.0634 4.11892 48.2393 4.0481 48.4852C3.86554 49.1179 4.13067 49.9453 4.68566 50.4739L5.15593 50.922L35.8017 50.961L66.4475 51L66.9677 50.653C67.4307 50.3443 68.0678 49.0847 72.7449 39.2306C77.3156 29.6008 78.0015 28.0629 78 27.449C77.9982 26.6646 77.7004 26.1012 77.0709 25.6908C76.7027 25.4507 76.1233 25.4183 71.4636 25.3771C67.9638 25.3461 66.0427 25.3869 65.5801 25.5023C64.4243 25.7905 63.6549 26.5508 63.2805 27.7747C63.2165 27.9839 63.1582 26.5262 63.151 24.5353C63.1365 20.5163 63.0704 20.1835 62.1815 19.6488C61.7266 19.3752 61.3368 19.3482 57.2232 19.3054L52.7586 19.2591V14.7349V10.2107L52.3563 9.81041L51.9538 9.41032L41.4046 9.41518C33.3525 9.41882 30.7978 9.46375 30.613 9.6049C30.024 10.0546 30.0157 10.1971 30.0157 19.8731V29.2934H28.1841H26.3524V25.9562V22.6192L26.8748 22.4022C27.7927 22.0208 27.9107 21.6703 27.8533 19.4977C27.8033 17.6111 27.7955 17.5733 27.3742 17.2135C26.9696 16.8677 26.8377 16.8475 24.9786 16.8475H23.0112L22.9647 12.3321C22.9154 7.55664 22.8995 7.44857 22.1705 6.96637C21.933 6.80928 21.1263 6.74113 19.064 6.70425L16.2784 6.65416V3.63071C16.2784 0.809439 16.258 0.586779 15.9731 0.303559C15.8036 0.134932 15.4644 0 15.21 0C14.9555 0 14.6164 0.134932 14.4468 0.303559ZM9.71504 12.9012V16.8475H15.21H20.7049V12.9012V8.95498H15.21H9.71504V12.9012ZM32.2545 11.6365C32.1984 11.692 32.1526 13.4337 32.1526 15.5068V19.276H36.1975H40.2424V15.4056V11.5352H36.2993C34.1305 11.5352 32.3103 11.5808 32.2545 11.6365ZM42.5319 15.4056V19.276H46.5768H50.6217V15.4056V11.5352H46.5768H42.5319V15.4056ZM4.83066 19.6554V20.3384H6.28071C7.90721 20.3384 8.34131 20.5561 8.34131 21.3719C8.34131 22.0771 8.00994 22.3667 7.09854 22.4576L6.28071 22.5392L6.23965 25.9163L6.1986 29.2934H15.21H24.2213L24.1803 25.9163L24.1392 22.5392L18.0595 22.4633C12.2647 22.3909 11.9696 22.3736 11.7633 22.0929C11.4412 21.6547 11.5 21.0421 11.8999 20.6684C12.2516 20.34 12.2851 20.3384 18.9212 20.3384H25.5893V19.6554V18.9724H15.21H4.83066V19.6554ZM32.2545 21.6539C32.1984 21.7095 32.1526 23.4511 32.1526 25.5243V29.2934H36.1975H40.2424V25.423V21.5527H36.2993C34.1305 21.5527 32.3103 21.5982 32.2545 21.6539ZM42.5319 25.423V29.2934H46.5768H50.6217V25.423V21.5527H46.5768H42.5319V25.423ZM52.8604 21.6539C52.8044 21.7095 52.7586 23.4511 52.7586 25.5243V29.2934H56.8035H60.8484V25.423V21.5527H56.9053C54.7365 21.5527 52.9163 21.5982 52.8604 21.6539ZM65.6801 27.9015C65.5412 28.0541 65.4259 28.3785 65.4241 28.6224C65.4157 29.7255 64.3117 31.0967 63.1802 31.4092C62.7868 31.5177 53.0149 31.5687 32.4321 31.5692L2.26057 31.5701L2.64292 32.8223C3.40748 35.3256 5.21729 38.5538 7.03443 40.6553C7.42122 41.1028 7.80723 41.5979 7.89225 41.7557C8.04275 42.0355 8.62857 42.0429 30.3263 42.0429C52.4025 42.0429 52.6087 42.0456 52.9112 42.3464C53.3011 42.7341 53.315 43.5768 52.9373 43.9166C52.6803 44.1479 50.9042 44.1678 30.4997 44.1678C12.8751 44.1678 8.34116 44.2067 8.34055 44.3575C8.34024 44.4619 7.93484 45.3775 7.43968 46.392C6.94453 47.4066 6.49379 48.38 6.43793 48.5548L6.33643 48.873H36.0113H65.6862L66.7188 46.7101C67.2866 45.5206 67.7851 44.4619 67.8268 44.3575C67.8863 44.2079 66.7562 44.1678 62.4785 44.1678H57.0546L56.7383 43.7679C56.3395 43.2638 56.3392 42.9473 56.7368 42.4445L57.0518 42.0464L63.0106 42.0068L68.9694 41.967L72.3054 34.9093C74.1403 31.0275 75.6444 27.8004 75.6479 27.7377C75.6512 27.675 73.4668 27.6238 70.7934 27.6238C66.2783 27.6238 65.9147 27.6436 65.6801 27.9015Z" fill="#CB0447"/>
</svg>
