<svg width="46" height="62" viewBox="0 0 46 62" fill="none" xmlns="http://www.w3.org/2000/svg">
<path fill-rule="evenodd" clip-rule="evenodd" d="M19.5617 0.0321287C12.1605 0.478769 8.20562 1.46419 6.48778 3.28943C5.52263 4.31498 5.37496 5.44346 6.12331 6.0762C6.76574 6.61946 7.75393 6.39093 8.03322 5.63453C8.37452 4.70997 8.66165 4.50083 10.2955 3.9863C11.4371 3.62683 13.4479 3.1717 13.5286 3.25463C13.6667 3.39648 15.2748 7.64332 15.2138 7.70466C15.1722 7.74649 14.1247 7.81742 12.8861 7.86227C4.50766 8.16561 1.66674 9.39448 0.713538 13.1278C0.514115 13.9088 0.5 15.1197 0.5 31.4828C0.5 48.3349 0.508807 49.0362 0.730671 49.9109C1.17826 51.6753 2.01456 53.1796 3.25344 54.4486C4.06513 55.2802 5.21571 56.0836 6.05756 56.4066C6.35181 56.5196 6.59032 56.6455 6.58755 56.6864C6.58489 56.7274 5.63989 57.4066 4.48751 58.196C3.33524 58.9852 2.2766 59.7548 2.13508 59.9062C1.30023 60.7993 2.16186 62.264 3.33512 61.946C3.56736 61.8831 5.37991 60.7043 7.36316 59.3265L10.9688 56.8215H23H35.0312L38.6368 59.324C40.6201 60.7004 42.4203 61.8829 42.6374 61.9518C43.4514 62.21 44.3429 61.3869 44.1821 60.5258C44.0852 60.0065 43.7987 59.7571 41.3981 58.1023C40.2701 57.3246 39.3313 56.643 39.3117 56.5876C39.2923 56.5321 39.4678 56.4506 39.7018 56.4065C39.9357 56.3625 40.6086 56.0841 41.1973 55.7879C43.3186 54.7208 44.6818 52.8455 45.2935 50.1534C45.4833 49.3175 45.5 47.8209 45.5 31.604C45.5 15.125 45.486 13.9089 45.2865 13.1278C44.6008 10.4425 42.7575 9.03088 39.0981 8.38881C37.55 8.11712 34.2863 7.84494 32.5308 7.84106C31.7014 7.83924 30.9518 7.79244 30.8651 7.73716C30.7429 7.65932 30.9015 7.14794 31.5697 5.46589C32.044 4.27181 32.4508 3.27585 32.4736 3.25233C32.5516 3.17231 35.0014 3.75231 36.0021 4.08765C37.0463 4.43767 37.8391 4.93802 37.8391 5.24705C37.8391 5.58191 38.18 6.09547 38.4993 6.24169C39.0007 6.47131 39.4772 6.41397 39.8767 6.0762C40.8894 5.21989 40.2225 3.47201 38.4878 2.43567C36.6436 1.33386 34.1921 0.728034 29.6817 0.259571C27.9864 0.0834123 21.2281 -0.0683775 19.5617 0.0321287ZM19.7225 2.63207C18.6164 2.67996 17.3604 2.75683 16.9313 2.80302L16.151 2.88704L17.1155 5.30355L18.08 7.72018H23H27.92L28.8823 5.30925L29.8446 2.89831L29.1399 2.81817C28.2255 2.71427 23.5313 2.50974 22.5174 2.52975C22.0861 2.53824 20.8284 2.58431 19.7225 2.63207ZM14.4946 10.3834C9.49988 10.5331 7.09232 10.8045 5.45314 11.4024C4.42405 11.7778 3.88465 12.2265 3.48894 13.0365L3.15416 13.7215L3.12243 31.2946C3.08744 50.6288 3.0416 49.3358 3.81769 50.8808C4.49559 52.2303 5.57438 53.3149 6.8941 53.974C7.36666 54.2099 7.68673 54.2156 22.3365 54.2497C32.6444 54.2737 37.5336 54.2437 38.0594 54.1535C40.363 53.7585 41.8776 52.5464 42.5645 50.5476L42.8458 49.7291V31.7253V13.7215L42.5111 13.0365C41.757 11.4933 40.1429 10.9298 35.4387 10.5671C32.6482 10.352 19.413 10.2359 14.4946 10.3834ZM8.58311 15.6478C7.30924 15.9662 6.40513 16.6319 5.92497 17.6051C5.69756 18.0659 5.68622 18.4104 5.65401 25.8326C5.61757 34.2314 5.62204 34.299 6.28147 35.3465C6.67417 35.9704 7.51578 36.7158 8.22118 37.0646L8.8244 37.3628H22.9397H37.055L37.7396 37.0403C38.6982 36.5887 39.4554 35.8437 39.9202 34.8949L40.3123 34.0945V26.0903V18.086L39.9627 17.4519C39.5847 16.7665 38.7933 16.1342 37.8391 15.7555C37.331 15.5538 36.3961 15.5387 23.2413 15.5186C12.3816 15.502 9.04916 15.5313 8.58311 15.6478ZM9.42761 18.0837C9.36126 18.1066 9.17016 18.1554 9.00295 18.192C8.83574 18.2286 8.57792 18.3719 8.42989 18.5103L8.16086 18.7623V26.1351V33.508L8.4352 33.917C8.58601 34.142 8.89365 34.4508 9.11877 34.6033L9.52811 34.8805L23.0597 34.8487L36.5912 34.8168L37.047 34.4674C37.8625 33.8423 37.8391 34.0881 37.8391 26.1442C37.8391 21.462 37.7961 18.8986 37.7149 18.7462C37.6466 18.6178 37.4159 18.4169 37.2021 18.2994C36.8385 18.0996 35.9432 18.0846 23.181 18.0639C15.683 18.0518 9.49397 18.0607 9.42761 18.0837ZM10.0735 41.4307C9.0804 41.5476 7.8993 42.148 7.15771 42.9129C4.00336 46.167 6.21548 51.5978 10.7074 51.6274C13.5978 51.6465 15.8794 49.3917 15.8794 46.5163C15.8794 43.4031 13.2071 41.0624 10.0735 41.4307ZM34.7024 41.3988C32.1807 41.6149 30.1206 43.9157 30.1206 46.5163C30.1206 49.3917 32.4022 51.6465 35.2926 51.6274C38.4316 51.6067 40.7757 48.7877 40.2514 45.6639C39.8036 42.9959 37.4227 41.1659 34.7024 41.3988ZM9.73007 44.1634C7.72618 45.0367 7.74331 48.0291 9.75721 48.8746C11.4245 49.5747 13.3432 48.3129 13.3432 46.5163C13.3432 44.7161 11.3863 43.4417 9.73007 44.1634ZM34.1595 44.2002C32.1311 45.1439 32.1842 48.0085 34.2461 48.874C34.8188 49.1144 35.6712 49.1147 36.2428 48.8746C38.2713 48.0229 38.2713 45.0097 36.2428 44.158C35.6451 43.907 34.7508 43.9251 34.1595 44.2002Z" fill="#CB0447"/>
</svg>
