<svg width="190" height="190" viewBox="0 0 190 190" fill="none" xmlns="http://www.w3.org/2000/svg">
<rect width="190" height="190" rx="11" transform="matrix(-1 0 0 1 190 0)" fill="url(#paint0_linear_530_47)"/>
<path fill-rule="evenodd" clip-rule="evenodd" d="M35.0918 127.594C35.0918 140.881 44.8988 147.519 54.755 147.519C64.5574 147.519 74.3661 140.882 74.3661 127.594C74.3661 114.306 64.5574 107.669 54.755 107.669C44.8988 107.669 35.0918 114.307 35.0918 127.594ZM42.8234 127.594C42.8234 119.539 48.7631 115.558 54.755 115.558C60.698 115.558 66.6868 119.539 66.6868 127.594C66.6868 135.649 60.698 139.631 54.755 139.631C48.7631 139.631 42.8234 135.649 42.8234 127.594Z" fill="white"/>
<path fill-rule="evenodd" clip-rule="evenodd" d="M136.385 131.466H148.955C149.674 131.466 150.258 130.882 150.258 130.163V125.026C150.258 124.306 149.674 123.723 148.955 123.723H136.385V116.127C136.385 115.906 136.436 115.717 136.563 115.59C136.69 115.463 136.879 115.412 137.1 115.412H153.044C153.509 115.412 153.877 115.244 154.138 114.983C154.4 114.721 154.568 114.353 154.568 113.889V109.193C154.568 108.728 154.4 108.36 154.138 108.099C153.877 107.837 153.509 107.669 153.044 107.669H129.729C129.264 107.669 128.896 107.837 128.634 108.098C128.373 108.36 128.205 108.728 128.205 109.193V145.996C128.205 146.46 128.373 146.829 128.634 147.09C128.896 147.351 129.264 147.519 129.729 147.519H153.044C153.509 147.519 153.877 147.351 154.138 147.09C154.4 146.829 154.568 146.46 154.568 145.996V141.3C154.568 140.835 154.399 140.467 154.138 140.206C153.877 139.945 153.509 139.776 153.044 139.776H137.1C136.879 139.776 136.69 139.725 136.563 139.598C136.436 139.471 136.385 139.282 136.385 139.061V131.466Z" fill="white"/>
<path fill-rule="evenodd" clip-rule="evenodd" d="M139.117 80.4607C139.162 80.5081 139.217 80.5674 139.259 80.624C139.261 80.6265 146.173 91.675 146.173 91.675C146.537 92.2978 147.245 92.6694 147.962 92.6694H154.187C154.742 92.6694 155.095 92.4149 155.274 92.1174C155.448 91.8278 155.53 91.3921 155.221 90.8514C155.216 90.842 155.21 90.8327 155.205 90.8235L144.448 73.6231C144.446 73.6201 144.444 73.6173 144.442 73.6143C144.116 73.1067 144.116 72.3814 144.442 71.8737C144.444 71.8708 144.446 71.868 144.448 71.865L155.205 54.6648C155.21 54.6556 155.216 54.6463 155.221 54.6368C155.53 54.0961 155.448 53.6605 155.274 53.3709C155.095 53.0735 154.742 52.8188 154.187 52.8188H147.962C147.243 52.8188 146.532 53.1932 146.169 53.8204C146.173 53.8133 139.261 64.8617 139.261 64.8617C139.218 64.9195 139.163 64.9797 139.116 65.0276C139.071 64.9802 139.017 64.9209 138.974 64.8644C138.972 64.8618 132.06 53.8132 132.06 53.8132C131.696 53.1904 130.988 52.8188 130.271 52.8188H124.046C123.413 52.8188 123.077 53.1098 122.919 53.4066C122.769 53.6866 122.713 54.1141 123.012 54.6368C123.017 54.6463 123.023 54.6556 123.028 54.6648L133.785 71.865C133.787 71.8679 133.789 71.8708 133.791 71.8736C134.117 72.3814 134.117 73.1068 133.791 73.6145C133.789 73.6173 133.787 73.6202 133.785 73.6231L123.028 90.8235C123.023 90.8327 123.017 90.842 123.012 90.8514C122.713 91.3741 122.769 91.8017 122.919 92.0817C123.077 92.3785 123.413 92.6694 124.046 92.6694H130.271C130.991 92.6694 131.701 92.2951 132.064 91.6677C132.06 91.6751 138.972 80.6265 138.972 80.6265C139.016 80.5687 139.07 80.5086 139.117 80.4607Z" fill="white"/>
<path fill-rule="evenodd" clip-rule="evenodd" d="M85.0137 72.7444C85.0137 83.0903 91.8397 93.4887 105.539 93.4887C110.501 93.4887 113.808 92.281 116.889 89.8897C117.566 89.4187 117.711 88.4981 117.246 87.8005C117.24 87.7919 117.234 87.7833 117.228 87.7749L114.233 83.6354C113.979 83.2631 113.621 83.062 113.244 83.0148C112.881 82.9694 112.48 83.0653 112.117 83.3675C112.117 83.3676 112.117 83.3676 112.117 83.3677C110.905 84.3778 108.877 85.3633 105.594 85.3633C97.5252 85.3633 93.5076 79.0458 93.5076 72.7444C93.5076 66.443 97.5252 60.1254 105.594 60.1254C108.289 60.1254 110.576 61.1426 112.102 62.2613C112.105 62.2633 112.107 62.2654 112.11 62.2674C112.515 62.5562 112.903 62.6293 113.249 62.5715C113.596 62.5137 113.939 62.3187 114.228 61.9141C114.229 61.9122 114.231 61.9103 114.232 61.9084L117.181 57.7039C117.184 57.6987 117.188 57.6933 117.192 57.688C117.67 56.9695 117.592 56.0261 116.754 55.5473C113.302 53.5663 109.503 52 105.539 52C91.8397 52 85.0137 62.3415 85.0137 72.7444Z" fill="white"/>
<path fill-rule="evenodd" clip-rule="evenodd" d="M44.9347 73.0851L54.9774 89.9825C55.3419 90.6158 55.9927 91.0419 56.718 91.0419H57.4825C58.208 91.0419 58.8589 90.6156 59.2233 89.9822L69.2547 73.0144L72.1297 91.2614C72.2436 92.1235 72.8879 92.6694 73.7542 92.6694H78.7777C79.2853 92.6694 79.6495 92.471 79.8874 92.1854C80.1146 91.9129 80.2464 91.5292 80.1859 91.0448C80.1855 91.0418 80.1851 91.0388 80.1847 91.0357L75.7002 54.1779C75.6999 54.1761 75.6997 54.1743 75.6995 54.1725C75.5868 53.3855 75.0288 52.8188 74.1294 52.8188H71.0295C70.6214 52.8188 70.1874 53.0465 69.9156 53.4542C69.8988 53.4793 69.8835 53.5053 69.8697 53.5321L57.1003 78.2497L44.3863 53.6426C44.1513 53.1818 43.5849 52.8188 43.0073 52.8188H39.7436C39.1483 52.8188 38.6661 53.2225 38.5173 53.8174C38.5101 53.8465 38.5044 53.8759 38.5004 53.9056L34.0157 91.0365C34.0154 91.0394 34.015 91.0422 34.0146 91.0451C33.9542 91.5294 34.0861 91.9129 34.3131 92.1854C34.5511 92.471 34.9152 92.6694 35.4229 92.6694H40.4463C41.3149 92.6694 41.9604 92.1205 42.0718 91.2537L44.9347 73.0851Z" fill="white"/>
<path fill-rule="evenodd" clip-rule="evenodd" d="M91.0784 123.281C93.1662 125.397 95.2817 127.51 97.4096 129.628C102.509 134.788 108.174 140.516 113.231 145.833C117.001 149.796 120.027 145.925 120.027 142.913C120.027 137.627 120.082 130.787 120.115 127.122C120.124 126.166 119.698 126.045 119.32 126.923C116.982 132.357 113.359 133.624 110.838 131.907C108.75 129.792 106.635 127.678 104.507 125.56C99.4075 120.401 93.7424 114.673 88.6852 109.356C84.9158 105.393 81.889 109.263 81.889 112.275C81.889 117.562 81.8342 124.401 81.8009 128.066C81.7923 129.022 82.2182 129.143 82.596 128.266C84.9347 122.832 88.5572 121.564 91.0784 123.281Z" fill="white"/>
<path fill-rule="evenodd" clip-rule="evenodd" d="M87.1228 136.875C84.1835 136.875 81.8008 139.257 81.8008 142.197C81.8008 145.136 84.1835 147.519 87.1228 147.519C90.0619 147.519 92.4446 145.136 92.4446 142.197C92.4446 139.257 90.0619 136.875 87.1228 136.875Z" fill="#CB0447"/>
<path fill-rule="evenodd" clip-rule="evenodd" d="M114.793 107.669C111.853 107.669 109.471 110.052 109.471 112.991C109.471 115.93 111.853 118.313 114.793 118.313C117.732 118.313 120.115 115.93 120.115 112.991C120.115 110.052 117.732 107.669 114.793 107.669Z" fill="#FFD500"/>
<defs>
<linearGradient id="paint0_linear_530_47" x1="173.558" y1="4.57697" x2="-18.5641" y2="196.699" gradientUnits="userSpaceOnUse">
<stop stop-color="#334182"/>
<stop offset="1" stop-color="#131C4A"/>
</linearGradient>
</defs>
</svg>
