<svg width="58" height="60" viewBox="0 0 58 60" fill="none" xmlns="http://www.w3.org/2000/svg">
<path fill-rule="evenodd" clip-rule="evenodd" d="M16.6794 0.194161C15.7611 0.517498 15.0298 1.04945 14.576 1.7239C14.2079 2.27111 14.1473 2.30707 13.3898 2.4306C12.3911 2.59333 11.5623 2.9824 10.9668 3.56805C10.0834 4.43685 9.6031 5.9016 9.83842 7.00841C10.115 8.30846 10.1029 8.48011 9.5263 11.4642C8.89666 14.7228 8.89691 15.0226 9.5287 15.1785C9.72353 15.2266 10.7924 15.0998 12.0707 14.8766C14.1622 14.5118 14.297 14.5022 14.6709 14.6941C15.1699 14.9501 16.7923 15.0495 17.4811 14.8663C18.2071 14.6735 19.1365 14.0303 19.6494 13.3661L20.0803 12.808L20.9776 12.8496C22.6651 12.9277 24.1781 12.0409 24.9275 10.5345C25.213 9.96061 25.2751 9.66121 25.291 8.78261C25.3075 7.8663 25.3583 7.63971 25.6671 7.10801C25.9647 6.59565 26.0331 6.31374 26.0766 5.41914C26.1236 4.45062 26.0945 4.27016 25.7789 3.57834C25.0865 2.06113 23.582 1.15847 21.8634 1.22891C21.034 1.26302 20.9364 1.23945 20.5388 0.908925C19.5251 0.0664141 17.8979 -0.23497 16.6794 0.194161ZM17.4381 1.70604C16.6383 1.88712 15.6327 2.79189 15.6327 3.33029C15.6327 3.44601 15.5259 3.67037 15.3953 3.82888C15.1814 4.08871 15.0525 4.11773 14.0936 4.1217C13.1804 4.12555 12.9666 4.16858 12.5858 4.42507C11.5845 5.09952 11.2369 6.22097 11.6656 7.39351L11.8905 8.00893L11.3876 10.6875C11.0719 12.369 10.9352 13.3649 11.0203 13.3629C11.0949 13.3612 11.9155 13.2277 12.8439 13.0664L14.5318 12.7729L15.1769 13.0683C15.5316 13.2308 16.0451 13.3643 16.318 13.3649C17.346 13.3674 18.3935 12.5719 18.673 11.5763C18.7418 11.3312 18.9424 11.0381 19.1197 10.9239C19.3959 10.7459 19.4975 10.7392 19.8385 10.8762C21.1303 11.3953 21.9831 11.3052 22.8209 10.5606C23.4787 9.97624 23.6254 9.48745 23.5193 8.23404C23.4391 7.28747 23.4521 7.20289 23.7124 6.97505C24.1165 6.62108 24.4542 5.81962 24.4574 5.20643C24.4643 3.86447 23.1209 2.66886 21.8345 2.87214C20.2286 3.12577 20.3895 3.15268 19.798 2.53206C19.1254 1.8261 18.2542 1.52124 17.4381 1.70604ZM5.11687 18.1451C5.01057 18.2497 4.89455 18.5147 4.85911 18.7342C4.82368 18.9538 4.39353 23.5933 3.90323 29.0445C3.41293 34.4957 2.98492 38.9984 2.95213 39.0506C2.91935 39.1027 2.41164 39.4032 1.82374 39.7184C1.23583 40.0336 0.697482 40.3968 0.627367 40.5255C0.544894 40.6772 0.5 44.0399 0.5 50.0754V59.3912L0.809591 59.6955L1.11906 60H29H56.8809L57.1904 59.6955L57.5 59.3912V44.9903C57.5 34.3794 57.4618 30.5182 57.355 30.3185C57.1692 29.9715 57.0033 29.8658 56.6397 29.8635C56.4787 29.8625 52.4926 32.0104 47.7816 34.6366C43.0708 37.2629 39.1876 39.4116 39.1524 39.4116C39.1172 39.4116 39.0885 37.4266 39.0885 35.0005C39.0885 30.035 39.0606 29.8689 38.2256 29.8635C38.0631 29.8625 34.0753 32.0104 29.3637 34.6366C24.6521 37.2629 20.7701 39.4116 20.737 39.4116C20.704 39.4116 20.677 37.41 20.677 34.9634C20.677 30.651 20.669 30.5052 20.4156 30.1884C20.2555 29.9882 20.0298 29.8616 19.8333 29.8616C19.6568 29.8616 18.4061 30.4786 17.054 31.2326C15.7018 31.9867 14.58 32.5867 14.561 32.5659C14.5419 32.5452 14.2062 29.4585 13.8149 25.7067C13.4237 21.9549 13.0722 18.7314 13.0338 18.5432C12.9955 18.3551 12.8589 18.1457 12.7303 18.0781C12.5916 18.0051 11.0377 17.9551 8.90334 17.9551C5.844 17.9551 5.28132 17.9834 5.11687 18.1451ZM6.42699 19.7984C6.42699 19.9254 6.05977 24.0664 5.61096 29.0006C5.16215 33.9349 4.80842 37.9852 4.82494 38.0013C4.85419 38.0301 12.1629 33.98 12.6754 33.6511L12.9338 33.4853L12.2091 26.6815C11.8105 22.9392 11.4815 19.8078 11.4778 19.7225C11.4728 19.6038 10.8792 19.5674 8.94911 19.5674C6.5734 19.5674 6.42699 19.5808 6.42699 19.7984ZM16.1372 33.6614C14.646 34.4945 10.929 36.5671 7.87721 38.267L2.32854 41.358L2.29613 49.8728L2.26372 58.3877H28.9991H55.7345V45.2537V32.1198L47.5061 36.7087C38.5054 41.7285 38.4319 41.7681 38.1419 41.7681C38.032 41.7681 37.8028 41.6311 37.6326 41.4637L37.323 41.1593V36.6385V32.1178L29.0946 36.7064C20.134 41.7033 20.0142 41.7681 19.7502 41.7681C19.6511 41.7681 19.436 41.6615 19.2723 41.5311L18.9746 41.2942L18.9115 36.7204L18.8484 32.1466L16.1372 33.6614ZM14.704 47.3584L14.3717 47.6154V50.3778C14.3717 52.8964 14.392 53.1582 14.6023 53.3454C14.8067 53.5273 15.2905 53.5506 18.8704 53.5506C22.6217 53.5506 22.9226 53.5345 23.1165 53.3238C23.2975 53.1272 23.3252 52.7326 23.3252 50.3562V47.6154L22.9929 47.3584C22.6735 47.1112 22.5142 47.1013 18.8484 47.1013C15.1827 47.1013 15.0234 47.1112 14.704 47.3584ZM28.0536 47.4007L27.7389 47.7101V50.3547C27.7389 52.5476 27.7725 53.0465 27.9353 53.2749C28.1313 53.5501 28.1387 53.5506 32.2033 53.5506C35.9878 53.5506 36.2898 53.5346 36.4838 53.3238C36.6646 53.1272 36.6925 52.7336 36.6925 50.3708C36.6925 48.2133 36.6551 47.5945 36.5137 47.404C36.3442 47.1759 36.1261 47.1614 32.3515 47.1273L28.3682 47.0912L28.0536 47.4007ZM41.6403 47.2272C41.4832 47.2907 41.2988 47.4874 41.2304 47.6641C41.1621 47.841 41.1062 49.0739 41.1062 50.4042C41.1062 52.7617 41.17 53.2161 41.535 53.4558C41.6112 53.5059 43.4755 53.5477 45.6775 53.5488C49.5147 53.5505 49.6919 53.5403 49.9336 53.3026C50.1701 53.07 50.1858 52.8892 50.1858 50.4017C50.1858 47.9752 50.1653 47.7239 49.9448 47.4561L49.704 47.1633L45.8149 47.1375C43.6349 47.1231 41.8004 47.1624 41.6403 47.2272ZM16.0111 50.388V51.9383H18.8484H21.6858V50.388V48.8376H18.8484H16.0111V50.388ZM29.4059 50.357L29.4414 51.8763L32.2472 51.9096L35.0531 51.943V50.3903V48.8376H32.2118H29.3705L29.4059 50.357ZM42.8717 50.388V51.9383H45.646H48.4204V50.388V48.8376H45.646H42.8717V50.388Z" fill="#CB0447"/>
</svg>
