<svg width="60" height="60" viewBox="0 0 60 60" fill="none" xmlns="http://www.w3.org/2000/svg">
<path fill-rule="evenodd" clip-rule="evenodd" d="M30.2932 0.0961102C30.8624 0.300616 30.8872 0.518258 30.8872 5.30101V9.95539L31.9638 10.0606C32.556 10.1187 33.4747 10.2592 34.0056 10.3731L34.9708 10.5801L35.6337 9.80179C37.2581 7.89481 38.7756 6.82003 40.7952 6.14621C41.7792 5.8178 42.2249 5.75929 43.8064 5.75078C45.7879 5.74018 46.591 5.90423 48.3009 6.66867C49.2232 7.08096 49.4751 7.48953 49.184 8.1017C49.0991 8.28039 47.7645 9.93644 46.2184 11.7818L43.4074 15.137L44.4779 16.3464C45.0665 17.0118 45.6586 17.7251 45.7932 17.9319L46.0383 18.3078L47.1126 18.1144C50.2879 17.543 53.4628 18.2428 55.6765 20.0019C56.5056 20.6606 56.6664 21.2253 56.1569 21.6888C55.7457 22.0629 55.196 21.9871 54.5557 21.4679C53.3177 20.4642 51.0619 19.6969 49.375 19.7059C48.6093 19.7099 47.4181 19.8975 47.2806 20.0356C47.2378 20.0787 47.431 20.5743 47.7102 21.137C47.9892 21.6994 48.3358 22.4765 48.4803 22.8636L48.7431 23.5674L54.1571 23.61C59.3187 23.6506 59.581 23.666 59.7817 23.9423C60.0657 24.3328 60.048 24.9876 59.747 25.239C59.5437 25.4086 56.8572 25.4567 44.1178 25.5185L28.734 25.5931L28.14 25.9163C25.4617 27.3736 24.9918 30.9061 27.2094 32.9105C28.5127 34.0883 27.5698 34.0271 44.3943 34.0271C60.8466 34.0271 59.9924 33.9781 59.9924 34.9205C59.9924 35.8275 60.0514 35.8184 54.188 35.8184H48.8505L48.641 36.3035C48.5257 36.5704 48.225 37.2522 47.9726 37.8185C47.7201 38.385 47.5315 38.8623 47.5534 38.8793C47.8795 39.1316 54.1167 42.6703 54.1597 42.6273C54.3365 42.4495 54.3673 40.7497 54.2112 39.7773C54.0045 38.4889 54.0829 38.0953 54.5851 37.9033C55.1142 37.7012 55.621 37.9572 55.8292 38.5321C56.1461 39.4073 56.1982 42.0226 55.9251 43.3478C55.6697 44.5872 55.3851 45.0734 54.9146 45.0734C54.549 45.0734 54.1794 44.8761 50.0534 42.4777L46.5742 40.4553L46.0984 41.1596C45.8366 41.5471 45.2806 42.2542 44.8629 42.731C44.4452 43.2079 44.1034 43.6576 44.1034 43.7301C44.1034 43.8028 44.3121 44.4874 44.5674 45.2515C44.9315 46.3411 45.0468 46.9789 45.1018 48.2082C45.1935 50.2542 44.9146 51.586 44.008 53.4328C43.4353 54.5992 43.098 55.0629 42.1074 56.0451C41.445 56.7019 40.6525 57.3731 40.3463 57.5365C39.8399 57.8068 39.7543 57.8136 39.4012 57.6111C39.0722 57.4225 38.781 56.7476 37.4907 53.1837C36.6535 50.8708 35.9306 48.9172 35.8844 48.8422C35.8363 48.7638 35.351 48.8204 34.7448 48.9752C32.0949 49.6515 28.4112 49.7124 25.8383 49.1222C18.871 47.5241 13.3933 42.5072 11.2308 35.7438C10.5591 33.6433 10.3353 32.0731 10.3444 29.5265L10.3527 27.1903L9.1487 27.0091C7.6235 26.7795 7.27631 26.5723 7.27631 25.8916C7.27631 25.5116 7.37031 25.3141 7.63404 25.1403C7.95925 24.9263 8.10299 24.926 9.20973 25.1369C9.87945 25.2647 10.5077 25.3692 10.6057 25.3692C10.7039 25.3692 10.873 25.0164 10.9819 24.5855C11.0906 24.1545 11.3763 23.2816 11.6166 22.6457L12.0536 21.4897L11.1596 20.3727C9.47376 18.266 8.71761 16.1948 8.70603 13.6511C8.69593 11.4626 9.10757 10.0067 10.2961 8.02752C10.9562 6.92856 11.3859 6.62284 11.9168 6.87482C12.1007 6.96214 13.5512 8.5958 15.1404 10.5053L18.0298 13.9771L19.224 13.195C19.8808 12.7646 20.6592 12.2972 20.9538 12.1561L21.4895 11.8995L21.5769 10.2377C21.6837 8.21008 21.9416 7.16904 22.7468 5.51567C23.5453 3.87619 25.3759 1.97995 26.952 1.15984C27.7553 0.742021 29.9208 -0.0660022 30.0489 0.00430608C30.0608 0.0107249 30.1707 0.0520742 30.2932 0.0961102ZM29.1052 6.0853V9.93898L27.6574 10.1115C26.3815 10.2635 24.4598 10.6861 23.6851 10.9848C23.4382 11.0802 23.425 10.9879 23.4976 9.68237C23.5904 8.01542 23.953 6.9302 24.9013 5.48253C25.6854 4.2855 26.6004 3.46374 27.939 2.75454C28.4819 2.46689 28.9663 2.23163 29.0156 2.23163C29.0649 2.23163 29.1052 3.96575 29.1052 6.0853ZM45.1446 7.6088C46.1248 7.76016 46.8189 8.00766 46.7512 8.18186C46.7242 8.25158 45.6358 9.58415 44.3328 11.1432L41.9635 13.9777L40.7303 13.1696C40.0519 12.7252 38.928 12.0935 38.2324 11.7658L36.968 11.1702L37.2739 10.7385C37.7486 10.0681 39.024 9.0069 39.953 8.50907C41.4077 7.72971 43.5362 7.36071 45.1446 7.6088ZM14.1955 12.2694L16.5857 15.1364L15.507 16.3551C14.9138 17.0253 14.1094 18.0561 13.7194 18.6456L13.0105 19.7172L12.5252 19.1473C11.8527 18.3575 11.041 16.7784 10.7701 15.7332C10.4791 14.6098 10.4797 12.6904 10.7713 11.5647C11.0414 10.522 11.5172 9.39562 11.6858 9.39965C11.7515 9.40114 12.881 10.6927 14.1955 12.2694ZM32.7064 12.0175C35.2886 12.4216 38.2054 13.6246 40.3751 15.1805C43.067 17.1107 45.5565 20.2962 46.6172 23.1674L46.7689 23.5779L43.914 23.576L41.0592 23.5742L40.5394 22.7323C39.2642 20.6669 36.6068 18.6027 34.1274 17.7516C31.9831 17.0155 30.0273 16.855 27.8502 17.2367C23.7839 17.9495 20.4337 20.4919 18.6427 24.2243C17.6198 26.3557 17.4516 27.1545 17.4585 29.8474C17.464 31.9746 17.4982 32.2636 17.8821 33.43C18.6792 35.8521 19.6391 37.36 21.511 39.1302C22.4197 39.9894 23.0603 40.4356 24.2318 41.025C26.3731 42.1024 27.6821 42.419 29.9962 42.419C32.2909 42.419 33.5965 42.1064 35.7427 41.043C36.9445 40.4474 37.5165 40.0457 38.5135 39.0969C39.2046 38.4394 40.0886 37.4327 40.478 36.8599L41.1859 35.8184H43.9911H46.7963L46.6924 36.1543C46.4704 36.8721 45.2836 39.078 44.5823 40.0765C42.6205 42.8692 39.9282 45.0258 36.7586 46.3436C28.1884 49.9071 18.3795 46.2522 14.1198 37.9082C12.8111 35.3448 12.1767 32.6889 12.1767 29.7728C12.1767 18.7893 21.9523 10.3347 32.7064 12.0175ZM7.50574 18.4212C8.70425 19.6258 6.83394 21.5342 5.59029 20.3757C5.28869 20.0946 5.19737 19.8675 5.19737 19.3985C5.19737 18.5579 5.6978 18.0547 6.53383 18.0547C6.9808 18.0547 7.23756 18.1515 7.50574 18.4212ZM32.7835 19.2512C34.6499 19.7427 36.131 20.6275 37.6438 22.1543L38.9802 23.5033L33.9314 23.5906C28.3506 23.6872 28.0784 23.7279 26.6562 24.677C22.4817 27.4634 23.2579 33.7266 27.9987 35.5097C28.7692 35.7996 29.1278 35.8184 33.868 35.8184H38.9164L38.7409 36.1543C38.4176 36.773 36.4565 38.574 35.4858 39.1436C33.9355 40.0533 32.4284 40.4752 30.4313 40.5585C29.0092 40.6177 28.5001 40.5758 27.4749 40.3153C23.536 39.314 20.5646 36.3601 19.4974 32.3851C19.0997 30.9037 19.1397 28.3038 19.5823 26.8619C20.7834 22.9502 23.7606 20.0632 27.5101 19.1744C28.8406 18.8592 31.4384 18.8969 32.7835 19.2512ZM3.45254 24.2556L5.49436 25.9745V29.0075C5.49436 31.756 5.46896 32.0634 5.22276 32.2873C5.07337 32.4232 4.78098 32.5344 4.57279 32.5344C3.87293 32.5344 3.79245 32.2442 3.71241 29.4333L3.63816 26.8249L2.71006 26.0032L1.78196 25.1812V29.6043V34.0271H3.38467H4.98739L7.17133 36.2401L9.35526 38.4531V41.5461C9.35526 44.6311 9.35437 44.6401 8.9907 45.0055C8.79023 45.207 8.51997 45.372 8.39003 45.372C8.2601 45.372 7.98983 45.207 7.78936 45.0055C7.42807 44.6425 7.42481 44.6135 7.42481 41.8309V39.0227L5.81927 37.4137L4.21373 35.8048L3.03497 35.849L1.8562 35.893L1.81804 46.6771C1.78062 57.3001 1.78448 57.4658 2.07791 57.7607C2.36941 58.0537 2.56438 58.0603 11.063 58.0603H19.75V55.9315V53.8029L17.1869 51.2294L14.6238 48.656H10.2406C5.24919 48.656 5.14317 48.6345 5.22633 47.6377C5.30102 46.7426 5.43243 46.7201 10.6096 46.7177L15.2051 46.7154L18.3685 49.8829L21.5319 53.0505V55.5553V58.0603H27.5778C32.7421 58.0603 33.5921 58.03 33.4063 57.853C33.2867 57.7391 32.4967 57.0002 31.6509 56.2109L30.1129 54.7763H27.0847C24.2543 54.7763 24.0369 54.7567 23.7594 54.4777C23.3887 54.1051 23.3776 53.5563 23.734 53.232C23.9702 53.0171 24.4535 52.985 27.452 52.985H30.8985L32.6983 54.6643C33.6881 55.588 34.9141 56.7286 35.4226 57.1993L36.347 58.0549L47.9589 58.0949C59.258 58.1339 59.5767 58.1427 59.7817 58.4247C60.1008 58.8636 60.0444 59.4995 59.6623 59.7685C59.3665 59.9768 56.4003 60.0007 30.9655 60C11.6293 59.9995 2.42004 59.9494 2.03782 59.8427C1.33973 59.6478 0.465836 58.8921 0.200623 58.2541C0.036087 57.858 3.8147e-06 54.6604 3.8147e-06 40.4507C3.8147e-06 23.3291 0.00341797 23.1266 0.296993 22.8315C0.880882 22.2446 1.27514 22.4225 3.45254 24.2556ZM30.8986 28.791C31.7954 29.6925 31.2437 31.1095 29.9962 31.1095C29.2059 31.1095 28.6598 30.5551 28.6598 29.7529C28.6598 29.0545 29.3286 28.3547 29.9962 28.3547C30.3158 28.3547 30.6024 28.4932 30.8986 28.791ZM42.8998 46.063C43.5903 48.1773 43.4259 50.4878 42.4423 52.4963C41.931 53.5403 40.4278 55.3235 40.231 55.1193C40.1679 55.0538 39.6159 53.6231 39.0044 51.9401C38.3929 50.257 37.8237 48.7012 37.7399 48.4829C37.5909 48.0958 37.6169 48.0706 38.7813 47.4767C39.7849 46.9647 41.1391 46.1137 42.3138 45.2566C42.5492 45.0848 42.6056 45.1625 42.8998 46.063ZM50.8599 51.2247C51.3249 51.4927 51.5184 51.8239 51.5234 52.3604C51.5299 53.0463 51.2941 53.4216 50.6996 53.6713C49.289 54.2638 48.1457 52.4176 49.3122 51.4309C49.7974 51.0204 50.3726 50.9436 50.8599 51.2247Z" fill="#CB0447"/>
</svg>
