<svg width="64" height="60" viewBox="0 0 64 60" fill="none" xmlns="http://www.w3.org/2000/svg">
<path fill-rule="evenodd" clip-rule="evenodd" d="M10.2396 0.210825C9.19781 0.486711 8.16901 1.02922 7.44733 1.68346C6.92336 2.15835 5.78178 3.86773 3.72206 7.26175C3.58214 7.49214 3.25997 8.27002 3.00601 8.99036L2.5442 10.3001L2.49498 15.1062C2.43958 20.5079 2.48472 20.8414 3.39483 21.763C3.99248 22.3681 4.50224 22.6397 5.26569 22.7598L5.84295 22.8506V32.3563V41.8622L4.47187 41.9276C3.00137 41.9978 2.52507 42.1598 1.84769 42.8197C1.08199 43.5659 1.0616 43.7166 1.06343 48.6362L1.06512 53.1696L1.41513 53.7717L1.76514 54.3738L1.40824 54.7911C0.783449 55.5212 0.607529 56.1181 0.533983 57.7571C0.465921 59.2747 0.471124 59.3084 0.827183 59.6585C1.25763 60.0817 1.6151 60.1094 2.06172 59.7537C2.36153 59.515 2.3964 59.3543 2.46728 57.8862C2.54279 56.3225 2.55615 56.2689 2.97577 55.8562C3.21287 55.6231 3.65428 55.3759 3.95691 55.3069C4.68773 55.1402 59.3102 55.1402 60.041 55.3069C60.3437 55.3759 60.7851 55.6231 61.0222 55.8562C61.4418 56.2689 61.4552 56.3225 61.5307 57.8862C61.6015 59.3543 61.6364 59.515 61.9362 59.7537C62.3829 60.1094 62.7403 60.0817 63.1708 59.6585C63.526 59.3092 63.532 59.2711 63.4702 57.7571C63.4017 56.0802 63.1687 55.3974 62.3762 54.5525C62.0569 54.212 61.743 53.3067 60.6259 49.505C58.9724 43.878 58.9535 43.8267 58.2616 43.1257C57.5132 42.3673 56.6689 42.0248 55.3245 41.9342L54.2175 41.8595V40.0816C54.2175 38.3301 54.2223 38.3036 54.5339 38.3027C55.1347 38.3014 55.9142 38.0105 56.3681 37.6186C56.9662 37.1023 58.278 34.7343 58.3829 33.9821C58.496 33.1707 58.2247 32.2877 57.6895 31.725C57.2529 31.2659 41.0014 21.9226 40.3674 21.766C40.1882 21.7218 39.9233 21.8088 39.6921 21.9877C39.1739 22.3885 39.1766 22.9855 39.6981 23.3647C39.9108 23.5193 43.7235 25.7167 48.1707 28.2476C54.5735 31.8915 56.2961 32.9304 56.4463 33.2385C56.6226 33.6001 56.5945 33.7074 56.0483 34.7556C55.3514 36.0929 54.8914 36.5633 54.3996 36.4419C54.2122 36.3956 50.7829 34.493 46.7792 32.214C42.5009 29.7786 39.3537 28.0702 39.146 28.0702C38.9516 28.0702 38.6877 28.184 38.5598 28.3231C38.2867 28.6199 38.2527 29.3246 38.4997 29.5676C38.5947 29.6609 41.7583 31.4935 45.5301 33.6402L52.3877 37.543L52.3886 39.7006L52.3894 41.8582L51.2985 41.9408C50.6984 41.9863 49.9693 42.1214 49.6781 42.2411C48.9875 42.5248 48.0754 43.3427 47.7566 43.964C47.6174 44.2353 46.9106 46.467 46.1862 48.9232L44.869 53.3889L44.1002 53.3484L43.3314 53.3079L39.5711 41.1385C37.503 34.4453 35.774 28.8124 35.729 28.6209C35.6625 28.3378 35.7265 28.2267 36.0712 28.0265C36.3043 27.8911 36.6699 27.4877 36.8837 27.1301L37.2724 26.4799L37.3165 22.2408C37.3448 19.5436 37.3065 17.8034 37.2115 17.4561C36.9907 16.6499 36.4972 16.0138 35.7903 15.6242C35.166 15.2802 35.1457 15.2785 31.5068 15.2785H27.8506L27.1864 15.6625C26.7557 15.9114 26.3849 16.2761 26.1317 16.6997L25.7412 17.3528L25.6965 21.3998C25.6414 26.3886 25.6979 26.75 26.6849 27.7225L27.3847 28.4122L23.5389 40.86L19.6931 53.3079L16.1078 53.3448L12.5226 53.3818L12.5651 48.9609C12.6138 43.8788 12.5783 43.6292 11.6853 42.7848C10.9759 42.1138 10.2602 41.8991 8.73376 41.8991H7.67106V32.2846V22.67L8.05778 22.5342C8.27054 22.4596 8.63433 22.2943 8.86636 22.1669C9.30145 21.9281 14.1136 18.3527 15.3002 17.3867L15.9683 16.8427L16.7064 17.2562C17.1123 17.4835 18.6096 18.3294 20.0337 19.1361C21.4578 19.9427 22.6991 20.6026 22.7921 20.6026C23.1619 20.6026 23.7022 20.0282 23.7022 19.635C23.7022 19.1081 23.4794 18.9478 20.0287 16.9912L17.1286 15.3467L17.666 14.3446C17.9616 13.7934 18.3111 12.9536 18.4424 12.4781C18.5739 12.0027 18.7387 11.6138 18.8087 11.6138C18.8788 11.6138 20.206 12.3389 21.7579 13.225C24.2278 14.6352 24.6254 14.8203 24.9453 14.7097C25.1462 14.6403 25.4075 14.4131 25.5259 14.205C25.9115 13.5269 25.6024 13.2614 22.1308 11.288L18.9423 9.47562L18.8961 6.15406C18.8502 2.85062 18.848 2.82863 18.4693 2.12198C17.9853 1.21895 17.0903 0.463478 16.1946 0.201836C15.2577 -0.0716992 11.2837 -0.065753 10.2396 0.210825ZM11.0365 1.92754C10.1091 2.09252 9.04017 2.66918 8.4954 3.2984C7.65123 4.27361 5.03535 8.72042 4.70193 9.74694C4.40986 10.6464 4.38342 11.0301 4.32886 15.1615C4.26248 20.188 4.29229 20.3725 5.24361 20.8164C5.85673 21.1025 7.02335 21.0234 7.75164 20.6463C8.58722 20.2136 13.7497 16.288 14.5809 15.4533C15.5094 14.5208 16.4308 12.8727 16.7364 11.5981C16.8972 10.9271 16.9484 9.8183 16.9496 6.98117C16.9511 3.52215 16.931 3.21487 16.6772 2.8054C16.159 1.96972 15.8462 1.86974 13.6556 1.84014C12.5684 1.82535 11.3897 1.86462 11.0365 1.92754ZM27.9209 17.422C27.6519 17.6865 27.6396 17.8829 27.6396 21.9164C27.6396 25.9498 27.6519 26.1462 27.9209 26.4107C28.1862 26.6717 28.3896 26.6873 31.5068 26.6873C34.624 26.6873 34.8273 26.6717 35.0927 26.4107C35.3617 26.1462 35.3739 25.9498 35.3739 21.9164C35.3739 17.8829 35.3617 17.6865 35.0927 17.422C34.8273 17.161 34.624 17.1454 31.5068 17.1454C28.3896 17.1454 28.1862 17.161 27.9209 17.422ZM30.3818 19.3436C28.5846 20.1619 28.0837 22.3004 29.3557 23.7249C30.4333 24.9319 32.1561 25.0591 33.3588 24.0206C34.4243 23.1007 34.66 21.8348 33.9981 20.5886C33.309 19.2915 31.7073 18.7401 30.3818 19.3436ZM31.0572 21.0447C30.3635 21.3743 30.4151 22.4092 31.1431 22.7661C31.5604 22.9707 31.9762 22.8286 32.3318 22.3604C32.5654 22.0527 32.5793 21.9468 32.4321 21.5973C32.3382 21.3743 32.1043 21.1213 31.9125 21.0355C31.5029 20.8518 31.4622 20.8522 31.0572 21.0447ZM29.0658 29.3459C27.9715 32.6603 26.9268 36.3057 26.999 36.5581C27.0451 36.7195 28.0802 37.8689 29.2991 39.1126L31.5154 41.3736L33.8561 38.9663L36.1969 36.5591L34.9643 32.5566L33.7316 28.5542L31.5421 28.5162L29.3524 28.4782L29.0658 29.3459ZM24.3469 44.5972C23.3493 47.8304 22.5613 50.5034 22.5955 50.537C22.6486 50.5893 26.3594 46.7935 29.3073 43.6714L30.2014 42.7244L28.2727 40.7214C27.2119 39.6198 26.3027 38.7184 26.2522 38.7184C26.2019 38.7184 25.3444 41.3639 24.3469 44.5972ZM34.7482 40.7337L32.8015 42.749L33.5756 43.5341C34.0015 43.9658 35.6963 45.7193 37.3417 47.4306C38.9873 49.142 40.3804 50.5602 40.4377 50.5825C40.495 50.6046 40.0746 49.1111 39.5034 47.2636C38.9321 45.4159 38.1057 42.7375 37.6668 41.3114C37.2279 39.8853 36.8297 38.7184 36.7819 38.7184C36.7341 38.7184 35.8189 39.6253 34.7482 40.7337ZM3.19557 44.1551C2.8959 44.4689 2.88985 44.5564 2.88985 48.5618C2.88985 52.4866 2.90138 52.6628 3.18137 53.0127L3.47274 53.3771H6.75166C9.77043 53.3771 10.0569 53.356 10.3625 53.1126L10.6945 52.8484V48.6328C10.6945 44.6814 10.6777 44.3991 10.4266 44.1262C10.1687 43.8459 10.0355 43.8351 6.82999 43.8351C3.5325 43.8351 3.49847 43.8382 3.19557 44.1551ZM50.3388 43.9691C49.9066 44.1412 49.3268 44.8778 49.1621 45.4643C49.0828 45.7471 48.5327 47.6129 47.9398 49.6103C47.3468 51.6079 46.8933 53.2732 46.9317 53.3111C46.9702 53.3488 49.8813 53.3636 53.4008 53.3439L59.7999 53.3079L58.576 49.1879C57.903 46.9217 57.2679 44.9128 57.1649 44.7234C57.0616 44.5339 56.776 44.2565 56.5301 44.107C56.1241 43.8603 55.8306 43.836 53.3572 43.8438C51.8581 43.8487 50.4999 43.9051 50.3388 43.9691ZM27.1438 48.6267C24.7481 51.1101 22.767 53.1948 22.7413 53.2594C22.7154 53.3241 26.6973 53.3771 31.5898 53.3771H40.4852L39.4367 52.3053C38.86 51.7159 36.8467 49.6312 34.9626 47.6726C33.0785 45.7141 31.5286 44.1117 31.5183 44.1117C31.5079 44.1117 29.5395 46.1434 27.1438 48.6267Z" fill="#CB0447"/>
</svg>
