<svg width="58" height="55" viewBox="0 0 58 55" fill="none" xmlns="http://www.w3.org/2000/svg">
<path fill-rule="evenodd" clip-rule="evenodd" d="M28.5987 0.061501C28.4739 0.115568 28.2696 0.274555 28.1448 0.414945C27.9251 0.661977 27.9178 0.831755 27.9178 5.70628V10.7425L28.2299 11.0582C28.6654 11.4988 29.3263 11.4988 29.7619 11.0582L30.074 10.7425V5.69687V0.651187L29.7903 0.364437C29.4751 0.0457745 28.9456 -0.0888764 28.5987 0.061501ZM9.39238 8.13206C8.69424 8.31504 8.42608 9.26242 8.88909 9.9103C9.01517 10.0867 10.5651 11.6834 12.3333 13.4583C14.4974 15.6306 15.6534 16.7108 15.8702 16.7633C16.363 16.8824 16.9842 16.5243 17.1741 16.0114C17.3092 15.6463 17.3055 15.5426 17.145 15.2006C16.8835 14.6429 10.4041 8.15158 10.0443 8.08672C9.8883 8.0586 9.59495 8.07891 9.39238 8.13206ZM47.9474 8.08477C47.5908 8.13987 41.1144 14.6299 40.8467 15.2006C40.6863 15.5426 40.6825 15.6463 40.8177 16.0114C41.0071 16.5229 41.6281 16.8817 42.1216 16.7648C42.558 16.6613 49.2612 9.89286 49.3311 9.485C49.3948 9.11376 49.2408 8.51776 49.037 8.34672C48.8144 8.15984 48.2851 8.03265 47.9474 8.08477ZM22.1706 18.4974C19.4016 19.0553 17.1206 21.078 16.2294 23.7656C16.0765 24.2266 15.1921 28.9399 14.1919 34.6244C13.2198 40.1488 12.3719 44.9331 12.3075 45.2562L12.1906 45.8438L11.0771 45.898C10.2206 45.9398 9.83746 46.0141 9.41701 46.22C8.71977 46.5614 8.11559 47.1733 7.76595 47.8917C7.49655 48.4454 7.49099 48.517 7.49099 51.41V54.3631L7.80567 54.6816L8.12025 55H28.9959H49.8715L50.1861 54.6816L50.5008 54.3631V51.41C50.5008 48.517 50.4952 48.4454 50.2258 47.8917C49.8762 47.1733 49.272 46.5614 48.5748 46.22C48.1543 46.0141 47.7712 45.9398 46.9146 45.898L45.8011 45.8438L45.6842 45.2562C45.6199 44.9331 44.772 40.1488 43.7999 34.6244C42.7996 28.9399 41.9153 24.2266 41.7624 23.7656C40.8569 21.0352 38.5767 19.0401 35.7331 18.4896C34.5503 18.2607 23.3135 18.2672 22.1706 18.4974ZM22.3724 20.8019C20.2934 21.311 18.6654 22.9986 18.174 25.1541C18.0733 25.596 17.2245 30.3226 16.2879 35.6576C15.3512 40.9925 14.5581 45.4736 14.5253 45.6158L14.4658 45.874H28.9959H43.5259L43.4665 45.6158C43.4337 45.4736 42.6405 40.9925 41.7039 35.6576C40.7673 30.3226 39.9184 25.596 39.8178 25.1541C39.32 22.9711 37.6935 21.3035 35.5673 20.7966C34.5328 20.5499 23.3832 20.5544 22.3724 20.8019ZM0.682049 27.6141C-0.0414007 27.9192 -0.232391 28.8729 0.318338 29.4301L0.630414 29.7458H5.95898H11.2875L11.5996 29.4301C12.035 28.9895 12.035 28.321 11.5996 27.8804L11.2877 27.5647L6.09833 27.5415C3.24425 27.5288 0.806879 27.5615 0.682049 27.6141ZM36.5425 27.6116C35.8192 27.9247 35.628 28.873 36.1763 29.4275C36.41 29.664 36.5967 29.7406 36.9396 29.7406C38.2593 29.7406 38.4123 27.7895 37.1099 27.5705C36.9226 27.5389 36.6673 27.5574 36.5425 27.6116ZM46.7559 27.6141C46.0324 27.9192 45.8414 28.8729 46.3922 29.4301L46.7042 29.7458H52.0328H57.3614L57.6734 29.4301C58.1089 28.9895 58.1089 28.321 57.6734 27.8804L57.3615 27.5647L52.1721 27.5415C49.3181 27.5288 46.8807 27.5615 46.7559 27.6141ZM37.0065 32.4522C36.8449 32.6465 36.7127 32.9329 36.7127 33.0887C36.7127 33.5578 38.3957 42.7534 38.5269 43.0015C38.6645 43.2614 39.2084 43.5784 39.5157 43.5777C39.628 43.5775 39.8831 43.4767 40.0827 43.3537C40.6938 42.9767 40.6832 42.7776 39.785 37.7465C39.3375 35.2402 38.9189 33.0218 38.8548 32.8168C38.7012 32.3266 38.359 32.099 37.7756 32.099C37.3842 32.099 37.2484 32.1613 37.0065 32.4522ZM10.2838 48.3301C9.77697 48.6142 9.71218 48.9029 9.70786 50.8962L9.70389 52.7616H28.9959H48.2879V50.9303C48.2879 48.9331 48.2129 48.5997 47.704 48.3335C47.2534 48.0978 10.7041 48.0945 10.2838 48.3301Z" fill="#CB0447"/>
</svg>
