<svg width="512" height="340" viewBox="0 0 512 340" fill="none" xmlns="http://www.w3.org/2000/svg">
<path fill-rule="evenodd" clip-rule="evenodd" d="M72.005 1.62297C62.205 5.05197 53.657 13.559 50.572 22.955C49.759 25.43 48.622 30.984 48.044 35.298C47.165 41.862 47.247 43.674 48.545 46.409C51.314 52.244 59.63 53.897 64.62 49.606C66.951 47.6 67.541 45.957 68.647 38.382C69.992 29.174 71.437 26.211 76.385 22.517C79.136 20.462 79.607 20.454 209.627 20.19C281.391 20.045 341.512 20.29 343.229 20.735C344.946 21.179 347.245 22.742 348.339 24.207L350.328 26.871L338.098 127.163C331.371 182.324 325.622 228.917 325.323 230.705L324.777 233.955H184.389H44V231.878C44 230.736 42.685 228.486 41.077 226.878C36.45 222.251 28.048 223.239 25.111 228.756C23.532 231.724 19.75 265.138 20.263 271.591C21.114 282.288 27.616 291.281 37.662 295.654C40.445 296.866 45.384 297.442 55.633 297.748L69.766 298.171L70.415 303.908C71.316 311.874 76.633 322.377 82.637 328.052C92.591 337.463 101.169 340.455 116.121 339.735C124.967 339.309 126.645 338.892 134.186 335.248C143.89 330.558 150.608 324.926 155.864 317.075C159.832 311.149 164 302.154 164 299.52C164 298.111 173.28 297.955 256.86 297.955H349.72L350.271 303.205C351.31 313.111 354.632 319.777 362.405 327.55C371.301 336.446 377.328 339.046 390.606 339.719C401.063 340.249 407.822 338.716 417.5 333.616C428.673 327.729 439.415 314.56 443.027 302.321L444.247 298.188L459.873 297.776C474.106 297.401 475.991 297.134 481 294.784C488.986 291.038 494.446 285.826 498.048 278.509C501.003 272.506 501.428 270.095 505.57 235.801C507.984 215.811 510.41 197.567 510.961 195.259C511.959 191.081 510.391 176.316 507.902 166.455C505.403 156.555 480.409 82.837 477.745 77.506C472.08 66.176 459.516 56.837 446.201 54.06C442.892 53.37 427.169 52.955 404.342 52.955H367.783L368.313 50.705C368.604 49.467 369.378 43.458 370.034 37.351C371.066 27.747 371.012 25.51 369.64 20.787C366.861 11.23 360.316 4.28697 351.101 1.12197C348.572 0.253969 312.959 -0.033034 212.101 0.00296604C91.44 0.044966 76.005 0.223969 72.005 1.62297ZM18.388 74.935C12.888 77.157 10.533 84.217 13.425 89.81C16.053 94.892 16.696 94.955 65.97 94.955H111.847L114.889 92.395C118.723 89.169 119.773 84.351 117.572 80.093C114.378 73.917 114.65 73.949 65.3 74.018C40.66 74.053 19.55 74.466 18.388 74.935ZM356.134 150.664C350.983 192.899 346.536 228.917 346.253 230.705L345.738 233.955H415.369C453.666 233.955 485.006 233.618 485.013 233.205C485.021 232.792 486.146 223.493 487.513 212.539C490.021 192.455 490.507 184.439 489.393 181.537C488.854 180.133 484.521 179.955 450.861 179.955C408.913 179.955 408.832 179.944 403.279 173.621C397.515 167.055 397.389 165.187 400.819 137.15C404.069 110.576 405.038 107.093 410.658 101.758C416.192 96.506 419.119 95.955 441.468 95.955C464.131 95.955 463.384 96.203 460.625 89.6C458.664 84.906 453.362 79.197 448.595 76.646C444.609 74.513 443.451 74.447 405 74.164L365.5 73.873L356.134 150.664ZM425.345 116.71C424.179 117.463 418.782 157.782 419.657 159.205C419.911 159.617 434.24 159.955 451.5 159.955C468.76 159.955 483.076 159.617 483.314 159.205C483.551 158.793 480.54 149.005 476.623 137.455L469.5 116.455L448 116.209C436.175 116.074 425.98 116.299 425.345 116.71ZM36.277 129.727C32.955 132.309 31.576 137.141 32.963 141.343C35.104 147.829 35.75 147.955 66.949 147.955H94.968L98.107 145.15C102.52 141.208 102.701 135.34 98.545 131.002L95.626 127.955L67.063 127.977C41.546 127.997 38.263 128.184 36.277 129.727ZM3.077 183.544C0.403 185.794 0 186.782 0 191.089C0 196.948 2.756 200.452 8.138 201.438C9.987 201.777 28.975 201.919 50.333 201.754L89.166 201.455L92.083 198.189C95.247 194.647 95.807 190.82 93.805 186.427C91.356 181.051 90.525 180.955 46.626 180.955H6.153L3.077 183.544ZM41.642 258.705C41.301 260.768 41.017 264.785 41.011 267.632C41.002 272.042 41.391 273.117 43.635 274.882C46.011 276.751 47.623 276.955 60.04 276.955H73.81L76.581 272.205C78.104 269.592 82.044 264.643 85.334 261.205L91.317 254.955H66.789H42.262L41.642 258.705ZM154.142 258.705C158.326 263.128 161.298 268.016 162.956 273.205L164.155 276.955H241.917H319.679L320.84 267.513C321.478 262.321 322 257.371 322 256.513C322 255.114 313.239 254.955 236.297 254.955H150.594L154.142 258.705ZM342.16 264.397C340.483 278.045 340.028 276.955 347.405 276.955H353.81L356.581 272.205C358.104 269.592 362.044 264.643 365.334 261.205L371.317 254.955H357.319H343.321L342.16 264.397ZM434.119 258.705C438.452 263.316 440.152 266.067 442.502 272.278L444.327 277.1L458.094 276.778C470.232 276.493 472.195 276.206 474.681 274.35C478.749 271.314 480.838 267.186 481.604 260.671L482.275 254.955H456.435H430.594L434.119 258.705ZM111.357 267.985C95.292 274.327 86.327 293.67 93.033 307.523C101.915 325.872 130.83 322.011 141.447 301.059C147.816 288.49 144.138 273.635 133.366 268.422C127.67 265.666 117.731 265.469 111.357 267.985ZM393.365 267.044C388.301 268.512 380.835 274.083 376.865 279.356C367.702 291.528 368.688 307.37 379.078 314.896C396.743 327.693 424.505 311.093 424.415 287.787C424.394 282.17 423.923 280.366 421.429 276.332C416.091 267.697 404.429 263.837 393.365 267.044Z" fill="#CB0447"/>
</svg>
