<svg width="1916" height="1015" viewBox="0 0 1916 1015" fill="none" xmlns="http://www.w3.org/2000/svg">
<g clip-path="url(#clip0_362_149)">
<g opacity="0.2">
<path d="M2012.38 91.1089C2049.53 133.511 1923.79 179.439 1690.31 233.057C1425.92 293.043 1216.48 371.997 1115.09 477.773C1138.25 598.964 1261.41 751.037 1433.1 926.251C1619.45 1092.77 1760.14 1245.51 1831.27 1350.47C1835.57 1381.24 1771.42 1324.25 1663.01 1179.32C1519.58 993.812 1369.26 804.717 1230.54 679.745C1090.87 678.236 974.383 810.516 883.353 1048.09C795.246 1308.21 728.725 1498.03 683.695 1533.49C638.679 1398.37 617.295 1150.82 620.489 893.961C626.619 716.628 661.194 675.736 722.851 765.589C783.551 951.981 859.733 1156.76 933.786 1314.92C972.806 1398.66 972.308 1381.57 909.007 1282.67C778.862 1121.88 584.81 937.784 351.575 762.684C133 597.746 -30.5201 468.765 -86.6797 374.865C-18.2858 302.292 165.513 251.974 412.531 212.275C628.64 179.274 745.244 144.193 708.097 101.804C521.792 59.4155 266.473 11.7233 37.9142 -35.2205C-97.5801 -75.4779 -90.668 -102.287 44.3817 -103.187C267.201 -82.7606 512.144 -23.6114 719.725 75.9854C859.827 185.745 911.298 308.979 888.001 414.209C801.283 457.562 689.368 424.422 582.344 296.558C476.452 94.2681 404.433 -148.52 368.768 -365.996C350.268 -486.946 360.32 -470.199 389.235 -309.258C424.375 -68.7789 467.02 170.177 512.037 305.337C557.067 269.927 602.326 88.7237 652.085 -155.029C708.083 -376.273 779.926 -484.447 876.454 -451.878C990.147 -295.847 1136.3 -68.7409 1311.58 160.903C1488 349.972 1664.55 457.245 1810.28 482.049C1892.58 432.644 1894.49 340.774 1801.27 239.591C1640.56 129.717 1435.99 47.4512 1246.18 -0.266442C1144.11 -32.5688 1162.82 -34.4085 1315.71 -14.4384C1561.63 11.8755 1826.09 48.72 2012.38 91.1089Z" stroke="#F4F4F4" stroke-opacity="0.5" stroke-width="3" stroke-linecap="round" style="mix-blend-mode:plus-darker"/>
</g>
<g opacity="0.72">
<path d="M1953.09 278.237C1993.84 316.769 1897.62 376.045 1702.26 455.608C1461.98 537.354 1243.42 642.051 1096.4 766.934C1044.38 889.812 1087.01 1022.13 1196.56 1147.52C1352.92 1241.65 1507.43 1296.9 1629.99 1292.44C1718.58 1229.27 1751.29 1103.86 1735.29 934.853C1681.32 773.214 1599.24 646.821 1506.43 602.009C1400.15 666.55 1300.56 833.378 1216.9 1066.19C1131.6 1295.38 1066.63 1452.62 1025.71 1477.66C984.773 1360.85 969.817 1144.31 977.941 904.911C984.409 711.426 1009.55 618.287 1044.89 637.166C1066.79 756.251 1081.46 927.025 1072.35 1097.44C1025.28 1241.57 933.801 1317.96 791.569 1322.15C615.357 1263.18 412.317 1154.65 213.347 1022.41C61.1852 870.819 -18.1361 727.463 3.88039 604.103C120.888 486.464 316.153 392.513 540.643 320.448C720.211 252.329 808.129 199.739 767.384 161.207C602.678 122.663 374.859 99.9902 156.379 95.4227C-1.40141 94.801 -49.234 118.628 15.4411 169.48C172.413 226.053 381.246 305.934 593.866 398.134C782.892 470.973 914.762 524.197 983.506 532.672C992.493 477.989 956.114 355.91 896.734 171.675C814.34 -38.8618 738.859 -244.209 682.538 -391.562C628.116 -438.708 599.282 -367.531 595.9 -188.942C595.375 35.5631 616.098 244.298 657.005 361.15C697.939 336.143 757.143 186.747 834.848 -27.5572C915.409 -245.503 1018.69 -390.42 1144.04 -426.744C1271.28 -353.689 1414.17 -192.749 1559.65 9.02081C1682.12 218.162 1777.27 389.265 1821.94 502.945C1806.85 557.933 1723.52 557.996 1577.12 523.283C1407.13 457.283 1234.98 388.428 1107.99 332.336C1073.3 274.24 1144.39 239.654 1317.94 230.595C1552.2 223.693 1788.33 239.68 1953.07 278.224C1953.08 278.233 1953.09 278.237 1953.09 278.237Z" stroke="#F4F4F4" stroke-opacity="0.5" stroke-width="3" stroke-linecap="round" style="mix-blend-mode:plus-darker"/>
</g>
<g opacity="0.15">
<path d="M1893.81 625.671C1936.76 660.359 1867.13 715.93 1709.82 788.769C1501.3 859.692 1290.12 943.227 1118.41 1030.83C1009.42 1105.83 976.93 1169.74 1011.63 1208.01C1104.74 1213.81 1225.36 1177.51 1347.07 1093.62C1467.5 981.543 1557.56 841.625 1611.66 698.51C1641.22 593.356 1638.02 542.429 1611.5 571.179C1569.69 684.516 1518.14 867.508 1466.22 1083.94C1410.47 1279.32 1362.02 1405.83 1325.18 1421.84C1288.34 1322.29 1264.88 1136.67 1251.15 920.364C1233.61 723.911 1218.14 594.359 1196.13 551.716C1158.8 597.797 1101.35 709.18 1015.02 850.976C904.144 1005.08 761.212 1130.47 592.491 1210.15C422.503 1247.41 258.215 1233.99 126.736 1182.69C53.6798 1100.88 53.1408 1003.63 135.13 905.672C279.841 799.921 470.053 706.059 664.361 630.175C807.455 554.05 869.624 497.452 826.669 462.764C682.807 428.076 483.163 416.949 280.77 427.658C112.925 438.137 24.1314 468.892 26.0177 514.529C111.295 552.388 261.071 592.519 442.013 620.863C634.004 618.706 803.911 582.331 935.444 499.621C1028.28 374.484 1077.18 207.973 1092.4 17.7625C1077.74 -160.142 1049.26 -302.635 1020.33 -374.154C982.131 -356.963 956.329 -247.165 949.107 -64.1099C940.955 138.789 954.146 317.39 990.984 416.975C1027.81 401.001 1086.53 281.548 1164.15 99.5588C1240.83 -103.492 1333.64 -266.755 1435.68 -354.692C1528.45 -358.029 1617.59 -276.004 1689.04 -134.729C1730.61 44.4824 1734.59 225.533 1690.04 383.074C1606.81 512.423 1480.59 598.52 1326.94 646.187C1125.98 657.974 1089.26 601.971 1326.18 586.251C1542.77 578.816 1749.89 590.984 1893.78 625.659C1893.8 625.667 1893.81 625.671 1893.81 625.671Z" stroke="#F4F4F4" stroke-opacity="0.5" stroke-width="3" stroke-linecap="round" style="mix-blend-mode:plus-darker"/>
</g>
<g opacity="0.33">
<path d="M1834.49 890.459C1878.26 921.29 1831.96 959.264 1711.25 1000.79C1539.35 1038.92 1349.26 1073.92 1173.49 1098.28C1030.97 1109.94 941.022 1100.36 905.989 1062.74C923.977 1006.41 981.309 920.846 1060.32 811.531C1159.44 703.332 1253.69 596.947 1331.83 513.641C1404.04 478.89 1452.17 499.583 1476.81 584.932C1492.39 726.423 1489.71 908.235 1473.46 1099.14C1454.04 1259.46 1426.79 1357.63 1394.04 1366C1361.3 1282.6 1324.61 1127.21 1282.29 938.202C1236.79 750.542 1179.92 601.603 1107.59 513.032C1026.2 492.694 924.152 535.006 801.485 621.193C672.863 741.584 531.615 865.237 389.572 972.814C267.66 1065.93 171.496 1124.67 119.419 1149.63C120.362 1150.57 180.941 1125.99 299.458 1085.8C451.229 1033.3 622.686 977.242 781.961 925.464C890.036 870.933 929.69 826.426 885.927 795.582C762.074 764.752 590.739 749.07 409.271 745.454C242.719 739.085 128.177 739.047 80.5195 738.121C98.9789 724.888 180.308 698.688 305.171 650.234C460.944 577.763 622.888 474.766 772.88 341.23C909.897 193.243 1018.4 33.0509 1097.98 -119.44C1155.41 -237.726 1190.98 -307.697 1212.94 -309.968C1222.98 -244.019 1230.59 -112.64 1242.69 63.0949C1251.93 240.2 1271.44 389.354 1304.19 472.787C1336.93 464.451 1381.35 372.556 1433.86 224.15C1483.51 45.1294 1535.45 -119.136 1582.17 -238.043C1616.96 -300.808 1635.3 -293.868 1628.33 -227.005C1599.23 -111.599 1537.72 31.3254 1443.61 179.921C1336.54 329.659 1213.41 459.49 1091.74 563.338C1000.97 648.483 948.998 708.838 954.536 750.605C1026.2 779.685 1159.38 800.759 1338.57 820.78C1532.66 837.4 1710.64 859.629 1834.49 890.459Z" stroke="#F4F4F4" stroke-opacity="0.5" stroke-width="3" stroke-linecap="round" style="mix-blend-mode:plus-darker"/>
</g>
<g opacity="0.56">
<path d="M1775.24 887.452C1818.35 914.439 1791.78 932.874 1704.84 941.463C1571.52 947.743 1412.42 940.118 1250.57 915.834C1099.07 885.575 976.674 835.89 891.195 767.657C843.255 697.47 831.99 616.308 848.873 533.674C892.408 469.615 947.772 424.486 1004.35 411.887C1068.71 442.248 1123.04 517.257 1162.49 636.037C1201.07 784.709 1222.78 950.598 1227.09 1109.72C1230.32 1235.37 1217.75 1308.02 1189.1 1310.19C1160.45 1241.78 1117.07 1115.33 1059.81 956.27C1001.47 787.145 927.642 635.25 839.428 519.731C750.311 449.112 648.798 428.14 540.292 449.988C439.547 510.875 343.06 593.115 261.974 681.547C207.539 777.566 184.835 860.555 202.944 924.157C258.605 978.447 355.308 1010.75 485.803 1023.51C626.66 1027.8 769.444 1018.48 891.707 1000.1C967.593 979.056 988.356 953.948 945.239 926.961C840.56 899.988 697.143 872.418 540.144 842.589C384.668 810.084 259.548 770.334 178.961 719.292C144.09 659.775 161.04 583.054 221.201 487.187C317.244 382.008 435.599 260.284 561.716 128.905C694.637 5.11307 818.031 -109.1 925.473 -198.077C1024.57 -248.003 1105.32 -251.225 1169.23 -200.386C1225.39 -104.647 1270.02 31.8837 1306.61 190.592C1340.71 339.251 1371.39 460.226 1400.05 528.637C1428.7 526.468 1453.96 459.287 1473.89 344.06C1491.31 195.349 1498.82 44.7996 1492.31 -84.0801C1478.05 -183.093 1444.48 -233.907 1389.54 -236.165C1326.24 -195.489 1243.98 -118.374 1148.62 -18.9551C1060.05 99.0259 975.663 218.923 909.452 330.687C879.122 440.497 887.867 534.613 943.73 611.614C1045.32 682.651 1186.75 739.364 1353.27 783.948C1521.33 826.248 1670.56 860.479 1775.24 887.452Z" stroke="#F4F4F4" stroke-opacity="0.5" stroke-width="3" stroke-linecap="round" style="mix-blend-mode:plus-darker"/>
</g>
<g opacity="0.84">
<path d="M1715.93 618.719C1757.03 641.848 1746.43 649.689 1689.34 643.104C1593.8 636.189 1471.29 614.583 1336.71 579.793C1197.82 546.007 1069.42 501.892 960.25 452.119C870.77 410.72 807.051 372.683 767.37 346.052C749.234 341.167 748.426 359.145 758.37 405.886C780.575 481.212 804.666 585.363 824.972 712.987C849.427 850.418 865.016 989.498 868.573 1113.66C872.831 1206.54 863.48 1256.94 838.917 1254.35C814.368 1199.72 775.765 1100.39 725.197 972.319C675.316 828.874 615.061 688.297 548.054 565.254C485.185 466.075 420.658 399.529 360.591 365.831C312.812 363.738 278.359 387.096 264.319 427.163C271.811 484.536 306.412 545.182 370.319 601.489C453.912 661.019 560.302 709.142 681.204 743.107C797.768 775.257 906.301 792.931 992.359 796.255C1039.98 798.513 1045.61 788.109 1004.5 764.993C917.996 741.864 801.567 707.112 671.193 661.234C534.634 614.316 412.735 554.571 316.922 482.341C247.719 408.309 215.153 322.11 217.376 226.941C249.565 134.995 308.056 41.1456 383.847 -46.525C475.349 -116.89 571.688 -167.665 665.399 -189.653C761.981 -180.036 849.589 -134.208 925.137 -51.9807C999.069 54.0868 1060.66 181.507 1109.42 316.033C1157.24 435.169 1193.75 529.817 1218.3 584.45C1242.87 587.038 1254.31 541.338 1252.8 457.372C1250.36 342.131 1233.44 216.208 1202.05 95.7272C1169.07 -14.9332 1121.9 -98.3535 1063.16 -149.598C1007.3 -172.258 946.224 -162.819 886.898 -127.624C843.296 -70.6947 813.923 0.532887 807.294 77.5714C830.644 162.984 885.241 245.186 972.444 319.04C1086.25 393.896 1222.13 457.575 1368.18 508.096C1508.02 558.288 1629.42 595.602 1715.93 618.719Z" stroke="#F4F4F4" stroke-opacity="0.5" stroke-width="3" stroke-linecap="round" style="mix-blend-mode:plus-darker"/>
</g>
<g opacity="0.23">
<path d="M1656.67 272.223C1697.41 310.768 1600.68 307.304 1417.68 278.579C1191.23 265.879 982.643 261.87 828.622 302.127C720.13 402.955 663.216 576.114 633.492 801.469C622.416 1017.25 604.55 1173.49 563.629 1198.54C522.695 1081.71 462.575 867.064 402.723 638.828C361.52 443.377 354.554 327.173 409.406 287.207C509.787 310.07 674.965 360.236 871.416 399.631C1024.41 449.302 1104.56 461.495 1063.81 422.963C899.105 384.419 681.352 298.791 486.208 182.332C337.32 76.1504 283.007 -34.1548 310.076 -107.527C396.027 -118.07 513.722 -42.7442 624.155 124.452C743.83 324.432 832.071 523.461 873.005 640.287C913.953 615.242 903.699 474.614 854.95 287.08C815.458 89.9797 761.63 -42.3001 729.292 -92.6188C755.849 -82.3546 853.563 -18.2066 1032.43 61.2679C1257.57 156.779 1491.91 233.678 1656.64 272.21C1656.66 272.219 1656.67 272.223 1656.67 272.223Z" stroke="#F4F4F4" stroke-opacity="0.5" stroke-width="3" stroke-linecap="round" style="mix-blend-mode:plus-darker"/>
</g>
<g opacity="0.89">
<path d="M1597.35 90.2208C1641.11 121.051 1593.51 147.797 1480.13 179.668C1321.15 224.15 1150.59 295.086 999.362 403.475C859.044 537.189 752.371 706.415 678.52 885.829C614.747 1036.24 568.68 1134.33 535.938 1142.7C503.196 1059.29 486.879 905.063 493.899 726.448C511.025 545.613 566.591 398.337 663.995 297.915C772.299 233.031 908.13 201.909 1043.11 185.91C1132.5 182.345 1166.83 170.863 1123.07 140.019C999.214 109.189 835.802 61.9277 675.219 12.0785C524.283 -25.3496 423.498 -42.3509 377.834 -17.864C367.796 42.1352 395.89 156.703 440.717 314.942C497.079 470.947 548.428 612.692 581.17 696.1C613.912 687.726 624.947 602.136 625.338 474.322C637.249 317.505 660.249 180.987 713.215 87.6833C801.78 19.7037 937.288 -3.10844 1112.23 5.82356C1296.81 27.3796 1473.5 59.3902 1597.35 90.2208Z" stroke="#F4F4F4" stroke-opacity="0.5" stroke-width="3" stroke-linecap="round" style="mix-blend-mode:plus-darker"/>
</g>
<g opacity="0.31">
<path d="M1538.09 200.031C1579.19 223.148 1566.83 266.691 1512.21 329.342C1424.44 396.167 1317.61 487.644 1210.81 599.319C1097.85 712.467 998.974 835.878 923.385 950.928C849.386 1038.46 797.821 1089.48 773.258 1086.89C748.695 1032.24 753.478 933.343 784.926 812.609C817.951 677.512 878.49 548.912 959.28 441.208C1033.88 343.577 1114.67 269.279 1184.46 217.032C1221.08 170.875 1223.48 137.19 1182.38 114.073C1095.91 90.944 985.15 80.5783 870.742 86.6556C749.813 98.8229 649.405 137.038 578.815 204.358C520.567 281.764 491.126 385.84 485.75 503.973C486.545 607.769 501.366 697.292 525.929 751.937C550.492 754.526 582.453 712.885 624.222 642.292C672.136 544.205 739.91 445.306 830.334 362.469C933.1 281.092 1059.55 225.698 1198.47 198.953C1330.88 176.369 1451.56 176.889 1538.07 200.018C1538.09 200.027 1538.09 200.031 1538.09 200.031Z" stroke="#F4F4F4" stroke-opacity="0.5" stroke-width="3" stroke-linecap="round" style="mix-blend-mode:plus-darker"/>
</g>
<g opacity="0.18">
<path d="M1478.78 524.818C1522.54 555.662 1472.18 663.785 1381.32 804.755C1261.15 924.614 1159.43 1022.68 1126.69 1031.05C1093.95 947.629 1136.38 795.659 1213.64 651.11C1261.58 500.319 1285.4 394.048 1241.64 363.205C1117.79 332.374 970.191 382.833 861.537 493.214C753.961 597.34 709.241 724.329 741.983 807.75C774.724 799.376 878.73 726.296 1029.22 646.847C1180.8 546.286 1354.93 493.988 1478.78 524.818Z" stroke="#F4F4F4" stroke-opacity="0.5" stroke-width="3" stroke-linecap="round" style="mix-blend-mode:plus-darker"/>
</g>
</g>
<defs>
<clipPath id="clip0_362_149">
<rect width="1916" height="1015" fill="white"/>
</clipPath>
</defs>
</svg>
