<svg width="160" height="160" viewBox="0 0 160 160" fill="none" xmlns="http://www.w3.org/2000/svg">
<path fill-rule="evenodd" clip-rule="evenodd" d="M22.5979 15.8535C19.1709 17.2735 17.2589 19.206 15.8642 22.6592L15 24.7997L15.1025 45.0801C15.2032 64.9871 15.2196 65.3918 15.9907 67.0609C16.9607 69.1607 19.4683 71.931 21.1876 72.803C23.9958 74.227 25.7428 74.3267 45.7534 74.2052L65.031 74.0881L67.4459 72.8986C70.2119 71.5364 71.8084 69.8916 73.158 67.0137L74.1036 64.9969L74.2207 45.7234C74.3428 25.5757 74.2483 23.9785 72.7657 21.133C71.8291 19.3358 69.1947 16.9412 67.0779 15.9626C65.4077 15.1906 65.022 15.1753 45.0179 15.0884L24.6579 15L22.5979 15.8535ZM94.4636 15.4967C92.3825 16.1582 91.4801 16.6997 89.6539 18.383C85.9233 21.8232 85.843 22.4207 85.9844 45.7234L86.1015 64.9969L87.0471 67.0137C88.3967 69.8916 89.9931 71.5364 92.7592 72.8986L95.174 74.0881L114.452 74.2052C134.462 74.3267 136.209 74.227 139.017 72.803C140.737 71.931 143.244 69.1607 144.214 67.0609C144.991 65.3812 145 65.1078 145 44.6324V23.9043L144.05 21.9043C142.842 19.3602 140.817 17.3354 138.274 16.127L136.274 15.1767L116.096 15.1055C100.617 15.0509 95.5794 15.1422 94.4636 15.4967ZM25.6116 21.1686C24.0031 21.5603 22.6488 22.597 21.7493 24.1244C21.0469 25.3171 21.0222 26.0128 21.0222 44.659V63.959L22.046 65.5067C23.7988 68.1559 23.2025 68.0879 44.6841 68.0879C63.5062 68.0879 63.8473 68.0752 65.1947 67.3177C65.9483 66.894 66.9111 65.9311 67.3346 65.1772C68.092 63.8295 68.1047 63.4888 68.1047 44.6379C68.1047 23.104 68.1843 23.7803 65.439 21.9628L63.9778 20.9951L45.4084 20.9322C35.1957 20.8977 26.2867 21.0039 25.6116 21.1686ZM96.5959 21.1599C94.9217 21.5592 93.1795 22.9345 92.6047 24.3105C92.1964 25.2877 92.1004 29.1613 92.1004 44.6623C92.1004 63.4884 92.1131 63.8295 92.8704 65.1772C93.294 65.9311 94.2567 66.894 95.0104 67.3177C96.3578 68.0752 96.6985 68.0879 115.545 68.0879C137.075 68.0879 136.399 68.1675 138.215 65.4212L139.183 63.959V44.659C139.183 26.0128 139.158 25.3171 138.456 24.1244C137.52 22.5356 136.216 21.5763 134.428 21.1613C132.733 20.7682 98.2436 20.7664 96.5959 21.1599ZM23.749 86.4184C22.8491 86.6723 21.6137 87.1396 21.0033 87.4567C19.4327 88.2723 16.9157 91.1139 15.9907 93.1158C15.2145 94.7955 15.2051 95.069 15.2051 115.544V136.272L16.1551 138.272C17.3632 140.817 19.3876 142.841 21.9311 144.05L23.9308 145H44.6543C65.1252 145 65.3986 144.991 67.0779 144.214C69.1772 143.244 71.9469 140.736 72.8187 139.016C74.2425 136.208 74.3421 134.46 74.2207 114.453L74.1036 95.1799L73.158 93.1631C71.8084 90.2851 70.2119 88.6403 67.4455 87.2781L65.031 86.0886L45.208 86.0228C30.1224 85.9726 24.9942 86.0671 23.749 86.4184ZM24.1667 92.7056C23.4967 93.0358 22.515 93.9613 21.9853 94.762L21.0222 96.2177V115.518C21.0222 134.332 21.0411 134.85 21.769 136.089C22.7971 137.84 24.5263 138.91 26.7666 139.181C27.8064 139.307 36.6045 139.359 46.3177 139.296L63.9778 139.182L65.5244 138.158C68.1727 136.404 68.1047 137 68.1047 115.514C68.1047 96.6883 68.092 96.3472 67.3346 94.9995C66.9111 94.2456 65.9483 93.2827 65.1947 92.859C63.8465 92.1012 63.5153 92.0888 44.6049 92.0972C27.4847 92.1045 25.252 92.171 24.1667 92.7056ZM113.838 98.4029C112.716 99.2557 112.46 100.787 112.46 106.659V112.453H106.667C100.797 112.453 99.2656 112.709 98.4131 113.831C97.5925 114.912 97.8121 116.754 98.8795 117.744C99.8237 118.619 99.9575 118.635 106.151 118.635H112.46V124.4C112.46 127.759 112.632 130.657 112.873 131.347C113.626 133.507 116.505 133.981 117.922 132.179C118.576 131.348 118.641 130.69 118.641 124.95V118.635H124.954C130.693 118.635 131.351 118.57 132.182 117.916C133.984 116.499 133.509 113.619 131.35 112.866C130.66 112.625 127.763 112.453 124.404 112.453H118.641V106.142C118.641 99.9477 118.625 99.8139 117.75 98.8695C116.76 97.8018 114.918 97.5821 113.838 98.4029Z" fill="#CB0447"/>
</svg>
