<svg width="32" height="32" viewBox="0 0 32 32" fill="none" xmlns="http://www.w3.org/2000/svg">
<path fill-rule="evenodd" clip-rule="evenodd" d="M8.43807 22.5997C8.62035 22.8026 8.92249 22.8103 9.26069 22.8103L27.3737 22.811C28.2713 22.811 29 23.5324 29 24.4212V28.3895C29 29.2785 28.2713 30 27.3737 30H4.0129C2.35008 30 1 28.6633 1 27.017V11.8468C1 6.41215 5.45649 2 10.9456 2L27.3737 2C28.2713 2 29 2.72168 29 3.61024V7.57946C29 8.46825 28.2713 9.1897 27.3737 9.1897H10.9456C9.46437 9.1897 8.26187 10.3805 8.26187 11.8468V21.929C8.26187 22.2526 8.31798 22.4655 8.43807 22.5997Z" fill="#CB0447"/>
</svg>
