<svg width="1955" height="241" viewBox="0 0 1955 241" fill="none" xmlns="http://www.w3.org/2000/svg">
<path fill-rule="evenodd" clip-rule="evenodd" d="M1941.16 61.9936H1862.61L1862.59 226.826C1862.59 234.378 1856.39 240.512 1848.75 240.512H1815.2C1807.83 240.512 1801.8 234.8 1801.39 227.608L1801.39 227.495V61.9936H1722.82C1715.18 61.9936 1708.98 55.8617 1708.98 48.3074V14.1754C1708.98 6.61927 1715.18 0.487305 1722.82 0.487305H1941.16C1948.8 0.487305 1955 6.61927 1955 14.1754V48.3074C1955 55.8617 1948.8 61.9936 1941.16 61.9936Z" fill="#324086"/>
<path fill-rule="evenodd" clip-rule="evenodd" d="M1603.33 61.617C1612.72 61.617 1616.76 65.9702 1616.76 74.2022V89.7846C1616.76 98.0185 1612.72 102.37 1603.33 102.37L1466.66 102.565C1458.21 102.565 1449.81 105.511 1443.55 111.54C1437.15 117.704 1434.15 127.128 1434.15 135.127V226.76C1434.15 234.097 1439.97 240.099 1447.31 240.51L1447.37 240.512H1481.69C1489.39 240.512 1495.65 234.34 1495.65 226.74V163.922L1575.99 163.623L1609.9 235.037C1611.49 238.208 1614.78 240.212 1618.36 240.212H1667.86C1674.87 240.212 1679.45 232.952 1676.33 226.747L1676.33 226.753L1676.32 226.724L1641.59 153.688C1651.68 148.092 1660.15 140.52 1666.96 130.992C1675.76 118.671 1680.17 104.755 1680.17 89.369V74.7431C1680.17 61.0912 1676.66 48.5639 1669.65 37.2632C1662.94 26.4486 1654.02 17.7267 1642.95 11.1457C1642.58 10.9258 1641.71 10.4224 1641.71 10.4224C1630.12 3.79515 1617.3 0.487305 1603.33 0.487305L1447.42 0.78696L1447.36 0.790818C1440.02 1.19007 1434.18 7.1982 1434.18 14.541V48.1818C1434.18 55.4128 1439.84 61.3496 1447.03 61.9108L1447.11 61.9166L1603.33 61.617Z" fill="#324086"/>
<path fill-rule="evenodd" clip-rule="evenodd" d="M1316.47 0.487305C1363.53 0.487305 1401.74 38.3096 1401.74 84.8973V155.502C1401.74 202.088 1363.53 240.512 1316.47 240.512L1222.99 239.912C1175.93 239.912 1137.71 202.088 1137.71 155.502V84.8973C1137.71 38.3096 1175.93 0.487305 1222.99 0.487305L1316.47 0.487305ZM1339.56 155.502V84.8973C1339.56 72.2828 1329.21 62.0384 1316.47 62.0384H1222.99C1210.25 62.0384 1199.9 72.2828 1199.9 84.8973V155.502C1199.9 168.116 1210.25 178.361 1222.99 178.361H1316.47C1329.21 178.361 1339.56 168.116 1339.56 155.502Z" fill="#324086"/>
<path fill-rule="evenodd" clip-rule="evenodd" d="M1029.72 168.775C1027.78 168.141 915.889 128.838 915.889 128.838C895.207 122.452 883.019 112.602 875.805 102.96C865.176 88.7588 865.27 74.9045 865.287 72.569C865.287 72.4944 865.289 72.4312 865.289 72.3814C865.289 49.5219 870.367 34.7124 882.228 21.463C894.12 8.17919 912.859 0.506394 940.431 0.506394L940.349 0.508308C940.994 0.498736 1037.14 0.493048 1076.93 0.489219L1091.69 0.487305L1091.71 0.489219C1099.04 0.642369 1104.97 6.44674 1105.22 13.706V48.758C1104.97 55.8814 1099.2 61.6264 1091.97 61.9327H1091.93C1078.55 61.9385 1021.1 61.969 981.648 61.9882L940.236 62.0073C936.817 62.0073 935.121 64.4749 935.121 67.0632C935.121 70.086 938.456 71.4356 940.873 72.2243C942.818 72.858 1054.71 108.691 1054.71 108.691C1075.39 115.078 1087.58 125.55 1094.79 135.191C1105.42 149.393 1105.33 166.095 1105.31 168.43V168.618C1105.31 191.477 1100.23 206.287 1088.37 219.538C1076.47 232.82 1057.74 240.493 1030.16 240.493L1030.25 240.491C1029.6 240.5 933.491 240.508 893.692 240.51L878.908 240.512L878.885 240.51C871.562 240.359 865.63 234.552 865.374 227.293V192.276L865.375 192.241C865.626 185.118 871.395 179.375 878.625 179.066H878.669C892.021 179.061 954.071 179.03 993.521 179.011L1030.36 178.992C1033.78 178.992 1035.47 176.524 1035.47 173.936C1035.47 170.913 1032.14 169.564 1029.72 168.775Z" fill="#324086"/>
<path fill-rule="evenodd" clip-rule="evenodd" d="M633.69 62.0384C631.916 62.0384 630.19 63.6024 630.19 65.3578V226.923C630.076 234.441 623.876 240.512 616.258 240.512H581.997C574.305 240.512 568.061 234.327 568.061 226.706V26.0585C568.061 11.9457 579.628 0.487305 593.873 0.487305L746.886 0.487305C793.91 0.487305 832.087 38.3096 832.087 84.8973V226.706C832.087 234.327 825.845 240.512 818.153 240.512H783.911C776.221 240.512 769.979 234.327 769.979 226.708L769.96 84.8973C769.96 72.2828 759.622 62.0384 746.886 62.0384H633.69Z" fill="#324086"/>
<path fill-rule="evenodd" clip-rule="evenodd" d="M451.185 0.487305C498.248 0.487305 536.457 38.3096 536.457 84.8973V156.102C536.457 202.688 498.248 240.512 451.185 240.512H357.705C310.642 240.512 272.43 202.688 272.43 156.102V84.8973C272.43 38.3096 310.642 0.487305 357.705 0.487305L451.185 0.487305ZM474.275 156.102V84.8973C474.275 72.2828 463.928 62.0384 451.185 62.0384H357.705C344.962 62.0384 334.613 72.2828 334.613 84.8973V156.102C334.613 168.716 344.962 178.961 357.705 178.961H451.185C463.928 178.961 474.275 168.716 474.275 156.102Z" fill="#324086"/>
<path fill-rule="evenodd" clip-rule="evenodd" d="M63.7614 177.074C65.324 178.814 67.914 178.88 70.8132 178.88L226.083 178.885C233.778 178.885 240.025 185.07 240.025 192.689V226.707C240.025 234.327 233.778 240.512 226.083 240.512H25.8275C11.5733 240.512 0 229.053 0 214.941V84.8973C0 38.3096 38.2024 0.487305 85.2566 0.487305L226.083 0.487305C233.778 0.487305 240.025 6.67373 240.025 14.2908V48.3161C240.025 55.9351 233.778 62.1196 226.083 62.1196H85.2566C72.5592 62.1196 62.251 72.3272 62.251 84.8973V171.324C62.251 174.099 62.7319 175.924 63.7614 177.074Z" fill="#324086"/>
</svg>
