<svg width="156" height="156" viewBox="0 0 156 156" fill="none" xmlns="http://www.w3.org/2000/svg">
<rect width="156" height="156" rx="15" transform="matrix(-1 0 0 1 156 0)" fill="#253064"/>
<path fill-rule="evenodd" clip-rule="evenodd" d="M23.9844 105.06C23.9844 117.023 32.8141 123 41.6881 123C50.5136 123 59.3448 117.024 59.3448 105.06C59.3448 93.0966 50.5136 87.1206 41.6881 87.1206C32.8141 87.1206 23.9844 93.0972 23.9844 105.06ZM30.9455 105.06C30.9455 97.8078 36.2933 94.2231 41.6881 94.2231C47.0388 94.2231 52.4308 97.8078 52.4308 105.06C52.4308 112.312 47.0388 115.897 41.6881 115.897C36.2933 115.897 30.9455 112.312 30.9455 105.06Z" fill="white"/>
<path fill-rule="evenodd" clip-rule="evenodd" d="M115.183 108.546H126.501C127.148 108.546 127.674 108.02 127.674 107.373V102.747C127.674 102.1 127.148 101.574 126.501 101.574H115.183V94.7361C115.183 94.537 115.229 94.3667 115.343 94.2525C115.457 94.1383 115.628 94.0922 115.827 94.0922H130.182C130.6 94.0922 130.932 93.9407 131.167 93.7055C131.402 93.4702 131.554 93.1384 131.554 92.7204V88.4924C131.554 88.0743 131.402 87.7426 131.167 87.5074C130.932 87.2721 130.6 87.1206 130.182 87.1206H109.19C108.772 87.1206 108.44 87.2721 108.205 87.5073C107.97 87.7425 107.818 88.0743 107.818 88.4924V121.628C107.818 122.046 107.97 122.378 108.205 122.613C108.44 122.848 108.772 123 109.19 123H130.182C130.6 123 130.932 122.848 131.167 122.613C131.402 122.378 131.554 122.046 131.554 121.628V117.4C131.554 116.982 131.402 116.65 131.167 116.415C130.932 116.18 130.6 116.028 130.182 116.028H115.827C115.628 116.028 115.458 115.982 115.343 115.868C115.229 115.754 115.183 115.583 115.183 115.384V108.546Z" fill="white"/>
<path fill-rule="evenodd" clip-rule="evenodd" d="M117.641 62.6244C117.682 62.6671 117.731 62.7205 117.769 62.7714C117.771 62.7737 123.994 72.7211 123.994 72.7211C124.322 73.2818 124.959 73.6164 125.605 73.6164H131.209C131.709 73.6164 132.027 73.3872 132.188 73.1194C132.344 72.8586 132.418 72.4664 132.14 71.9796C132.136 71.9711 132.131 71.9627 132.125 71.9545L122.441 56.4682C122.439 56.4656 122.437 56.463 122.436 56.4603C122.142 56.0033 122.142 55.3503 122.436 54.8932C122.437 54.8906 122.439 54.888 122.441 54.8854L132.125 39.3993C132.131 39.391 132.136 39.3826 132.14 39.3741C132.418 38.8873 132.344 38.495 132.188 38.2343C132.027 37.9665 131.709 37.7373 131.209 37.7373H125.605C124.957 37.7373 124.317 38.0743 123.99 38.6391C123.994 38.6326 117.771 48.58 117.771 48.58C117.732 48.632 117.682 48.6862 117.641 48.7293C117.599 48.6867 117.551 48.6333 117.512 48.5824C117.51 48.58 111.287 38.6325 111.287 38.6325C110.959 38.0718 110.322 37.7373 109.676 37.7373H104.072C103.502 37.7373 103.199 37.9993 103.057 38.2665C102.922 38.5185 102.872 38.9035 103.141 39.3741C103.146 39.3826 103.151 39.391 103.156 39.3993L112.841 54.8854C112.842 54.8879 112.844 54.8905 112.846 54.893C113.139 55.3503 113.139 56.0033 112.846 56.4605C112.844 56.463 112.842 56.4656 112.841 56.4682L103.156 71.9545C103.151 71.9627 103.146 71.9711 103.141 71.9796C102.872 72.4502 102.922 72.8351 103.057 73.0872C103.199 73.3544 103.502 73.6164 104.072 73.6164H109.676C110.324 73.6164 110.964 73.2794 111.291 72.7145C111.287 72.7211 117.51 62.7736 117.51 62.7736C117.55 62.7216 117.599 62.6675 117.641 62.6244Z" fill="white"/>
<path fill-rule="evenodd" clip-rule="evenodd" d="M68.9297 55.677C68.9297 64.9919 75.0754 74.354 87.4098 74.354C91.8772 74.354 94.8547 73.2666 97.6283 71.1136C98.2382 70.6895 98.3688 69.8607 97.95 69.2327C97.9448 69.2249 97.9395 69.2172 97.934 69.2096L95.2368 65.4827C95.0084 65.1475 94.6865 64.9664 94.3465 64.9239C94.0198 64.883 93.6586 64.9693 93.3319 65.2415C93.3318 65.2415 93.3318 65.2415 93.3317 65.2416C92.2405 66.151 90.4146 67.0384 87.4589 67.0384C80.1944 67.0384 76.5772 61.3504 76.5772 55.677C76.5772 50.0036 80.1944 44.3156 87.4589 44.3156C89.8852 44.3156 91.945 45.2315 93.3184 46.2387C93.3209 46.2405 93.3234 46.2423 93.3259 46.2441C93.6901 46.5042 94.0393 46.57 94.3515 46.518C94.6637 46.4659 94.9727 46.2903 95.2328 45.9261C95.234 45.9244 95.2352 45.9227 95.2364 45.921L97.8912 42.1355C97.8945 42.1307 97.8978 42.1259 97.901 42.1211C98.332 41.4742 98.2617 40.6249 97.5074 40.1938C94.3989 38.4102 90.9781 37 87.4098 37C75.0754 37 68.9297 46.3109 68.9297 55.677Z" fill="white"/>
<path fill-rule="evenodd" clip-rule="evenodd" d="M32.845 55.9839L41.8869 71.1973C42.2151 71.7674 42.801 72.1511 43.454 72.1511H44.1424C44.7955 72.1511 45.3816 71.7673 45.7097 71.197L54.7414 55.9202L57.3299 72.3487C57.4324 73.1249 58.0125 73.6164 58.7925 73.6164H63.3154C63.7724 73.6164 64.1003 73.4378 64.3145 73.1807C64.519 72.9353 64.6377 72.5898 64.5833 72.1536C64.5829 72.1509 64.5826 72.1483 64.5822 72.1455L60.5446 38.9609C60.5443 38.9593 60.5441 38.9577 60.5439 38.956C60.4425 38.2475 59.9401 37.7373 59.1303 37.7373H56.3393C55.9719 37.7373 55.5811 37.9423 55.3364 38.3093C55.3214 38.3319 55.3076 38.3553 55.2951 38.3795L43.7983 60.6337L32.3512 38.479C32.1397 38.0641 31.6297 37.7373 31.1097 37.7373H28.1713C27.6352 37.7373 27.2011 38.1007 27.0671 38.6363C27.0606 38.6625 27.0555 38.689 27.0519 38.7157L23.0142 72.1462C23.0138 72.1488 23.0135 72.1514 23.0132 72.1539C22.9588 72.59 23.0775 72.9353 23.2819 73.1806C23.4961 73.4377 23.824 73.6164 24.2811 73.6164H28.8039C29.586 73.6164 30.1671 73.1222 30.2674 72.3417L32.845 55.9839Z" fill="white"/>
<path fill-rule="evenodd" clip-rule="evenodd" d="M74.3902 101.177C76.2699 103.082 78.1746 104.984 80.0904 106.892C84.6815 111.537 89.782 116.694 94.3352 121.481C97.729 125.049 100.454 121.564 100.454 118.853C100.454 114.093 100.504 107.935 100.533 104.635C100.541 103.775 100.158 103.665 99.8176 104.456C97.712 109.348 94.4505 110.489 92.1805 108.943C90.3008 107.038 88.3961 105.136 86.4803 103.229C81.8892 98.5834 76.7887 93.4264 72.2355 88.6392C68.8417 85.071 66.1165 88.5558 66.1165 91.2676C66.1165 96.0276 66.0672 102.185 66.0372 105.485C66.0294 106.346 66.4129 106.455 66.7531 105.665C68.8587 100.772 72.1202 99.6308 74.3902 101.177Z" fill="white"/>
<path fill-rule="evenodd" clip-rule="evenodd" d="M70.8288 113.416C68.1824 113.416 66.0371 115.561 66.0371 118.208C66.0371 120.854 68.1824 122.999 70.8288 122.999C73.475 122.999 75.6202 120.854 75.6202 118.208C75.6202 115.561 73.475 113.416 70.8288 113.416Z" fill="#E8B25A"/>
<path fill-rule="evenodd" clip-rule="evenodd" d="M95.7407 87.1206C93.0944 87.1206 90.9492 89.266 90.9492 91.9123C90.9492 94.5588 93.0944 96.7039 95.7407 96.7039C98.387 96.7039 100.532 94.5588 100.532 91.9123C100.532 89.266 98.387 87.1206 95.7407 87.1206Z" fill="#BA3350"/>
</svg>
