<svg width="267" height="262" viewBox="0 0 267 262" fill="none" xmlns="http://www.w3.org/2000/svg">
<g filter="url(#filter0_d_512_167)">
<rect width="203" height="198" rx="21" transform="matrix(-1 0 0 1 235 32)" fill="#18184A"/>
<rect x="-0.5" y="0.5" width="202" height="197" rx="20.5" transform="matrix(-1 0 0 1 234 32)" stroke="#000B37"/>
</g>
<path fill-rule="evenodd" clip-rule="evenodd" d="M73.1211 159.477C73.1211 173.095 83.1727 179.898 93.2746 179.898C103.321 179.898 113.375 173.096 113.375 159.477C113.375 145.858 103.321 139.055 93.2746 139.055C83.1727 139.055 73.1211 145.859 73.1211 159.477ZM81.0455 159.477C81.0455 151.221 87.1333 147.14 93.2746 147.14C99.3657 147.14 105.504 151.221 105.504 159.477C105.504 167.732 99.3657 171.813 93.2746 171.813C87.1333 171.813 81.0455 167.732 81.0455 159.477Z" fill="white"/>
<path fill-rule="evenodd" clip-rule="evenodd" d="M176.937 163.445H189.82C190.557 163.445 191.156 162.847 191.156 162.11V156.845C191.156 156.108 190.557 155.509 189.82 155.509H176.937V147.725C176.937 147.498 176.989 147.304 177.119 147.174C177.249 147.044 177.443 146.992 177.67 146.992H194.011C194.487 146.992 194.865 146.819 195.133 146.552C195.4 146.284 195.573 145.906 195.573 145.43V140.617C195.573 140.141 195.4 139.764 195.133 139.496C194.865 139.228 194.487 139.056 194.011 139.056H170.114C169.638 139.056 169.261 139.228 168.993 139.496C168.725 139.764 168.553 140.141 168.553 140.617V178.337C168.553 178.813 168.725 179.191 168.993 179.459C169.261 179.727 169.638 179.899 170.114 179.899H194.011C194.487 179.899 194.865 179.726 195.133 179.459C195.4 179.191 195.573 178.813 195.573 178.337V173.524C195.573 173.048 195.4 172.671 195.133 172.403C194.865 172.135 194.487 171.963 194.011 171.963H177.67C177.443 171.963 177.249 171.91 177.119 171.78C176.989 171.65 176.937 171.456 176.937 171.23V163.445Z" fill="white"/>
<path fill-rule="evenodd" clip-rule="evenodd" d="M179.734 111.17C179.781 111.218 179.837 111.279 179.881 111.337C179.883 111.34 186.967 122.664 186.967 122.664C187.34 123.302 188.066 123.683 188.801 123.683H195.181C195.75 123.683 196.112 123.422 196.295 123.117C196.473 122.82 196.557 122.374 196.241 121.819C196.235 121.81 196.229 121.8 196.224 121.791L185.199 104.162C185.197 104.159 185.195 104.156 185.193 104.153C184.858 103.633 184.858 102.889 185.193 102.369C185.195 102.366 185.197 102.363 185.199 102.36L196.224 84.7313C196.229 84.7218 196.235 84.7123 196.241 84.7026C196.557 84.1484 196.473 83.7019 196.295 83.4052C196.112 83.1003 195.75 82.8394 195.181 82.8394H188.801C188.063 82.8394 187.335 83.223 186.963 83.8659C186.967 83.8585 179.883 95.1822 179.883 95.1822C179.838 95.2414 179.782 95.3032 179.734 95.3522C179.687 95.3037 179.632 95.2429 179.588 95.185C179.586 95.1823 172.502 83.8585 172.502 83.8585C172.129 83.2201 171.403 82.8394 170.668 82.8394H164.288C163.639 82.8394 163.295 83.1376 163.132 83.4417C162.979 83.7287 162.922 84.1669 163.228 84.7026C163.234 84.7123 163.239 84.7218 163.245 84.7313L174.27 102.36C174.272 102.363 174.274 102.366 174.276 102.369C174.61 102.889 174.61 103.633 174.276 104.153C174.274 104.156 174.272 104.159 174.27 104.162L163.245 121.791C163.239 121.8 163.234 121.81 163.228 121.819C162.922 122.355 162.979 122.793 163.132 123.08C163.295 123.385 163.639 123.683 164.288 123.683H170.668C171.406 123.683 172.134 123.299 172.506 122.656C172.502 122.664 179.586 111.34 179.586 111.34C179.631 111.281 179.687 111.219 179.734 111.17Z" fill="white"/>
<path fill-rule="evenodd" clip-rule="evenodd" d="M124.285 103.261C124.285 113.865 131.281 124.522 145.323 124.522C150.408 124.522 153.798 123.284 156.955 120.834C157.649 120.351 157.798 119.407 157.321 118.692C157.315 118.684 157.309 118.675 157.303 118.666L154.233 114.424C153.973 114.042 153.606 113.836 153.219 113.787C152.847 113.741 152.436 113.839 152.064 114.149C152.064 114.149 152.064 114.149 152.064 114.149C150.822 115.184 148.743 116.194 145.378 116.194C137.109 116.194 132.991 109.72 132.991 103.261C132.991 96.8028 137.109 90.3278 145.378 90.3278C148.14 90.3278 150.485 91.3704 152.049 92.517C152.052 92.519 152.054 92.5211 152.057 92.5232C152.472 92.8192 152.869 92.8941 153.225 92.8349C153.58 92.7757 153.932 92.5758 154.228 92.1611C154.229 92.1591 154.231 92.1572 154.232 92.1553L157.254 87.846C157.258 87.8406 157.262 87.8352 157.266 87.8297C157.756 87.0933 157.676 86.1264 156.817 85.6357C153.279 83.6053 149.385 82 145.323 82C131.281 82 124.285 92.5992 124.285 103.261Z" fill="white"/>
<path fill-rule="evenodd" clip-rule="evenodd" d="M83.2073 103.611L93.5005 120.929C93.874 121.578 94.541 122.015 95.2845 122.015H96.068C96.8116 122.015 97.4787 121.578 97.8523 120.929L108.134 103.538L111.08 122.24C111.197 123.123 111.858 123.683 112.745 123.683H117.894C118.414 123.683 118.788 123.479 119.032 123.187C119.264 122.907 119.4 122.514 119.338 122.018C119.337 122.015 119.337 122.011 119.336 122.008L114.74 84.2322C114.74 84.2304 114.739 84.2286 114.739 84.2267C114.624 83.4201 114.052 82.8394 113.13 82.8394H109.953C109.535 82.8394 109.09 83.0727 108.811 83.4905C108.794 83.5162 108.778 83.5429 108.764 83.5704L95.6763 108.904L82.6453 83.6837C82.4045 83.2114 81.8239 82.8394 81.2319 82.8394H77.8869C77.2766 82.8394 76.7824 83.253 76.63 83.8627C76.6226 83.8926 76.6167 83.9227 76.6126 83.9531L72.0161 122.009C72.0157 122.012 72.0153 122.015 72.015 122.018C71.9531 122.514 72.0882 122.907 72.3209 123.187C72.5648 123.479 72.938 123.683 73.4583 123.683H78.6071C79.4973 123.683 80.1589 123.12 80.2731 122.232L83.2073 103.611Z" fill="white"/>
<path fill-rule="evenodd" clip-rule="evenodd" d="M130.503 155.057C132.643 157.225 134.811 159.391 136.992 161.562C142.219 166.85 148.025 172.721 153.208 178.17C157.072 182.232 160.174 178.265 160.174 175.178C160.174 169.76 160.23 162.75 160.264 158.993C160.273 158.014 159.836 157.889 159.449 158.789C157.052 164.359 153.339 165.658 150.755 163.898C148.615 161.729 146.447 159.564 144.266 157.392C139.04 152.104 133.234 146.234 128.05 140.784C124.187 136.723 121.085 140.689 121.085 143.776C121.085 149.195 121.028 156.205 120.994 159.961C120.985 160.941 121.422 161.065 121.809 160.165C124.206 154.596 127.919 153.297 130.503 155.057Z" fill="white"/>
<path fill-rule="evenodd" clip-rule="evenodd" d="M126.449 168.989C123.436 168.989 120.994 171.431 120.994 174.444C120.994 177.456 123.436 179.898 126.449 179.898C129.461 179.898 131.903 177.456 131.903 174.444C131.903 171.431 129.461 168.989 126.449 168.989Z" fill="#E8B25A"/>
<path fill-rule="evenodd" clip-rule="evenodd" d="M154.808 139.056C151.796 139.056 149.354 141.498 149.354 144.51C149.354 147.523 151.796 149.965 154.808 149.965C157.821 149.965 160.263 147.523 160.263 144.51C160.263 141.498 157.821 139.056 154.808 139.056Z" fill="#BA3350"/>
<defs>
<filter id="filter0_d_512_167" x="0" y="0" width="267" height="262" filterUnits="userSpaceOnUse" color-interpolation-filters="sRGB">
<feFlood flood-opacity="0" result="BackgroundImageFix"/>
<feColorMatrix in="SourceAlpha" type="matrix" values="0 0 0 0 0 0 0 0 0 0 0 0 0 0 0 0 0 0 127 0" result="hardAlpha"/>
<feMorphology radius="8" operator="dilate" in="SourceAlpha" result="effect1_dropShadow_512_167"/>
<feOffset/>
<feGaussianBlur stdDeviation="12"/>
<feComposite in2="hardAlpha" operator="out"/>
<feColorMatrix type="matrix" values="0 0 0 0 0 0 0 0 0 0 0 0 0 0 0 0 0 0 0.21 0"/>
<feBlend mode="normal" in2="BackgroundImageFix" result="effect1_dropShadow_512_167"/>
<feBlend mode="normal" in="SourceGraphic" in2="effect1_dropShadow_512_167" result="shape"/>
</filter>
</defs>
</svg>
