<svg width="859" height="268" viewBox="0 0 859 268" fill="none" xmlns="http://www.w3.org/2000/svg">
<path d="M175.364 129.256C174.023 129.256 172.869 128.972 171.903 128.403C170.943 127.83 170.205 127.034 169.688 126.017C169.176 125 168.92 123.83 168.92 122.506C168.92 121.165 169.179 119.989 169.696 118.977C170.219 117.96 170.96 117.168 171.92 116.599C172.881 116.026 174.023 115.739 175.347 115.739C176.489 115.739 177.489 115.946 178.347 116.361C179.205 116.776 179.884 117.358 180.384 118.108C180.884 118.858 181.159 119.739 181.21 120.75H177.784C177.688 120.097 177.432 119.571 177.017 119.173C176.608 118.77 176.071 118.568 175.406 118.568C174.844 118.568 174.352 118.722 173.932 119.028C173.517 119.33 173.193 119.77 172.96 120.349C172.727 120.929 172.611 121.631 172.611 122.455C172.611 123.29 172.724 124 172.952 124.585C173.185 125.17 173.511 125.616 173.932 125.923C174.352 126.23 174.844 126.384 175.406 126.384C175.821 126.384 176.193 126.298 176.523 126.128C176.858 125.957 177.134 125.71 177.349 125.386C177.571 125.057 177.716 124.662 177.784 124.202H181.21C181.153 125.202 180.881 126.082 180.392 126.844C179.909 127.599 179.241 128.19 178.389 128.616C177.537 129.043 176.528 129.256 175.364 129.256Z" fill="#1E1E1E"/>
<rect x="329.5" y="197.5" width="528" height="69" rx="34.5" stroke="white" stroke-opacity="0.51" stroke-width="3"/>
<path d="M365.035 242L359.405 222.56H361.916L366.236 237.936L370.543 222.573L373.067 222.56L377.387 237.936L381.694 222.56H384.218L378.589 242H376.186L371.812 226.758L367.438 242H365.035ZM390.608 242.405C389.159 242.405 387.908 242.077 386.855 241.419C385.811 240.762 385.005 239.853 384.438 238.692C383.871 237.531 383.588 236.199 383.588 234.696C383.588 233.166 383.876 231.825 384.452 230.673C385.028 229.521 385.842 228.626 386.895 227.987C387.948 227.339 389.186 227.015 390.608 227.015C392.066 227.015 393.321 227.343 394.374 228C395.427 228.648 396.233 229.553 396.791 230.714C397.358 231.866 397.641 233.193 397.641 234.696C397.641 236.217 397.358 237.558 396.791 238.719C396.224 239.871 395.414 240.776 394.361 241.433C393.308 242.081 392.057 242.405 390.608 242.405ZM390.608 240.123C392.12 240.123 393.245 239.619 393.983 238.611C394.721 237.603 395.09 236.298 395.09 234.696C395.09 233.049 394.716 231.74 393.969 230.768C393.222 229.787 392.102 229.296 390.608 229.296C389.591 229.296 388.754 229.526 388.097 229.985C387.44 230.444 386.949 231.078 386.625 231.888C386.301 232.698 386.139 233.634 386.139 234.696C386.139 236.334 386.517 237.648 387.273 238.638C388.029 239.628 389.141 240.123 390.608 240.123ZM400.1 242V227.42H402.247V230.943L401.896 230.484C402.067 230.034 402.287 229.62 402.557 229.242C402.836 228.864 403.147 228.554 403.489 228.311C403.867 228.005 404.294 227.771 404.771 227.609C405.248 227.447 405.734 227.352 406.229 227.325C406.724 227.289 407.188 227.321 407.62 227.42V229.674C407.116 229.539 406.562 229.503 405.959 229.566C405.356 229.629 404.798 229.85 404.285 230.228C403.817 230.561 403.453 230.966 403.192 231.443C402.94 231.92 402.764 232.437 402.665 232.995C402.566 233.544 402.517 234.107 402.517 234.683V242H400.1ZM409.646 242L409.66 222.56H412.09V234.44L418.205 227.42H421.324L414.884 234.71L422.08 242H418.718L412.09 234.98V242H409.646ZM428.155 242.392C426.418 242.392 424.991 242.013 423.875 241.257C422.768 240.492 422.089 239.426 421.837 238.058L424.294 237.666C424.492 238.458 424.946 239.088 425.657 239.556C426.368 240.015 427.25 240.245 428.303 240.245C429.302 240.245 430.085 240.038 430.652 239.624C431.219 239.21 431.503 238.647 431.503 237.936C431.503 237.522 431.408 237.189 431.219 236.937C431.03 236.676 430.639 236.433 430.045 236.208C429.46 235.983 428.573 235.713 427.385 235.398C426.098 235.056 425.086 234.701 424.348 234.332C423.61 233.963 423.083 233.535 422.768 233.049C422.453 232.563 422.296 231.974 422.296 231.281C422.296 230.426 422.53 229.679 422.998 229.04C423.466 228.392 424.118 227.892 424.955 227.541C425.801 227.19 426.782 227.015 427.898 227.015C429.005 227.015 429.995 227.19 430.868 227.541C431.741 227.892 432.443 228.392 432.974 229.04C433.514 229.679 433.834 230.426 433.933 231.281L431.476 231.726C431.359 230.943 430.981 230.327 430.342 229.877C429.712 229.427 428.897 229.188 427.898 229.161C426.953 229.125 426.184 229.292 425.59 229.661C425.005 230.03 424.712 230.529 424.712 231.159C424.712 231.51 424.82 231.812 425.036 232.064C425.261 232.316 425.671 232.554 426.265 232.779C426.868 233.004 427.741 233.261 428.884 233.549C430.171 233.873 431.183 234.228 431.921 234.615C432.668 234.993 433.199 235.443 433.514 235.965C433.829 236.478 433.987 237.113 433.987 237.869C433.987 239.273 433.469 240.38 432.434 241.19C431.399 241.991 429.973 242.392 428.155 242.392ZM447.553 242.405C446.104 242.405 444.853 242.077 443.8 241.419C442.756 240.762 441.951 239.853 441.384 238.692C440.817 237.531 440.533 236.199 440.533 234.696C440.533 233.166 440.821 231.825 441.397 230.673C441.973 229.521 442.788 228.626 443.841 227.987C444.894 227.339 446.131 227.015 447.553 227.015C449.011 227.015 450.267 227.343 451.32 228C452.373 228.648 453.178 229.553 453.736 230.714C454.303 231.866 454.587 233.193 454.587 234.696C454.587 236.217 454.303 237.558 453.736 238.719C453.169 239.871 452.359 240.776 451.306 241.433C450.253 242.081 449.002 242.405 447.553 242.405ZM447.553 240.123C449.065 240.123 450.19 239.619 450.928 238.611C451.666 237.603 452.035 236.298 452.035 234.696C452.035 233.049 451.662 231.74 450.915 230.768C450.168 229.787 449.047 229.296 447.553 229.296C446.536 229.296 445.699 229.526 445.042 229.985C444.385 230.444 443.895 231.078 443.571 231.888C443.247 232.698 443.085 233.634 443.085 234.696C443.085 236.334 443.463 237.648 444.219 238.638C444.975 239.628 446.086 240.123 447.553 240.123ZM467.428 242V234.696C467.428 234.003 467.365 233.337 467.239 232.698C467.122 232.059 466.91 231.488 466.604 230.984C466.307 230.471 465.902 230.066 465.389 229.769C464.885 229.472 464.246 229.323 463.472 229.323C462.869 229.323 462.32 229.427 461.825 229.634C461.339 229.832 460.921 230.138 460.57 230.552C460.219 230.966 459.944 231.488 459.746 232.118C459.557 232.739 459.463 233.472 459.463 234.318L457.883 233.832C457.883 232.419 458.135 231.209 458.639 230.201C459.152 229.184 459.868 228.405 460.786 227.865C461.713 227.316 462.802 227.042 464.053 227.042C464.998 227.042 465.803 227.19 466.469 227.487C467.135 227.784 467.689 228.18 468.13 228.675C468.571 229.161 468.917 229.71 469.169 230.322C469.421 230.925 469.597 231.542 469.696 232.172C469.804 232.793 469.858 233.382 469.858 233.94V242H467.428ZM457.033 242V227.42H459.193V231.321H459.463V242H457.033ZM477.747 242V222.56H485.428C485.617 222.56 485.842 222.569 486.103 222.587C486.364 222.596 486.616 222.623 486.859 222.668C487.912 222.83 488.794 223.19 489.505 223.748C490.225 224.306 490.765 225.012 491.125 225.867C491.485 226.713 491.665 227.654 491.665 228.689C491.665 229.715 491.481 230.655 491.112 231.51C490.752 232.356 490.212 233.063 489.492 233.63C488.781 234.188 487.903 234.548 486.859 234.71C486.616 234.746 486.364 234.773 486.103 234.791C485.842 234.809 485.617 234.818 485.428 234.818H480.15V242H477.747ZM480.15 232.536H485.347C485.518 232.536 485.712 232.527 485.928 232.509C486.153 232.491 486.364 232.46 486.562 232.415C487.183 232.271 487.687 232.01 488.074 231.632C488.47 231.245 488.758 230.795 488.938 230.282C489.118 229.76 489.208 229.229 489.208 228.689C489.208 228.149 489.118 227.622 488.938 227.109C488.758 226.587 488.47 226.133 488.074 225.746C487.687 225.359 487.183 225.098 486.562 224.963C486.364 224.909 486.153 224.877 485.928 224.868C485.712 224.85 485.518 224.841 485.347 224.841H480.15V232.536ZM493.845 242V227.42H495.991V230.943L495.64 230.484C495.811 230.034 496.032 229.62 496.302 229.242C496.581 228.864 496.891 228.554 497.233 228.311C497.611 228.005 498.039 227.771 498.516 227.609C498.993 227.447 499.479 227.352 499.974 227.325C500.469 227.289 500.932 227.321 501.364 227.42V229.674C500.86 229.539 500.307 229.503 499.704 229.566C499.101 229.629 498.543 229.85 498.03 230.228C497.562 230.561 497.197 230.966 496.936 231.443C496.684 231.92 496.509 232.437 496.41 232.995C496.311 233.544 496.261 234.107 496.261 234.683V242H493.845ZM503.674 224.841V222.357H506.077V224.841H503.674ZM503.674 242V227.42H506.077V242H503.674ZM513.557 242L508.265 227.42H510.695L514.785 238.935L518.862 227.42H521.306L516.014 242H513.557ZM526.562 242.405C525.473 242.405 524.559 242.207 523.821 241.811C523.092 241.406 522.539 240.875 522.161 240.218C521.792 239.561 521.607 238.841 521.607 238.058C521.607 237.293 521.751 236.631 522.039 236.073C522.336 235.506 522.75 235.038 523.281 234.669C523.812 234.291 524.447 233.994 525.185 233.778C525.878 233.589 526.652 233.427 527.507 233.292C528.371 233.148 529.244 233.018 530.126 232.901C531.008 232.784 531.831 232.671 532.596 232.563L531.732 233.063C531.759 231.767 531.498 230.808 530.949 230.187C530.409 229.566 529.473 229.256 528.141 229.256C527.259 229.256 526.485 229.458 525.819 229.863C525.162 230.259 524.699 230.907 524.429 231.807L522.147 231.119C522.498 229.841 523.178 228.837 524.186 228.108C525.194 227.379 526.521 227.015 528.168 227.015C529.491 227.015 530.625 227.253 531.57 227.73C532.524 228.198 533.208 228.909 533.622 229.863C533.829 230.313 533.96 230.804 534.014 231.335C534.068 231.857 534.095 232.406 534.095 232.982V242H531.962V238.503L532.461 238.827C531.912 240.006 531.143 240.897 530.153 241.5C529.172 242.104 527.975 242.405 526.562 242.405ZM526.926 240.393C527.79 240.393 528.537 240.24 529.167 239.934C529.806 239.619 530.319 239.21 530.706 238.706C531.093 238.193 531.345 237.635 531.462 237.032C531.597 236.582 531.669 236.082 531.678 235.533C531.696 234.975 531.705 234.548 531.705 234.251L532.542 234.615C531.759 234.723 530.99 234.827 530.234 234.926C529.478 235.025 528.762 235.133 528.087 235.25C527.412 235.358 526.805 235.488 526.265 235.641C525.869 235.767 525.495 235.929 525.144 236.127C524.802 236.325 524.523 236.582 524.307 236.897C524.1 237.203 523.997 237.585 523.997 238.044C523.997 238.44 524.096 238.818 524.294 239.178C524.501 239.538 524.816 239.831 525.239 240.056C525.671 240.281 526.233 240.393 526.926 240.393ZM545.232 242C544.368 242.171 543.513 242.239 542.667 242.203C541.83 242.176 541.083 242.009 540.426 241.703C539.769 241.388 539.27 240.902 538.928 240.245C538.64 239.669 538.482 239.088 538.455 238.503C538.437 237.909 538.428 237.239 538.428 236.492V223.37H540.831V236.384C540.831 236.978 540.836 237.486 540.845 237.909C540.863 238.332 540.957 238.697 541.128 239.003C541.452 239.579 541.965 239.916 542.667 240.016C543.378 240.114 544.233 240.087 545.232 239.934V242ZM535.472 229.404V227.42H545.232V229.404H535.472ZM553.391 242.405C551.96 242.405 550.709 242.09 549.638 241.46C548.576 240.821 547.748 239.934 547.154 238.8C546.56 237.657 546.263 236.325 546.263 234.804C546.263 233.211 546.555 231.834 547.14 230.673C547.725 229.503 548.54 228.603 549.584 227.973C550.637 227.334 551.87 227.015 553.283 227.015C554.75 227.015 555.996 227.352 557.022 228.027C558.057 228.702 558.831 229.665 559.344 230.916C559.866 232.167 560.091 233.657 560.019 235.385H557.589V234.521C557.562 232.73 557.198 231.393 556.496 230.511C555.794 229.62 554.75 229.175 553.364 229.175C551.879 229.175 550.749 229.652 549.975 230.606C549.201 231.56 548.814 232.928 548.814 234.71C548.814 236.429 549.201 237.761 549.975 238.706C550.749 239.651 551.852 240.123 553.283 240.123C554.246 240.123 555.083 239.903 555.794 239.462C556.505 239.021 557.063 238.386 557.468 237.558L559.776 238.355C559.209 239.642 558.354 240.641 557.211 241.352C556.077 242.054 554.804 242.405 553.391 242.405ZM548.004 235.385V233.454H558.777V235.385H548.004ZM572.318 222.56H574.762L569.578 242H567.134L572.318 222.56ZM590.639 242.405C588.704 242.405 587.061 241.977 585.711 241.122C584.361 240.267 583.331 239.079 582.62 237.558C581.918 236.037 581.567 234.278 581.567 232.28C581.567 230.282 581.918 228.522 582.62 227.001C583.331 225.48 584.361 224.292 585.711 223.437C587.061 222.582 588.704 222.155 590.639 222.155C592.889 222.155 594.738 222.726 596.187 223.869C597.645 225.012 598.649 226.551 599.198 228.486L596.754 229.134C596.358 227.685 595.652 226.542 594.635 225.705C593.618 224.868 592.286 224.45 590.639 224.45C589.19 224.45 587.984 224.778 587.021 225.435C586.058 226.092 585.333 227.01 584.847 228.189C584.361 229.359 584.114 230.723 584.105 232.28C584.096 233.828 584.334 235.191 584.82 236.37C585.306 237.54 586.035 238.458 587.007 239.124C587.979 239.781 589.19 240.11 590.639 240.11C592.286 240.11 593.618 239.691 594.635 238.854C595.652 238.008 596.358 236.865 596.754 235.425L599.198 236.073C598.649 237.999 597.645 239.538 596.187 240.69C594.738 241.833 592.889 242.405 590.639 242.405ZM607.856 242.405C606.407 242.405 605.156 242.077 604.103 241.419C603.059 240.762 602.253 239.853 601.686 238.692C601.119 237.531 600.836 236.199 600.836 234.696C600.836 233.166 601.124 231.825 601.7 230.673C602.276 229.521 603.09 228.626 604.143 227.987C605.196 227.339 606.434 227.015 607.856 227.015C609.314 227.015 610.569 227.343 611.622 228C612.675 228.648 613.481 229.553 614.039 230.714C614.606 231.866 614.889 233.193 614.889 234.696C614.889 236.217 614.606 237.558 614.039 238.719C613.472 239.871 612.662 240.776 611.609 241.433C610.556 242.081 609.305 242.405 607.856 242.405ZM607.856 240.123C609.368 240.123 610.493 239.619 611.231 238.611C611.969 237.603 612.338 236.298 612.338 234.696C612.338 233.049 611.964 231.74 611.217 230.768C610.47 229.787 609.35 229.296 607.856 229.296C606.839 229.296 606.002 229.526 605.345 229.985C604.688 230.444 604.197 231.078 603.873 231.888C603.549 232.698 603.387 233.634 603.387 234.696C603.387 236.334 603.765 237.648 604.521 238.638C605.277 239.628 606.389 240.123 607.856 240.123ZM634.777 242L634.79 232.671C634.79 231.582 634.498 230.732 633.913 230.12C633.337 229.499 632.585 229.188 631.658 229.188C631.118 229.188 630.605 229.314 630.119 229.566C629.633 229.809 629.237 230.196 628.931 230.727C628.625 231.249 628.472 231.92 628.472 232.739L627.203 232.226C627.185 231.191 627.397 230.286 627.838 229.512C628.288 228.729 628.9 228.122 629.674 227.69C630.448 227.258 631.321 227.042 632.293 227.042C633.814 227.042 635.011 227.505 635.884 228.433C636.757 229.35 637.193 230.588 637.193 232.145L637.18 242H634.777ZM617.335 242V227.42H619.481V231.321H619.751V242H617.335ZM626.069 242L626.083 232.766C626.083 231.65 625.795 230.777 625.219 230.147C624.643 229.508 623.878 229.188 622.924 229.188C621.979 229.188 621.214 229.512 620.629 230.16C620.044 230.808 619.751 231.668 619.751 232.739L618.482 231.983C618.482 231.038 618.707 230.192 619.157 229.445C619.607 228.698 620.219 228.113 620.993 227.69C621.767 227.258 622.645 227.042 623.626 227.042C624.607 227.042 625.462 227.249 626.191 227.663C626.92 228.077 627.482 228.671 627.878 229.445C628.274 230.21 628.472 231.123 628.472 232.185L628.459 242H626.069ZM657.625 242L657.639 232.671C657.639 231.582 657.346 230.732 656.761 230.12C656.185 229.499 655.434 229.188 654.507 229.188C653.967 229.188 653.454 229.314 652.968 229.566C652.482 229.809 652.086 230.196 651.78 230.727C651.474 231.249 651.321 231.92 651.321 232.739L650.052 232.226C650.034 231.191 650.245 230.286 650.686 229.512C651.136 228.729 651.748 228.122 652.522 227.69C653.296 227.258 654.169 227.042 655.141 227.042C656.662 227.042 657.859 227.505 658.732 228.433C659.605 229.35 660.042 230.588 660.042 232.145L660.028 242H657.625ZM640.183 242V227.42H642.33V231.321H642.6V242H640.183ZM648.918 242L648.931 232.766C648.931 231.65 648.643 230.777 648.067 230.147C647.491 229.508 646.726 229.188 645.772 229.188C644.827 229.188 644.062 229.512 643.477 230.16C642.892 230.808 642.6 231.668 642.6 232.739L641.331 231.983C641.331 231.038 641.556 230.192 642.006 229.445C642.456 228.698 643.068 228.113 643.842 227.69C644.616 227.258 645.493 227.042 646.474 227.042C647.455 227.042 648.31 227.249 649.039 227.663C649.768 228.077 650.331 228.671 650.727 229.445C651.123 230.21 651.321 231.123 651.321 232.185L651.307 242H648.918ZM669.231 242.405C667.8 242.405 666.549 242.09 665.478 241.46C664.416 240.821 663.588 239.934 662.994 238.8C662.4 237.657 662.103 236.325 662.103 234.804C662.103 233.211 662.396 231.834 662.981 230.673C663.566 229.503 664.38 228.603 665.424 227.973C666.477 227.334 667.71 227.015 669.123 227.015C670.59 227.015 671.837 227.352 672.863 228.027C673.898 228.702 674.672 229.665 675.185 230.916C675.707 232.167 675.932 233.657 675.86 235.385H673.43V234.521C673.403 232.73 673.038 231.393 672.336 230.511C671.634 229.62 670.59 229.175 669.204 229.175C667.719 229.175 666.59 229.652 665.816 230.606C665.042 231.56 664.655 232.928 664.655 234.71C664.655 236.429 665.042 237.761 665.816 238.706C666.59 239.651 667.692 240.123 669.123 240.123C670.086 240.123 670.923 239.903 671.634 239.462C672.345 239.021 672.903 238.386 673.308 237.558L675.617 238.355C675.05 239.642 674.195 240.641 673.052 241.352C671.918 242.054 670.644 242.405 669.231 242.405ZM663.845 235.385V233.454H674.618V235.385H663.845ZM678.352 242V227.42H680.499V230.943L680.148 230.484C680.319 230.034 680.539 229.62 680.809 229.242C681.088 228.864 681.399 228.554 681.741 228.311C682.119 228.005 682.546 227.771 683.023 227.609C683.5 227.447 683.986 227.352 684.481 227.325C684.976 227.289 685.44 227.321 685.872 227.42V229.674C685.368 229.539 684.814 229.503 684.211 229.566C683.608 229.629 683.05 229.85 682.537 230.228C682.069 230.561 681.705 230.966 681.444 231.443C681.192 231.92 681.016 232.437 680.917 232.995C680.818 233.544 680.769 234.107 680.769 234.683V242H678.352ZM693.79 242.405C692.314 242.405 691.059 242.077 690.024 241.419C688.998 240.753 688.215 239.84 687.675 238.679C687.135 237.518 686.856 236.195 686.838 234.71C686.856 233.189 687.139 231.852 687.688 230.7C688.246 229.539 689.043 228.635 690.078 227.987C691.113 227.339 692.359 227.015 693.817 227.015C695.356 227.015 696.679 227.393 697.786 228.149C698.902 228.905 699.649 229.94 700.027 231.254L697.651 231.969C697.345 231.123 696.846 230.466 696.153 229.998C695.469 229.53 694.681 229.296 693.79 229.296C692.791 229.296 691.968 229.53 691.32 229.998C690.672 230.457 690.19 231.096 689.875 231.915C689.56 232.725 689.398 233.657 689.389 234.71C689.407 236.33 689.781 237.639 690.51 238.638C691.248 239.628 692.341 240.123 693.79 240.123C694.744 240.123 695.536 239.907 696.166 239.475C696.796 239.034 697.273 238.4 697.597 237.572L700.027 238.206C699.523 239.565 698.736 240.605 697.665 241.325C696.594 242.045 695.302 242.405 693.79 242.405ZM702.144 224.841V222.357H704.547V224.841H702.144ZM702.144 242V227.42H704.547V242H702.144ZM712.229 242.405C711.14 242.405 710.227 242.207 709.489 241.811C708.76 241.406 708.206 240.875 707.828 240.218C707.459 239.561 707.275 238.841 707.275 238.058C707.275 237.293 707.419 236.631 707.707 236.073C708.004 235.506 708.418 235.038 708.949 234.669C709.48 234.291 710.114 233.994 710.852 233.778C711.545 233.589 712.319 233.427 713.174 233.292C714.038 233.148 714.911 233.018 715.793 232.901C716.675 232.784 717.499 232.671 718.264 232.563L717.4 233.063C717.427 231.767 717.166 230.808 716.617 230.187C716.077 229.566 715.141 229.256 713.809 229.256C712.927 229.256 712.153 229.458 711.487 229.863C710.83 230.259 710.366 230.907 710.096 231.807L707.815 231.119C708.166 229.841 708.845 228.837 709.853 228.108C710.861 227.379 712.189 227.015 713.836 227.015C715.159 227.015 716.293 227.253 717.238 227.73C718.192 228.198 718.876 228.909 719.29 229.863C719.497 230.313 719.627 230.804 719.681 231.335C719.735 231.857 719.762 232.406 719.762 232.982V242H717.629V238.503L718.129 238.827C717.58 240.006 716.81 240.897 715.82 241.5C714.839 242.104 713.642 242.405 712.229 242.405ZM712.594 240.393C713.458 240.393 714.205 240.24 714.835 239.934C715.474 239.619 715.987 239.21 716.374 238.706C716.761 238.193 717.013 237.635 717.13 237.032C717.265 236.582 717.337 236.082 717.346 235.533C717.364 234.975 717.373 234.548 717.373 234.251L718.21 234.615C717.427 234.723 716.657 234.827 715.901 234.926C715.145 235.025 714.43 235.133 713.755 235.25C713.08 235.358 712.472 235.488 711.932 235.641C711.536 235.767 711.163 235.929 710.812 236.127C710.47 236.325 710.191 236.582 709.975 236.897C709.768 237.203 709.664 237.585 709.664 238.044C709.664 238.44 709.763 238.818 709.961 239.178C710.168 239.538 710.483 239.831 710.906 240.056C711.338 240.281 711.901 240.393 712.594 240.393ZM723.029 242V222.155H725.432V242H723.029ZM742.259 242V238.422H733.322V236.141L739.735 222.56H742.462L736.049 236.141H742.259V230.673H744.689V236.141H746.714V238.422H744.689V242H742.259ZM757.304 242.405C755.972 242.405 754.757 242.171 753.659 241.703C752.561 241.235 751.616 240.564 750.824 239.691C750.032 238.809 749.42 237.747 748.988 236.505C748.565 235.254 748.353 233.846 748.353 232.28C748.353 230.21 748.722 228.419 749.46 226.907C750.198 225.395 751.238 224.229 752.579 223.41C753.92 222.582 755.495 222.168 757.304 222.168C759.482 222.168 761.237 222.677 762.569 223.694C763.901 224.702 764.819 226.083 765.323 227.838L762.893 228.338C762.488 227.159 761.822 226.218 760.895 225.516C759.968 224.814 758.811 224.463 757.425 224.463C755.976 224.454 754.77 224.778 753.807 225.435C752.853 226.083 752.133 226.997 751.647 228.176C751.161 229.355 750.914 230.723 750.905 232.28C750.896 233.828 751.134 235.187 751.62 236.357C752.106 237.527 752.831 238.445 753.794 239.111C754.766 239.768 755.976 240.101 757.425 240.11C758.676 240.119 759.729 239.88 760.584 239.394C761.439 238.908 762.101 238.206 762.569 237.288C763.037 236.37 763.32 235.268 763.419 233.981H759.288V231.996H765.957C765.984 232.176 765.998 232.392 765.998 232.644C766.007 232.887 766.011 233.054 766.011 233.144C766.011 234.917 765.678 236.505 765.012 237.909C764.355 239.304 763.379 240.402 762.083 241.203C760.796 242.004 759.203 242.405 757.304 242.405ZM779.405 242.405C778.325 242.405 777.317 242.248 776.381 241.932C775.445 241.617 774.662 241.122 774.032 240.447C773.546 239.907 773.181 239.313 772.938 238.665C772.704 238.008 772.574 237.315 772.547 236.586C772.547 235.875 772.65 235.182 772.857 234.507C773.064 233.823 773.393 233.216 773.843 232.685C774.077 232.397 774.338 232.154 774.626 231.956C774.923 231.749 775.22 231.573 775.517 231.429C774.896 230.763 774.419 230.138 774.086 229.553C773.762 228.968 773.6 228.261 773.6 227.434C773.6 226.38 773.87 225.431 774.41 224.585C774.959 223.73 775.706 223.104 776.651 222.708C777.11 222.51 777.578 222.375 778.055 222.303C778.541 222.222 779.013 222.182 779.472 222.182C780.246 222.182 780.998 222.29 781.727 222.506C782.456 222.722 783.077 223.073 783.59 223.559C783.932 223.847 784.224 224.18 784.467 224.558C784.71 224.927 784.899 225.314 785.034 225.719L782.685 226.326C782.514 225.867 782.231 225.48 781.835 225.165C781.52 224.895 781.151 224.711 780.728 224.612C780.314 224.513 779.895 224.463 779.472 224.463C778.77 224.463 778.136 224.598 777.569 224.868C777.065 225.111 776.687 225.453 776.435 225.894C776.183 226.326 776.057 226.839 776.057 227.434C776.057 227.946 776.142 228.369 776.313 228.702C776.493 229.026 776.741 229.373 777.056 229.742C777.245 229.94 777.456 230.151 777.69 230.376C777.933 230.592 778.181 230.817 778.433 231.051L784.157 236.37C784.184 236.145 784.202 235.916 784.211 235.682C784.22 235.448 784.224 235.223 784.224 235.007L784.211 232.32H786.411V235.479C786.411 236.118 786.389 236.663 786.344 237.113C786.308 237.563 786.245 237.936 786.155 238.233L788.625 240.515L787.059 242.189L785.007 240.245C784.656 240.641 784.238 240.987 783.752 241.284C783.266 241.581 782.78 241.806 782.294 241.959C781.835 242.131 781.362 242.248 780.876 242.311C780.39 242.374 779.9 242.405 779.405 242.405ZM779.459 240.096C779.9 240.096 780.3 240.069 780.66 240.016C781.02 239.961 781.362 239.858 781.686 239.705C782.118 239.498 782.451 239.3 782.685 239.111C782.919 238.922 783.113 238.746 783.266 238.584L777.339 233.157C777.015 233.265 776.709 233.409 776.421 233.589C776.142 233.769 775.899 233.981 775.692 234.224C775.458 234.512 775.283 234.849 775.166 235.236C775.058 235.623 775.004 236.033 775.004 236.465C775.013 236.924 775.089 237.347 775.233 237.734C775.377 238.121 775.58 238.467 775.841 238.773C776.237 239.232 776.772 239.57 777.447 239.786C778.122 239.993 778.793 240.096 779.459 240.096ZM800.962 242.405C799.963 242.405 799.032 242.198 798.168 241.784C797.313 241.37 796.579 240.803 795.967 240.083C795.364 239.354 794.932 238.517 794.671 237.572L796.98 236.951C797.142 237.59 797.43 238.143 797.844 238.611C798.258 239.07 798.739 239.43 799.288 239.691C799.846 239.943 800.427 240.069 801.03 240.069C801.822 240.069 802.533 239.88 803.163 239.502C803.802 239.115 804.306 238.607 804.675 237.977C805.044 237.338 805.228 236.64 805.228 235.884C805.228 235.101 805.035 234.395 804.648 233.765C804.27 233.126 803.761 232.622 803.122 232.253C802.483 231.884 801.786 231.699 801.03 231.699C800.175 231.699 799.441 231.879 798.829 232.239C798.226 232.59 797.749 233.022 797.398 233.535L795.265 232.725L795.859 222.56H806.295V224.841H797.02L798.087 223.842L797.587 231.983L797.061 231.294C797.601 230.718 798.244 230.273 798.991 229.958C799.747 229.643 800.517 229.485 801.3 229.485C802.506 229.485 803.586 229.769 804.54 230.336C805.494 230.894 806.25 231.659 806.808 232.631C807.366 233.594 807.645 234.678 807.645 235.884C807.645 237.081 807.339 238.175 806.727 239.165C806.115 240.146 805.3 240.933 804.283 241.527C803.275 242.113 802.168 242.405 800.962 242.405ZM818.231 242.405C816.899 242.405 815.684 242.171 814.586 241.703C813.488 241.235 812.543 240.564 811.751 239.691C810.959 238.809 810.347 237.747 809.915 236.505C809.492 235.254 809.28 233.846 809.28 232.28C809.28 230.21 809.649 228.419 810.387 226.907C811.125 225.395 812.165 224.229 813.506 223.41C814.847 222.582 816.422 222.168 818.231 222.168C820.409 222.168 822.164 222.677 823.496 223.694C824.828 224.702 825.746 226.083 826.25 227.838L823.82 228.338C823.415 227.159 822.749 226.218 821.822 225.516C820.895 224.814 819.738 224.463 818.352 224.463C816.903 224.454 815.697 224.778 814.734 225.435C813.78 226.083 813.06 226.997 812.574 228.176C812.088 229.355 811.841 230.723 811.832 232.28C811.823 233.828 812.061 235.187 812.547 236.357C813.033 237.527 813.758 238.445 814.721 239.111C815.693 239.768 816.903 240.101 818.352 240.11C819.603 240.119 820.656 239.88 821.511 239.394C822.366 238.908 823.028 238.206 823.496 237.288C823.964 236.37 824.247 235.268 824.346 233.981H820.215V231.996H826.884C826.911 232.176 826.925 232.392 826.925 232.644C826.934 232.887 826.938 233.054 826.938 233.144C826.938 234.917 826.605 236.505 825.939 237.909C825.282 239.304 824.306 240.402 823.01 241.203C821.723 242.004 820.13 242.405 818.231 242.405Z" fill="white"/>
<rect x="329.5" y="99.5" width="494" height="69" rx="34.5" stroke="white" stroke-opacity="0.51" stroke-width="3"/>
<path d="M361.16 144V124.56H363.563V144H361.16ZM377.482 144V136.696C377.482 136.003 377.419 135.337 377.293 134.698C377.176 134.059 376.965 133.488 376.659 132.984C376.362 132.471 375.957 132.066 375.444 131.769C374.94 131.472 374.301 131.323 373.527 131.323C372.924 131.323 372.375 131.427 371.88 131.634C371.394 131.832 370.975 132.138 370.624 132.552C370.273 132.966 369.999 133.488 369.801 134.118C369.612 134.739 369.517 135.472 369.517 136.318L367.938 135.832C367.938 134.419 368.19 133.209 368.694 132.201C369.207 131.184 369.922 130.405 370.84 129.865C371.767 129.316 372.856 129.042 374.107 129.042C375.052 129.042 375.858 129.19 376.524 129.487C377.19 129.784 377.743 130.18 378.184 130.675C378.625 131.161 378.972 131.71 379.224 132.322C379.476 132.925 379.651 133.542 379.75 134.172C379.858 134.793 379.912 135.382 379.912 135.94V144H377.482ZM367.087 144V129.42H369.247V133.321H369.517V144H367.087ZM391.049 144C390.185 144.171 389.33 144.239 388.484 144.203C387.647 144.176 386.9 144.009 386.243 143.703C385.586 143.388 385.087 142.902 384.745 142.245C384.457 141.669 384.299 141.088 384.272 140.503C384.254 139.909 384.245 139.239 384.245 138.492V125.37H386.648V138.384C386.648 138.978 386.653 139.486 386.662 139.909C386.68 140.332 386.774 140.697 386.945 141.003C387.269 141.579 387.782 141.916 388.484 142.016C389.195 142.114 390.05 142.087 391.049 141.934V144ZM381.289 131.404V129.42H391.049V131.404H381.289ZM399.208 144.405C397.777 144.405 396.526 144.09 395.455 143.46C394.393 142.821 393.565 141.934 392.971 140.8C392.377 139.657 392.08 138.325 392.08 136.804C392.08 135.211 392.373 133.834 392.958 132.673C393.543 131.503 394.357 130.603 395.401 129.973C396.454 129.334 397.687 129.015 399.1 129.015C400.567 129.015 401.814 129.352 402.84 130.027C403.875 130.702 404.649 131.665 405.162 132.916C405.684 134.167 405.909 135.657 405.837 137.385H403.407V136.521C403.38 134.73 403.015 133.393 402.313 132.511C401.611 131.62 400.567 131.175 399.181 131.175C397.696 131.175 396.567 131.652 395.793 132.606C395.019 133.56 394.632 134.928 394.632 136.71C394.632 138.429 395.019 139.761 395.793 140.706C396.567 141.651 397.669 142.123 399.1 142.123C400.063 142.123 400.9 141.903 401.611 141.462C402.322 141.021 402.88 140.386 403.285 139.558L405.594 140.355C405.027 141.642 404.172 142.641 403.029 143.352C401.895 144.054 400.621 144.405 399.208 144.405ZM393.822 137.385V135.454H404.595V137.385H393.822ZM408.329 144V129.42H410.476V132.943L410.125 132.484C410.296 132.034 410.516 131.62 410.786 131.242C411.065 130.864 411.376 130.554 411.718 130.311C412.096 130.005 412.523 129.771 413 129.609C413.477 129.447 413.963 129.352 414.458 129.325C414.953 129.289 415.417 129.321 415.849 129.42V131.674C415.345 131.539 414.791 131.503 414.188 131.566C413.585 131.629 413.027 131.85 412.514 132.228C412.046 132.561 411.682 132.966 411.421 133.443C411.169 133.92 410.993 134.437 410.894 134.995C410.795 135.544 410.746 136.107 410.746 136.683V144H408.329ZM423.835 144.405C422.386 144.405 421.135 144.077 420.082 143.419C419.038 142.762 418.232 141.853 417.665 140.692C417.098 139.531 416.815 138.199 416.815 136.696C416.815 135.166 417.103 133.825 417.679 132.673C418.255 131.521 419.069 130.626 420.122 129.987C421.175 129.339 422.413 129.015 423.835 129.015C425.293 129.015 426.548 129.343 427.601 130C428.654 130.648 429.46 131.553 430.018 132.714C430.585 133.866 430.868 135.193 430.868 136.696C430.868 138.217 430.585 139.558 430.018 140.719C429.451 141.871 428.641 142.776 427.588 143.433C426.535 144.081 425.284 144.405 423.835 144.405ZM423.835 142.123C425.347 142.123 426.472 141.619 427.21 140.611C427.948 139.603 428.317 138.298 428.317 136.696C428.317 135.049 427.943 133.74 427.196 132.768C426.449 131.787 425.329 131.296 423.835 131.296C422.818 131.296 421.981 131.526 421.324 131.985C420.667 132.444 420.176 133.078 419.852 133.888C419.528 134.698 419.366 135.634 419.366 136.696C419.366 138.334 419.744 139.648 420.5 140.638C421.256 141.628 422.368 142.123 423.835 142.123ZM440.024 144.405C438.656 144.405 437.504 144.068 436.568 143.392C435.632 142.708 434.921 141.786 434.435 140.625C433.958 139.455 433.719 138.145 433.719 136.696C433.719 135.229 433.958 133.915 434.435 132.754C434.921 131.593 435.632 130.68 436.568 130.014C437.513 129.348 438.669 129.015 440.037 129.015C441.387 129.015 442.548 129.352 443.52 130.027C444.501 130.693 445.253 131.607 445.775 132.768C446.297 133.929 446.558 135.238 446.558 136.696C446.558 138.154 446.297 139.464 445.775 140.625C445.253 141.786 444.501 142.708 443.52 143.392C442.548 144.068 441.383 144.405 440.024 144.405ZM433.314 150.48V129.42H435.461V140.152H435.731V150.48H433.314ZM439.727 142.204C440.69 142.204 441.486 141.961 442.116 141.475C442.746 140.989 443.219 140.332 443.534 139.504C443.849 138.667 444.006 137.731 444.006 136.696C444.006 135.67 443.849 134.743 443.534 133.915C443.228 133.087 442.751 132.43 442.103 131.944C441.464 131.458 440.649 131.215 439.659 131.215C438.714 131.215 437.931 131.449 437.31 131.917C436.689 132.376 436.226 133.02 435.92 133.848C435.614 134.667 435.461 135.616 435.461 136.696C435.461 137.758 435.609 138.708 435.906 139.545C436.212 140.373 436.68 141.025 437.31 141.502C437.94 141.97 438.746 142.204 439.727 142.204ZM455.322 144.405C453.891 144.405 452.64 144.09 451.569 143.46C450.507 142.821 449.679 141.934 449.085 140.8C448.491 139.657 448.194 138.325 448.194 136.804C448.194 135.211 448.487 133.834 449.072 132.673C449.657 131.503 450.471 130.603 451.515 129.973C452.568 129.334 453.801 129.015 455.214 129.015C456.681 129.015 457.928 129.352 458.954 130.027C459.989 130.702 460.763 131.665 461.276 132.916C461.798 134.167 462.023 135.657 461.951 137.385H459.521V136.521C459.494 134.73 459.129 133.393 458.427 132.511C457.725 131.62 456.681 131.175 455.295 131.175C453.81 131.175 452.681 131.652 451.907 132.606C451.133 133.56 450.746 134.928 450.746 136.71C450.746 138.429 451.133 139.761 451.907 140.706C452.681 141.651 453.783 142.123 455.214 142.123C456.177 142.123 457.014 141.903 457.725 141.462C458.436 141.021 458.994 140.386 459.399 139.558L461.708 140.355C461.141 141.642 460.286 142.641 459.143 143.352C458.009 144.054 456.735 144.405 455.322 144.405ZM449.936 137.385V135.454H460.709V137.385H449.936ZM464.443 144V129.42H466.59V132.943L466.239 132.484C466.41 132.034 466.63 131.62 466.9 131.242C467.179 130.864 467.49 130.554 467.832 130.311C468.21 130.005 468.637 129.771 469.114 129.609C469.591 129.447 470.077 129.352 470.572 129.325C471.067 129.289 471.531 129.321 471.963 129.42V131.674C471.459 131.539 470.905 131.503 470.302 131.566C469.699 131.629 469.141 131.85 468.628 132.228C468.16 132.561 467.796 132.966 467.535 133.443C467.283 133.92 467.107 134.437 467.008 134.995C466.909 135.544 466.86 136.107 466.86 136.683V144H464.443ZM477.672 144.405C476.583 144.405 475.67 144.207 474.932 143.811C474.203 143.406 473.649 142.875 473.271 142.218C472.902 141.561 472.718 140.841 472.718 140.058C472.718 139.293 472.862 138.631 473.15 138.073C473.447 137.506 473.861 137.038 474.392 136.669C474.923 136.291 475.557 135.994 476.295 135.778C476.988 135.589 477.762 135.427 478.617 135.292C479.481 135.148 480.354 135.018 481.236 134.901C482.118 134.784 482.942 134.671 483.707 134.563L482.843 135.063C482.87 133.767 482.609 132.808 482.06 132.187C481.52 131.566 480.584 131.256 479.252 131.256C478.37 131.256 477.596 131.458 476.93 131.863C476.273 132.259 475.809 132.907 475.539 133.807L473.258 133.119C473.609 131.841 474.288 130.837 475.296 130.108C476.304 129.379 477.632 129.015 479.279 129.015C480.602 129.015 481.736 129.253 482.681 129.73C483.635 130.198 484.319 130.909 484.733 131.863C484.94 132.313 485.07 132.804 485.124 133.335C485.178 133.857 485.205 134.406 485.205 134.982V144H483.072V140.503L483.572 140.827C483.023 142.006 482.253 142.897 481.263 143.5C480.282 144.104 479.085 144.405 477.672 144.405ZM478.037 142.393C478.901 142.393 479.648 142.24 480.278 141.934C480.917 141.619 481.43 141.21 481.817 140.706C482.204 140.193 482.456 139.635 482.573 139.032C482.708 138.582 482.78 138.082 482.789 137.533C482.807 136.975 482.816 136.548 482.816 136.251L483.653 136.615C482.87 136.723 482.1 136.827 481.344 136.926C480.588 137.025 479.873 137.133 479.198 137.25C478.523 137.358 477.915 137.488 477.375 137.641C476.979 137.767 476.606 137.929 476.255 138.127C475.913 138.325 475.634 138.582 475.418 138.897C475.211 139.203 475.107 139.585 475.107 140.044C475.107 140.44 475.206 140.818 475.404 141.178C475.611 141.538 475.926 141.831 476.349 142.056C476.781 142.281 477.344 142.393 478.037 142.393ZM496.343 144C495.479 144.171 494.624 144.239 493.778 144.203C492.941 144.176 492.194 144.009 491.537 143.703C490.88 143.388 490.38 142.902 490.038 142.245C489.75 141.669 489.593 141.088 489.566 140.503C489.548 139.909 489.539 139.239 489.539 138.492V125.37H491.942V138.384C491.942 138.978 491.946 139.486 491.955 139.909C491.973 140.332 492.068 140.697 492.239 141.003C492.563 141.579 493.076 141.916 493.778 142.016C494.489 142.114 495.344 142.087 496.343 141.934V144ZM486.582 131.404V129.42H496.343V131.404H486.582ZM504.502 144.405C503.071 144.405 501.82 144.09 500.749 143.46C499.687 142.821 498.859 141.934 498.265 140.8C497.671 139.657 497.374 138.325 497.374 136.804C497.374 135.211 497.666 133.834 498.251 132.673C498.836 131.503 499.651 130.603 500.695 129.973C501.748 129.334 502.981 129.015 504.394 129.015C505.861 129.015 507.107 129.352 508.133 130.027C509.168 130.702 509.942 131.665 510.455 132.916C510.977 134.167 511.202 135.657 511.13 137.385H508.7V136.521C508.673 134.73 508.309 133.393 507.607 132.511C506.905 131.62 505.861 131.175 504.475 131.175C502.99 131.175 501.86 131.652 501.086 132.606C500.312 133.56 499.925 134.928 499.925 136.71C499.925 138.429 500.312 139.761 501.086 140.706C501.86 141.651 502.963 142.123 504.394 142.123C505.357 142.123 506.194 141.903 506.905 141.462C507.616 141.021 508.174 140.386 508.579 139.558L510.887 140.355C510.32 141.642 509.465 142.641 508.322 143.352C507.188 144.054 505.915 144.405 504.502 144.405ZM499.115 137.385V135.454H509.888V137.385H499.115ZM519.131 144.392C517.394 144.392 515.967 144.013 514.851 143.257C513.744 142.492 513.065 141.426 512.813 140.058L515.27 139.666C515.468 140.458 515.922 141.088 516.633 141.556C517.344 142.015 518.226 142.245 519.279 142.245C520.278 142.245 521.061 142.038 521.628 141.624C522.195 141.21 522.479 140.647 522.479 139.936C522.479 139.522 522.384 139.189 522.195 138.937C522.006 138.676 521.615 138.433 521.021 138.208C520.436 137.983 519.549 137.713 518.361 137.398C517.074 137.056 516.062 136.701 515.324 136.332C514.586 135.963 514.059 135.535 513.744 135.049C513.429 134.563 513.272 133.974 513.272 133.281C513.272 132.426 513.506 131.679 513.974 131.04C514.442 130.392 515.094 129.892 515.931 129.541C516.777 129.19 517.758 129.015 518.874 129.015C519.981 129.015 520.971 129.19 521.844 129.541C522.717 129.892 523.419 130.392 523.95 131.04C524.49 131.679 524.81 132.426 524.909 133.281L522.452 133.726C522.335 132.943 521.957 132.327 521.318 131.877C520.688 131.427 519.873 131.188 518.874 131.161C517.929 131.125 517.16 131.292 516.566 131.661C515.981 132.03 515.688 132.529 515.688 133.159C515.688 133.51 515.796 133.812 516.012 134.064C516.237 134.316 516.647 134.554 517.241 134.779C517.844 135.004 518.717 135.261 519.86 135.549C521.147 135.873 522.159 136.228 522.897 136.615C523.644 136.993 524.175 137.443 524.49 137.965C524.805 138.478 524.963 139.113 524.963 139.869C524.963 141.273 524.445 142.38 523.41 143.19C522.375 143.991 520.949 144.392 519.131 144.392ZM535.424 144L530.969 129.406L533.359 129.42L536.612 140.085L539.893 129.42H542.012L545.279 140.085L548.546 129.42H550.922L546.467 144H544.469L540.946 132.916L537.422 144H535.424ZM553.117 126.841V124.357H555.52V126.841H553.117ZM553.117 144V129.42H555.52V144H553.117ZM567.198 144C566.334 144.171 565.479 144.239 564.633 144.203C563.796 144.176 563.049 144.009 562.392 143.703C561.735 143.388 561.236 142.902 560.894 142.245C560.606 141.669 560.448 141.088 560.421 140.503C560.403 139.909 560.394 139.239 560.394 138.492V125.37H562.797V138.384C562.797 138.978 562.802 139.486 562.811 139.909C562.829 140.332 562.923 140.697 563.094 141.003C563.418 141.579 563.931 141.916 564.633 142.016C565.344 142.114 566.199 142.087 567.198 141.934V144ZM557.438 131.404V129.42H567.198V131.404H557.438ZM580.027 144V136.696C580.027 136.003 579.964 135.337 579.838 134.698C579.721 134.059 579.51 133.488 579.204 132.984C578.907 132.471 578.502 132.066 577.989 131.769C577.485 131.472 576.846 131.323 576.072 131.323C575.469 131.323 574.92 131.427 574.425 131.634C573.939 131.832 573.52 132.138 573.169 132.552C572.818 132.966 572.544 133.488 572.346 134.118C572.157 134.739 572.062 135.472 572.062 136.318L570.483 135.832C570.483 134.419 570.735 133.209 571.239 132.201C571.752 131.184 572.467 130.405 573.385 129.865C574.312 129.316 575.401 129.042 576.652 129.042C577.597 129.042 578.403 129.19 579.069 129.487C579.735 129.784 580.288 130.18 580.729 130.675C581.17 131.161 581.517 131.71 581.769 132.322C582.021 132.925 582.196 133.542 582.295 134.172C582.403 134.793 582.457 135.382 582.457 135.94V144H580.027ZM569.632 144V124.56H571.792V135.292H572.062V144H569.632ZM590.616 144V124.56H593.019V141.718H602.037V144H590.616ZM603.808 144V124.56H605.995L613.339 140.044L620.642 124.56H622.856V143.986H620.575V129.838L613.973 144H612.691L606.089 129.838V144H603.808ZM626.129 144V124.56H633.81C633.999 124.56 634.224 124.569 634.485 124.587C634.746 124.596 634.998 124.623 635.241 124.668C636.294 124.83 637.176 125.19 637.887 125.748C638.607 126.306 639.147 127.012 639.507 127.867C639.867 128.713 640.047 129.654 640.047 130.689C640.047 132.192 639.656 133.497 638.873 134.604C638.09 135.702 636.942 136.39 635.43 136.669L634.512 136.818H628.532V144H626.129ZM637.698 144L633.864 136.089L636.24 135.36L640.452 144H637.698ZM628.532 134.536H633.729C633.9 134.536 634.094 134.527 634.31 134.509C634.535 134.491 634.746 134.46 634.944 134.415C635.565 134.271 636.069 134.01 636.456 133.632C636.852 133.245 637.14 132.795 637.32 132.282C637.5 131.76 637.59 131.229 637.59 130.689C637.59 130.149 637.5 129.622 637.32 129.109C637.14 128.587 636.852 128.133 636.456 127.746C636.069 127.359 635.565 127.098 634.944 126.963C634.746 126.909 634.535 126.877 634.31 126.868C634.094 126.85 633.9 126.841 633.729 126.841H628.532V134.536ZM642.643 147.024L642.791 145.904C643.169 145.931 643.453 145.859 643.642 145.688C643.831 145.517 643.952 145.283 644.006 144.986C644.06 144.689 644.069 144.36 644.033 144H642.643V140.949H645.289V144.405C645.289 145.35 645.055 146.061 644.587 146.538C644.128 147.015 643.48 147.177 642.643 147.024ZM659.815 144V126.841H653.187V124.56H668.847V126.841H662.218V144H659.815ZM670.483 144V124.56H682.768V126.841H672.886V132.93H681.148V135.211H672.886V141.718H682.768V144H670.483ZM690.509 144V126.841H683.88V124.56H699.54V126.841H692.912V144H690.509ZM701.177 144V124.56H708.858C709.047 124.56 709.272 124.569 709.533 124.587C709.794 124.596 710.046 124.623 710.289 124.668C711.342 124.83 712.224 125.19 712.935 125.748C713.655 126.306 714.195 127.012 714.555 127.867C714.915 128.713 715.095 129.654 715.095 130.689C715.095 132.192 714.704 133.497 713.921 134.604C713.138 135.702 711.99 136.39 710.478 136.669L709.56 136.818H703.58V144H701.177ZM712.746 144L708.912 136.089L711.288 135.36L715.5 144H712.746ZM703.58 134.536H708.777C708.948 134.536 709.142 134.527 709.358 134.509C709.583 134.491 709.794 134.46 709.992 134.415C710.613 134.271 711.117 134.01 711.504 133.632C711.9 133.245 712.188 132.795 712.368 132.282C712.548 131.76 712.638 131.229 712.638 130.689C712.638 130.149 712.548 129.622 712.368 129.109C712.188 128.587 711.9 128.133 711.504 127.746C711.117 127.359 710.613 127.098 709.992 126.963C709.794 126.909 709.583 126.877 709.358 126.868C709.142 126.85 708.948 126.841 708.777 126.841H703.58V134.536ZM716.611 144L723.118 124.56H726.466L732.973 144H730.475L724.387 125.964H725.143L719.108 144H716.611ZM719.743 139.45V137.196H729.841V139.45H719.743ZM734.606 147.024L734.755 145.904C735.133 145.931 735.416 145.859 735.605 145.688C735.794 145.517 735.916 145.283 735.97 144.986C736.024 144.689 736.033 144.36 735.997 144H734.606V140.949H737.252V144.405C737.252 145.35 737.018 146.061 736.55 146.538C736.091 147.015 735.443 147.177 734.606 147.024ZM746.77 144V124.56H754.452C754.641 124.56 754.866 124.569 755.127 124.587C755.388 124.596 755.64 124.623 755.883 124.668C756.936 124.83 757.818 125.19 758.529 125.748C759.249 126.306 759.789 127.012 760.149 127.867C760.509 128.713 760.689 129.654 760.689 130.689C760.689 131.715 760.504 132.655 760.135 133.51C759.775 134.356 759.235 135.063 758.515 135.63C757.804 136.188 756.927 136.548 755.883 136.71C755.64 136.746 755.388 136.773 755.127 136.791C754.866 136.809 754.641 136.818 754.452 136.818H749.173V144H746.77ZM749.173 134.536H754.371C754.542 134.536 754.735 134.527 754.951 134.509C755.176 134.491 755.388 134.46 755.586 134.415C756.207 134.271 756.711 134.01 757.098 133.632C757.494 133.245 757.782 132.795 757.962 132.282C758.142 131.76 758.232 131.229 758.232 130.689C758.232 130.149 758.142 129.622 757.962 129.109C757.782 128.587 757.494 128.133 757.098 127.746C756.711 127.359 756.207 127.098 755.586 126.963C755.388 126.909 755.176 126.877 754.951 126.868C754.735 126.85 754.542 126.841 754.371 126.841H749.173V134.536ZM762.869 144V124.56H770.442C771.603 124.56 772.593 124.798 773.412 125.275C774.24 125.752 774.87 126.382 775.302 127.165C775.743 127.939 775.964 128.776 775.964 129.676C775.964 130.729 775.694 131.652 775.154 132.444C774.614 133.236 773.885 133.78 772.967 134.077L772.94 133.416C774.191 133.749 775.163 134.361 775.856 135.252C776.549 136.143 776.895 137.205 776.895 138.438C776.895 139.572 776.661 140.553 776.193 141.381C775.734 142.209 775.068 142.852 774.195 143.311C773.331 143.77 772.305 144 771.117 144H762.869ZM765.299 141.705H770.658C771.378 141.705 772.022 141.574 772.589 141.313C773.156 141.043 773.601 140.665 773.925 140.179C774.258 139.693 774.425 139.108 774.425 138.424C774.425 137.767 774.276 137.178 773.979 136.656C773.691 136.134 773.282 135.72 772.751 135.414C772.229 135.099 771.621 134.941 770.928 134.941H765.299V141.705ZM765.299 132.673H770.415C770.991 132.673 771.509 132.552 771.968 132.309C772.436 132.057 772.805 131.706 773.075 131.256C773.354 130.806 773.493 130.279 773.493 129.676C773.493 128.839 773.21 128.155 772.643 127.624C772.076 127.093 771.333 126.828 770.415 126.828H765.299V132.673ZM776.635 144L783.317 134.158L776.81 124.56H779.74L784.775 132.133L789.797 124.56H792.74L786.233 134.158L792.902 144H789.973L784.775 136.197L779.578 144H776.635Z" fill="white"/>
<rect x="329.5" y="1.5" width="411" height="69" rx="34.5" stroke="white" stroke-opacity="0.51" stroke-width="3"/>
<path d="M360.89 46V26.56H368.572C368.761 26.56 368.986 26.569 369.247 26.587C369.508 26.596 369.76 26.623 370.003 26.668C371.056 26.83 371.938 27.19 372.649 27.748C373.369 28.306 373.909 29.0125 374.269 29.8675C374.629 30.7135 374.809 31.654 374.809 32.689C374.809 34.192 374.417 35.497 373.634 36.604C372.851 37.702 371.704 38.3905 370.192 38.6695L369.274 38.818H363.293V46H360.89ZM372.46 46L368.626 38.089L371.002 37.36L375.214 46H372.46ZM363.293 36.5365H368.491C368.662 36.5365 368.855 36.5275 369.071 36.5095C369.296 36.4915 369.508 36.46 369.706 36.415C370.327 36.271 370.831 36.01 371.218 35.632C371.614 35.245 371.902 34.795 372.082 34.282C372.262 33.76 372.352 33.229 372.352 32.689C372.352 32.149 372.262 31.6225 372.082 31.1095C371.902 30.5875 371.614 30.133 371.218 29.746C370.831 29.359 370.327 29.098 369.706 28.963C369.508 28.909 369.296 28.8775 369.071 28.8685C368.855 28.8505 368.662 28.8415 368.491 28.8415H363.293V36.5365ZM383.209 46.378C382.273 46.378 381.467 46.2295 380.792 45.9325C380.126 45.6355 379.573 45.2395 379.132 44.7445C378.691 44.2495 378.344 43.7005 378.092 43.0975C377.84 42.4945 377.66 41.878 377.552 41.248C377.453 40.618 377.404 40.0285 377.404 39.4795V31.42H379.834V38.7235C379.834 39.4075 379.897 40.069 380.023 40.708C380.149 41.347 380.36 41.923 380.657 42.436C380.963 42.949 381.368 43.354 381.872 43.651C382.385 43.948 383.024 44.0965 383.789 44.0965C384.392 44.0965 384.941 43.993 385.436 43.786C385.931 43.579 386.354 43.273 386.705 42.868C387.056 42.454 387.326 41.932 387.515 41.302C387.704 40.672 387.799 39.9385 387.799 39.1015L389.378 39.5875C389.378 40.9915 389.122 42.202 388.609 43.219C388.105 44.236 387.389 45.019 386.462 45.568C385.544 46.108 384.46 46.378 383.209 46.378ZM388.069 46V42.0985H387.799V31.42H390.215V46H388.069ZM403.864 46V38.6965C403.864 38.0035 403.801 37.3375 403.675 36.6985C403.558 36.0595 403.346 35.488 403.04 34.984C402.743 34.471 402.338 34.066 401.825 33.769C401.321 33.472 400.682 33.3235 399.908 33.3235C399.305 33.3235 398.756 33.427 398.261 33.634C397.775 33.832 397.357 34.138 397.006 34.552C396.655 34.966 396.38 35.488 396.182 36.118C395.993 36.739 395.899 37.4725 395.899 38.3185L394.319 37.8325C394.319 36.4195 394.571 35.209 395.075 34.201C395.588 33.184 396.304 32.4055 397.222 31.8655C398.149 31.3165 399.238 31.042 400.489 31.042C401.434 31.042 402.239 31.1905 402.905 31.4875C403.571 31.7845 404.125 32.1805 404.566 32.6755C405.007 33.1615 405.353 33.7105 405.605 34.3225C405.857 34.9255 406.033 35.542 406.132 36.172C406.24 36.793 406.294 37.3825 406.294 37.9405V46H403.864ZM393.469 46V31.42H395.629V35.3215H395.899V46H393.469ZM414.798 46.3915C413.061 46.3915 411.635 46.0135 410.519 45.2575C409.412 44.4925 408.732 43.426 408.48 42.058L410.937 41.6665C411.135 42.4585 411.59 43.0885 412.301 43.5565C413.012 44.0155 413.894 44.245 414.947 44.245C415.946 44.245 416.729 44.038 417.296 43.624C417.863 43.21 418.146 42.6475 418.146 41.9365C418.146 41.5225 418.052 41.1895 417.863 40.9375C417.674 40.6765 417.282 40.4335 416.688 40.2085C416.103 39.9835 415.217 39.7135 414.029 39.3985C412.742 39.0565 411.729 38.701 410.991 38.332C410.253 37.963 409.727 37.5355 409.412 37.0495C409.097 36.5635 408.939 35.974 408.939 35.281C408.939 34.426 409.173 33.679 409.641 33.04C410.109 32.392 410.762 31.8925 411.599 31.5415C412.445 31.1905 413.426 31.015 414.542 31.015C415.649 31.015 416.639 31.1905 417.512 31.5415C418.385 31.8925 419.087 32.392 419.618 33.04C420.158 33.679 420.477 34.426 420.576 35.281L418.119 35.7265C418.002 34.9435 417.624 34.327 416.985 33.877C416.355 33.427 415.541 33.1885 414.542 33.1615C413.597 33.1255 412.827 33.292 412.233 33.661C411.648 34.03 411.356 34.5295 411.356 35.1595C411.356 35.5105 411.464 35.812 411.68 36.064C411.905 36.316 412.314 36.5545 412.908 36.7795C413.511 37.0045 414.384 37.261 415.527 37.549C416.814 37.873 417.827 38.2285 418.565 38.6155C419.312 38.9935 419.843 39.4435 420.158 39.9655C420.473 40.4785 420.63 41.113 420.63 41.869C420.63 43.273 420.113 44.38 419.078 45.19C418.043 45.991 416.616 46.3915 414.798 46.3915ZM435.979 46.405C434.044 46.405 432.402 45.9775 431.052 45.1225C429.702 44.2675 428.671 43.0795 427.96 41.5585C427.258 40.0375 426.907 38.278 426.907 36.28C426.907 34.282 427.258 32.5225 427.96 31.0015C428.671 29.4805 429.702 28.2925 431.052 27.4375C432.402 26.5825 434.044 26.155 435.979 26.155C437.923 26.155 439.57 26.5825 440.92 27.4375C442.27 28.2925 443.296 29.4805 443.998 31.0015C444.7 32.5225 445.051 34.282 445.051 36.28C445.051 38.278 444.7 40.0375 443.998 41.5585C443.296 43.0795 442.27 44.2675 440.92 45.1225C439.57 45.9775 437.923 46.405 435.979 46.405ZM435.979 44.11C437.428 44.119 438.634 43.795 439.597 43.138C440.569 42.472 441.294 41.5495 441.771 40.3705C442.257 39.1915 442.5 37.828 442.5 36.28C442.5 34.723 442.257 33.3595 441.771 32.1895C441.294 31.0195 440.569 30.106 439.597 29.449C438.634 28.792 437.428 28.459 435.979 28.45C434.53 28.441 433.324 28.765 432.361 29.422C431.407 30.079 430.687 30.997 430.201 32.176C429.715 33.355 429.468 34.723 429.459 36.28C429.45 37.828 429.688 39.187 430.174 40.357C430.66 41.527 431.385 42.445 432.348 43.111C433.32 43.768 434.53 44.101 435.979 44.11ZM457.631 46V38.6965C457.631 38.0035 457.568 37.3375 457.442 36.6985C457.325 36.0595 457.113 35.488 456.807 34.984C456.51 34.471 456.105 34.066 455.592 33.769C455.088 33.472 454.449 33.3235 453.675 33.3235C453.072 33.3235 452.523 33.427 452.028 33.634C451.542 33.832 451.124 34.138 450.773 34.552C450.422 34.966 450.147 35.488 449.949 36.118C449.76 36.739 449.666 37.4725 449.666 38.3185L448.086 37.8325C448.086 36.4195 448.338 35.209 448.842 34.201C449.355 33.184 450.071 32.4055 450.989 31.8655C451.916 31.3165 453.005 31.042 454.256 31.042C455.201 31.042 456.006 31.1905 456.672 31.4875C457.338 31.7845 457.892 32.1805 458.333 32.6755C458.774 33.1615 459.12 33.7105 459.372 34.3225C459.624 34.9255 459.8 35.542 459.899 36.172C460.007 36.793 460.061 37.3825 460.061 37.9405V46H457.631ZM447.236 46V31.42H449.396V35.3215H449.666V46H447.236ZM462.788 38.4805V36.496H470.888V38.4805H462.788ZM473.883 46V26.56H481.564C481.753 26.56 481.978 26.569 482.239 26.587C482.5 26.596 482.752 26.623 482.995 26.668C484.048 26.83 484.93 27.19 485.641 27.748C486.361 28.306 486.901 29.0125 487.261 29.8675C487.621 30.7135 487.801 31.654 487.801 32.689C487.801 33.715 487.617 34.6555 487.248 35.5105C486.888 36.3565 486.348 37.063 485.628 37.63C484.917 38.188 484.039 38.548 482.995 38.71C482.752 38.746 482.5 38.773 482.239 38.791C481.978 38.809 481.753 38.818 481.564 38.818H476.286V46H473.883ZM476.286 36.5365H481.483C481.654 36.5365 481.848 36.5275 482.064 36.5095C482.289 36.4915 482.5 36.46 482.698 36.415C483.319 36.271 483.823 36.01 484.21 35.632C484.606 35.245 484.894 34.795 485.074 34.282C485.254 33.76 485.344 33.229 485.344 32.689C485.344 32.149 485.254 31.6225 485.074 31.1095C484.894 30.5875 484.606 30.133 484.21 29.746C483.823 29.359 483.319 29.098 482.698 28.963C482.5 28.909 482.289 28.8775 482.064 28.8685C481.848 28.8505 481.654 28.8415 481.483 28.8415H476.286V36.5365ZM489.981 46V31.42H492.128V34.9435L491.777 34.4845C491.948 34.0345 492.168 33.6205 492.438 33.2425C492.717 32.8645 493.028 32.554 493.37 32.311C493.748 32.005 494.175 31.771 494.652 31.609C495.129 31.447 495.615 31.3525 496.11 31.3255C496.605 31.2895 497.069 31.321 497.501 31.42V33.6745C496.997 33.5395 496.443 33.5035 495.84 33.5665C495.237 33.6295 494.679 33.85 494.166 34.228C493.698 34.561 493.334 34.966 493.073 35.443C492.821 35.92 492.645 36.4375 492.546 36.9955C492.447 37.5445 492.398 38.107 492.398 38.683V46H489.981ZM505.595 46.405C504.164 46.405 502.913 46.09 501.842 45.46C500.78 44.821 499.952 43.9345 499.358 42.8005C498.764 41.6575 498.467 40.3255 498.467 38.8045C498.467 37.2115 498.759 35.8345 499.344 34.6735C499.929 33.5035 500.744 32.6035 501.788 31.9735C502.841 31.3345 504.074 31.015 505.487 31.015C506.954 31.015 508.2 31.3525 509.226 32.0275C510.261 32.7025 511.035 33.6655 511.548 34.9165C512.07 36.1675 512.295 37.657 512.223 39.385H509.793V38.521C509.766 36.73 509.402 35.3935 508.7 34.5115C507.998 33.6205 506.954 33.175 505.568 33.175C504.083 33.175 502.953 33.652 502.179 34.606C501.405 35.56 501.018 36.928 501.018 38.71C501.018 40.429 501.405 41.761 502.179 42.706C502.953 43.651 504.056 44.1235 505.487 44.1235C506.45 44.1235 507.287 43.903 507.998 43.462C508.709 43.021 509.267 42.3865 509.672 41.5585L511.98 42.355C511.413 43.642 510.558 44.641 509.415 45.352C508.281 46.054 507.008 46.405 505.595 46.405ZM500.208 39.385V37.4545H510.981V39.385H500.208ZM531.749 46L531.762 36.6715C531.762 35.5825 531.47 34.732 530.885 34.12C530.309 33.499 529.557 33.1885 528.63 33.1885C528.09 33.1885 527.577 33.3145 527.091 33.5665C526.605 33.8095 526.209 34.1965 525.903 34.7275C525.597 35.2495 525.444 35.92 525.444 36.739L524.175 36.226C524.157 35.191 524.369 34.2865 524.81 33.5125C525.26 32.7295 525.872 32.122 526.646 31.69C527.42 31.258 528.293 31.042 529.265 31.042C530.786 31.042 531.983 31.5055 532.856 32.4325C533.729 33.3505 534.165 34.588 534.165 36.145L534.152 46H531.749ZM514.307 46V31.42H516.453V35.3215H516.723V46H514.307ZM523.041 46L523.055 36.766C523.055 35.65 522.767 34.777 522.191 34.147C521.615 33.508 520.85 33.1885 519.896 33.1885C518.951 33.1885 518.186 33.5125 517.601 34.1605C517.016 34.8085 516.723 35.668 516.723 36.739L515.454 35.983C515.454 35.038 515.679 34.192 516.129 33.445C516.579 32.698 517.191 32.113 517.965 31.69C518.739 31.258 519.617 31.042 520.598 31.042C521.579 31.042 522.434 31.249 523.163 31.663C523.892 32.077 524.454 32.671 524.85 33.445C525.246 34.21 525.444 35.1235 525.444 36.1855L525.431 46H523.041ZM546.975 26.56H549.418L544.234 46H541.791L546.975 26.56ZM565.295 46.405C563.36 46.405 561.718 45.9775 560.368 45.1225C559.018 44.2675 557.987 43.0795 557.276 41.5585C556.574 40.0375 556.223 38.278 556.223 36.28C556.223 34.282 556.574 32.5225 557.276 31.0015C557.987 29.4805 559.018 28.2925 560.368 27.4375C561.718 26.5825 563.36 26.155 565.295 26.155C567.545 26.155 569.395 26.7265 570.844 27.8695C572.302 29.0125 573.305 30.5515 573.854 32.4865L571.411 33.1345C571.015 31.6855 570.308 30.5425 569.291 29.7055C568.274 28.8685 566.942 28.45 565.295 28.45C563.846 28.45 562.64 28.7785 561.677 29.4355C560.714 30.0925 559.99 31.0105 559.504 32.1895C559.018 33.3595 558.77 34.723 558.761 36.28C558.752 37.828 558.991 39.1915 559.477 40.3705C559.963 41.5405 560.692 42.4585 561.664 43.1245C562.636 43.7815 563.846 44.11 565.295 44.11C566.942 44.11 568.274 43.6915 569.291 42.8545C570.308 42.0085 571.015 40.8655 571.411 39.4255L573.854 40.0735C573.305 41.9995 572.302 43.5385 570.844 44.6905C569.395 45.8335 567.545 46.405 565.295 46.405ZM576.572 46V26.155H578.975V46H576.572ZM588.723 46.405C587.274 46.405 586.023 46.0765 584.97 45.4195C583.926 44.7625 583.12 43.8535 582.553 42.6925C581.986 41.5315 581.703 40.1995 581.703 38.6965C581.703 37.1665 581.991 35.8255 582.567 34.6735C583.143 33.5215 583.957 32.626 585.01 31.987C586.063 31.339 587.301 31.015 588.723 31.015C590.181 31.015 591.436 31.3435 592.489 32.0005C593.542 32.6485 594.348 33.553 594.906 34.714C595.473 35.866 595.756 37.1935 595.756 38.6965C595.756 40.2175 595.473 41.5585 594.906 42.7195C594.339 43.8715 593.529 44.776 592.476 45.433C591.423 46.081 590.172 46.405 588.723 46.405ZM588.723 44.1235C590.235 44.1235 591.36 43.6195 592.098 42.6115C592.836 41.6035 593.205 40.2985 593.205 38.6965C593.205 37.0495 592.831 35.74 592.084 34.768C591.337 33.787 590.217 33.2965 588.723 33.2965C587.706 33.2965 586.869 33.526 586.212 33.985C585.555 34.444 585.064 35.0785 584.74 35.8885C584.416 36.6985 584.254 37.6345 584.254 38.6965C584.254 40.3345 584.632 41.6485 585.388 42.6385C586.144 43.6285 587.256 44.1235 588.723 44.1235ZM603.751 46.378C602.815 46.378 602.009 46.2295 601.334 45.9325C600.668 45.6355 600.115 45.2395 599.674 44.7445C599.233 44.2495 598.886 43.7005 598.634 43.0975C598.382 42.4945 598.202 41.878 598.094 41.248C597.995 40.618 597.946 40.0285 597.946 39.4795V31.42H600.376V38.7235C600.376 39.4075 600.439 40.069 600.565 40.708C600.691 41.347 600.902 41.923 601.199 42.436C601.505 42.949 601.91 43.354 602.414 43.651C602.927 43.948 603.566 44.0965 604.331 44.0965C604.934 44.0965 605.483 43.993 605.978 43.786C606.473 43.579 606.896 43.273 607.247 42.868C607.598 42.454 607.868 41.932 608.057 41.302C608.246 40.672 608.341 39.9385 608.341 39.1015L609.92 39.5875C609.92 40.9915 609.664 42.202 609.151 43.219C608.647 44.236 607.931 45.019 607.004 45.568C606.086 46.108 605.002 46.378 603.751 46.378ZM608.611 46V42.0985H608.341V31.42H610.757V46H608.611ZM619.748 46.405C618.389 46.405 617.223 46.0675 616.251 45.3925C615.279 44.7085 614.528 43.786 613.997 42.625C613.475 41.464 613.214 40.1545 613.214 38.6965C613.214 37.2385 613.475 35.929 613.997 34.768C614.528 33.607 615.279 32.6935 616.251 32.0275C617.223 31.3525 618.384 31.015 619.734 31.015C621.111 31.015 622.268 31.348 623.204 32.014C624.14 32.68 624.846 33.5935 625.323 34.7545C625.809 35.9155 626.052 37.2295 626.052 38.6965C626.052 40.1455 625.809 41.455 625.323 42.625C624.846 43.786 624.14 44.7085 623.204 45.3925C622.268 46.0675 621.116 46.405 619.748 46.405ZM620.045 44.2045C621.026 44.2045 621.831 43.9705 622.461 43.5025C623.091 43.0255 623.555 42.373 623.852 41.545C624.158 40.708 624.311 39.7585 624.311 38.6965C624.311 37.6165 624.158 36.667 623.852 35.848C623.555 35.02 623.096 34.3765 622.475 33.9175C621.854 33.4495 621.066 33.2155 620.112 33.2155C619.122 33.2155 618.303 33.4585 617.655 33.9445C617.016 34.4305 616.539 35.0875 616.224 35.9155C615.918 36.7435 615.765 37.6705 615.765 38.6965C615.765 39.7315 615.923 40.6675 616.238 41.5045C616.553 42.3325 617.025 42.9895 617.655 43.4755C618.294 43.9615 619.091 44.2045 620.045 44.2045ZM624.311 46V35.2675H624.041V26.56H626.457V46H624.311ZM639.533 26.56H641.976L636.792 46H634.349L639.533 26.56ZM649.861 46V26.56H662.146V28.8415H652.264V34.93H660.526V37.2115H652.264V43.7185H662.146V46H649.861ZM670.603 46.405C669.244 46.405 668.078 46.0675 667.106 45.3925C666.134 44.7085 665.383 43.786 664.852 42.625C664.33 41.464 664.069 40.1545 664.069 38.6965C664.069 37.2385 664.33 35.929 664.852 34.768C665.383 33.607 666.134 32.6935 667.106 32.0275C668.078 31.3525 669.239 31.015 670.589 31.015C671.966 31.015 673.123 31.348 674.059 32.014C674.995 32.68 675.701 33.5935 676.178 34.7545C676.664 35.9155 676.907 37.2295 676.907 38.6965C676.907 40.1455 676.664 41.455 676.178 42.625C675.701 43.786 674.995 44.7085 674.059 45.3925C673.123 46.0675 671.971 46.405 670.603 46.405ZM670.9 44.2045C671.881 44.2045 672.686 43.9705 673.316 43.5025C673.946 43.0255 674.41 42.373 674.707 41.545C675.013 40.708 675.166 39.7585 675.166 38.6965C675.166 37.6165 675.013 36.667 674.707 35.848C674.41 35.02 673.951 34.3765 673.33 33.9175C672.709 33.4495 671.921 33.2155 670.967 33.2155C669.977 33.2155 669.158 33.4585 668.51 33.9445C667.871 34.4305 667.394 35.0875 667.079 35.9155C666.773 36.7435 666.62 37.6705 666.62 38.6965C666.62 39.7315 666.778 40.6675 667.093 41.5045C667.408 42.3325 667.88 42.9895 668.51 43.4755C669.149 43.9615 669.946 44.2045 670.9 44.2045ZM675.166 46V35.2675H674.896V26.56H677.312V46H675.166ZM686.481 52.885C685.716 52.885 684.969 52.768 684.24 52.534C683.511 52.3 682.841 51.9445 682.229 51.4675C681.626 50.9995 681.122 50.4055 680.717 49.6855L682.917 48.5245C683.277 49.2355 683.786 49.753 684.443 50.077C685.109 50.401 685.793 50.563 686.495 50.563C687.422 50.563 688.191 50.392 688.803 50.05C689.415 49.717 689.865 49.2175 690.153 48.5515C690.45 47.8855 690.594 47.0575 690.585 46.0675V42.085H690.869V31.42H693.002V46.0945C693.002 46.4905 692.988 46.873 692.961 47.242C692.943 47.611 692.898 47.9755 692.826 48.3355C692.637 49.3705 692.264 50.221 691.706 50.887C691.148 51.562 690.428 52.0615 689.546 52.3855C688.664 52.7185 687.642 52.885 686.481 52.885ZM686.306 46.405C684.947 46.405 683.781 46.0675 682.809 45.3925C681.837 44.7085 681.086 43.786 680.555 42.625C680.033 41.464 679.772 40.1545 679.772 38.6965C679.772 37.2385 680.033 35.929 680.555 34.768C681.086 33.607 681.837 32.6935 682.809 32.0275C683.781 31.3525 684.942 31.015 686.292 31.015C687.669 31.015 688.826 31.348 689.762 32.014C690.698 32.68 691.404 33.5935 691.881 34.7545C692.367 35.9155 692.61 37.2295 692.61 38.6965C692.61 40.1455 692.367 41.455 691.881 42.625C691.404 43.786 690.698 44.7085 689.762 45.3925C688.826 46.0675 687.674 46.405 686.306 46.405ZM686.603 44.2045C687.584 44.2045 688.389 43.9705 689.019 43.5025C689.649 43.0255 690.113 42.373 690.41 41.545C690.716 40.708 690.869 39.7585 690.869 38.6965C690.869 37.6165 690.716 36.667 690.41 35.848C690.113 35.02 689.654 34.3765 689.033 33.9175C688.412 33.4495 687.624 33.2155 686.67 33.2155C685.68 33.2155 684.861 33.4585 684.213 33.9445C683.574 34.4305 683.097 35.0875 682.782 35.9155C682.476 36.7435 682.323 37.6705 682.323 38.6965C682.323 39.7315 682.481 40.6675 682.796 41.5045C683.111 42.3325 683.583 42.9895 684.213 43.4755C684.852 43.9615 685.649 44.2045 686.603 44.2045ZM702.576 46.405C701.145 46.405 699.894 46.09 698.823 45.46C697.761 44.821 696.933 43.9345 696.339 42.8005C695.745 41.6575 695.448 40.3255 695.448 38.8045C695.448 37.2115 695.741 35.8345 696.326 34.6735C696.911 33.5035 697.725 32.6035 698.769 31.9735C699.822 31.3345 701.055 31.015 702.468 31.015C703.935 31.015 705.182 31.3525 706.208 32.0275C707.243 32.7025 708.017 33.6655 708.53 34.9165C709.052 36.1675 709.277 37.657 709.205 39.385H706.775V38.521C706.748 36.73 706.383 35.3935 705.681 34.5115C704.979 33.6205 703.935 33.175 702.549 33.175C701.064 33.175 699.935 33.652 699.161 34.606C698.387 35.56 698 36.928 698 38.71C698 40.429 698.387 41.761 699.161 42.706C699.935 43.651 701.037 44.1235 702.468 44.1235C703.431 44.1235 704.268 43.903 704.979 43.462C705.69 43.021 706.248 42.3865 706.653 41.5585L708.962 42.355C708.395 43.642 707.54 44.641 706.397 45.352C705.263 46.054 703.989 46.405 702.576 46.405ZM697.19 39.385V37.4545H707.963V39.385H697.19Z" fill="white"/>
<g filter="url(#filter0_d_507_165)">
<rect x="32" y="69" width="131" height="128" rx="15" fill="white"/>
</g>
<path d="M167.25 131.25C166.284 131.25 165.5 132.034 165.5 133C165.5 133.966 166.284 134.75 167.25 134.75V131.25ZM321.667 134C321.667 139.155 325.845 143.333 331 143.333C336.155 143.333 340.333 139.155 340.333 134C340.333 128.845 336.155 124.667 331 124.667C325.845 124.667 321.667 128.845 321.667 134ZM167.25 133V134.75C215.241 134.75 232.17 135 249.099 135.25C266.045 135.5 282.991 135.75 331 135.75V134V132.25C283.009 132.25 266.08 132 249.151 131.75C232.205 131.5 215.259 131.25 167.25 131.25V133Z" fill="#FDC500"/>
<path d="M167.25 131.25C166.284 131.25 165.5 132.034 165.5 133C165.5 133.966 166.284 134.75 167.25 134.75V131.25ZM321.667 232C321.667 237.155 325.845 241.333 331 241.333C336.155 241.333 340.333 237.155 340.333 232C340.333 226.845 336.155 222.667 331 222.667C325.845 222.667 321.667 226.845 321.667 232ZM167.25 133V134.75C190.915 134.75 206.769 140.839 218.785 149.868C230.869 158.948 239.187 171.076 247.681 183.488C256.124 195.826 264.744 208.448 277.363 217.93C290.051 227.464 306.665 233.75 331 233.75V232V230.25C307.335 230.25 291.481 224.161 279.465 215.132C267.381 206.052 259.063 193.924 250.569 181.512C242.126 169.174 233.506 156.552 220.887 147.07C208.199 137.536 191.585 131.25 167.25 131.25V133Z" fill="#20B776"/>
<path d="M167.25 131.25C166.284 131.25 165.5 132.034 165.5 133C165.5 133.966 166.284 134.75 167.25 134.75V131.25ZM321.667 36C321.667 41.1547 325.845 45.3333 331 45.3333C336.155 45.3333 340.333 41.1547 340.333 36C340.333 30.8453 336.155 26.6667 331 26.6667C325.845 26.6667 321.667 30.8453 321.667 36ZM167.25 133V134.75C191.577 134.75 208.186 128.594 220.873 119.253C233.494 109.961 242.116 97.5912 250.56 85.5021C259.053 73.3412 267.369 61.4613 279.452 52.5655C291.467 43.7189 307.327 37.75 331 37.75V36V34.25C306.673 34.25 290.064 40.4061 277.377 49.747C264.756 59.0387 256.134 71.4088 247.69 83.4979C239.197 95.6588 230.881 107.539 218.798 116.434C206.783 125.281 190.923 131.25 167.25 131.25V133Z" fill="#FF4E46"/>
<path fill-rule="evenodd" clip-rule="evenodd" d="M52.8242 153.98C52.8242 163.996 60.2166 169 67.6459 169C75.0348 169 82.4283 163.996 82.4283 153.98C82.4283 143.965 75.0348 138.961 67.6459 138.961C60.2166 138.961 52.8242 143.965 52.8242 153.98ZM58.6522 153.98C58.6522 147.909 63.1294 144.908 67.6459 144.908C72.1256 144.908 76.6399 147.909 76.6399 153.98C76.6399 160.052 72.1256 163.053 67.6459 163.053C63.1294 163.053 58.6522 160.052 58.6522 153.98Z" fill="#324086"/>
<path fill-rule="evenodd" clip-rule="evenodd" d="M129.178 156.899H138.653C139.195 156.899 139.635 156.459 139.635 155.917V152.045C139.635 151.503 139.195 151.063 138.653 151.063H129.178V145.338C129.178 145.171 129.216 145.028 129.312 144.933C129.407 144.837 129.55 144.799 129.717 144.799H141.735C142.085 144.799 142.363 144.672 142.56 144.475C142.757 144.278 142.883 144 142.883 143.65V140.11C142.883 139.76 142.757 139.483 142.56 139.286C142.363 139.089 142.085 138.962 141.735 138.962H124.16C123.81 138.962 123.532 139.089 123.335 139.286C123.139 139.483 123.012 139.76 123.012 140.11V167.852C123.012 168.202 123.139 168.479 123.335 168.676C123.532 168.873 123.81 169 124.16 169H141.735C142.085 169 142.363 168.873 142.56 168.676C142.757 168.479 142.883 168.202 142.883 167.852V164.312C142.883 163.962 142.756 163.684 142.56 163.487C142.363 163.29 142.085 163.163 141.735 163.163H129.717C129.55 163.163 129.407 163.125 129.312 163.029C129.216 162.934 129.178 162.791 129.178 162.624V156.899Z" fill="#324086"/>
<path fill-rule="evenodd" clip-rule="evenodd" d="M131.235 118.453C131.27 118.489 131.31 118.533 131.343 118.576C131.344 118.578 136.554 126.906 136.554 126.906C136.828 127.375 137.362 127.655 137.903 127.655H142.595C143.013 127.655 143.279 127.463 143.414 127.239C143.545 127.021 143.607 126.693 143.374 126.285C143.37 126.278 143.366 126.271 143.362 126.264L135.254 113.299C135.252 113.297 135.251 113.294 135.249 113.292C135.003 112.91 135.003 112.363 135.249 111.98C135.251 111.978 135.252 111.976 135.254 111.974L143.362 99.0086C143.366 99.0017 143.37 98.9946 143.374 98.9875C143.607 98.58 143.545 98.2516 143.414 98.0333C143.279 97.8091 143.013 97.6172 142.595 97.6172H137.903C137.36 97.6172 136.825 97.8993 136.551 98.3721C136.554 98.3667 131.344 106.695 131.344 106.695C131.311 106.738 131.27 106.784 131.235 106.82C131.2 106.784 131.16 106.739 131.128 106.697C131.126 106.695 125.916 98.3667 125.916 98.3667C125.641 97.8972 125.108 97.6172 124.567 97.6172H119.875C119.398 97.6172 119.145 97.8365 119.025 98.0602C118.913 98.2712 118.871 98.5935 119.096 98.9875C119.1 98.9946 119.104 99.0017 119.108 99.0086L127.216 111.974C127.218 111.976 127.219 111.978 127.221 111.98C127.467 112.363 127.467 112.91 127.221 113.292C127.219 113.294 127.218 113.297 127.216 113.299L119.108 126.264C119.104 126.271 119.1 126.278 119.096 126.285C118.871 126.679 118.913 127.001 119.025 127.212C119.145 127.436 119.398 127.655 119.875 127.655H124.567C125.11 127.655 125.645 127.373 125.919 126.9C125.916 126.906 131.126 118.578 131.126 118.578C131.159 118.534 131.2 118.489 131.235 118.453Z" fill="#324086"/>
<path fill-rule="evenodd" clip-rule="evenodd" d="M90.4551 112.637C90.4551 120.435 95.6004 128.273 105.927 128.273C109.667 128.273 112.16 127.363 114.482 125.56C114.992 125.205 115.102 124.511 114.751 123.985C114.747 123.979 114.742 123.972 114.738 123.966L112.48 120.846C112.288 120.565 112.019 120.414 111.734 120.378C111.461 120.344 111.158 120.416 110.885 120.644C110.885 120.644 110.885 120.644 110.885 120.644C109.971 121.405 108.443 122.148 105.968 122.148C99.886 122.148 96.8576 117.386 96.8576 112.637C96.8576 107.887 99.886 103.125 105.968 103.125C107.999 103.125 109.724 103.891 110.874 104.735C110.876 104.736 110.878 104.738 110.88 104.739C111.185 104.957 111.477 105.012 111.738 104.969C112 104.925 112.259 104.778 112.476 104.473C112.477 104.472 112.478 104.47 112.479 104.469L114.702 101.299C114.705 101.295 114.707 101.291 114.71 101.287C115.071 100.746 115.012 100.035 114.381 99.6739C111.778 98.1806 108.914 97 105.927 97C95.6004 97 90.4551 104.795 90.4551 112.637Z" fill="#324086"/>
<path fill-rule="evenodd" clip-rule="evenodd" d="M60.2423 112.893L67.8123 125.63C68.087 126.107 68.5776 126.429 69.1243 126.429H69.7006C70.2474 126.429 70.7381 126.107 71.0128 125.63L78.5742 112.84L80.7414 126.594C80.8272 127.244 81.3129 127.655 81.9658 127.655H85.7525C86.1351 127.655 86.4096 127.506 86.589 127.291C86.7602 127.085 86.8595 126.796 86.814 126.431C86.8137 126.429 86.8134 126.426 86.813 126.424L83.4327 98.6416C83.4325 98.6402 83.4323 98.6389 83.4322 98.6375C83.3472 98.0443 82.9266 97.6172 82.2487 97.6172H79.912C79.6045 97.6172 79.2773 97.7888 79.0724 98.0961C79.0598 98.115 79.0482 98.1346 79.0378 98.1548L69.4125 116.786L59.829 98.2381C59.6519 97.8908 59.2249 97.6172 58.7895 97.6172H56.3294C55.8806 97.6172 55.5172 97.9214 55.4051 98.3698C55.3996 98.3918 55.3953 98.4139 55.3923 98.4363L52.0119 126.425C52.0116 126.427 52.0113 126.429 52.011 126.431C51.9655 126.796 52.0649 127.085 52.236 127.291C52.4154 127.506 52.6899 127.655 53.0725 127.655H56.8591C57.5138 127.655 58.0004 127.242 58.0844 126.588L60.2423 112.893Z" fill="#324086"/>
<path fill-rule="evenodd" clip-rule="evenodd" d="M95.0265 150.73C96.6002 152.325 98.1948 153.917 99.7988 155.514C103.642 159.403 107.913 163.721 111.725 167.729C114.566 170.716 116.848 167.798 116.848 165.528C116.848 161.543 116.889 156.388 116.914 153.625C116.92 152.905 116.599 152.813 116.315 153.475C114.552 157.571 111.821 158.526 109.921 157.232C108.347 155.637 106.752 154.045 105.148 152.448C101.305 148.559 97.0346 144.241 93.2225 140.233C90.3812 137.246 88.0997 140.163 88.0997 142.434C88.0997 146.419 88.0584 151.574 88.0333 154.337C88.0268 155.057 88.3478 155.149 88.6326 154.487C90.3955 150.391 93.126 149.436 95.0265 150.73Z" fill="#324086"/>
<path fill-rule="evenodd" clip-rule="evenodd" d="M92.0448 160.976C89.8293 160.976 88.0332 162.772 88.0332 164.988C88.0332 167.203 89.8293 168.999 92.0448 168.999C94.2603 168.999 96.0563 167.203 96.0563 164.988C96.0563 162.772 94.2603 160.976 92.0448 160.976Z" fill="#E8B25A"/>
<path fill-rule="evenodd" clip-rule="evenodd" d="M112.9 138.962C110.685 138.962 108.889 140.758 108.889 142.974C108.889 145.189 110.685 146.985 112.9 146.985C115.116 146.985 116.912 145.189 116.912 142.974C116.912 140.758 115.116 138.962 112.9 138.962Z" fill="#BA3350"/>
<defs>
<filter id="filter0_d_507_165" x="0" y="37" width="195" height="192" filterUnits="userSpaceOnUse" color-interpolation-filters="sRGB">
<feFlood flood-opacity="0" result="BackgroundImageFix"/>
<feColorMatrix in="SourceAlpha" type="matrix" values="0 0 0 0 0 0 0 0 0 0 0 0 0 0 0 0 0 0 127 0" result="hardAlpha"/>
<feMorphology radius="8" operator="dilate" in="SourceAlpha" result="effect1_dropShadow_507_165"/>
<feOffset/>
<feGaussianBlur stdDeviation="12"/>
<feComposite in2="hardAlpha" operator="out"/>
<feColorMatrix type="matrix" values="0 0 0 0 0 0 0 0 0 0 0 0 0 0 0 0 0 0 0.21 0"/>
<feBlend mode="normal" in2="BackgroundImageFix" result="effect1_dropShadow_507_165"/>
<feBlend mode="normal" in="SourceGraphic" in2="effect1_dropShadow_507_165" result="shape"/>
</filter>
</defs>
</svg>
