<svg width="895" height="268" viewBox="0 0 895 268" fill="none" xmlns="http://www.w3.org/2000/svg">
<path d="M211.364 129.256C210.023 129.256 208.869 128.972 207.903 128.403C206.943 127.83 206.205 127.034 205.688 126.017C205.176 125 204.92 123.83 204.92 122.506C204.92 121.165 205.179 119.989 205.696 118.977C206.219 117.96 206.96 117.168 207.92 116.599C208.881 116.026 210.023 115.739 211.347 115.739C212.489 115.739 213.489 115.946 214.347 116.361C215.205 116.776 215.884 117.358 216.384 118.108C216.884 118.858 217.159 119.739 217.21 120.75H213.784C213.688 120.097 213.432 119.571 213.017 119.173C212.608 118.77 212.071 118.568 211.406 118.568C210.844 118.568 210.352 118.722 209.932 119.028C209.517 119.33 209.193 119.77 208.96 120.349C208.727 120.929 208.611 121.631 208.611 122.455C208.611 123.29 208.724 124 208.952 124.585C209.185 125.17 209.511 125.616 209.932 125.923C210.352 126.23 210.844 126.384 211.406 126.384C211.821 126.384 212.193 126.298 212.523 126.128C212.858 125.957 213.134 125.71 213.349 125.386C213.571 125.057 213.716 124.662 213.784 124.202H217.21C217.153 125.202 216.881 126.082 216.392 126.844C215.909 127.599 215.241 128.19 214.389 128.616C213.537 129.043 212.528 129.256 211.364 129.256Z" fill="#1E1E1E"/>
<rect x="365.5" y="197.5" width="528" height="69" rx="34.5" stroke="white" stroke-opacity="0.51" stroke-width="3"/>
<path d="M401.035 242L395.405 222.56H397.916L402.236 237.936L406.543 222.573L409.067 222.56L413.387 237.936L417.694 222.56H420.218L414.589 242H412.186L407.812 226.758L403.438 242H401.035ZM426.608 242.405C425.159 242.405 423.908 242.077 422.855 241.419C421.811 240.762 421.005 239.853 420.438 238.692C419.871 237.531 419.588 236.199 419.588 234.696C419.588 233.166 419.876 231.825 420.452 230.673C421.028 229.521 421.842 228.626 422.895 227.987C423.948 227.339 425.186 227.015 426.608 227.015C428.066 227.015 429.321 227.343 430.374 228C431.427 228.648 432.233 229.553 432.791 230.714C433.358 231.866 433.641 233.193 433.641 234.696C433.641 236.217 433.358 237.558 432.791 238.719C432.224 239.871 431.414 240.776 430.361 241.433C429.308 242.081 428.057 242.405 426.608 242.405ZM426.608 240.123C428.12 240.123 429.245 239.619 429.983 238.611C430.721 237.603 431.09 236.298 431.09 234.696C431.09 233.049 430.716 231.74 429.969 230.768C429.222 229.787 428.102 229.296 426.608 229.296C425.591 229.296 424.754 229.526 424.097 229.985C423.44 230.444 422.949 231.078 422.625 231.888C422.301 232.698 422.139 233.634 422.139 234.696C422.139 236.334 422.517 237.648 423.273 238.638C424.029 239.628 425.141 240.123 426.608 240.123ZM436.1 242V227.42H438.247V230.943L437.896 230.484C438.067 230.034 438.287 229.62 438.557 229.242C438.836 228.864 439.147 228.554 439.489 228.311C439.867 228.005 440.294 227.771 440.771 227.609C441.248 227.447 441.734 227.352 442.229 227.325C442.724 227.289 443.188 227.321 443.62 227.42V229.674C443.116 229.539 442.562 229.503 441.959 229.566C441.356 229.629 440.798 229.85 440.285 230.228C439.817 230.561 439.453 230.966 439.192 231.443C438.94 231.92 438.764 232.437 438.665 232.995C438.566 233.544 438.517 234.107 438.517 234.683V242H436.1ZM445.646 242L445.66 222.56H448.09V234.44L454.205 227.42H457.324L450.884 234.71L458.08 242H454.718L448.09 234.98V242H445.646ZM464.155 242.392C462.418 242.392 460.991 242.013 459.875 241.257C458.768 240.492 458.089 239.426 457.837 238.058L460.294 237.666C460.492 238.458 460.946 239.088 461.657 239.556C462.368 240.015 463.25 240.245 464.303 240.245C465.302 240.245 466.085 240.038 466.652 239.624C467.219 239.21 467.503 238.647 467.503 237.936C467.503 237.522 467.408 237.189 467.219 236.937C467.03 236.676 466.639 236.433 466.045 236.208C465.46 235.983 464.573 235.713 463.385 235.398C462.098 235.056 461.086 234.701 460.348 234.332C459.61 233.963 459.083 233.535 458.768 233.049C458.453 232.563 458.296 231.974 458.296 231.281C458.296 230.426 458.53 229.679 458.998 229.04C459.466 228.392 460.118 227.892 460.955 227.541C461.801 227.19 462.782 227.015 463.898 227.015C465.005 227.015 465.995 227.19 466.868 227.541C467.741 227.892 468.443 228.392 468.974 229.04C469.514 229.679 469.834 230.426 469.933 231.281L467.476 231.726C467.359 230.943 466.981 230.327 466.342 229.877C465.712 229.427 464.897 229.188 463.898 229.161C462.953 229.125 462.184 229.292 461.59 229.661C461.005 230.03 460.712 230.529 460.712 231.159C460.712 231.51 460.82 231.812 461.036 232.064C461.261 232.316 461.671 232.554 462.265 232.779C462.868 233.004 463.741 233.261 464.884 233.549C466.171 233.873 467.183 234.228 467.921 234.615C468.668 234.993 469.199 235.443 469.514 235.965C469.829 236.478 469.987 237.113 469.987 237.869C469.987 239.273 469.469 240.38 468.434 241.19C467.399 241.991 465.973 242.392 464.155 242.392ZM483.553 242.405C482.104 242.405 480.853 242.077 479.8 241.419C478.756 240.762 477.951 239.853 477.384 238.692C476.817 237.531 476.533 236.199 476.533 234.696C476.533 233.166 476.821 231.825 477.397 230.673C477.973 229.521 478.788 228.626 479.841 227.987C480.894 227.339 482.131 227.015 483.553 227.015C485.011 227.015 486.267 227.343 487.32 228C488.373 228.648 489.178 229.553 489.736 230.714C490.303 231.866 490.587 233.193 490.587 234.696C490.587 236.217 490.303 237.558 489.736 238.719C489.169 239.871 488.359 240.776 487.306 241.433C486.253 242.081 485.002 242.405 483.553 242.405ZM483.553 240.123C485.065 240.123 486.19 239.619 486.928 238.611C487.666 237.603 488.035 236.298 488.035 234.696C488.035 233.049 487.662 231.74 486.915 230.768C486.168 229.787 485.047 229.296 483.553 229.296C482.536 229.296 481.699 229.526 481.042 229.985C480.385 230.444 479.895 231.078 479.571 231.888C479.247 232.698 479.085 233.634 479.085 234.696C479.085 236.334 479.463 237.648 480.219 238.638C480.975 239.628 482.086 240.123 483.553 240.123ZM503.428 242V234.696C503.428 234.003 503.365 233.337 503.239 232.698C503.122 232.059 502.91 231.488 502.604 230.984C502.307 230.471 501.902 230.066 501.389 229.769C500.885 229.472 500.246 229.323 499.472 229.323C498.869 229.323 498.32 229.427 497.825 229.634C497.339 229.832 496.921 230.138 496.57 230.552C496.219 230.966 495.944 231.488 495.746 232.118C495.557 232.739 495.463 233.472 495.463 234.318L493.883 233.832C493.883 232.419 494.135 231.209 494.639 230.201C495.152 229.184 495.868 228.405 496.786 227.865C497.713 227.316 498.802 227.042 500.053 227.042C500.998 227.042 501.803 227.19 502.469 227.487C503.135 227.784 503.689 228.18 504.13 228.675C504.571 229.161 504.917 229.71 505.169 230.322C505.421 230.925 505.597 231.542 505.696 232.172C505.804 232.793 505.858 233.382 505.858 233.94V242H503.428ZM493.033 242V227.42H495.193V231.321H495.463V242H493.033ZM513.747 242V222.56H521.428C521.617 222.56 521.842 222.569 522.103 222.587C522.364 222.596 522.616 222.623 522.859 222.668C523.912 222.83 524.794 223.19 525.505 223.748C526.225 224.306 526.765 225.012 527.125 225.867C527.485 226.713 527.665 227.654 527.665 228.689C527.665 229.715 527.481 230.655 527.112 231.51C526.752 232.356 526.212 233.063 525.492 233.63C524.781 234.188 523.903 234.548 522.859 234.71C522.616 234.746 522.364 234.773 522.103 234.791C521.842 234.809 521.617 234.818 521.428 234.818H516.15V242H513.747ZM516.15 232.536H521.347C521.518 232.536 521.712 232.527 521.928 232.509C522.153 232.491 522.364 232.46 522.562 232.415C523.183 232.271 523.687 232.01 524.074 231.632C524.47 231.245 524.758 230.795 524.938 230.282C525.118 229.76 525.208 229.229 525.208 228.689C525.208 228.149 525.118 227.622 524.938 227.109C524.758 226.587 524.47 226.133 524.074 225.746C523.687 225.359 523.183 225.098 522.562 224.963C522.364 224.909 522.153 224.877 521.928 224.868C521.712 224.85 521.518 224.841 521.347 224.841H516.15V232.536ZM529.845 242V227.42H531.991V230.943L531.64 230.484C531.811 230.034 532.032 229.62 532.302 229.242C532.581 228.864 532.891 228.554 533.233 228.311C533.611 228.005 534.039 227.771 534.516 227.609C534.993 227.447 535.479 227.352 535.974 227.325C536.469 227.289 536.932 227.321 537.364 227.42V229.674C536.86 229.539 536.307 229.503 535.704 229.566C535.101 229.629 534.543 229.85 534.03 230.228C533.562 230.561 533.197 230.966 532.936 231.443C532.684 231.92 532.509 232.437 532.41 232.995C532.311 233.544 532.261 234.107 532.261 234.683V242H529.845ZM539.674 224.841V222.357H542.077V224.841H539.674ZM539.674 242V227.42H542.077V242H539.674ZM549.557 242L544.265 227.42H546.695L550.785 238.935L554.862 227.42H557.306L552.014 242H549.557ZM562.562 242.405C561.473 242.405 560.559 242.207 559.821 241.811C559.092 241.406 558.539 240.875 558.161 240.218C557.792 239.561 557.607 238.841 557.607 238.058C557.607 237.293 557.751 236.631 558.039 236.073C558.336 235.506 558.75 235.038 559.281 234.669C559.812 234.291 560.447 233.994 561.185 233.778C561.878 233.589 562.652 233.427 563.507 233.292C564.371 233.148 565.244 233.018 566.126 232.901C567.008 232.784 567.831 232.671 568.596 232.563L567.732 233.063C567.759 231.767 567.498 230.808 566.949 230.187C566.409 229.566 565.473 229.256 564.141 229.256C563.259 229.256 562.485 229.458 561.819 229.863C561.162 230.259 560.699 230.907 560.429 231.807L558.147 231.119C558.498 229.841 559.178 228.837 560.186 228.108C561.194 227.379 562.521 227.015 564.168 227.015C565.491 227.015 566.625 227.253 567.57 227.73C568.524 228.198 569.208 228.909 569.622 229.863C569.829 230.313 569.96 230.804 570.014 231.335C570.068 231.857 570.095 232.406 570.095 232.982V242H567.962V238.503L568.461 238.827C567.912 240.006 567.143 240.897 566.153 241.5C565.172 242.104 563.975 242.405 562.562 242.405ZM562.926 240.393C563.79 240.393 564.537 240.24 565.167 239.934C565.806 239.619 566.319 239.21 566.706 238.706C567.093 238.193 567.345 237.635 567.462 237.032C567.597 236.582 567.669 236.082 567.678 235.533C567.696 234.975 567.705 234.548 567.705 234.251L568.542 234.615C567.759 234.723 566.99 234.827 566.234 234.926C565.478 235.025 564.762 235.133 564.087 235.25C563.412 235.358 562.805 235.488 562.265 235.641C561.869 235.767 561.495 235.929 561.144 236.127C560.802 236.325 560.523 236.582 560.307 236.897C560.1 237.203 559.997 237.585 559.997 238.044C559.997 238.44 560.096 238.818 560.294 239.178C560.501 239.538 560.816 239.831 561.239 240.056C561.671 240.281 562.233 240.393 562.926 240.393ZM581.232 242C580.368 242.171 579.513 242.239 578.667 242.203C577.83 242.176 577.083 242.009 576.426 241.703C575.769 241.388 575.27 240.902 574.928 240.245C574.64 239.669 574.482 239.088 574.455 238.503C574.437 237.909 574.428 237.239 574.428 236.492V223.37H576.831V236.384C576.831 236.978 576.836 237.486 576.845 237.909C576.863 238.332 576.957 238.697 577.128 239.003C577.452 239.579 577.965 239.916 578.667 240.016C579.378 240.114 580.233 240.087 581.232 239.934V242ZM571.472 229.404V227.42H581.232V229.404H571.472ZM589.391 242.405C587.96 242.405 586.709 242.09 585.638 241.46C584.576 240.821 583.748 239.934 583.154 238.8C582.56 237.657 582.263 236.325 582.263 234.804C582.263 233.211 582.555 231.834 583.14 230.673C583.725 229.503 584.54 228.603 585.584 227.973C586.637 227.334 587.87 227.015 589.283 227.015C590.75 227.015 591.996 227.352 593.022 228.027C594.057 228.702 594.831 229.665 595.344 230.916C595.866 232.167 596.091 233.657 596.019 235.385H593.589V234.521C593.562 232.73 593.198 231.393 592.496 230.511C591.794 229.62 590.75 229.175 589.364 229.175C587.879 229.175 586.749 229.652 585.975 230.606C585.201 231.56 584.814 232.928 584.814 234.71C584.814 236.429 585.201 237.761 585.975 238.706C586.749 239.651 587.852 240.123 589.283 240.123C590.246 240.123 591.083 239.903 591.794 239.462C592.505 239.021 593.063 238.386 593.468 237.558L595.776 238.355C595.209 239.642 594.354 240.641 593.211 241.352C592.077 242.054 590.804 242.405 589.391 242.405ZM584.004 235.385V233.454H594.777V235.385H584.004ZM608.318 222.56H610.762L605.578 242H603.134L608.318 222.56ZM626.639 242.405C624.704 242.405 623.061 241.977 621.711 241.122C620.361 240.267 619.331 239.079 618.62 237.558C617.918 236.037 617.567 234.278 617.567 232.28C617.567 230.282 617.918 228.522 618.62 227.001C619.331 225.48 620.361 224.292 621.711 223.437C623.061 222.582 624.704 222.155 626.639 222.155C628.889 222.155 630.738 222.726 632.187 223.869C633.645 225.012 634.649 226.551 635.198 228.486L632.754 229.134C632.358 227.685 631.652 226.542 630.635 225.705C629.618 224.868 628.286 224.45 626.639 224.45C625.19 224.45 623.984 224.778 623.021 225.435C622.058 226.092 621.333 227.01 620.847 228.189C620.361 229.359 620.114 230.723 620.105 232.28C620.096 233.828 620.334 235.191 620.82 236.37C621.306 237.54 622.035 238.458 623.007 239.124C623.979 239.781 625.19 240.11 626.639 240.11C628.286 240.11 629.618 239.691 630.635 238.854C631.652 238.008 632.358 236.865 632.754 235.425L635.198 236.073C634.649 237.999 633.645 239.538 632.187 240.69C630.738 241.833 628.889 242.405 626.639 242.405ZM643.856 242.405C642.407 242.405 641.156 242.077 640.103 241.419C639.059 240.762 638.253 239.853 637.686 238.692C637.119 237.531 636.836 236.199 636.836 234.696C636.836 233.166 637.124 231.825 637.7 230.673C638.276 229.521 639.09 228.626 640.143 227.987C641.196 227.339 642.434 227.015 643.856 227.015C645.314 227.015 646.569 227.343 647.622 228C648.675 228.648 649.481 229.553 650.039 230.714C650.606 231.866 650.889 233.193 650.889 234.696C650.889 236.217 650.606 237.558 650.039 238.719C649.472 239.871 648.662 240.776 647.609 241.433C646.556 242.081 645.305 242.405 643.856 242.405ZM643.856 240.123C645.368 240.123 646.493 239.619 647.231 238.611C647.969 237.603 648.338 236.298 648.338 234.696C648.338 233.049 647.964 231.74 647.217 230.768C646.47 229.787 645.35 229.296 643.856 229.296C642.839 229.296 642.002 229.526 641.345 229.985C640.688 230.444 640.197 231.078 639.873 231.888C639.549 232.698 639.387 233.634 639.387 234.696C639.387 236.334 639.765 237.648 640.521 238.638C641.277 239.628 642.389 240.123 643.856 240.123ZM670.777 242L670.79 232.671C670.79 231.582 670.498 230.732 669.913 230.12C669.337 229.499 668.585 229.188 667.658 229.188C667.118 229.188 666.605 229.314 666.119 229.566C665.633 229.809 665.237 230.196 664.931 230.727C664.625 231.249 664.472 231.92 664.472 232.739L663.203 232.226C663.185 231.191 663.397 230.286 663.838 229.512C664.288 228.729 664.9 228.122 665.674 227.69C666.448 227.258 667.321 227.042 668.293 227.042C669.814 227.042 671.011 227.505 671.884 228.433C672.757 229.35 673.193 230.588 673.193 232.145L673.18 242H670.777ZM653.335 242V227.42H655.481V231.321H655.751V242H653.335ZM662.069 242L662.083 232.766C662.083 231.65 661.795 230.777 661.219 230.147C660.643 229.508 659.878 229.188 658.924 229.188C657.979 229.188 657.214 229.512 656.629 230.16C656.044 230.808 655.751 231.668 655.751 232.739L654.482 231.983C654.482 231.038 654.707 230.192 655.157 229.445C655.607 228.698 656.219 228.113 656.993 227.69C657.767 227.258 658.645 227.042 659.626 227.042C660.607 227.042 661.462 227.249 662.191 227.663C662.92 228.077 663.482 228.671 663.878 229.445C664.274 230.21 664.472 231.123 664.472 232.185L664.459 242H662.069ZM693.625 242L693.639 232.671C693.639 231.582 693.346 230.732 692.761 230.12C692.185 229.499 691.434 229.188 690.507 229.188C689.967 229.188 689.454 229.314 688.968 229.566C688.482 229.809 688.086 230.196 687.78 230.727C687.474 231.249 687.321 231.92 687.321 232.739L686.052 232.226C686.034 231.191 686.245 230.286 686.686 229.512C687.136 228.729 687.748 228.122 688.522 227.69C689.296 227.258 690.169 227.042 691.141 227.042C692.662 227.042 693.859 227.505 694.732 228.433C695.605 229.35 696.042 230.588 696.042 232.145L696.028 242H693.625ZM676.183 242V227.42H678.33V231.321H678.6V242H676.183ZM684.918 242L684.931 232.766C684.931 231.65 684.643 230.777 684.067 230.147C683.491 229.508 682.726 229.188 681.772 229.188C680.827 229.188 680.062 229.512 679.477 230.16C678.892 230.808 678.6 231.668 678.6 232.739L677.331 231.983C677.331 231.038 677.556 230.192 678.006 229.445C678.456 228.698 679.068 228.113 679.842 227.69C680.616 227.258 681.493 227.042 682.474 227.042C683.455 227.042 684.31 227.249 685.039 227.663C685.768 228.077 686.331 228.671 686.727 229.445C687.123 230.21 687.321 231.123 687.321 232.185L687.307 242H684.918ZM705.231 242.405C703.8 242.405 702.549 242.09 701.478 241.46C700.416 240.821 699.588 239.934 698.994 238.8C698.4 237.657 698.103 236.325 698.103 234.804C698.103 233.211 698.396 231.834 698.981 230.673C699.566 229.503 700.38 228.603 701.424 227.973C702.477 227.334 703.71 227.015 705.123 227.015C706.59 227.015 707.837 227.352 708.863 228.027C709.898 228.702 710.672 229.665 711.185 230.916C711.707 232.167 711.932 233.657 711.86 235.385H709.43V234.521C709.403 232.73 709.038 231.393 708.336 230.511C707.634 229.62 706.59 229.175 705.204 229.175C703.719 229.175 702.59 229.652 701.816 230.606C701.042 231.56 700.655 232.928 700.655 234.71C700.655 236.429 701.042 237.761 701.816 238.706C702.59 239.651 703.692 240.123 705.123 240.123C706.086 240.123 706.923 239.903 707.634 239.462C708.345 239.021 708.903 238.386 709.308 237.558L711.617 238.355C711.05 239.642 710.195 240.641 709.052 241.352C707.918 242.054 706.644 242.405 705.231 242.405ZM699.845 235.385V233.454H710.618V235.385H699.845ZM714.352 242V227.42H716.499V230.943L716.148 230.484C716.319 230.034 716.539 229.62 716.809 229.242C717.088 228.864 717.399 228.554 717.741 228.311C718.119 228.005 718.546 227.771 719.023 227.609C719.5 227.447 719.986 227.352 720.481 227.325C720.976 227.289 721.44 227.321 721.872 227.42V229.674C721.368 229.539 720.814 229.503 720.211 229.566C719.608 229.629 719.05 229.85 718.537 230.228C718.069 230.561 717.705 230.966 717.444 231.443C717.192 231.92 717.016 232.437 716.917 232.995C716.818 233.544 716.769 234.107 716.769 234.683V242H714.352ZM729.79 242.405C728.314 242.405 727.059 242.077 726.024 241.419C724.998 240.753 724.215 239.84 723.675 238.679C723.135 237.518 722.856 236.195 722.838 234.71C722.856 233.189 723.139 231.852 723.688 230.7C724.246 229.539 725.043 228.635 726.078 227.987C727.113 227.339 728.359 227.015 729.817 227.015C731.356 227.015 732.679 227.393 733.786 228.149C734.902 228.905 735.649 229.94 736.027 231.254L733.651 231.969C733.345 231.123 732.846 230.466 732.153 229.998C731.469 229.53 730.681 229.296 729.79 229.296C728.791 229.296 727.968 229.53 727.32 229.998C726.672 230.457 726.19 231.096 725.875 231.915C725.56 232.725 725.398 233.657 725.389 234.71C725.407 236.33 725.781 237.639 726.51 238.638C727.248 239.628 728.341 240.123 729.79 240.123C730.744 240.123 731.536 239.907 732.166 239.475C732.796 239.034 733.273 238.4 733.597 237.572L736.027 238.206C735.523 239.565 734.736 240.605 733.665 241.325C732.594 242.045 731.302 242.405 729.79 242.405ZM738.144 224.841V222.357H740.547V224.841H738.144ZM738.144 242V227.42H740.547V242H738.144ZM748.229 242.405C747.14 242.405 746.227 242.207 745.489 241.811C744.76 241.406 744.206 240.875 743.828 240.218C743.459 239.561 743.275 238.841 743.275 238.058C743.275 237.293 743.419 236.631 743.707 236.073C744.004 235.506 744.418 235.038 744.949 234.669C745.48 234.291 746.114 233.994 746.852 233.778C747.545 233.589 748.319 233.427 749.174 233.292C750.038 233.148 750.911 233.018 751.793 232.901C752.675 232.784 753.499 232.671 754.264 232.563L753.4 233.063C753.427 231.767 753.166 230.808 752.617 230.187C752.077 229.566 751.141 229.256 749.809 229.256C748.927 229.256 748.153 229.458 747.487 229.863C746.83 230.259 746.366 230.907 746.096 231.807L743.815 231.119C744.166 229.841 744.845 228.837 745.853 228.108C746.861 227.379 748.189 227.015 749.836 227.015C751.159 227.015 752.293 227.253 753.238 227.73C754.192 228.198 754.876 228.909 755.29 229.863C755.497 230.313 755.627 230.804 755.681 231.335C755.735 231.857 755.762 232.406 755.762 232.982V242H753.629V238.503L754.129 238.827C753.58 240.006 752.81 240.897 751.82 241.5C750.839 242.104 749.642 242.405 748.229 242.405ZM748.594 240.393C749.458 240.393 750.205 240.24 750.835 239.934C751.474 239.619 751.987 239.21 752.374 238.706C752.761 238.193 753.013 237.635 753.13 237.032C753.265 236.582 753.337 236.082 753.346 235.533C753.364 234.975 753.373 234.548 753.373 234.251L754.21 234.615C753.427 234.723 752.657 234.827 751.901 234.926C751.145 235.025 750.43 235.133 749.755 235.25C749.08 235.358 748.472 235.488 747.932 235.641C747.536 235.767 747.163 235.929 746.812 236.127C746.47 236.325 746.191 236.582 745.975 236.897C745.768 237.203 745.664 237.585 745.664 238.044C745.664 238.44 745.763 238.818 745.961 239.178C746.168 239.538 746.483 239.831 746.906 240.056C747.338 240.281 747.901 240.393 748.594 240.393ZM759.029 242V222.155H761.432V242H759.029ZM778.259 242V238.422H769.322V236.141L775.735 222.56H778.462L772.049 236.141H778.259V230.673H780.689V236.141H782.714V238.422H780.689V242H778.259ZM793.304 242.405C791.972 242.405 790.757 242.171 789.659 241.703C788.561 241.235 787.616 240.564 786.824 239.691C786.032 238.809 785.42 237.747 784.988 236.505C784.565 235.254 784.353 233.846 784.353 232.28C784.353 230.21 784.722 228.419 785.46 226.907C786.198 225.395 787.238 224.229 788.579 223.41C789.92 222.582 791.495 222.168 793.304 222.168C795.482 222.168 797.237 222.677 798.569 223.694C799.901 224.702 800.819 226.083 801.323 227.838L798.893 228.338C798.488 227.159 797.822 226.218 796.895 225.516C795.968 224.814 794.811 224.463 793.425 224.463C791.976 224.454 790.77 224.778 789.807 225.435C788.853 226.083 788.133 226.997 787.647 228.176C787.161 229.355 786.914 230.723 786.905 232.28C786.896 233.828 787.134 235.187 787.62 236.357C788.106 237.527 788.831 238.445 789.794 239.111C790.766 239.768 791.976 240.101 793.425 240.11C794.676 240.119 795.729 239.88 796.584 239.394C797.439 238.908 798.101 238.206 798.569 237.288C799.037 236.37 799.32 235.268 799.419 233.981H795.288V231.996H801.957C801.984 232.176 801.998 232.392 801.998 232.644C802.007 232.887 802.011 233.054 802.011 233.144C802.011 234.917 801.678 236.505 801.012 237.909C800.355 239.304 799.379 240.402 798.083 241.203C796.796 242.004 795.203 242.405 793.304 242.405ZM815.405 242.405C814.325 242.405 813.317 242.248 812.381 241.932C811.445 241.617 810.662 241.122 810.032 240.447C809.546 239.907 809.181 239.313 808.938 238.665C808.704 238.008 808.574 237.315 808.547 236.586C808.547 235.875 808.65 235.182 808.857 234.507C809.064 233.823 809.393 233.216 809.843 232.685C810.077 232.397 810.338 232.154 810.626 231.956C810.923 231.749 811.22 231.573 811.517 231.429C810.896 230.763 810.419 230.138 810.086 229.553C809.762 228.968 809.6 228.261 809.6 227.434C809.6 226.38 809.87 225.431 810.41 224.585C810.959 223.73 811.706 223.104 812.651 222.708C813.11 222.51 813.578 222.375 814.055 222.303C814.541 222.222 815.013 222.182 815.472 222.182C816.246 222.182 816.998 222.29 817.727 222.506C818.456 222.722 819.077 223.073 819.59 223.559C819.932 223.847 820.224 224.18 820.467 224.558C820.71 224.927 820.899 225.314 821.034 225.719L818.685 226.326C818.514 225.867 818.231 225.48 817.835 225.165C817.52 224.895 817.151 224.711 816.728 224.612C816.314 224.513 815.895 224.463 815.472 224.463C814.77 224.463 814.136 224.598 813.569 224.868C813.065 225.111 812.687 225.453 812.435 225.894C812.183 226.326 812.057 226.839 812.057 227.434C812.057 227.946 812.142 228.369 812.313 228.702C812.493 229.026 812.741 229.373 813.056 229.742C813.245 229.94 813.456 230.151 813.69 230.376C813.933 230.592 814.181 230.817 814.433 231.051L820.157 236.37C820.184 236.145 820.202 235.916 820.211 235.682C820.22 235.448 820.224 235.223 820.224 235.007L820.211 232.32H822.411V235.479C822.411 236.118 822.389 236.663 822.344 237.113C822.308 237.563 822.245 237.936 822.155 238.233L824.625 240.515L823.059 242.189L821.007 240.245C820.656 240.641 820.238 240.987 819.752 241.284C819.266 241.581 818.78 241.806 818.294 241.959C817.835 242.131 817.362 242.248 816.876 242.311C816.39 242.374 815.9 242.405 815.405 242.405ZM815.459 240.096C815.9 240.096 816.3 240.069 816.66 240.016C817.02 239.961 817.362 239.858 817.686 239.705C818.118 239.498 818.451 239.3 818.685 239.111C818.919 238.922 819.113 238.746 819.266 238.584L813.339 233.157C813.015 233.265 812.709 233.409 812.421 233.589C812.142 233.769 811.899 233.981 811.692 234.224C811.458 234.512 811.283 234.849 811.166 235.236C811.058 235.623 811.004 236.033 811.004 236.465C811.013 236.924 811.089 237.347 811.233 237.734C811.377 238.121 811.58 238.467 811.841 238.773C812.237 239.232 812.772 239.57 813.447 239.786C814.122 239.993 814.793 240.096 815.459 240.096ZM836.962 242.405C835.963 242.405 835.032 242.198 834.168 241.784C833.313 241.37 832.579 240.803 831.967 240.083C831.364 239.354 830.932 238.517 830.671 237.572L832.98 236.951C833.142 237.59 833.43 238.143 833.844 238.611C834.258 239.07 834.739 239.43 835.288 239.691C835.846 239.943 836.427 240.069 837.03 240.069C837.822 240.069 838.533 239.88 839.163 239.502C839.802 239.115 840.306 238.607 840.675 237.977C841.044 237.338 841.228 236.64 841.228 235.884C841.228 235.101 841.035 234.395 840.648 233.765C840.27 233.126 839.761 232.622 839.122 232.253C838.483 231.884 837.786 231.699 837.03 231.699C836.175 231.699 835.441 231.879 834.829 232.239C834.226 232.59 833.749 233.022 833.398 233.535L831.265 232.725L831.859 222.56H842.295V224.841H833.02L834.087 223.842L833.587 231.983L833.061 231.294C833.601 230.718 834.244 230.273 834.991 229.958C835.747 229.643 836.517 229.485 837.3 229.485C838.506 229.485 839.586 229.769 840.54 230.336C841.494 230.894 842.25 231.659 842.808 232.631C843.366 233.594 843.645 234.678 843.645 235.884C843.645 237.081 843.339 238.175 842.727 239.165C842.115 240.146 841.3 240.933 840.283 241.527C839.275 242.113 838.168 242.405 836.962 242.405ZM854.231 242.405C852.899 242.405 851.684 242.171 850.586 241.703C849.488 241.235 848.543 240.564 847.751 239.691C846.959 238.809 846.347 237.747 845.915 236.505C845.492 235.254 845.28 233.846 845.28 232.28C845.28 230.21 845.649 228.419 846.387 226.907C847.125 225.395 848.165 224.229 849.506 223.41C850.847 222.582 852.422 222.168 854.231 222.168C856.409 222.168 858.164 222.677 859.496 223.694C860.828 224.702 861.746 226.083 862.25 227.838L859.82 228.338C859.415 227.159 858.749 226.218 857.822 225.516C856.895 224.814 855.738 224.463 854.352 224.463C852.903 224.454 851.697 224.778 850.734 225.435C849.78 226.083 849.06 226.997 848.574 228.176C848.088 229.355 847.841 230.723 847.832 232.28C847.823 233.828 848.061 235.187 848.547 236.357C849.033 237.527 849.758 238.445 850.721 239.111C851.693 239.768 852.903 240.101 854.352 240.11C855.603 240.119 856.656 239.88 857.511 239.394C858.366 238.908 859.028 238.206 859.496 237.288C859.964 236.37 860.247 235.268 860.346 233.981H856.215V231.996H862.884C862.911 232.176 862.925 232.392 862.925 232.644C862.934 232.887 862.938 233.054 862.938 233.144C862.938 234.917 862.605 236.505 861.939 237.909C861.282 239.304 860.306 240.402 859.01 241.203C857.723 242.004 856.13 242.405 854.231 242.405Z" fill="white"/>
<rect x="365.5" y="99.5" width="494" height="69" rx="34.5" stroke="white" stroke-opacity="0.51" stroke-width="3"/>
<path d="M397.16 144V124.56H399.563V144H397.16ZM413.482 144V136.696C413.482 136.003 413.419 135.337 413.293 134.698C413.176 134.059 412.965 133.488 412.659 132.984C412.362 132.471 411.957 132.066 411.444 131.769C410.94 131.472 410.301 131.323 409.527 131.323C408.924 131.323 408.375 131.427 407.88 131.634C407.394 131.832 406.975 132.138 406.624 132.552C406.273 132.966 405.999 133.488 405.801 134.118C405.612 134.739 405.517 135.472 405.517 136.318L403.938 135.832C403.938 134.419 404.19 133.209 404.694 132.201C405.207 131.184 405.922 130.405 406.84 129.865C407.767 129.316 408.856 129.042 410.107 129.042C411.052 129.042 411.858 129.19 412.524 129.487C413.19 129.784 413.743 130.18 414.184 130.675C414.625 131.161 414.972 131.71 415.224 132.322C415.476 132.925 415.651 133.542 415.75 134.172C415.858 134.793 415.912 135.382 415.912 135.94V144H413.482ZM403.087 144V129.42H405.247V133.321H405.517V144H403.087ZM427.049 144C426.185 144.171 425.33 144.239 424.484 144.203C423.647 144.176 422.9 144.009 422.243 143.703C421.586 143.388 421.087 142.902 420.745 142.245C420.457 141.669 420.299 141.088 420.272 140.503C420.254 139.909 420.245 139.239 420.245 138.492V125.37H422.648V138.384C422.648 138.978 422.653 139.486 422.662 139.909C422.68 140.332 422.774 140.697 422.945 141.003C423.269 141.579 423.782 141.916 424.484 142.016C425.195 142.114 426.05 142.087 427.049 141.934V144ZM417.289 131.404V129.42H427.049V131.404H417.289ZM435.208 144.405C433.777 144.405 432.526 144.09 431.455 143.46C430.393 142.821 429.565 141.934 428.971 140.8C428.377 139.657 428.08 138.325 428.08 136.804C428.08 135.211 428.373 133.834 428.958 132.673C429.543 131.503 430.357 130.603 431.401 129.973C432.454 129.334 433.687 129.015 435.1 129.015C436.567 129.015 437.814 129.352 438.84 130.027C439.875 130.702 440.649 131.665 441.162 132.916C441.684 134.167 441.909 135.657 441.837 137.385H439.407V136.521C439.38 134.73 439.015 133.393 438.313 132.511C437.611 131.62 436.567 131.175 435.181 131.175C433.696 131.175 432.567 131.652 431.793 132.606C431.019 133.56 430.632 134.928 430.632 136.71C430.632 138.429 431.019 139.761 431.793 140.706C432.567 141.651 433.669 142.123 435.1 142.123C436.063 142.123 436.9 141.903 437.611 141.462C438.322 141.021 438.88 140.386 439.285 139.558L441.594 140.355C441.027 141.642 440.172 142.641 439.029 143.352C437.895 144.054 436.621 144.405 435.208 144.405ZM429.822 137.385V135.454H440.595V137.385H429.822ZM444.329 144V129.42H446.476V132.943L446.125 132.484C446.296 132.034 446.516 131.62 446.786 131.242C447.065 130.864 447.376 130.554 447.718 130.311C448.096 130.005 448.523 129.771 449 129.609C449.477 129.447 449.963 129.352 450.458 129.325C450.953 129.289 451.417 129.321 451.849 129.42V131.674C451.345 131.539 450.791 131.503 450.188 131.566C449.585 131.629 449.027 131.85 448.514 132.228C448.046 132.561 447.682 132.966 447.421 133.443C447.169 133.92 446.993 134.437 446.894 134.995C446.795 135.544 446.746 136.107 446.746 136.683V144H444.329ZM459.835 144.405C458.386 144.405 457.135 144.077 456.082 143.419C455.038 142.762 454.232 141.853 453.665 140.692C453.098 139.531 452.815 138.199 452.815 136.696C452.815 135.166 453.103 133.825 453.679 132.673C454.255 131.521 455.069 130.626 456.122 129.987C457.175 129.339 458.413 129.015 459.835 129.015C461.293 129.015 462.548 129.343 463.601 130C464.654 130.648 465.46 131.553 466.018 132.714C466.585 133.866 466.868 135.193 466.868 136.696C466.868 138.217 466.585 139.558 466.018 140.719C465.451 141.871 464.641 142.776 463.588 143.433C462.535 144.081 461.284 144.405 459.835 144.405ZM459.835 142.123C461.347 142.123 462.472 141.619 463.21 140.611C463.948 139.603 464.317 138.298 464.317 136.696C464.317 135.049 463.943 133.74 463.196 132.768C462.449 131.787 461.329 131.296 459.835 131.296C458.818 131.296 457.981 131.526 457.324 131.985C456.667 132.444 456.176 133.078 455.852 133.888C455.528 134.698 455.366 135.634 455.366 136.696C455.366 138.334 455.744 139.648 456.5 140.638C457.256 141.628 458.368 142.123 459.835 142.123ZM476.024 144.405C474.656 144.405 473.504 144.068 472.568 143.392C471.632 142.708 470.921 141.786 470.435 140.625C469.958 139.455 469.719 138.145 469.719 136.696C469.719 135.229 469.958 133.915 470.435 132.754C470.921 131.593 471.632 130.68 472.568 130.014C473.513 129.348 474.669 129.015 476.037 129.015C477.387 129.015 478.548 129.352 479.52 130.027C480.501 130.693 481.253 131.607 481.775 132.768C482.297 133.929 482.558 135.238 482.558 136.696C482.558 138.154 482.297 139.464 481.775 140.625C481.253 141.786 480.501 142.708 479.52 143.392C478.548 144.068 477.383 144.405 476.024 144.405ZM469.314 150.48V129.42H471.461V140.152H471.731V150.48H469.314ZM475.727 142.204C476.69 142.204 477.486 141.961 478.116 141.475C478.746 140.989 479.219 140.332 479.534 139.504C479.849 138.667 480.006 137.731 480.006 136.696C480.006 135.67 479.849 134.743 479.534 133.915C479.228 133.087 478.751 132.43 478.103 131.944C477.464 131.458 476.649 131.215 475.659 131.215C474.714 131.215 473.931 131.449 473.31 131.917C472.689 132.376 472.226 133.02 471.92 133.848C471.614 134.667 471.461 135.616 471.461 136.696C471.461 137.758 471.609 138.708 471.906 139.545C472.212 140.373 472.68 141.025 473.31 141.502C473.94 141.97 474.746 142.204 475.727 142.204ZM491.322 144.405C489.891 144.405 488.64 144.09 487.569 143.46C486.507 142.821 485.679 141.934 485.085 140.8C484.491 139.657 484.194 138.325 484.194 136.804C484.194 135.211 484.487 133.834 485.072 132.673C485.657 131.503 486.471 130.603 487.515 129.973C488.568 129.334 489.801 129.015 491.214 129.015C492.681 129.015 493.928 129.352 494.954 130.027C495.989 130.702 496.763 131.665 497.276 132.916C497.798 134.167 498.023 135.657 497.951 137.385H495.521V136.521C495.494 134.73 495.129 133.393 494.427 132.511C493.725 131.62 492.681 131.175 491.295 131.175C489.81 131.175 488.681 131.652 487.907 132.606C487.133 133.56 486.746 134.928 486.746 136.71C486.746 138.429 487.133 139.761 487.907 140.706C488.681 141.651 489.783 142.123 491.214 142.123C492.177 142.123 493.014 141.903 493.725 141.462C494.436 141.021 494.994 140.386 495.399 139.558L497.708 140.355C497.141 141.642 496.286 142.641 495.143 143.352C494.009 144.054 492.735 144.405 491.322 144.405ZM485.936 137.385V135.454H496.709V137.385H485.936ZM500.443 144V129.42H502.59V132.943L502.239 132.484C502.41 132.034 502.63 131.62 502.9 131.242C503.179 130.864 503.49 130.554 503.832 130.311C504.21 130.005 504.637 129.771 505.114 129.609C505.591 129.447 506.077 129.352 506.572 129.325C507.067 129.289 507.531 129.321 507.963 129.42V131.674C507.459 131.539 506.905 131.503 506.302 131.566C505.699 131.629 505.141 131.85 504.628 132.228C504.16 132.561 503.796 132.966 503.535 133.443C503.283 133.92 503.107 134.437 503.008 134.995C502.909 135.544 502.86 136.107 502.86 136.683V144H500.443ZM513.672 144.405C512.583 144.405 511.67 144.207 510.932 143.811C510.203 143.406 509.649 142.875 509.271 142.218C508.902 141.561 508.718 140.841 508.718 140.058C508.718 139.293 508.862 138.631 509.15 138.073C509.447 137.506 509.861 137.038 510.392 136.669C510.923 136.291 511.557 135.994 512.295 135.778C512.988 135.589 513.762 135.427 514.617 135.292C515.481 135.148 516.354 135.018 517.236 134.901C518.118 134.784 518.942 134.671 519.707 134.563L518.843 135.063C518.87 133.767 518.609 132.808 518.06 132.187C517.52 131.566 516.584 131.256 515.252 131.256C514.37 131.256 513.596 131.458 512.93 131.863C512.273 132.259 511.809 132.907 511.539 133.807L509.258 133.119C509.609 131.841 510.288 130.837 511.296 130.108C512.304 129.379 513.632 129.015 515.279 129.015C516.602 129.015 517.736 129.253 518.681 129.73C519.635 130.198 520.319 130.909 520.733 131.863C520.94 132.313 521.07 132.804 521.124 133.335C521.178 133.857 521.205 134.406 521.205 134.982V144H519.072V140.503L519.572 140.827C519.023 142.006 518.253 142.897 517.263 143.5C516.282 144.104 515.085 144.405 513.672 144.405ZM514.037 142.393C514.901 142.393 515.648 142.24 516.278 141.934C516.917 141.619 517.43 141.21 517.817 140.706C518.204 140.193 518.456 139.635 518.573 139.032C518.708 138.582 518.78 138.082 518.789 137.533C518.807 136.975 518.816 136.548 518.816 136.251L519.653 136.615C518.87 136.723 518.1 136.827 517.344 136.926C516.588 137.025 515.873 137.133 515.198 137.25C514.523 137.358 513.915 137.488 513.375 137.641C512.979 137.767 512.606 137.929 512.255 138.127C511.913 138.325 511.634 138.582 511.418 138.897C511.211 139.203 511.107 139.585 511.107 140.044C511.107 140.44 511.206 140.818 511.404 141.178C511.611 141.538 511.926 141.831 512.349 142.056C512.781 142.281 513.344 142.393 514.037 142.393ZM532.343 144C531.479 144.171 530.624 144.239 529.778 144.203C528.941 144.176 528.194 144.009 527.537 143.703C526.88 143.388 526.38 142.902 526.038 142.245C525.75 141.669 525.593 141.088 525.566 140.503C525.548 139.909 525.539 139.239 525.539 138.492V125.37H527.942V138.384C527.942 138.978 527.946 139.486 527.955 139.909C527.973 140.332 528.068 140.697 528.239 141.003C528.563 141.579 529.076 141.916 529.778 142.016C530.489 142.114 531.344 142.087 532.343 141.934V144ZM522.582 131.404V129.42H532.343V131.404H522.582ZM540.502 144.405C539.071 144.405 537.82 144.09 536.749 143.46C535.687 142.821 534.859 141.934 534.265 140.8C533.671 139.657 533.374 138.325 533.374 136.804C533.374 135.211 533.666 133.834 534.251 132.673C534.836 131.503 535.651 130.603 536.695 129.973C537.748 129.334 538.981 129.015 540.394 129.015C541.861 129.015 543.107 129.352 544.133 130.027C545.168 130.702 545.942 131.665 546.455 132.916C546.977 134.167 547.202 135.657 547.13 137.385H544.7V136.521C544.673 134.73 544.309 133.393 543.607 132.511C542.905 131.62 541.861 131.175 540.475 131.175C538.99 131.175 537.86 131.652 537.086 132.606C536.312 133.56 535.925 134.928 535.925 136.71C535.925 138.429 536.312 139.761 537.086 140.706C537.86 141.651 538.963 142.123 540.394 142.123C541.357 142.123 542.194 141.903 542.905 141.462C543.616 141.021 544.174 140.386 544.579 139.558L546.887 140.355C546.32 141.642 545.465 142.641 544.322 143.352C543.188 144.054 541.915 144.405 540.502 144.405ZM535.115 137.385V135.454H545.888V137.385H535.115ZM555.131 144.392C553.394 144.392 551.967 144.013 550.851 143.257C549.744 142.492 549.065 141.426 548.813 140.058L551.27 139.666C551.468 140.458 551.922 141.088 552.633 141.556C553.344 142.015 554.226 142.245 555.279 142.245C556.278 142.245 557.061 142.038 557.628 141.624C558.195 141.21 558.479 140.647 558.479 139.936C558.479 139.522 558.384 139.189 558.195 138.937C558.006 138.676 557.615 138.433 557.021 138.208C556.436 137.983 555.549 137.713 554.361 137.398C553.074 137.056 552.062 136.701 551.324 136.332C550.586 135.963 550.059 135.535 549.744 135.049C549.429 134.563 549.272 133.974 549.272 133.281C549.272 132.426 549.506 131.679 549.974 131.04C550.442 130.392 551.094 129.892 551.931 129.541C552.777 129.19 553.758 129.015 554.874 129.015C555.981 129.015 556.971 129.19 557.844 129.541C558.717 129.892 559.419 130.392 559.95 131.04C560.49 131.679 560.81 132.426 560.909 133.281L558.452 133.726C558.335 132.943 557.957 132.327 557.318 131.877C556.688 131.427 555.873 131.188 554.874 131.161C553.929 131.125 553.16 131.292 552.566 131.661C551.981 132.03 551.688 132.529 551.688 133.159C551.688 133.51 551.796 133.812 552.012 134.064C552.237 134.316 552.647 134.554 553.241 134.779C553.844 135.004 554.717 135.261 555.86 135.549C557.147 135.873 558.159 136.228 558.897 136.615C559.644 136.993 560.175 137.443 560.49 137.965C560.805 138.478 560.963 139.113 560.963 139.869C560.963 141.273 560.445 142.38 559.41 143.19C558.375 143.991 556.949 144.392 555.131 144.392ZM571.424 144L566.969 129.406L569.359 129.42L572.612 140.085L575.893 129.42H578.012L581.279 140.085L584.546 129.42H586.922L582.467 144H580.469L576.946 132.916L573.422 144H571.424ZM589.117 126.841V124.357H591.52V126.841H589.117ZM589.117 144V129.42H591.52V144H589.117ZM603.198 144C602.334 144.171 601.479 144.239 600.633 144.203C599.796 144.176 599.049 144.009 598.392 143.703C597.735 143.388 597.236 142.902 596.894 142.245C596.606 141.669 596.448 141.088 596.421 140.503C596.403 139.909 596.394 139.239 596.394 138.492V125.37H598.797V138.384C598.797 138.978 598.802 139.486 598.811 139.909C598.829 140.332 598.923 140.697 599.094 141.003C599.418 141.579 599.931 141.916 600.633 142.016C601.344 142.114 602.199 142.087 603.198 141.934V144ZM593.438 131.404V129.42H603.198V131.404H593.438ZM616.027 144V136.696C616.027 136.003 615.964 135.337 615.838 134.698C615.721 134.059 615.51 133.488 615.204 132.984C614.907 132.471 614.502 132.066 613.989 131.769C613.485 131.472 612.846 131.323 612.072 131.323C611.469 131.323 610.92 131.427 610.425 131.634C609.939 131.832 609.52 132.138 609.169 132.552C608.818 132.966 608.544 133.488 608.346 134.118C608.157 134.739 608.062 135.472 608.062 136.318L606.483 135.832C606.483 134.419 606.735 133.209 607.239 132.201C607.752 131.184 608.467 130.405 609.385 129.865C610.312 129.316 611.401 129.042 612.652 129.042C613.597 129.042 614.403 129.19 615.069 129.487C615.735 129.784 616.288 130.18 616.729 130.675C617.17 131.161 617.517 131.71 617.769 132.322C618.021 132.925 618.196 133.542 618.295 134.172C618.403 134.793 618.457 135.382 618.457 135.94V144H616.027ZM605.632 144V124.56H607.792V135.292H608.062V144H605.632ZM626.616 144V124.56H629.019V141.718H638.037V144H626.616ZM639.808 144V124.56H641.995L649.339 140.044L656.642 124.56H658.856V143.986H656.575V129.838L649.973 144H648.691L642.089 129.838V144H639.808ZM662.129 144V124.56H669.81C669.999 124.56 670.224 124.569 670.485 124.587C670.746 124.596 670.998 124.623 671.241 124.668C672.294 124.83 673.176 125.19 673.887 125.748C674.607 126.306 675.147 127.012 675.507 127.867C675.867 128.713 676.047 129.654 676.047 130.689C676.047 132.192 675.656 133.497 674.873 134.604C674.09 135.702 672.942 136.39 671.43 136.669L670.512 136.818H664.532V144H662.129ZM673.698 144L669.864 136.089L672.24 135.36L676.452 144H673.698ZM664.532 134.536H669.729C669.9 134.536 670.094 134.527 670.31 134.509C670.535 134.491 670.746 134.46 670.944 134.415C671.565 134.271 672.069 134.01 672.456 133.632C672.852 133.245 673.14 132.795 673.32 132.282C673.5 131.76 673.59 131.229 673.59 130.689C673.59 130.149 673.5 129.622 673.32 129.109C673.14 128.587 672.852 128.133 672.456 127.746C672.069 127.359 671.565 127.098 670.944 126.963C670.746 126.909 670.535 126.877 670.31 126.868C670.094 126.85 669.9 126.841 669.729 126.841H664.532V134.536ZM678.643 147.024L678.791 145.904C679.169 145.931 679.453 145.859 679.642 145.688C679.831 145.517 679.952 145.283 680.006 144.986C680.06 144.689 680.069 144.36 680.033 144H678.643V140.949H681.289V144.405C681.289 145.35 681.055 146.061 680.587 146.538C680.128 147.015 679.48 147.177 678.643 147.024ZM695.815 144V126.841H689.187V124.56H704.847V126.841H698.218V144H695.815ZM706.483 144V124.56H718.768V126.841H708.886V132.93H717.148V135.211H708.886V141.718H718.768V144H706.483ZM726.509 144V126.841H719.88V124.56H735.54V126.841H728.912V144H726.509ZM737.177 144V124.56H744.858C745.047 124.56 745.272 124.569 745.533 124.587C745.794 124.596 746.046 124.623 746.289 124.668C747.342 124.83 748.224 125.19 748.935 125.748C749.655 126.306 750.195 127.012 750.555 127.867C750.915 128.713 751.095 129.654 751.095 130.689C751.095 132.192 750.704 133.497 749.921 134.604C749.138 135.702 747.99 136.39 746.478 136.669L745.56 136.818H739.58V144H737.177ZM748.746 144L744.912 136.089L747.288 135.36L751.5 144H748.746ZM739.58 134.536H744.777C744.948 134.536 745.142 134.527 745.358 134.509C745.583 134.491 745.794 134.46 745.992 134.415C746.613 134.271 747.117 134.01 747.504 133.632C747.9 133.245 748.188 132.795 748.368 132.282C748.548 131.76 748.638 131.229 748.638 130.689C748.638 130.149 748.548 129.622 748.368 129.109C748.188 128.587 747.9 128.133 747.504 127.746C747.117 127.359 746.613 127.098 745.992 126.963C745.794 126.909 745.583 126.877 745.358 126.868C745.142 126.85 744.948 126.841 744.777 126.841H739.58V134.536ZM752.611 144L759.118 124.56H762.466L768.973 144H766.475L760.387 125.964H761.143L755.108 144H752.611ZM755.743 139.45V137.196H765.841V139.45H755.743ZM770.606 147.024L770.755 145.904C771.133 145.931 771.416 145.859 771.605 145.688C771.794 145.517 771.916 145.283 771.97 144.986C772.024 144.689 772.033 144.36 771.997 144H770.606V140.949H773.252V144.405C773.252 145.35 773.018 146.061 772.55 146.538C772.091 147.015 771.443 147.177 770.606 147.024ZM782.77 144V124.56H790.452C790.641 124.56 790.866 124.569 791.127 124.587C791.388 124.596 791.64 124.623 791.883 124.668C792.936 124.83 793.818 125.19 794.529 125.748C795.249 126.306 795.789 127.012 796.149 127.867C796.509 128.713 796.689 129.654 796.689 130.689C796.689 131.715 796.504 132.655 796.135 133.51C795.775 134.356 795.235 135.063 794.515 135.63C793.804 136.188 792.927 136.548 791.883 136.71C791.64 136.746 791.388 136.773 791.127 136.791C790.866 136.809 790.641 136.818 790.452 136.818H785.173V144H782.77ZM785.173 134.536H790.371C790.542 134.536 790.735 134.527 790.951 134.509C791.176 134.491 791.388 134.46 791.586 134.415C792.207 134.271 792.711 134.01 793.098 133.632C793.494 133.245 793.782 132.795 793.962 132.282C794.142 131.76 794.232 131.229 794.232 130.689C794.232 130.149 794.142 129.622 793.962 129.109C793.782 128.587 793.494 128.133 793.098 127.746C792.711 127.359 792.207 127.098 791.586 126.963C791.388 126.909 791.176 126.877 790.951 126.868C790.735 126.85 790.542 126.841 790.371 126.841H785.173V134.536ZM798.869 144V124.56H806.442C807.603 124.56 808.593 124.798 809.412 125.275C810.24 125.752 810.87 126.382 811.302 127.165C811.743 127.939 811.964 128.776 811.964 129.676C811.964 130.729 811.694 131.652 811.154 132.444C810.614 133.236 809.885 133.78 808.967 134.077L808.94 133.416C810.191 133.749 811.163 134.361 811.856 135.252C812.549 136.143 812.895 137.205 812.895 138.438C812.895 139.572 812.661 140.553 812.193 141.381C811.734 142.209 811.068 142.852 810.195 143.311C809.331 143.77 808.305 144 807.117 144H798.869ZM801.299 141.705H806.658C807.378 141.705 808.022 141.574 808.589 141.313C809.156 141.043 809.601 140.665 809.925 140.179C810.258 139.693 810.425 139.108 810.425 138.424C810.425 137.767 810.276 137.178 809.979 136.656C809.691 136.134 809.282 135.72 808.751 135.414C808.229 135.099 807.621 134.941 806.928 134.941H801.299V141.705ZM801.299 132.673H806.415C806.991 132.673 807.509 132.552 807.968 132.309C808.436 132.057 808.805 131.706 809.075 131.256C809.354 130.806 809.493 130.279 809.493 129.676C809.493 128.839 809.21 128.155 808.643 127.624C808.076 127.093 807.333 126.828 806.415 126.828H801.299V132.673ZM812.635 144L819.317 134.158L812.81 124.56H815.74L820.775 132.133L825.797 124.56H828.74L822.233 134.158L828.902 144H825.973L820.775 136.197L815.578 144H812.635Z" fill="white"/>
<rect x="365.5" y="1.5" width="411" height="69" rx="34.5" stroke="white" stroke-opacity="0.51" stroke-width="3"/>
<path d="M396.89 46V26.56H404.572C404.761 26.56 404.986 26.569 405.247 26.587C405.508 26.596 405.76 26.623 406.003 26.668C407.056 26.83 407.938 27.19 408.649 27.748C409.369 28.306 409.909 29.0125 410.269 29.8675C410.629 30.7135 410.809 31.654 410.809 32.689C410.809 34.192 410.417 35.497 409.634 36.604C408.851 37.702 407.704 38.3905 406.192 38.6695L405.274 38.818H399.293V46H396.89ZM408.46 46L404.626 38.089L407.002 37.36L411.214 46H408.46ZM399.293 36.5365H404.491C404.662 36.5365 404.855 36.5275 405.071 36.5095C405.296 36.4915 405.508 36.46 405.706 36.415C406.327 36.271 406.831 36.01 407.218 35.632C407.614 35.245 407.902 34.795 408.082 34.282C408.262 33.76 408.352 33.229 408.352 32.689C408.352 32.149 408.262 31.6225 408.082 31.1095C407.902 30.5875 407.614 30.133 407.218 29.746C406.831 29.359 406.327 29.098 405.706 28.963C405.508 28.909 405.296 28.8775 405.071 28.8685C404.855 28.8505 404.662 28.8415 404.491 28.8415H399.293V36.5365ZM419.209 46.378C418.273 46.378 417.467 46.2295 416.792 45.9325C416.126 45.6355 415.573 45.2395 415.132 44.7445C414.691 44.2495 414.344 43.7005 414.092 43.0975C413.84 42.4945 413.66 41.878 413.552 41.248C413.453 40.618 413.404 40.0285 413.404 39.4795V31.42H415.834V38.7235C415.834 39.4075 415.897 40.069 416.023 40.708C416.149 41.347 416.36 41.923 416.657 42.436C416.963 42.949 417.368 43.354 417.872 43.651C418.385 43.948 419.024 44.0965 419.789 44.0965C420.392 44.0965 420.941 43.993 421.436 43.786C421.931 43.579 422.354 43.273 422.705 42.868C423.056 42.454 423.326 41.932 423.515 41.302C423.704 40.672 423.799 39.9385 423.799 39.1015L425.378 39.5875C425.378 40.9915 425.122 42.202 424.609 43.219C424.105 44.236 423.389 45.019 422.462 45.568C421.544 46.108 420.46 46.378 419.209 46.378ZM424.069 46V42.0985H423.799V31.42H426.215V46H424.069ZM439.864 46V38.6965C439.864 38.0035 439.801 37.3375 439.675 36.6985C439.558 36.0595 439.346 35.488 439.04 34.984C438.743 34.471 438.338 34.066 437.825 33.769C437.321 33.472 436.682 33.3235 435.908 33.3235C435.305 33.3235 434.756 33.427 434.261 33.634C433.775 33.832 433.357 34.138 433.006 34.552C432.655 34.966 432.38 35.488 432.182 36.118C431.993 36.739 431.899 37.4725 431.899 38.3185L430.319 37.8325C430.319 36.4195 430.571 35.209 431.075 34.201C431.588 33.184 432.304 32.4055 433.222 31.8655C434.149 31.3165 435.238 31.042 436.489 31.042C437.434 31.042 438.239 31.1905 438.905 31.4875C439.571 31.7845 440.125 32.1805 440.566 32.6755C441.007 33.1615 441.353 33.7105 441.605 34.3225C441.857 34.9255 442.033 35.542 442.132 36.172C442.24 36.793 442.294 37.3825 442.294 37.9405V46H439.864ZM429.469 46V31.42H431.629V35.3215H431.899V46H429.469ZM450.798 46.3915C449.061 46.3915 447.635 46.0135 446.519 45.2575C445.412 44.4925 444.732 43.426 444.48 42.058L446.937 41.6665C447.135 42.4585 447.59 43.0885 448.301 43.5565C449.012 44.0155 449.894 44.245 450.947 44.245C451.946 44.245 452.729 44.038 453.296 43.624C453.863 43.21 454.146 42.6475 454.146 41.9365C454.146 41.5225 454.052 41.1895 453.863 40.9375C453.674 40.6765 453.282 40.4335 452.688 40.2085C452.103 39.9835 451.217 39.7135 450.029 39.3985C448.742 39.0565 447.729 38.701 446.991 38.332C446.253 37.963 445.727 37.5355 445.412 37.0495C445.097 36.5635 444.939 35.974 444.939 35.281C444.939 34.426 445.173 33.679 445.641 33.04C446.109 32.392 446.762 31.8925 447.599 31.5415C448.445 31.1905 449.426 31.015 450.542 31.015C451.649 31.015 452.639 31.1905 453.512 31.5415C454.385 31.8925 455.087 32.392 455.618 33.04C456.158 33.679 456.477 34.426 456.576 35.281L454.119 35.7265C454.002 34.9435 453.624 34.327 452.985 33.877C452.355 33.427 451.541 33.1885 450.542 33.1615C449.597 33.1255 448.827 33.292 448.233 33.661C447.648 34.03 447.356 34.5295 447.356 35.1595C447.356 35.5105 447.464 35.812 447.68 36.064C447.905 36.316 448.314 36.5545 448.908 36.7795C449.511 37.0045 450.384 37.261 451.527 37.549C452.814 37.873 453.827 38.2285 454.565 38.6155C455.312 38.9935 455.843 39.4435 456.158 39.9655C456.473 40.4785 456.63 41.113 456.63 41.869C456.63 43.273 456.113 44.38 455.078 45.19C454.043 45.991 452.616 46.3915 450.798 46.3915ZM471.979 46.405C470.044 46.405 468.402 45.9775 467.052 45.1225C465.702 44.2675 464.671 43.0795 463.96 41.5585C463.258 40.0375 462.907 38.278 462.907 36.28C462.907 34.282 463.258 32.5225 463.96 31.0015C464.671 29.4805 465.702 28.2925 467.052 27.4375C468.402 26.5825 470.044 26.155 471.979 26.155C473.923 26.155 475.57 26.5825 476.92 27.4375C478.27 28.2925 479.296 29.4805 479.998 31.0015C480.7 32.5225 481.051 34.282 481.051 36.28C481.051 38.278 480.7 40.0375 479.998 41.5585C479.296 43.0795 478.27 44.2675 476.92 45.1225C475.57 45.9775 473.923 46.405 471.979 46.405ZM471.979 44.11C473.428 44.119 474.634 43.795 475.597 43.138C476.569 42.472 477.294 41.5495 477.771 40.3705C478.257 39.1915 478.5 37.828 478.5 36.28C478.5 34.723 478.257 33.3595 477.771 32.1895C477.294 31.0195 476.569 30.106 475.597 29.449C474.634 28.792 473.428 28.459 471.979 28.45C470.53 28.441 469.324 28.765 468.361 29.422C467.407 30.079 466.687 30.997 466.201 32.176C465.715 33.355 465.468 34.723 465.459 36.28C465.45 37.828 465.688 39.187 466.174 40.357C466.66 41.527 467.385 42.445 468.348 43.111C469.32 43.768 470.53 44.101 471.979 44.11ZM493.631 46V38.6965C493.631 38.0035 493.568 37.3375 493.442 36.6985C493.325 36.0595 493.113 35.488 492.807 34.984C492.51 34.471 492.105 34.066 491.592 33.769C491.088 33.472 490.449 33.3235 489.675 33.3235C489.072 33.3235 488.523 33.427 488.028 33.634C487.542 33.832 487.124 34.138 486.773 34.552C486.422 34.966 486.147 35.488 485.949 36.118C485.76 36.739 485.666 37.4725 485.666 38.3185L484.086 37.8325C484.086 36.4195 484.338 35.209 484.842 34.201C485.355 33.184 486.071 32.4055 486.989 31.8655C487.916 31.3165 489.005 31.042 490.256 31.042C491.201 31.042 492.006 31.1905 492.672 31.4875C493.338 31.7845 493.892 32.1805 494.333 32.6755C494.774 33.1615 495.12 33.7105 495.372 34.3225C495.624 34.9255 495.8 35.542 495.899 36.172C496.007 36.793 496.061 37.3825 496.061 37.9405V46H493.631ZM483.236 46V31.42H485.396V35.3215H485.666V46H483.236ZM498.788 38.4805V36.496H506.888V38.4805H498.788ZM509.883 46V26.56H517.564C517.753 26.56 517.978 26.569 518.239 26.587C518.5 26.596 518.752 26.623 518.995 26.668C520.048 26.83 520.93 27.19 521.641 27.748C522.361 28.306 522.901 29.0125 523.261 29.8675C523.621 30.7135 523.801 31.654 523.801 32.689C523.801 33.715 523.617 34.6555 523.248 35.5105C522.888 36.3565 522.348 37.063 521.628 37.63C520.917 38.188 520.039 38.548 518.995 38.71C518.752 38.746 518.5 38.773 518.239 38.791C517.978 38.809 517.753 38.818 517.564 38.818H512.286V46H509.883ZM512.286 36.5365H517.483C517.654 36.5365 517.848 36.5275 518.064 36.5095C518.289 36.4915 518.5 36.46 518.698 36.415C519.319 36.271 519.823 36.01 520.21 35.632C520.606 35.245 520.894 34.795 521.074 34.282C521.254 33.76 521.344 33.229 521.344 32.689C521.344 32.149 521.254 31.6225 521.074 31.1095C520.894 30.5875 520.606 30.133 520.21 29.746C519.823 29.359 519.319 29.098 518.698 28.963C518.5 28.909 518.289 28.8775 518.064 28.8685C517.848 28.8505 517.654 28.8415 517.483 28.8415H512.286V36.5365ZM525.981 46V31.42H528.128V34.9435L527.777 34.4845C527.948 34.0345 528.168 33.6205 528.438 33.2425C528.717 32.8645 529.028 32.554 529.37 32.311C529.748 32.005 530.175 31.771 530.652 31.609C531.129 31.447 531.615 31.3525 532.11 31.3255C532.605 31.2895 533.069 31.321 533.501 31.42V33.6745C532.997 33.5395 532.443 33.5035 531.84 33.5665C531.237 33.6295 530.679 33.85 530.166 34.228C529.698 34.561 529.334 34.966 529.073 35.443C528.821 35.92 528.645 36.4375 528.546 36.9955C528.447 37.5445 528.398 38.107 528.398 38.683V46H525.981ZM541.595 46.405C540.164 46.405 538.913 46.09 537.842 45.46C536.78 44.821 535.952 43.9345 535.358 42.8005C534.764 41.6575 534.467 40.3255 534.467 38.8045C534.467 37.2115 534.759 35.8345 535.344 34.6735C535.929 33.5035 536.744 32.6035 537.788 31.9735C538.841 31.3345 540.074 31.015 541.487 31.015C542.954 31.015 544.2 31.3525 545.226 32.0275C546.261 32.7025 547.035 33.6655 547.548 34.9165C548.07 36.1675 548.295 37.657 548.223 39.385H545.793V38.521C545.766 36.73 545.402 35.3935 544.7 34.5115C543.998 33.6205 542.954 33.175 541.568 33.175C540.083 33.175 538.953 33.652 538.179 34.606C537.405 35.56 537.018 36.928 537.018 38.71C537.018 40.429 537.405 41.761 538.179 42.706C538.953 43.651 540.056 44.1235 541.487 44.1235C542.45 44.1235 543.287 43.903 543.998 43.462C544.709 43.021 545.267 42.3865 545.672 41.5585L547.98 42.355C547.413 43.642 546.558 44.641 545.415 45.352C544.281 46.054 543.008 46.405 541.595 46.405ZM536.208 39.385V37.4545H546.981V39.385H536.208ZM567.749 46L567.762 36.6715C567.762 35.5825 567.47 34.732 566.885 34.12C566.309 33.499 565.557 33.1885 564.63 33.1885C564.09 33.1885 563.577 33.3145 563.091 33.5665C562.605 33.8095 562.209 34.1965 561.903 34.7275C561.597 35.2495 561.444 35.92 561.444 36.739L560.175 36.226C560.157 35.191 560.369 34.2865 560.81 33.5125C561.26 32.7295 561.872 32.122 562.646 31.69C563.42 31.258 564.293 31.042 565.265 31.042C566.786 31.042 567.983 31.5055 568.856 32.4325C569.729 33.3505 570.165 34.588 570.165 36.145L570.152 46H567.749ZM550.307 46V31.42H552.453V35.3215H552.723V46H550.307ZM559.041 46L559.055 36.766C559.055 35.65 558.767 34.777 558.191 34.147C557.615 33.508 556.85 33.1885 555.896 33.1885C554.951 33.1885 554.186 33.5125 553.601 34.1605C553.016 34.8085 552.723 35.668 552.723 36.739L551.454 35.983C551.454 35.038 551.679 34.192 552.129 33.445C552.579 32.698 553.191 32.113 553.965 31.69C554.739 31.258 555.617 31.042 556.598 31.042C557.579 31.042 558.434 31.249 559.163 31.663C559.892 32.077 560.454 32.671 560.85 33.445C561.246 34.21 561.444 35.1235 561.444 36.1855L561.431 46H559.041ZM582.975 26.56H585.418L580.234 46H577.791L582.975 26.56ZM601.295 46.405C599.36 46.405 597.718 45.9775 596.368 45.1225C595.018 44.2675 593.987 43.0795 593.276 41.5585C592.574 40.0375 592.223 38.278 592.223 36.28C592.223 34.282 592.574 32.5225 593.276 31.0015C593.987 29.4805 595.018 28.2925 596.368 27.4375C597.718 26.5825 599.36 26.155 601.295 26.155C603.545 26.155 605.395 26.7265 606.844 27.8695C608.302 29.0125 609.305 30.5515 609.854 32.4865L607.411 33.1345C607.015 31.6855 606.308 30.5425 605.291 29.7055C604.274 28.8685 602.942 28.45 601.295 28.45C599.846 28.45 598.64 28.7785 597.677 29.4355C596.714 30.0925 595.99 31.0105 595.504 32.1895C595.018 33.3595 594.77 34.723 594.761 36.28C594.752 37.828 594.991 39.1915 595.477 40.3705C595.963 41.5405 596.692 42.4585 597.664 43.1245C598.636 43.7815 599.846 44.11 601.295 44.11C602.942 44.11 604.274 43.6915 605.291 42.8545C606.308 42.0085 607.015 40.8655 607.411 39.4255L609.854 40.0735C609.305 41.9995 608.302 43.5385 606.844 44.6905C605.395 45.8335 603.545 46.405 601.295 46.405ZM612.572 46V26.155H614.975V46H612.572ZM624.723 46.405C623.274 46.405 622.023 46.0765 620.97 45.4195C619.926 44.7625 619.12 43.8535 618.553 42.6925C617.986 41.5315 617.703 40.1995 617.703 38.6965C617.703 37.1665 617.991 35.8255 618.567 34.6735C619.143 33.5215 619.957 32.626 621.01 31.987C622.063 31.339 623.301 31.015 624.723 31.015C626.181 31.015 627.436 31.3435 628.489 32.0005C629.542 32.6485 630.348 33.553 630.906 34.714C631.473 35.866 631.756 37.1935 631.756 38.6965C631.756 40.2175 631.473 41.5585 630.906 42.7195C630.339 43.8715 629.529 44.776 628.476 45.433C627.423 46.081 626.172 46.405 624.723 46.405ZM624.723 44.1235C626.235 44.1235 627.36 43.6195 628.098 42.6115C628.836 41.6035 629.205 40.2985 629.205 38.6965C629.205 37.0495 628.831 35.74 628.084 34.768C627.337 33.787 626.217 33.2965 624.723 33.2965C623.706 33.2965 622.869 33.526 622.212 33.985C621.555 34.444 621.064 35.0785 620.74 35.8885C620.416 36.6985 620.254 37.6345 620.254 38.6965C620.254 40.3345 620.632 41.6485 621.388 42.6385C622.144 43.6285 623.256 44.1235 624.723 44.1235ZM639.751 46.378C638.815 46.378 638.009 46.2295 637.334 45.9325C636.668 45.6355 636.115 45.2395 635.674 44.7445C635.233 44.2495 634.886 43.7005 634.634 43.0975C634.382 42.4945 634.202 41.878 634.094 41.248C633.995 40.618 633.946 40.0285 633.946 39.4795V31.42H636.376V38.7235C636.376 39.4075 636.439 40.069 636.565 40.708C636.691 41.347 636.902 41.923 637.199 42.436C637.505 42.949 637.91 43.354 638.414 43.651C638.927 43.948 639.566 44.0965 640.331 44.0965C640.934 44.0965 641.483 43.993 641.978 43.786C642.473 43.579 642.896 43.273 643.247 42.868C643.598 42.454 643.868 41.932 644.057 41.302C644.246 40.672 644.341 39.9385 644.341 39.1015L645.92 39.5875C645.92 40.9915 645.664 42.202 645.151 43.219C644.647 44.236 643.931 45.019 643.004 45.568C642.086 46.108 641.002 46.378 639.751 46.378ZM644.611 46V42.0985H644.341V31.42H646.757V46H644.611ZM655.748 46.405C654.389 46.405 653.223 46.0675 652.251 45.3925C651.279 44.7085 650.528 43.786 649.997 42.625C649.475 41.464 649.214 40.1545 649.214 38.6965C649.214 37.2385 649.475 35.929 649.997 34.768C650.528 33.607 651.279 32.6935 652.251 32.0275C653.223 31.3525 654.384 31.015 655.734 31.015C657.111 31.015 658.268 31.348 659.204 32.014C660.14 32.68 660.846 33.5935 661.323 34.7545C661.809 35.9155 662.052 37.2295 662.052 38.6965C662.052 40.1455 661.809 41.455 661.323 42.625C660.846 43.786 660.14 44.7085 659.204 45.3925C658.268 46.0675 657.116 46.405 655.748 46.405ZM656.045 44.2045C657.026 44.2045 657.831 43.9705 658.461 43.5025C659.091 43.0255 659.555 42.373 659.852 41.545C660.158 40.708 660.311 39.7585 660.311 38.6965C660.311 37.6165 660.158 36.667 659.852 35.848C659.555 35.02 659.096 34.3765 658.475 33.9175C657.854 33.4495 657.066 33.2155 656.112 33.2155C655.122 33.2155 654.303 33.4585 653.655 33.9445C653.016 34.4305 652.539 35.0875 652.224 35.9155C651.918 36.7435 651.765 37.6705 651.765 38.6965C651.765 39.7315 651.923 40.6675 652.238 41.5045C652.553 42.3325 653.025 42.9895 653.655 43.4755C654.294 43.9615 655.091 44.2045 656.045 44.2045ZM660.311 46V35.2675H660.041V26.56H662.457V46H660.311ZM675.533 26.56H677.976L672.792 46H670.349L675.533 26.56ZM685.861 46V26.56H698.146V28.8415H688.264V34.93H696.526V37.2115H688.264V43.7185H698.146V46H685.861ZM706.603 46.405C705.244 46.405 704.078 46.0675 703.106 45.3925C702.134 44.7085 701.383 43.786 700.852 42.625C700.33 41.464 700.069 40.1545 700.069 38.6965C700.069 37.2385 700.33 35.929 700.852 34.768C701.383 33.607 702.134 32.6935 703.106 32.0275C704.078 31.3525 705.239 31.015 706.589 31.015C707.966 31.015 709.123 31.348 710.059 32.014C710.995 32.68 711.701 33.5935 712.178 34.7545C712.664 35.9155 712.907 37.2295 712.907 38.6965C712.907 40.1455 712.664 41.455 712.178 42.625C711.701 43.786 710.995 44.7085 710.059 45.3925C709.123 46.0675 707.971 46.405 706.603 46.405ZM706.9 44.2045C707.881 44.2045 708.686 43.9705 709.316 43.5025C709.946 43.0255 710.41 42.373 710.707 41.545C711.013 40.708 711.166 39.7585 711.166 38.6965C711.166 37.6165 711.013 36.667 710.707 35.848C710.41 35.02 709.951 34.3765 709.33 33.9175C708.709 33.4495 707.921 33.2155 706.967 33.2155C705.977 33.2155 705.158 33.4585 704.51 33.9445C703.871 34.4305 703.394 35.0875 703.079 35.9155C702.773 36.7435 702.62 37.6705 702.62 38.6965C702.62 39.7315 702.778 40.6675 703.093 41.5045C703.408 42.3325 703.88 42.9895 704.51 43.4755C705.149 43.9615 705.946 44.2045 706.9 44.2045ZM711.166 46V35.2675H710.896V26.56H713.312V46H711.166ZM722.481 52.885C721.716 52.885 720.969 52.768 720.24 52.534C719.511 52.3 718.841 51.9445 718.229 51.4675C717.626 50.9995 717.122 50.4055 716.717 49.6855L718.917 48.5245C719.277 49.2355 719.786 49.753 720.443 50.077C721.109 50.401 721.793 50.563 722.495 50.563C723.422 50.563 724.191 50.392 724.803 50.05C725.415 49.717 725.865 49.2175 726.153 48.5515C726.45 47.8855 726.594 47.0575 726.585 46.0675V42.085H726.869V31.42H729.002V46.0945C729.002 46.4905 728.988 46.873 728.961 47.242C728.943 47.611 728.898 47.9755 728.826 48.3355C728.637 49.3705 728.264 50.221 727.706 50.887C727.148 51.562 726.428 52.0615 725.546 52.3855C724.664 52.7185 723.642 52.885 722.481 52.885ZM722.306 46.405C720.947 46.405 719.781 46.0675 718.809 45.3925C717.837 44.7085 717.086 43.786 716.555 42.625C716.033 41.464 715.772 40.1545 715.772 38.6965C715.772 37.2385 716.033 35.929 716.555 34.768C717.086 33.607 717.837 32.6935 718.809 32.0275C719.781 31.3525 720.942 31.015 722.292 31.015C723.669 31.015 724.826 31.348 725.762 32.014C726.698 32.68 727.404 33.5935 727.881 34.7545C728.367 35.9155 728.61 37.2295 728.61 38.6965C728.61 40.1455 728.367 41.455 727.881 42.625C727.404 43.786 726.698 44.7085 725.762 45.3925C724.826 46.0675 723.674 46.405 722.306 46.405ZM722.603 44.2045C723.584 44.2045 724.389 43.9705 725.019 43.5025C725.649 43.0255 726.113 42.373 726.41 41.545C726.716 40.708 726.869 39.7585 726.869 38.6965C726.869 37.6165 726.716 36.667 726.41 35.848C726.113 35.02 725.654 34.3765 725.033 33.9175C724.412 33.4495 723.624 33.2155 722.67 33.2155C721.68 33.2155 720.861 33.4585 720.213 33.9445C719.574 34.4305 719.097 35.0875 718.782 35.9155C718.476 36.7435 718.323 37.6705 718.323 38.6965C718.323 39.7315 718.481 40.6675 718.796 41.5045C719.111 42.3325 719.583 42.9895 720.213 43.4755C720.852 43.9615 721.649 44.2045 722.603 44.2045ZM738.576 46.405C737.145 46.405 735.894 46.09 734.823 45.46C733.761 44.821 732.933 43.9345 732.339 42.8005C731.745 41.6575 731.448 40.3255 731.448 38.8045C731.448 37.2115 731.741 35.8345 732.326 34.6735C732.911 33.5035 733.725 32.6035 734.769 31.9735C735.822 31.3345 737.055 31.015 738.468 31.015C739.935 31.015 741.182 31.3525 742.208 32.0275C743.243 32.7025 744.017 33.6655 744.53 34.9165C745.052 36.1675 745.277 37.657 745.205 39.385H742.775V38.521C742.748 36.73 742.383 35.3935 741.681 34.5115C740.979 33.6205 739.935 33.175 738.549 33.175C737.064 33.175 735.935 33.652 735.161 34.606C734.387 35.56 734 36.928 734 38.71C734 40.429 734.387 41.761 735.161 42.706C735.935 43.651 737.037 44.1235 738.468 44.1235C739.431 44.1235 740.268 43.903 740.979 43.462C741.69 43.021 742.248 42.3865 742.653 41.5585L744.962 42.355C744.395 43.642 743.54 44.641 742.397 45.352C741.263 46.054 739.989 46.405 738.576 46.405ZM733.19 39.385V37.4545H743.963V39.385H733.19Z" fill="white"/>
<g filter="url(#filter0_d_507_165)">
<rect x="32" y="34" width="203" height="198" rx="21" fill="white"/>
</g>
<path d="M239.25 131.25C238.284 131.25 237.5 132.034 237.5 133C237.5 133.966 238.284 134.75 239.25 134.75V131.25ZM357.667 134C357.667 139.155 361.845 143.333 367 143.333C372.155 143.333 376.333 139.155 376.333 134C376.333 128.845 372.155 124.667 367 124.667C361.845 124.667 357.667 128.845 357.667 134ZM239.25 133V134.75C287.246 134.75 295.161 135 303.07 135.249C311.036 135.5 318.996 135.75 367 135.75V134V132.25C319.004 132.25 311.089 132 303.18 131.751C295.214 131.5 287.254 131.25 239.25 131.25V133Z" fill="#FDC500"/>
<path d="M239.25 131.25C238.284 131.25 237.5 132.034 237.5 133C237.5 133.966 238.284 134.75 239.25 134.75V131.25ZM357.667 232C357.667 237.155 361.845 241.333 367 241.333C372.155 241.333 376.333 237.155 376.333 232C376.333 226.845 372.155 222.667 367 222.667C361.845 222.667 357.667 226.845 357.667 232ZM239.25 133V134.75C262.937 134.75 276.404 140.846 284.953 149.685C293.598 158.623 297.465 170.583 301.459 183.034C305.403 195.333 309.473 208.123 318.781 217.748C328.185 227.471 342.687 233.75 367 233.75V232V230.25C343.313 230.25 329.846 224.154 321.297 215.315C312.652 206.377 308.785 194.417 304.791 181.966C300.847 169.667 296.777 156.877 287.469 147.252C278.065 137.529 263.563 131.25 239.25 131.25V133Z" fill="#20B776"/>
<path d="M239.25 131.25C238.284 131.25 237.5 132.034 237.5 133C237.5 133.966 238.284 134.75 239.25 134.75V131.25ZM357.667 36C357.667 41.1547 361.845 45.3333 367 45.3333C372.155 45.3333 376.333 41.1547 376.333 36C376.333 30.8453 372.155 26.6667 367 26.6667C361.845 26.6667 357.667 30.8453 357.667 36ZM239.25 133V134.75C263.553 134.75 278.051 128.602 287.456 119.073C296.771 109.637 300.844 97.0946 304.788 85.0444C308.781 72.8446 312.646 61.1368 321.284 52.3856C329.832 43.7266 343.303 37.75 367 37.75V36V34.25C342.697 34.25 328.199 40.3984 318.794 49.9269C309.479 59.3632 305.406 71.9054 301.462 83.9556C297.469 96.1554 293.604 107.863 284.966 116.614C276.418 125.273 262.947 131.25 239.25 131.25V133Z" fill="#FF4E46"/>
<path fill-rule="evenodd" clip-rule="evenodd" d="M73.1211 157.477C73.1211 171.095 83.1727 177.898 93.2746 177.898C103.321 177.898 113.375 171.096 113.375 157.477C113.375 143.858 103.321 137.055 93.2746 137.055C83.1727 137.055 73.1211 143.859 73.1211 157.477ZM81.0455 157.477C81.0455 149.221 87.1333 145.14 93.2746 145.14C99.3657 145.14 105.504 149.221 105.504 157.477C105.504 165.732 99.3657 169.813 93.2746 169.813C87.1333 169.813 81.0455 165.732 81.0455 157.477Z" fill="#324086"/>
<path fill-rule="evenodd" clip-rule="evenodd" d="M176.937 161.445H189.82C190.557 161.445 191.156 160.847 191.156 160.11V154.845C191.156 154.108 190.557 153.509 189.82 153.509H176.937V145.725C176.937 145.498 176.989 145.304 177.119 145.174C177.249 145.044 177.443 144.992 177.67 144.992H194.011C194.487 144.992 194.865 144.819 195.133 144.552C195.4 144.284 195.573 143.906 195.573 143.43V138.617C195.573 138.141 195.4 137.764 195.133 137.496C194.865 137.228 194.487 137.056 194.011 137.056H170.114C169.638 137.056 169.261 137.228 168.993 137.496C168.725 137.764 168.553 138.141 168.553 138.617V176.337C168.553 176.813 168.725 177.191 168.993 177.459C169.261 177.727 169.638 177.899 170.114 177.899H194.011C194.487 177.899 194.865 177.726 195.133 177.459C195.4 177.191 195.573 176.813 195.573 176.337V171.524C195.573 171.048 195.4 170.671 195.133 170.403C194.865 170.135 194.487 169.963 194.011 169.963H177.67C177.443 169.963 177.249 169.91 177.119 169.78C176.989 169.65 176.937 169.456 176.937 169.23V161.445Z" fill="#324086"/>
<path fill-rule="evenodd" clip-rule="evenodd" d="M179.734 109.17C179.781 109.218 179.837 109.279 179.881 109.337C179.883 109.34 186.967 120.664 186.967 120.664C187.34 121.302 188.066 121.683 188.801 121.683H195.181C195.75 121.683 196.112 121.422 196.295 121.117C196.473 120.82 196.557 120.374 196.241 119.819C196.235 119.81 196.229 119.8 196.224 119.791L185.199 102.162C185.197 102.159 185.195 102.156 185.193 102.153C184.858 101.633 184.858 100.889 185.193 100.369C185.195 100.366 185.197 100.363 185.199 100.36L196.224 82.7313C196.229 82.7218 196.235 82.7123 196.241 82.7026C196.557 82.1484 196.473 81.7019 196.295 81.4052C196.112 81.1003 195.75 80.8394 195.181 80.8394H188.801C188.063 80.8394 187.335 81.223 186.963 81.8659C186.967 81.8585 179.883 93.1822 179.883 93.1822C179.838 93.2414 179.782 93.3032 179.734 93.3522C179.687 93.3037 179.632 93.2429 179.588 93.185C179.586 93.1823 172.502 81.8585 172.502 81.8585C172.129 81.2201 171.403 80.8394 170.668 80.8394H164.288C163.639 80.8394 163.295 81.1376 163.132 81.4417C162.979 81.7287 162.922 82.1669 163.228 82.7026C163.234 82.7123 163.239 82.7218 163.245 82.7313L174.27 100.36C174.272 100.363 174.274 100.366 174.276 100.369C174.61 100.889 174.61 101.633 174.276 102.153C174.274 102.156 174.272 102.159 174.27 102.162L163.245 119.791C163.239 119.8 163.234 119.81 163.228 119.819C162.922 120.355 162.979 120.793 163.132 121.08C163.295 121.385 163.639 121.683 164.288 121.683H170.668C171.406 121.683 172.134 121.299 172.506 120.656C172.502 120.664 179.586 109.34 179.586 109.34C179.631 109.281 179.687 109.219 179.734 109.17Z" fill="#324086"/>
<path fill-rule="evenodd" clip-rule="evenodd" d="M124.285 101.261C124.285 111.865 131.281 122.522 145.323 122.522C150.408 122.522 153.798 121.284 156.955 118.834C157.649 118.351 157.798 117.407 157.321 116.692C157.315 116.684 157.309 116.675 157.303 116.666L154.233 112.424C153.973 112.042 153.606 111.836 153.219 111.787C152.847 111.741 152.436 111.839 152.064 112.149C152.064 112.149 152.064 112.149 152.064 112.149C150.822 113.184 148.743 114.194 145.378 114.194C137.109 114.194 132.991 107.72 132.991 101.261C132.991 94.8028 137.109 88.3278 145.378 88.3278C148.14 88.3278 150.485 89.3704 152.049 90.517C152.052 90.519 152.054 90.5211 152.057 90.5232C152.472 90.8192 152.869 90.8941 153.225 90.8349C153.58 90.7757 153.932 90.5758 154.228 90.1611C154.229 90.1591 154.231 90.1572 154.232 90.1553L157.254 85.846C157.258 85.8406 157.262 85.8352 157.266 85.8297C157.756 85.0933 157.676 84.1264 156.817 83.6357C153.279 81.6053 149.385 80 145.323 80C131.281 80 124.285 90.5992 124.285 101.261Z" fill="#324086"/>
<path fill-rule="evenodd" clip-rule="evenodd" d="M83.2073 101.611L93.5005 118.929C93.874 119.578 94.541 120.015 95.2845 120.015H96.068C96.8116 120.015 97.4787 119.578 97.8523 118.929L108.134 101.538L111.08 120.24C111.197 121.123 111.858 121.683 112.745 121.683H117.894C118.414 121.683 118.788 121.479 119.032 121.187C119.264 120.907 119.4 120.514 119.338 120.018C119.337 120.015 119.337 120.011 119.336 120.008L114.74 82.2322C114.74 82.2304 114.739 82.2286 114.739 82.2267C114.624 81.4201 114.052 80.8394 113.13 80.8394H109.953C109.535 80.8394 109.09 81.0727 108.811 81.4905C108.794 81.5162 108.778 81.5429 108.764 81.5704L95.6763 106.904L82.6453 81.6837C82.4045 81.2114 81.8239 80.8394 81.2319 80.8394H77.8869C77.2766 80.8394 76.7824 81.253 76.63 81.8627C76.6226 81.8926 76.6167 81.9227 76.6126 81.9531L72.0161 120.009C72.0157 120.012 72.0153 120.015 72.015 120.018C71.9531 120.514 72.0882 120.907 72.3209 121.187C72.5648 121.479 72.938 121.683 73.4583 121.683H78.6071C79.4973 121.683 80.1589 121.12 80.2731 120.232L83.2073 101.611Z" fill="#324086"/>
<path fill-rule="evenodd" clip-rule="evenodd" d="M130.503 153.057C132.643 155.225 134.811 157.391 136.992 159.562C142.219 164.85 148.025 170.721 153.208 176.17C157.072 180.232 160.174 176.265 160.174 173.178C160.174 167.76 160.23 160.75 160.264 156.993C160.273 156.014 159.836 155.889 159.449 156.789C157.052 162.359 153.339 163.658 150.755 161.898C148.615 159.729 146.447 157.564 144.266 155.392C139.04 150.104 133.234 144.234 128.05 138.784C124.187 134.723 121.085 138.689 121.085 141.776C121.085 147.195 121.028 154.205 120.994 157.961C120.985 158.941 121.422 159.065 121.809 158.165C124.206 152.596 127.919 151.297 130.503 153.057Z" fill="#324086"/>
<path fill-rule="evenodd" clip-rule="evenodd" d="M126.449 166.989C123.436 166.989 120.994 169.431 120.994 172.444C120.994 175.456 123.436 177.898 126.449 177.898C129.461 177.898 131.903 175.456 131.903 172.444C131.903 169.431 129.461 166.989 126.449 166.989Z" fill="#E8B25A"/>
<path fill-rule="evenodd" clip-rule="evenodd" d="M154.808 137.056C151.796 137.056 149.354 139.498 149.354 142.51C149.354 145.523 151.796 147.965 154.808 147.965C157.821 147.965 160.263 145.523 160.263 142.51C160.263 139.498 157.821 137.056 154.808 137.056Z" fill="#BA3350"/>
<defs>
<filter id="filter0_d_507_165" x="0" y="2" width="267" height="262" filterUnits="userSpaceOnUse" color-interpolation-filters="sRGB">
<feFlood flood-opacity="0" result="BackgroundImageFix"/>
<feColorMatrix in="SourceAlpha" type="matrix" values="0 0 0 0 0 0 0 0 0 0 0 0 0 0 0 0 0 0 127 0" result="hardAlpha"/>
<feMorphology radius="8" operator="dilate" in="SourceAlpha" result="effect1_dropShadow_507_165"/>
<feOffset/>
<feGaussianBlur stdDeviation="12"/>
<feComposite in2="hardAlpha" operator="out"/>
<feColorMatrix type="matrix" values="0 0 0 0 0 0 0 0 0 0 0 0 0 0 0 0 0 0 0.21 0"/>
<feBlend mode="normal" in2="BackgroundImageFix" result="effect1_dropShadow_507_165"/>
<feBlend mode="normal" in="SourceGraphic" in2="effect1_dropShadow_507_165" result="shape"/>
</filter>
</defs>
</svg>
