<svg width="822" height="284" viewBox="0 0 822 284" fill="none" xmlns="http://www.w3.org/2000/svg">
<path d="M684.636 134.256C685.977 134.256 687.131 133.972 688.097 133.403C689.057 132.83 689.795 132.034 690.312 131.017C690.824 130 691.08 128.83 691.08 127.506C691.08 126.165 690.821 124.989 690.304 123.977C689.781 122.96 689.04 122.168 688.08 121.599C687.119 121.026 685.977 120.739 684.653 120.739C683.511 120.739 682.511 120.946 681.653 121.361C680.795 121.776 680.116 122.358 679.616 123.108C679.116 123.858 678.841 124.739 678.79 125.75H682.216C682.312 125.097 682.568 124.571 682.983 124.173C683.392 123.77 683.929 123.568 684.594 123.568C685.156 123.568 685.648 123.722 686.068 124.028C686.483 124.33 686.807 124.77 687.04 125.349C687.273 125.929 687.389 126.631 687.389 127.455C687.389 128.29 687.276 129 687.048 129.585C686.815 130.17 686.489 130.616 686.068 130.923C685.648 131.23 685.156 131.384 684.594 131.384C684.179 131.384 683.807 131.298 683.477 131.128C683.142 130.957 682.866 130.71 682.651 130.386C682.429 130.057 682.284 129.662 682.216 129.202H678.79C678.847 130.202 679.119 131.082 679.608 131.844C680.091 132.599 680.759 133.19 681.611 133.616C682.463 134.043 683.472 134.256 684.636 134.256Z" fill="#1E1E1E"/>
<rect x="1.75" y="-1.75" width="495.5" height="67.5" rx="33.75" transform="matrix(-1 0 0 1 516.5 216)" stroke="white" stroke-opacity="0.42" stroke-width="3.5"/>
<path d="M49.8994 258V238.56H62.3194V241.219H52.7209V246.673H60.6994V249.333H52.7209V255.34H62.3194V258H49.8994ZM70.813 258.405C69.454 258.405 68.2795 258.068 67.2895 257.392C66.3085 256.717 65.548 255.799 65.008 254.638C64.477 253.468 64.2115 252.154 64.2115 250.696C64.2115 249.229 64.4815 247.92 65.0215 246.768C65.5615 245.607 66.3265 244.693 67.3165 244.027C68.3155 243.352 69.499 243.015 70.867 243.015C72.244 243.015 73.4005 243.352 74.3365 244.027C75.2815 244.693 75.9925 245.607 76.4695 246.768C76.9555 247.929 77.1985 249.238 77.1985 250.696C77.1985 252.154 76.9555 253.464 76.4695 254.625C75.9835 255.786 75.268 256.708 74.323 257.392C73.378 258.068 72.208 258.405 70.813 258.405ZM71.2045 255.853C72.1315 255.853 72.8875 255.633 73.4725 255.192C74.0575 254.751 74.485 254.143 74.755 253.369C75.025 252.595 75.16 251.704 75.16 250.696C75.16 249.688 75.0205 248.797 74.7415 248.023C74.4715 247.249 74.0485 246.646 73.4725 246.214C72.9055 245.782 72.181 245.566 71.299 245.566C70.363 245.566 69.5935 245.796 68.9905 246.255C68.3875 246.714 67.9375 247.33 67.6405 248.104C67.3525 248.878 67.2085 249.742 67.2085 250.696C67.2085 251.659 67.3525 252.532 67.6405 253.315C67.9375 254.089 68.3785 254.706 68.9635 255.165C69.5575 255.624 70.3045 255.853 71.2045 255.853ZM75.16 258V247.51H74.836V238.56H77.671V258H75.16ZM86.9157 264.885C86.1327 264.885 85.3722 264.764 84.6342 264.521C83.9052 264.278 83.2392 263.918 82.6362 263.441C82.0332 262.973 81.5337 262.392 81.1377 261.699L83.7432 260.376C84.0582 260.997 84.5082 261.452 85.0932 261.74C85.6782 262.028 86.2947 262.172 86.9427 262.172C87.7437 262.172 88.4277 262.028 88.9947 261.74C89.5617 261.461 89.9892 261.038 90.2772 260.471C90.5742 259.904 90.7182 259.202 90.7092 258.365V254.287H91.0467V243.42H93.5442V258.392C93.5442 258.779 93.5307 259.148 93.5037 259.499C93.4767 259.85 93.4272 260.201 93.3552 260.552C93.1482 261.533 92.7522 262.343 92.1672 262.982C91.5912 263.621 90.8532 264.098 89.9532 264.413C89.0622 264.728 88.0497 264.885 86.9157 264.885ZM86.6997 258.405C85.3407 258.405 84.1662 258.068 83.1762 257.392C82.1952 256.717 81.4347 255.799 80.8947 254.638C80.3637 253.468 80.0982 252.154 80.0982 250.696C80.0982 249.229 80.3682 247.92 80.9082 246.768C81.4482 245.607 82.2132 244.693 83.2032 244.027C84.2022 243.352 85.3857 243.015 86.7537 243.015C88.1307 243.015 89.2872 243.352 90.2232 244.027C91.1682 244.693 91.8792 245.607 92.3562 246.768C92.8422 247.929 93.0852 249.238 93.0852 250.696C93.0852 252.154 92.8422 253.464 92.3562 254.625C91.8702 255.786 91.1547 256.708 90.2097 257.392C89.2647 258.068 88.0947 258.405 86.6997 258.405ZM87.0912 255.853C88.0182 255.853 88.7742 255.633 89.3592 255.192C89.9442 254.751 90.3717 254.143 90.6417 253.369C90.9117 252.595 91.0467 251.704 91.0467 250.696C91.0467 249.688 90.9072 248.797 90.6282 248.023C90.3582 247.249 89.9352 246.646 89.3592 246.214C88.7922 245.782 88.0677 245.566 87.1857 245.566C86.2497 245.566 85.4802 245.796 84.8772 246.255C84.2742 246.714 83.8242 247.33 83.5272 248.104C83.2392 248.878 83.0952 249.742 83.0952 250.696C83.0952 251.659 83.2392 252.532 83.5272 253.315C83.8242 254.089 84.2652 254.706 84.8502 255.165C85.4442 255.624 86.1912 255.853 87.0912 255.853ZM103.261 258.405C101.812 258.405 100.539 258.09 99.441 257.46C98.352 256.821 97.5015 255.934 96.8895 254.8C96.2865 253.657 95.985 252.334 95.985 250.831C95.985 249.238 96.282 247.857 96.876 246.687C97.479 245.517 98.316 244.612 99.387 243.973C100.458 243.334 101.704 243.015 103.126 243.015C104.611 243.015 105.876 243.361 106.92 244.055C107.964 244.738 108.742 245.715 109.255 246.984C109.777 248.253 109.984 249.76 109.876 251.506H107.055V250.48C107.037 248.788 106.713 247.537 106.083 246.727C105.462 245.917 104.512 245.512 103.234 245.512C101.821 245.512 100.759 245.958 100.048 246.849C99.3375 247.74 98.982 249.027 98.982 250.71C98.982 252.312 99.3375 253.554 100.048 254.436C100.759 255.309 101.785 255.745 103.126 255.745C104.008 255.745 104.769 255.547 105.408 255.151C106.056 254.746 106.56 254.17 106.92 253.423L109.687 254.301C109.12 255.606 108.261 256.618 107.109 257.338C105.957 258.049 104.674 258.405 103.261 258.405ZM98.064 251.506V249.306H108.472V251.506H98.064ZM117.501 258V238.56H120.322V258H117.501ZM134.069 258V250.831C134.069 250.264 134.02 249.684 133.921 249.09C133.831 248.487 133.651 247.929 133.381 247.416C133.12 246.903 132.746 246.489 132.26 246.174C131.783 245.859 131.158 245.701 130.384 245.701C129.88 245.701 129.403 245.787 128.953 245.958C128.503 246.12 128.107 246.385 127.765 246.754C127.432 247.123 127.166 247.609 126.968 248.212C126.779 248.815 126.685 249.549 126.685 250.413L124.93 249.751C124.93 248.428 125.177 247.263 125.672 246.255C126.167 245.238 126.878 244.446 127.805 243.879C128.732 243.312 129.853 243.028 131.167 243.028C132.175 243.028 133.021 243.19 133.705 243.514C134.389 243.838 134.942 244.266 135.365 244.797C135.797 245.319 136.126 245.89 136.351 246.511C136.576 247.132 136.729 247.74 136.81 248.334C136.891 248.928 136.931 249.45 136.931 249.9V258H134.069ZM123.823 258V243.42H126.347V247.632H126.685V258H123.823ZM148.25 258C147.332 258.18 146.432 258.257 145.55 258.23C144.668 258.203 143.881 258.031 143.188 257.716C142.495 257.401 141.973 256.906 141.622 256.231C141.307 255.628 141.136 255.016 141.109 254.395C141.091 253.765 141.082 253.054 141.082 252.262V239.37H143.917V252.127C143.917 252.712 143.921 253.221 143.93 253.653C143.948 254.085 144.043 254.449 144.214 254.746C144.538 255.304 145.051 255.624 145.753 255.705C146.464 255.777 147.296 255.745 148.25 255.61V258ZM138.287 245.688V243.42H148.25V245.688H138.287ZM156.565 258.405C155.116 258.405 153.843 258.09 152.745 257.46C151.656 256.821 150.805 255.934 150.193 254.8C149.59 253.657 149.289 252.334 149.289 250.831C149.289 249.238 149.586 247.857 150.18 246.687C150.783 245.517 151.62 244.612 152.691 243.973C153.762 243.334 155.008 243.015 156.43 243.015C157.915 243.015 159.18 243.361 160.224 244.055C161.268 244.738 162.046 245.715 162.559 246.984C163.081 248.253 163.288 249.76 163.18 251.506H160.359V250.48C160.341 248.788 160.017 247.537 159.387 246.727C158.766 245.917 157.816 245.512 156.538 245.512C155.125 245.512 154.063 245.958 153.352 246.849C152.641 247.74 152.286 249.027 152.286 250.71C152.286 252.312 152.641 253.554 153.352 254.436C154.063 255.309 155.089 255.745 156.43 255.745C157.312 255.745 158.073 255.547 158.712 255.151C159.36 254.746 159.864 254.17 160.224 253.423L162.991 254.301C162.424 255.606 161.565 256.618 160.413 257.338C159.261 258.049 157.978 258.405 156.565 258.405ZM151.368 251.506V249.306H161.776V251.506H151.368ZM165.939 258V238.155H168.761V258H165.939ZM172.545 258V238.155H175.366V258H172.545ZM179.15 241.03V238.29H181.972V241.03H179.15ZM179.15 258V243.42H181.972V258H179.15ZM191.493 264.885C190.71 264.885 189.95 264.764 189.212 264.521C188.483 264.278 187.817 263.918 187.214 263.441C186.611 262.973 186.111 262.392 185.715 261.699L188.321 260.376C188.636 260.997 189.086 261.452 189.671 261.74C190.256 262.028 190.872 262.172 191.52 262.172C192.321 262.172 193.005 262.028 193.572 261.74C194.139 261.461 194.567 261.038 194.855 260.471C195.152 259.904 195.296 259.202 195.287 258.365V254.287H195.624V243.42H198.122V258.392C198.122 258.779 198.108 259.148 198.081 259.499C198.054 259.85 198.005 260.201 197.933 260.552C197.726 261.533 197.33 262.343 196.745 262.982C196.169 263.621 195.431 264.098 194.531 264.413C193.64 264.728 192.627 264.885 191.493 264.885ZM191.277 258.405C189.918 258.405 188.744 258.068 187.754 257.392C186.773 256.717 186.012 255.799 185.472 254.638C184.941 253.468 184.676 252.154 184.676 250.696C184.676 249.229 184.946 247.92 185.486 246.768C186.026 245.607 186.791 244.693 187.781 244.027C188.78 243.352 189.963 243.015 191.331 243.015C192.708 243.015 193.865 243.352 194.801 244.027C195.746 244.693 196.457 245.607 196.934 246.768C197.42 247.929 197.663 249.238 197.663 250.696C197.663 252.154 197.42 253.464 196.934 254.625C196.448 255.786 195.732 256.708 194.787 257.392C193.842 258.068 192.672 258.405 191.277 258.405ZM191.669 255.853C192.596 255.853 193.352 255.633 193.937 255.192C194.522 254.751 194.949 254.143 195.219 253.369C195.489 252.595 195.624 251.704 195.624 250.696C195.624 249.688 195.485 248.797 195.206 248.023C194.936 247.249 194.513 246.646 193.937 246.214C193.37 245.782 192.645 245.566 191.763 245.566C190.827 245.566 190.058 245.796 189.455 246.255C188.852 246.714 188.402 247.33 188.105 248.104C187.817 248.878 187.673 249.742 187.673 250.696C187.673 251.659 187.817 252.532 188.105 253.315C188.402 254.089 188.843 254.706 189.428 255.165C190.022 255.624 190.769 255.853 191.669 255.853ZM207.839 258.405C206.39 258.405 205.117 258.09 204.019 257.46C202.93 256.821 202.079 255.934 201.467 254.8C200.864 253.657 200.563 252.334 200.563 250.831C200.563 249.238 200.86 247.857 201.454 246.687C202.057 245.517 202.894 244.612 203.965 243.973C205.036 243.334 206.282 243.015 207.704 243.015C209.189 243.015 210.454 243.361 211.498 244.055C212.542 244.738 213.32 245.715 213.833 246.984C214.355 248.253 214.562 249.76 214.454 251.506H211.633V250.48C211.615 248.788 211.291 247.537 210.661 246.727C210.04 245.917 209.09 245.512 207.812 245.512C206.399 245.512 205.337 245.958 204.626 246.849C203.915 247.74 203.56 249.027 203.56 250.71C203.56 252.312 203.915 253.554 204.626 254.436C205.337 255.309 206.363 255.745 207.704 255.745C208.586 255.745 209.347 255.547 209.986 255.151C210.634 254.746 211.138 254.17 211.498 253.423L214.265 254.301C213.698 255.606 212.839 256.618 211.687 257.338C210.535 258.049 209.252 258.405 207.839 258.405ZM202.642 251.506V249.306H213.05V251.506H202.642ZM226.78 258V250.831C226.78 250.264 226.731 249.684 226.632 249.09C226.542 248.487 226.362 247.929 226.092 247.416C225.831 246.903 225.457 246.489 224.971 246.174C224.494 245.859 223.869 245.701 223.095 245.701C222.591 245.701 222.114 245.787 221.664 245.958C221.214 246.12 220.818 246.385 220.476 246.754C220.143 247.123 219.877 247.609 219.679 248.212C219.49 248.815 219.396 249.549 219.396 250.413L217.641 249.751C217.641 248.428 217.888 247.263 218.383 246.255C218.878 245.238 219.589 244.446 220.516 243.879C221.443 243.312 222.564 243.028 223.878 243.028C224.886 243.028 225.732 243.19 226.416 243.514C227.1 243.838 227.653 244.266 228.076 244.797C228.508 245.319 228.837 245.89 229.062 246.511C229.287 247.132 229.44 247.74 229.521 248.334C229.602 248.928 229.642 249.45 229.642 249.9V258H226.78ZM216.534 258V243.42H219.058V247.632H219.396V258H216.534ZM238.671 258.405C237.177 258.405 235.908 258.072 234.864 257.406C233.82 256.74 233.019 255.826 232.461 254.665C231.912 253.504 231.633 252.186 231.624 250.71C231.633 249.207 231.921 247.879 232.488 246.727C233.055 245.566 233.865 244.657 234.918 244C235.971 243.343 237.236 243.015 238.712 243.015C240.305 243.015 241.664 243.411 242.789 244.203C243.923 244.995 244.67 246.079 245.03 247.456L242.222 248.266C241.943 247.447 241.484 246.813 240.845 246.363C240.215 245.904 239.49 245.674 238.671 245.674C237.744 245.674 236.984 245.895 236.39 246.336C235.796 246.768 235.355 247.362 235.067 248.118C234.779 248.874 234.63 249.738 234.621 250.71C234.63 252.213 234.972 253.428 235.647 254.355C236.331 255.282 237.339 255.745 238.671 255.745C239.58 255.745 240.314 255.538 240.872 255.124C241.439 254.701 241.871 254.098 242.168 253.315L245.03 253.99C244.553 255.412 243.765 256.506 242.667 257.271C241.569 258.027 240.237 258.405 238.671 258.405ZM253.311 258.405C251.862 258.405 250.588 258.09 249.49 257.46C248.401 256.821 247.551 255.934 246.939 254.8C246.336 253.657 246.034 252.334 246.034 250.831C246.034 249.238 246.331 247.857 246.925 246.687C247.528 245.517 248.365 244.612 249.436 243.973C250.507 243.334 251.754 243.015 253.176 243.015C254.661 243.015 255.925 243.361 256.969 244.055C258.013 244.738 258.792 245.715 259.305 246.984C259.827 248.253 260.034 249.76 259.926 251.506H257.104V250.48C257.086 248.788 256.762 247.537 256.132 246.727C255.511 245.917 254.562 245.512 253.284 245.512C251.871 245.512 250.809 245.958 250.098 246.849C249.387 247.74 249.031 249.027 249.031 250.71C249.031 252.312 249.387 253.554 250.098 254.436C250.809 255.309 251.835 255.745 253.176 255.745C254.058 255.745 254.818 255.547 255.457 255.151C256.105 254.746 256.609 254.17 256.969 253.423L259.737 254.301C259.17 255.606 258.31 256.618 257.158 257.338C256.006 258.049 254.724 258.405 253.311 258.405ZM248.113 251.506V249.306H258.522V251.506H248.113ZM273.665 258.405C272.576 258.405 271.559 258.248 270.614 257.932C269.669 257.608 268.877 257.104 268.238 256.42C267.743 255.871 267.374 255.268 267.131 254.611C266.897 253.945 266.767 253.239 266.74 252.492C266.74 251.763 266.843 251.056 267.05 250.373C267.266 249.679 267.604 249.063 268.063 248.523C268.27 248.271 268.499 248.055 268.751 247.875C269.003 247.686 269.255 247.519 269.507 247.375C268.931 246.745 268.495 246.147 268.198 245.58C267.901 245.004 267.752 244.324 267.752 243.541C267.752 242.443 268.04 241.458 268.616 240.585C269.192 239.703 269.98 239.068 270.979 238.681C271.438 238.492 271.906 238.366 272.383 238.303C272.86 238.231 273.323 238.195 273.773 238.195C274.583 238.195 275.366 238.312 276.122 238.546C276.878 238.78 277.526 239.163 278.066 239.694C278.408 240.009 278.696 240.364 278.93 240.76C279.173 241.156 279.358 241.561 279.484 241.975L276.703 242.623C276.55 242.191 276.298 241.827 275.947 241.53C275.65 241.269 275.303 241.093 274.907 241.003C274.52 240.904 274.133 240.855 273.746 240.855C273.107 240.855 272.531 240.976 272.018 241.219C271.55 241.444 271.199 241.755 270.965 242.151C270.731 242.538 270.614 243.006 270.614 243.555C270.614 244.041 270.7 244.432 270.871 244.729C271.042 245.026 271.271 245.337 271.559 245.661C271.73 245.85 271.933 246.052 272.167 246.268C272.41 246.484 272.657 246.709 272.909 246.943L278.201 251.871C278.219 251.673 278.233 251.461 278.242 251.236C278.251 251.011 278.255 250.795 278.255 250.588L278.242 248.064H280.766V251.398C280.766 251.965 280.748 252.478 280.712 252.937C280.685 253.387 280.631 253.756 280.55 254.044L282.98 256.299L281.158 258.257L279.2 256.393C278.786 256.807 278.323 257.158 277.81 257.446C277.297 257.725 276.779 257.932 276.257 258.068C275.816 258.203 275.38 258.293 274.948 258.338C274.525 258.383 274.097 258.405 273.665 258.405ZM273.746 255.705C274.106 255.705 274.439 255.687 274.745 255.651C275.051 255.606 275.344 255.525 275.623 255.408C276.001 255.255 276.307 255.097 276.541 254.935C276.784 254.773 276.986 254.616 277.148 254.463L271.613 249.387C271.334 249.486 271.073 249.616 270.83 249.778C270.596 249.931 270.394 250.111 270.223 250.318C270.016 250.579 269.858 250.885 269.75 251.236C269.651 251.578 269.606 251.947 269.615 252.343C269.615 252.775 269.683 253.171 269.818 253.531C269.962 253.882 270.146 254.197 270.371 254.476C270.731 254.908 271.231 255.223 271.87 255.421C272.518 255.61 273.143 255.705 273.746 255.705ZM289.752 258V238.56H292.574V255.34H301.376V258H289.752ZM309.459 258.405C308.001 258.405 306.737 258.077 305.666 257.419C304.595 256.762 303.767 255.858 303.182 254.706C302.606 253.545 302.318 252.208 302.318 250.696C302.318 249.175 302.615 247.839 303.209 246.687C303.803 245.526 304.635 244.626 305.706 243.987C306.777 243.339 308.028 243.015 309.459 243.015C310.917 243.015 312.182 243.343 313.253 244C314.324 244.657 315.152 245.562 315.737 246.714C316.322 247.866 316.614 249.193 316.614 250.696C316.614 252.217 316.317 253.558 315.723 254.719C315.138 255.871 314.31 256.776 313.239 257.433C312.168 258.081 310.908 258.405 309.459 258.405ZM309.459 255.745C310.854 255.745 311.894 255.277 312.578 254.341C313.271 253.396 313.617 252.181 313.617 250.696C313.617 249.175 313.266 247.96 312.564 247.051C311.871 246.133 310.836 245.674 309.459 245.674C308.514 245.674 307.736 245.89 307.124 246.322C306.512 246.745 306.057 247.335 305.76 248.091C305.463 248.838 305.315 249.706 305.315 250.696C305.315 252.226 305.666 253.45 306.368 254.368C307.07 255.286 308.1 255.745 309.459 255.745ZM325.278 258.405C323.784 258.405 322.515 258.072 321.471 257.406C320.427 256.74 319.626 255.826 319.068 254.665C318.519 253.504 318.24 252.186 318.231 250.71C318.24 249.207 318.528 247.879 319.095 246.727C319.662 245.566 320.472 244.657 321.525 244C322.578 243.343 323.842 243.015 325.318 243.015C326.911 243.015 328.27 243.411 329.395 244.203C330.529 244.995 331.276 246.079 331.636 247.456L328.828 248.266C328.549 247.447 328.09 246.813 327.451 246.363C326.821 245.904 326.097 245.674 325.278 245.674C324.351 245.674 323.59 245.895 322.996 246.336C322.402 246.768 321.961 247.362 321.673 248.118C321.385 248.874 321.237 249.738 321.228 250.71C321.237 252.213 321.579 253.428 322.254 254.355C322.938 255.282 323.946 255.745 325.278 255.745C326.187 255.745 326.92 255.538 327.478 255.124C328.045 254.701 328.477 254.098 328.774 253.315L331.636 253.99C331.159 255.412 330.372 256.506 329.274 257.271C328.176 258.027 326.844 258.405 325.278 258.405ZM337.779 258.405C336.699 258.405 335.795 258.207 335.066 257.811C334.337 257.406 333.783 256.875 333.405 256.218C333.036 255.552 332.852 254.823 332.852 254.031C332.852 253.293 332.982 252.645 333.243 252.087C333.504 251.529 333.891 251.056 334.404 250.669C334.917 250.273 335.547 249.954 336.294 249.711C336.942 249.522 337.676 249.355 338.495 249.211C339.314 249.067 340.173 248.932 341.073 248.806C341.982 248.68 342.882 248.554 343.773 248.428L342.747 248.995C342.765 247.852 342.522 247.006 342.018 246.457C341.523 245.899 340.668 245.62 339.453 245.62C338.688 245.62 337.986 245.8 337.347 246.16C336.708 246.511 336.263 247.096 336.011 247.915L333.378 247.105C333.738 245.854 334.422 244.86 335.43 244.122C336.447 243.384 337.797 243.015 339.48 243.015C340.785 243.015 341.919 243.24 342.882 243.69C343.854 244.131 344.565 244.833 345.015 245.796C345.249 246.273 345.393 246.777 345.447 247.308C345.501 247.839 345.528 248.41 345.528 249.022V258H343.031V254.665L343.517 255.097C342.914 256.213 342.144 257.046 341.208 257.595C340.281 258.135 339.138 258.405 337.779 258.405ZM338.279 256.096C339.08 256.096 339.768 255.957 340.344 255.678C340.92 255.39 341.384 255.025 341.735 254.584C342.086 254.143 342.315 253.684 342.423 253.207C342.576 252.775 342.662 252.289 342.68 251.749C342.707 251.209 342.72 250.777 342.72 250.453L343.638 250.791C342.747 250.926 341.937 251.047 341.208 251.155C340.479 251.263 339.818 251.371 339.224 251.479C338.639 251.578 338.117 251.7 337.658 251.844C337.271 251.979 336.924 252.141 336.618 252.33C336.321 252.519 336.083 252.748 335.903 253.018C335.732 253.288 335.646 253.617 335.646 254.004C335.646 254.382 335.741 254.733 335.93 255.057C336.119 255.372 336.407 255.624 336.794 255.813C337.181 256.002 337.676 256.096 338.279 256.096ZM348.764 258V238.155H351.586V258H348.764ZM359.965 258V238.56H367.822C368.011 238.56 368.245 238.569 368.524 238.587C368.803 238.596 369.068 238.623 369.32 238.668C370.4 238.839 371.3 239.208 372.02 239.775C372.749 240.342 373.294 241.057 373.654 241.921C374.014 242.785 374.194 243.739 374.194 244.783C374.194 246.331 373.798 247.668 373.006 248.793C372.214 249.909 371.026 250.606 369.442 250.885L368.294 251.02H362.786V258H359.965ZM371.332 258L367.498 250.089L370.346 249.36L374.558 258H371.332ZM362.786 248.347H367.714C367.894 248.347 368.092 248.338 368.308 248.32C368.533 248.302 368.744 248.271 368.942 248.226C369.518 248.091 369.982 247.843 370.333 247.483C370.684 247.114 370.936 246.691 371.089 246.214C371.242 245.737 371.318 245.26 371.318 244.783C371.318 244.306 371.242 243.834 371.089 243.366C370.936 242.889 370.684 242.47 370.333 242.11C369.982 241.741 369.518 241.489 368.942 241.354C368.744 241.3 368.533 241.264 368.308 241.246C368.092 241.228 367.894 241.219 367.714 241.219H362.786V248.347ZM383.452 258.405C382.003 258.405 380.729 258.09 379.631 257.46C378.542 256.821 377.692 255.934 377.08 254.8C376.477 253.657 376.175 252.334 376.175 250.831C376.175 249.238 376.472 247.857 377.066 246.687C377.669 245.517 378.506 244.612 379.577 243.973C380.648 243.334 381.895 243.015 383.317 243.015C384.802 243.015 386.066 243.361 387.11 244.055C388.154 244.738 388.933 245.715 389.446 246.984C389.968 248.253 390.175 249.76 390.067 251.506H387.245V250.48C387.227 248.788 386.903 247.537 386.273 246.727C385.652 245.917 384.703 245.512 383.425 245.512C382.012 245.512 380.95 245.958 380.239 246.849C379.528 247.74 379.172 249.027 379.172 250.71C379.172 252.312 379.528 253.554 380.239 254.436C380.95 255.309 381.976 255.745 383.317 255.745C384.199 255.745 384.959 255.547 385.598 255.151C386.246 254.746 386.75 254.17 387.11 253.423L389.878 254.301C389.311 255.606 388.451 256.618 387.299 257.338C386.147 258.049 384.865 258.405 383.452 258.405ZM378.254 251.506V249.306H388.663V251.506H378.254ZM398.131 258.392C396.358 258.392 394.914 258 393.798 257.217C392.682 256.434 391.998 255.331 391.746 253.909L394.635 253.464C394.815 254.22 395.229 254.818 395.877 255.259C396.534 255.691 397.348 255.907 398.32 255.907C399.202 255.907 399.891 255.727 400.386 255.367C400.89 255.007 401.142 254.512 401.142 253.882C401.142 253.513 401.052 253.216 400.872 252.991C400.701 252.757 400.336 252.537 399.778 252.33C399.22 252.123 398.37 251.866 397.227 251.56C395.976 251.236 394.981 250.89 394.243 250.521C393.514 250.143 392.992 249.706 392.677 249.211C392.371 248.707 392.218 248.1 392.218 247.389C392.218 246.507 392.452 245.737 392.92 245.08C393.388 244.423 394.045 243.915 394.891 243.555C395.746 243.195 396.745 243.015 397.888 243.015C399.004 243.015 399.999 243.19 400.872 243.541C401.745 243.892 402.451 244.392 402.991 245.04C403.531 245.679 403.855 246.43 403.963 247.294L401.074 247.821C400.975 247.119 400.647 246.565 400.089 246.16C399.531 245.755 398.806 245.535 397.915 245.499C397.06 245.463 396.367 245.607 395.836 245.931C395.305 246.246 395.04 246.682 395.04 247.24C395.04 247.564 395.139 247.839 395.337 248.064C395.544 248.289 395.94 248.505 396.525 248.712C397.11 248.919 397.974 249.166 399.117 249.454C400.341 249.769 401.313 250.12 402.033 250.507C402.753 250.885 403.266 251.34 403.572 251.871C403.887 252.393 404.044 253.027 404.044 253.774C404.044 255.214 403.518 256.344 402.465 257.163C401.421 257.982 399.976 258.392 398.131 258.392ZM406.761 241.03V238.29H409.583V241.03H406.761ZM406.761 258V243.42H409.583V258H406.761ZM413.367 258V238.155H416.188V258H413.367ZM419.972 241.03V238.29H422.794V241.03H419.972ZM419.972 258V243.42H422.794V258H419.972ZM432.774 258.405C431.325 258.405 430.052 258.09 428.954 257.46C427.865 256.821 427.014 255.934 426.402 254.8C425.799 253.657 425.498 252.334 425.498 250.831C425.498 249.238 425.795 247.857 426.389 246.687C426.992 245.517 427.829 244.612 428.9 243.973C429.971 243.334 431.217 243.015 432.639 243.015C434.124 243.015 435.389 243.361 436.433 244.055C437.477 244.738 438.255 245.715 438.768 246.984C439.29 248.253 439.497 249.76 439.389 251.506H436.568V250.48C436.55 248.788 436.226 247.537 435.596 246.727C434.975 245.917 434.025 245.512 432.747 245.512C431.334 245.512 430.272 245.958 429.561 246.849C428.85 247.74 428.495 249.027 428.495 250.71C428.495 252.312 428.85 253.554 429.561 254.436C430.272 255.309 431.298 255.745 432.639 255.745C433.521 255.745 434.282 255.547 434.921 255.151C435.569 254.746 436.073 254.17 436.433 253.423L439.2 254.301C438.633 255.606 437.774 256.618 436.622 257.338C435.47 258.049 434.187 258.405 432.774 258.405ZM427.577 251.506V249.306H437.985V251.506H427.577ZM451.716 258V250.831C451.716 250.264 451.666 249.684 451.567 249.09C451.477 248.487 451.297 247.929 451.027 247.416C450.766 246.903 450.393 246.489 449.907 246.174C449.43 245.859 448.804 245.701 448.03 245.701C447.526 245.701 447.049 245.787 446.599 245.958C446.149 246.12 445.753 246.385 445.411 246.754C445.078 247.123 444.813 247.609 444.615 248.212C444.426 248.815 444.331 249.549 444.331 250.413L442.576 249.751C442.576 248.428 442.824 247.263 443.319 246.255C443.814 245.238 444.525 244.446 445.452 243.879C446.379 243.312 447.499 243.028 448.813 243.028C449.821 243.028 450.667 243.19 451.351 243.514C452.035 243.838 452.589 244.266 453.012 244.797C453.444 245.319 453.772 245.89 453.997 246.511C454.222 247.132 454.375 247.74 454.456 248.334C454.537 248.928 454.578 249.45 454.578 249.9V258H451.716ZM441.469 258V243.42H443.994V247.632H444.331V258H441.469ZM463.606 258.405C462.112 258.405 460.843 258.072 459.799 257.406C458.755 256.74 457.954 255.826 457.396 254.665C456.847 253.504 456.568 252.186 456.559 250.71C456.568 249.207 456.856 247.879 457.423 246.727C457.99 245.566 458.8 244.657 459.853 244C460.906 243.343 462.171 243.015 463.647 243.015C465.24 243.015 466.599 243.411 467.724 244.203C468.858 244.995 469.605 246.079 469.965 247.456L467.157 248.266C466.878 247.447 466.419 246.813 465.78 246.363C465.15 245.904 464.425 245.674 463.606 245.674C462.679 245.674 461.919 245.895 461.325 246.336C460.731 246.768 460.29 247.362 460.002 248.118C459.714 248.874 459.565 249.738 459.556 250.71C459.565 252.213 459.907 253.428 460.582 254.355C461.266 255.282 462.274 255.745 463.606 255.745C464.515 255.745 465.249 255.538 465.807 255.124C466.374 254.701 466.806 254.098 467.103 253.315L469.965 253.99C469.488 255.412 468.7 256.506 467.602 257.271C466.504 258.027 465.172 258.405 463.606 258.405ZM478.246 258.405C476.797 258.405 475.524 258.09 474.426 257.46C473.337 256.821 472.486 255.934 471.874 254.8C471.271 253.657 470.97 252.334 470.97 250.831C470.97 249.238 471.267 247.857 471.861 246.687C472.464 245.517 473.301 244.612 474.372 243.973C475.443 243.334 476.689 243.015 478.111 243.015C479.596 243.015 480.861 243.361 481.905 244.055C482.949 244.738 483.727 245.715 484.24 246.984C484.762 248.253 484.969 249.76 484.861 251.506H482.04V250.48C482.022 248.788 481.698 247.537 481.068 246.727C480.447 245.917 479.497 245.512 478.219 245.512C476.806 245.512 475.744 245.958 475.033 246.849C474.322 247.74 473.967 249.027 473.967 250.71C473.967 252.312 474.322 253.554 475.033 254.436C475.744 255.309 476.77 255.745 478.111 255.745C478.993 255.745 479.754 255.547 480.393 255.151C481.041 254.746 481.545 254.17 481.905 253.423L484.672 254.301C484.105 255.606 483.246 256.618 482.094 257.338C480.942 258.049 479.659 258.405 478.246 258.405ZM473.049 251.506V249.306H483.457V251.506H473.049Z" fill="white"/>
<rect x="1.75" y="-1.75" width="513.5" height="67.5" rx="33.75" transform="matrix(-1 0 0 1 517.5 110)" stroke="white" stroke-opacity="0.42" stroke-width="3.5"/>
<path d="M33.6289 152V132.56H45.1444V135.381H36.4504V140.862H43.5244V143.697H36.4504V152H33.6289ZM47.3071 152V132.155H50.1286V152H47.3071ZM60.1091 152.405C58.6601 152.405 57.3866 152.09 56.2886 151.46C55.1996 150.821 54.3491 149.934 53.7371 148.8C53.1341 147.657 52.8326 146.334 52.8326 144.831C52.8326 143.238 53.1296 141.857 53.7236 140.687C54.3266 139.517 55.1636 138.612 56.2346 137.973C57.3056 137.334 58.5521 137.015 59.9741 137.015C61.4591 137.015 62.7236 137.361 63.7676 138.055C64.8116 138.738 65.5901 139.715 66.1031 140.984C66.6251 142.253 66.8321 143.76 66.7241 145.506H63.9026V144.48C63.8846 142.788 63.5606 141.537 62.9306 140.727C62.3096 139.917 61.3601 139.512 60.0821 139.512C58.6691 139.512 57.6071 139.958 56.8961 140.849C56.1851 141.74 55.8296 143.027 55.8296 144.71C55.8296 146.312 56.1851 147.554 56.8961 148.436C57.6071 149.309 58.6331 149.745 59.9741 149.745C60.8561 149.745 61.6166 149.547 62.2556 149.151C62.9036 148.746 63.4076 148.17 63.7676 147.423L66.5351 148.301C65.9681 149.606 65.1086 150.618 63.9566 151.338C62.8046 152.049 61.5221 152.405 60.1091 152.405ZM54.9116 145.506V143.306H65.3201V145.506H54.9116ZM67.0656 152L72.5196 144.629L67.1871 137.42H70.5351L74.1666 142.428L77.7576 137.42H81.1056L75.7731 144.629L81.2406 152H77.8791L74.1666 146.829L70.4271 152H67.0656ZM83.1285 135.03V132.29H85.95V135.03H83.1285ZM83.1285 152V137.42H85.95V152H83.1285ZM96.3085 152.405C94.9135 152.405 93.7435 152.068 92.7985 151.392C91.8535 150.708 91.138 149.786 90.652 148.625C90.166 147.464 89.923 146.154 89.923 144.696C89.923 143.238 90.1615 141.929 90.6385 140.768C91.1245 139.607 91.8355 138.693 92.7715 138.027C93.7165 137.352 94.8775 137.015 96.2545 137.015C97.6225 137.015 98.8015 137.352 99.7915 138.027C100.791 138.693 101.56 139.607 102.1 140.768C102.64 141.92 102.91 143.229 102.91 144.696C102.91 146.154 102.64 147.468 102.1 148.638C101.569 149.799 100.809 150.717 99.8185 151.392C98.8375 152.068 97.6675 152.405 96.3085 152.405ZM89.4505 152V132.56H92.2855V141.51H91.9615V152H89.4505ZM95.917 149.853C96.817 149.853 97.5595 149.624 98.1445 149.165C98.7385 148.706 99.1795 148.089 99.4675 147.315C99.7645 146.532 99.913 145.659 99.913 144.696C99.913 143.742 99.7645 142.878 99.4675 142.104C99.1795 141.33 98.734 140.714 98.131 140.255C97.528 139.796 96.7585 139.566 95.8225 139.566C94.9405 139.566 94.2115 139.782 93.6355 140.214C93.0685 140.646 92.6455 141.249 92.3665 142.023C92.0965 142.797 91.9615 143.688 91.9615 144.696C91.9615 145.704 92.0965 146.595 92.3665 147.369C92.6365 148.143 93.064 148.751 93.649 149.192C94.234 149.633 94.99 149.853 95.917 149.853ZM105.621 152V132.155H108.442V152H105.621ZM118.423 152.405C116.974 152.405 115.7 152.09 114.602 151.46C113.513 150.821 112.663 149.934 112.051 148.8C111.448 147.657 111.146 146.334 111.146 144.831C111.146 143.238 111.443 141.857 112.037 140.687C112.64 139.517 113.477 138.612 114.548 137.973C115.619 137.334 116.866 137.015 118.288 137.015C119.773 137.015 121.037 137.361 122.081 138.055C123.125 138.738 123.904 139.715 124.417 140.984C124.939 142.253 125.146 143.76 125.038 145.506H122.216V144.48C122.198 142.788 121.874 141.537 121.244 140.727C120.623 139.917 119.674 139.512 118.396 139.512C116.983 139.512 115.921 139.958 115.21 140.849C114.499 141.74 114.143 143.027 114.143 144.71C114.143 146.312 114.499 147.554 115.21 148.436C115.921 149.309 116.947 149.745 118.288 149.745C119.17 149.745 119.93 149.547 120.569 149.151C121.217 148.746 121.721 148.17 122.081 147.423L124.849 148.301C124.282 149.606 123.422 150.618 122.27 151.338C121.118 152.049 119.836 152.405 118.423 152.405ZM113.225 145.506V143.306H123.634V145.506H113.225ZM132.662 152V132.56H135.483V152H132.662ZM149.23 152V144.831C149.23 144.264 149.181 143.684 149.082 143.09C148.992 142.487 148.812 141.929 148.542 141.416C148.281 140.903 147.907 140.489 147.421 140.174C146.944 139.859 146.319 139.701 145.545 139.701C145.041 139.701 144.564 139.787 144.114 139.958C143.664 140.12 143.268 140.385 142.926 140.754C142.593 141.123 142.327 141.609 142.129 142.212C141.94 142.815 141.846 143.549 141.846 144.413L140.091 143.751C140.091 142.428 140.338 141.263 140.833 140.255C141.328 139.238 142.039 138.446 142.966 137.879C143.893 137.312 145.014 137.028 146.328 137.028C147.336 137.028 148.182 137.19 148.866 137.514C149.55 137.838 150.103 138.266 150.526 138.797C150.958 139.319 151.287 139.89 151.512 140.511C151.737 141.132 151.89 141.74 151.971 142.334C152.052 142.928 152.092 143.45 152.092 143.9V152H149.23ZM138.984 152V137.42H141.508V141.632H141.846V152H138.984ZM163.412 152C162.494 152.18 161.594 152.257 160.712 152.23C159.83 152.203 159.042 152.031 158.349 151.716C157.656 151.401 157.134 150.906 156.783 150.231C156.468 149.628 156.297 149.016 156.27 148.395C156.252 147.765 156.243 147.054 156.243 146.262V133.37H159.078V146.127C159.078 146.712 159.083 147.221 159.092 147.653C159.11 148.085 159.204 148.449 159.375 148.746C159.699 149.304 160.212 149.624 160.914 149.705C161.625 149.777 162.458 149.745 163.412 149.61V152ZM153.449 139.688V137.42H163.412V139.688H153.449ZM171.727 152.405C170.278 152.405 169.004 152.09 167.906 151.46C166.817 150.821 165.967 149.934 165.355 148.8C164.752 147.657 164.45 146.334 164.45 144.831C164.45 143.238 164.747 141.857 165.341 140.687C165.944 139.517 166.781 138.612 167.852 137.973C168.923 137.334 170.17 137.015 171.592 137.015C173.077 137.015 174.341 137.361 175.385 138.055C176.429 138.738 177.208 139.715 177.721 140.984C178.243 142.253 178.45 143.76 178.342 145.506H175.52V144.48C175.502 142.788 175.178 141.537 174.548 140.727C173.927 139.917 172.978 139.512 171.7 139.512C170.287 139.512 169.225 139.958 168.514 140.849C167.803 141.74 167.447 143.027 167.447 144.71C167.447 146.312 167.803 147.554 168.514 148.436C169.225 149.309 170.251 149.745 171.592 149.745C172.474 149.745 173.234 149.547 173.873 149.151C174.521 148.746 175.025 148.17 175.385 147.423L178.153 148.301C177.586 149.606 176.726 150.618 175.574 151.338C174.422 152.049 173.14 152.405 171.727 152.405ZM166.529 145.506V143.306H176.938V145.506H166.529ZM180.831 152V137.42H183.342V140.957L182.991 140.498C183.171 140.03 183.405 139.602 183.693 139.215C183.981 138.819 184.314 138.495 184.692 138.243C185.061 137.973 185.47 137.766 185.92 137.622C186.379 137.469 186.847 137.379 187.324 137.352C187.801 137.316 188.26 137.339 188.701 137.42V140.066C188.224 139.94 187.693 139.904 187.108 139.958C186.532 140.012 186.001 140.196 185.515 140.511C185.056 140.808 184.692 141.168 184.422 141.591C184.161 142.014 183.972 142.487 183.855 143.009C183.738 143.522 183.679 144.066 183.679 144.642V152H180.831ZM193.837 152L189.382 137.406L192.176 137.42L195.227 147.423L198.305 137.42H200.735L203.813 147.423L206.864 137.42H209.645L205.19 152H202.922L199.52 141.443L196.105 152H193.837ZM217.327 152.405C215.869 152.405 214.605 152.077 213.534 151.419C212.463 150.762 211.635 149.858 211.05 148.706C210.474 147.545 210.186 146.208 210.186 144.696C210.186 143.175 210.483 141.839 211.077 140.687C211.671 139.526 212.503 138.626 213.574 137.987C214.645 137.339 215.896 137.015 217.327 137.015C218.785 137.015 220.05 137.343 221.121 138C222.192 138.657 223.02 139.562 223.605 140.714C224.19 141.866 224.482 143.193 224.482 144.696C224.482 146.217 224.185 147.558 223.591 148.719C223.006 149.871 222.178 150.776 221.107 151.433C220.036 152.081 218.776 152.405 217.327 152.405ZM217.327 149.745C218.722 149.745 219.762 149.277 220.446 148.341C221.139 147.396 221.485 146.181 221.485 144.696C221.485 143.175 221.134 141.96 220.432 141.051C219.739 140.133 218.704 139.674 217.327 139.674C216.382 139.674 215.604 139.89 214.992 140.322C214.38 140.745 213.925 141.335 213.628 142.091C213.331 142.838 213.183 143.706 213.183 144.696C213.183 146.226 213.534 147.45 214.236 148.368C214.938 149.286 215.968 149.745 217.327 149.745ZM226.909 152V137.42H229.42V140.957L229.069 140.498C229.249 140.03 229.483 139.602 229.771 139.215C230.059 138.819 230.392 138.495 230.77 138.243C231.139 137.973 231.548 137.766 231.998 137.622C232.457 137.469 232.925 137.379 233.402 137.352C233.879 137.316 234.338 137.339 234.779 137.42V140.066C234.302 139.94 233.771 139.904 233.186 139.958C232.61 140.012 232.079 140.196 231.593 140.511C231.134 140.808 230.77 141.168 230.5 141.591C230.239 142.014 230.05 142.487 229.933 143.009C229.816 143.522 229.757 144.066 229.757 144.642V152H226.909ZM236.797 152L236.81 132.56H239.672V144.44L245.396 137.42H248.987L242.939 144.71L249.608 152H245.774L239.672 144.98V152H236.797ZM250.699 135.03V132.29H253.521V135.03H250.699ZM250.699 152V137.42H253.521V152H250.699ZM267.268 152V144.831C267.268 144.264 267.218 143.684 267.119 143.09C267.029 142.487 266.849 141.929 266.579 141.416C266.318 140.903 265.945 140.489 265.459 140.174C264.982 139.859 264.356 139.701 263.582 139.701C263.078 139.701 262.601 139.787 262.151 139.958C261.701 140.12 261.305 140.385 260.963 140.754C260.63 141.123 260.365 141.609 260.167 142.212C259.978 142.815 259.883 143.549 259.883 144.413L258.128 143.751C258.128 142.428 258.376 141.263 258.871 140.255C259.366 139.238 260.077 138.446 261.004 137.879C261.931 137.312 263.051 137.028 264.365 137.028C265.373 137.028 266.219 137.19 266.903 137.514C267.587 137.838 268.141 138.266 268.564 138.797C268.996 139.319 269.324 139.89 269.549 140.511C269.774 141.132 269.927 141.74 270.008 142.334C270.089 142.928 270.13 143.45 270.13 143.9V152H267.268ZM257.021 152V137.42H259.546V141.632H259.883V152H257.021ZM279.114 158.885C278.331 158.885 277.57 158.764 276.832 158.521C276.103 158.278 275.437 157.918 274.834 157.441C274.231 156.973 273.732 156.392 273.336 155.699L275.941 154.376C276.256 154.997 276.706 155.452 277.291 155.74C277.876 156.028 278.493 156.172 279.141 156.172C279.942 156.172 280.626 156.028 281.193 155.74C281.76 155.461 282.187 155.038 282.475 154.471C282.772 153.904 282.916 153.202 282.907 152.365V148.287H283.245V137.42H285.742V152.392C285.742 152.779 285.729 153.148 285.702 153.499C285.675 153.85 285.625 154.201 285.553 154.552C285.346 155.533 284.95 156.343 284.365 156.982C283.789 157.621 283.051 158.098 282.151 158.413C281.26 158.728 280.248 158.885 279.114 158.885ZM278.898 152.405C277.539 152.405 276.364 152.068 275.374 151.392C274.393 150.717 273.633 149.799 273.093 148.638C272.562 147.468 272.296 146.154 272.296 144.696C272.296 143.229 272.566 141.92 273.106 140.768C273.646 139.607 274.411 138.693 275.401 138.027C276.4 137.352 277.584 137.015 278.952 137.015C280.329 137.015 281.485 137.352 282.421 138.027C283.366 138.693 284.077 139.607 284.554 140.768C285.04 141.929 285.283 143.238 285.283 144.696C285.283 146.154 285.04 147.464 284.554 148.625C284.068 149.786 283.353 150.708 282.408 151.392C281.463 152.068 280.293 152.405 278.898 152.405ZM279.289 149.853C280.216 149.853 280.972 149.633 281.557 149.192C282.142 148.751 282.57 148.143 282.84 147.369C283.11 146.595 283.245 145.704 283.245 144.696C283.245 143.688 283.105 142.797 282.826 142.023C282.556 141.249 282.133 140.646 281.557 140.214C280.99 139.782 280.266 139.566 279.384 139.566C278.448 139.566 277.678 139.796 277.075 140.255C276.472 140.714 276.022 141.33 275.725 142.104C275.437 142.878 275.293 143.742 275.293 144.696C275.293 145.659 275.437 146.532 275.725 147.315C276.022 148.089 276.463 148.706 277.048 149.165C277.642 149.624 278.389 149.853 279.289 149.853ZM301.81 152.405C300.505 152.405 299.303 152.18 298.205 151.73C297.107 151.271 296.153 150.605 295.343 149.732C294.533 148.859 293.903 147.797 293.453 146.546C293.003 145.295 292.778 143.873 292.778 142.28C292.778 140.183 293.161 138.383 293.926 136.88C294.691 135.368 295.753 134.207 297.112 133.397C298.471 132.578 300.037 132.168 301.81 132.168C304.096 132.168 305.918 132.699 307.277 133.761C308.645 134.823 309.577 136.29 310.072 138.162L307.21 138.675C306.814 137.514 306.175 136.587 305.293 135.894C304.411 135.201 303.304 134.85 301.972 134.841C300.595 134.832 299.447 135.138 298.529 135.759C297.62 136.38 296.936 137.253 296.477 138.378C296.018 139.494 295.784 140.795 295.775 142.28C295.766 143.765 295.991 145.065 296.45 146.181C296.909 147.288 297.598 148.152 298.516 148.773C299.443 149.394 300.595 149.709 301.972 149.718C303.079 149.736 304.028 149.534 304.82 149.111C305.621 148.679 306.256 148.049 306.724 147.221C307.192 146.393 307.493 145.376 307.628 144.17H303.848V141.902H310.625C310.643 142.064 310.657 142.28 310.666 142.55C310.675 142.811 310.679 142.977 310.679 143.049C310.679 144.849 310.333 146.456 309.64 147.869C308.947 149.282 307.939 150.393 306.616 151.203C305.293 152.004 303.691 152.405 301.81 152.405ZM316.947 152.405C315.867 152.405 314.963 152.207 314.234 151.811C313.505 151.406 312.951 150.875 312.573 150.218C312.204 149.552 312.02 148.823 312.02 148.031C312.02 147.293 312.15 146.645 312.411 146.087C312.672 145.529 313.059 145.056 313.572 144.669C314.085 144.273 314.715 143.954 315.462 143.711C316.11 143.522 316.844 143.355 317.663 143.211C318.482 143.067 319.341 142.932 320.241 142.806C321.15 142.68 322.05 142.554 322.941 142.428L321.915 142.995C321.933 141.852 321.69 141.006 321.186 140.457C320.691 139.899 319.836 139.62 318.621 139.62C317.856 139.62 317.154 139.8 316.515 140.16C315.876 140.511 315.431 141.096 315.179 141.915L312.546 141.105C312.906 139.854 313.59 138.86 314.598 138.122C315.615 137.384 316.965 137.015 318.648 137.015C319.953 137.015 321.087 137.24 322.05 137.69C323.022 138.131 323.733 138.833 324.183 139.796C324.417 140.273 324.561 140.777 324.615 141.308C324.669 141.839 324.696 142.41 324.696 143.022V152H322.199V148.665L322.685 149.097C322.082 150.213 321.312 151.046 320.376 151.595C319.449 152.135 318.306 152.405 316.947 152.405ZM317.447 150.096C318.248 150.096 318.936 149.957 319.512 149.678C320.088 149.39 320.552 149.025 320.903 148.584C321.254 148.143 321.483 147.684 321.591 147.207C321.744 146.775 321.83 146.289 321.848 145.749C321.875 145.209 321.888 144.777 321.888 144.453L322.806 144.791C321.915 144.926 321.105 145.047 320.376 145.155C319.647 145.263 318.986 145.371 318.392 145.479C317.807 145.578 317.285 145.7 316.826 145.844C316.439 145.979 316.092 146.141 315.786 146.33C315.489 146.519 315.251 146.748 315.071 147.018C314.9 147.288 314.814 147.617 314.814 148.004C314.814 148.382 314.909 148.733 315.098 149.057C315.287 149.372 315.575 149.624 315.962 149.813C316.349 150.002 316.844 150.096 317.447 150.096ZM336.005 152C335.087 152.18 334.187 152.257 333.305 152.23C332.423 152.203 331.636 152.031 330.943 151.716C330.25 151.401 329.728 150.906 329.377 150.231C329.062 149.628 328.891 149.016 328.864 148.395C328.846 147.765 328.837 147.054 328.837 146.262V133.37H331.672V146.127C331.672 146.712 331.676 147.221 331.685 147.653C331.703 148.085 331.798 148.449 331.969 148.746C332.293 149.304 332.806 149.624 333.508 149.705C334.219 149.777 335.051 149.745 336.005 149.61V152ZM326.042 139.688V137.42H336.005V139.688H326.042ZM344.32 152.405C342.871 152.405 341.597 152.09 340.499 151.46C339.41 150.821 338.56 149.934 337.948 148.8C337.345 147.657 337.043 146.334 337.043 144.831C337.043 143.238 337.34 141.857 337.934 140.687C338.537 139.517 339.374 138.612 340.445 137.973C341.516 137.334 342.763 137.015 344.185 137.015C345.67 137.015 346.934 137.361 347.978 138.055C349.022 138.738 349.801 139.715 350.314 140.984C350.836 142.253 351.043 143.76 350.935 145.506H348.113V144.48C348.095 142.788 347.771 141.537 347.141 140.727C346.52 139.917 345.571 139.512 344.293 139.512C342.88 139.512 341.818 139.958 341.107 140.849C340.396 141.74 340.04 143.027 340.04 144.71C340.04 146.312 340.396 147.554 341.107 148.436C341.818 149.309 342.844 149.745 344.185 149.745C345.067 149.745 345.827 149.547 346.466 149.151C347.114 148.746 347.618 148.17 347.978 147.423L350.746 148.301C350.179 149.606 349.319 150.618 348.167 151.338C347.015 152.049 345.733 152.405 344.32 152.405ZM339.122 145.506V143.306H349.531V145.506H339.122ZM356.001 152L351.546 137.406L354.341 137.42L357.392 147.423L360.47 137.42H362.9L365.978 147.423L369.029 137.42H371.81L367.355 152H365.087L361.685 141.443L358.269 152H356.001ZM376.988 152.405C375.908 152.405 375.003 152.207 374.274 151.811C373.545 151.406 372.992 150.875 372.614 150.218C372.245 149.552 372.06 148.823 372.06 148.031C372.06 147.293 372.191 146.645 372.452 146.087C372.713 145.529 373.1 145.056 373.613 144.669C374.126 144.273 374.756 143.954 375.503 143.711C376.151 143.522 376.884 143.355 377.703 143.211C378.522 143.067 379.382 142.932 380.282 142.806C381.191 142.68 382.091 142.554 382.982 142.428L381.956 142.995C381.974 141.852 381.731 141.006 381.227 140.457C380.732 139.899 379.877 139.62 378.662 139.62C377.897 139.62 377.195 139.8 376.556 140.16C375.917 140.511 375.471 141.096 375.219 141.915L372.587 141.105C372.947 139.854 373.631 138.86 374.639 138.122C375.656 137.384 377.006 137.015 378.689 137.015C379.994 137.015 381.128 137.24 382.091 137.69C383.063 138.131 383.774 138.833 384.224 139.796C384.458 140.273 384.602 140.777 384.656 141.308C384.71 141.839 384.737 142.41 384.737 143.022V152H382.239V148.665L382.725 149.097C382.122 150.213 381.353 151.046 380.417 151.595C379.49 152.135 378.347 152.405 376.988 152.405ZM377.487 150.096C378.288 150.096 378.977 149.957 379.553 149.678C380.129 149.39 380.592 149.025 380.943 148.584C381.294 148.143 381.524 147.684 381.632 147.207C381.785 146.775 381.87 146.289 381.888 145.749C381.915 145.209 381.929 144.777 381.929 144.453L382.847 144.791C381.956 144.926 381.146 145.047 380.417 145.155C379.688 145.263 379.026 145.371 378.432 145.479C377.847 145.578 377.325 145.7 376.866 145.844C376.479 145.979 376.133 146.141 375.827 146.33C375.53 146.519 375.291 146.748 375.111 147.018C374.94 147.288 374.855 147.617 374.855 148.004C374.855 148.382 374.949 148.733 375.138 149.057C375.327 149.372 375.615 149.624 376.002 149.813C376.389 150.002 376.884 150.096 377.487 150.096ZM388.856 158.48L391.677 150.798L391.718 153.067L385.359 137.42H388.302L393.054 149.502H392.19L396.726 137.42H399.588L391.542 158.48H388.856ZM406.739 152.392C404.966 152.392 403.521 152 402.405 151.217C401.289 150.434 400.605 149.331 400.353 147.909L403.242 147.464C403.422 148.22 403.836 148.818 404.484 149.259C405.141 149.691 405.956 149.907 406.928 149.907C407.81 149.907 408.498 149.727 408.993 149.367C409.497 149.007 409.749 148.512 409.749 147.882C409.749 147.513 409.659 147.216 409.479 146.991C409.308 146.757 408.944 146.537 408.386 146.33C407.828 146.123 406.977 145.866 405.834 145.56C404.583 145.236 403.589 144.89 402.851 144.521C402.122 144.143 401.6 143.706 401.285 143.211C400.979 142.707 400.826 142.1 400.826 141.389C400.826 140.507 401.06 139.737 401.528 139.08C401.996 138.423 402.653 137.915 403.499 137.555C404.354 137.195 405.353 137.015 406.496 137.015C407.612 137.015 408.606 137.19 409.479 137.541C410.352 137.892 411.059 138.392 411.599 139.04C412.139 139.679 412.463 140.43 412.571 141.294L409.682 141.821C409.583 141.119 409.254 140.565 408.696 140.16C408.138 139.755 407.414 139.535 406.523 139.499C405.668 139.463 404.975 139.607 404.444 139.931C403.913 140.246 403.647 140.682 403.647 141.24C403.647 141.564 403.746 141.839 403.944 142.064C404.151 142.289 404.547 142.505 405.132 142.712C405.717 142.919 406.581 143.166 407.724 143.454C408.948 143.769 409.92 144.12 410.64 144.507C411.36 144.885 411.873 145.34 412.179 145.871C412.494 146.393 412.652 147.027 412.652 147.774C412.652 149.214 412.125 150.344 411.072 151.163C410.028 151.982 408.584 152.392 406.739 152.392ZM426.836 156.226C425.792 155.011 424.892 153.638 424.136 152.108C423.38 150.587 422.804 148.989 422.408 147.315C422.012 145.632 421.827 143.954 421.854 142.28C421.827 140.606 422.012 138.932 422.408 137.258C422.804 135.575 423.38 133.973 424.136 132.452C424.892 130.922 425.792 129.549 426.836 128.334L428.942 129.9C427.862 131.178 426.993 132.492 426.336 133.842C425.679 135.183 425.198 136.56 424.892 137.973C424.586 139.377 424.433 140.813 424.433 142.28C424.433 143.738 424.586 145.173 424.892 146.586C425.198 147.999 425.679 149.381 426.336 150.731C427.002 152.081 427.871 153.391 428.942 154.66L426.836 156.226ZM431.691 152V132.56H434.513V152H431.691ZM442.144 152L436.501 132.56H439.458L443.548 147.261L447.639 132.573L450.609 132.56L454.699 147.261L458.79 132.56H461.76L456.103 152H453.295L449.124 137.46L444.952 152H442.144ZM463.485 152V132.56H475V135.381H466.306V140.862H473.38V143.697H466.306V152H463.485ZM478.229 156.226L476.123 154.66C477.194 153.391 478.058 152.081 478.715 150.731C479.381 149.381 479.867 147.999 480.173 146.586C480.479 145.173 480.632 143.738 480.632 142.28C480.632 140.813 480.479 139.377 480.173 137.973C479.867 136.56 479.386 135.183 478.729 133.842C478.072 132.492 477.203 131.178 476.123 129.9L478.229 128.334C479.273 129.549 480.173 130.922 480.929 132.452C481.685 133.973 482.261 135.575 482.657 137.258C483.053 138.932 483.238 140.606 483.211 142.28C483.238 143.954 483.053 145.632 482.657 147.315C482.261 148.989 481.685 150.587 480.929 152.108C480.173 153.638 479.273 155.011 478.229 156.226Z" fill="white"/>
<rect x="1.75" y="-1.75" width="441.5" height="67.5" rx="33.75" transform="matrix(-1 0 0 1 515.5 4)" stroke="white" stroke-opacity="0.42" stroke-width="3.5"/>
<path d="M103.258 46V26.56H105.809L112.856 41.1805L119.863 26.56H122.441V45.9865H119.768V32.689L113.491 46H112.208L105.917 32.689V46H103.258ZM131.178 46.3915C130.17 46.3915 129.324 46.2295 128.64 45.9055C127.956 45.5815 127.398 45.1585 126.966 44.6365C126.543 44.1055 126.219 43.5295 125.994 42.9085C125.769 42.2875 125.616 41.68 125.535 41.086C125.454 40.492 125.414 39.97 125.414 39.52V31.42H128.276V38.5885C128.276 39.1555 128.321 39.7405 128.411 40.3435C128.51 40.9375 128.69 41.491 128.951 42.004C129.221 42.517 129.594 42.931 130.071 43.246C130.557 43.561 131.187 43.7185 131.961 43.7185C132.465 43.7185 132.942 43.6375 133.392 43.4755C133.842 43.3045 134.234 43.0345 134.567 42.6655C134.909 42.2965 135.174 41.8105 135.363 41.2075C135.561 40.6045 135.66 39.871 135.66 39.007L137.415 39.6685C137.415 40.9915 137.168 42.1615 136.673 43.1785C136.178 44.1865 135.467 44.974 134.54 45.541C133.613 46.108 132.492 46.3915 131.178 46.3915ZM135.998 46V41.788H135.66V31.42H138.509V46H135.998ZM142.025 46V26.155H144.847V46H142.025ZM156.704 46C155.786 46.18 154.886 46.2565 154.004 46.2295C153.122 46.2025 152.334 46.0315 151.641 45.7165C150.948 45.4015 150.426 44.9065 150.075 44.2315C149.76 43.6285 149.589 43.0165 149.562 42.3955C149.544 41.7655 149.535 41.0545 149.535 40.2625V27.37H152.37V40.1275C152.37 40.7125 152.375 41.221 152.384 41.653C152.402 42.085 152.496 42.4495 152.667 42.7465C152.991 43.3045 153.504 43.624 154.206 43.705C154.917 43.777 155.75 43.7455 156.704 43.6105V46ZM146.741 33.688V31.42H156.704V33.688H146.741ZM159.508 29.0305V26.29H162.329V29.0305H159.508ZM159.508 46V31.42H162.329V46H159.508ZM165.573 38.6155V36.3475H173.673V38.6155H165.573ZM179.325 46V29.2195H172.859V26.56H188.613V29.2195H182.147V46H179.325ZM194.538 46.405C193.089 46.405 191.816 46.09 190.718 45.46C189.629 44.821 188.778 43.9345 188.166 42.8005C187.563 41.6575 187.262 40.3345 187.262 38.8315C187.262 37.2385 187.559 35.857 188.153 34.687C188.756 33.517 189.593 32.6125 190.664 31.9735C191.735 31.3345 192.981 31.015 194.403 31.015C195.888 31.015 197.153 31.3615 198.197 32.0545C199.241 32.7385 200.019 33.715 200.532 34.984C201.054 36.253 201.261 37.7605 201.153 39.5065H198.332V38.4805C198.314 36.7885 197.99 35.5375 197.36 34.7275C196.739 33.9175 195.789 33.5125 194.511 33.5125C193.098 33.5125 192.036 33.958 191.325 34.849C190.614 35.74 190.259 37.027 190.259 38.71C190.259 40.312 190.614 41.554 191.325 42.436C192.036 43.309 193.062 43.7455 194.403 43.7455C195.285 43.7455 196.046 43.5475 196.685 43.1515C197.333 42.7465 197.837 42.1705 198.197 41.4235L200.964 42.301C200.397 43.606 199.538 44.6185 198.386 45.3385C197.234 46.0495 195.951 46.405 194.538 46.405ZM189.341 39.5065V37.306H199.749V39.5065H189.341ZM213.48 46V38.8315C213.48 38.2645 213.43 37.684 213.331 37.09C213.241 36.487 213.061 35.929 212.791 35.416C212.53 34.903 212.157 34.489 211.671 34.174C211.194 33.859 210.568 33.7015 209.794 33.7015C209.29 33.7015 208.813 33.787 208.363 33.958C207.913 34.12 207.517 34.3855 207.175 34.7545C206.842 35.1235 206.577 35.6095 206.379 36.2125C206.19 36.8155 206.095 37.549 206.095 38.413L204.34 37.7515C204.34 36.4285 204.588 35.263 205.083 34.255C205.578 33.238 206.289 32.446 207.216 31.879C208.143 31.312 209.263 31.0285 210.577 31.0285C211.585 31.0285 212.431 31.1905 213.115 31.5145C213.799 31.8385 214.353 32.266 214.776 32.797C215.208 33.319 215.536 33.8905 215.761 34.5115C215.986 35.1325 216.139 35.74 216.22 36.334C216.301 36.928 216.342 37.45 216.342 37.9V46H213.48ZM203.233 46V31.42H205.758V35.632H206.095V46H203.233ZM223.435 46.405C222.355 46.405 221.451 46.207 220.722 45.811C219.993 45.406 219.439 44.875 219.061 44.218C218.692 43.552 218.508 42.823 218.508 42.031C218.508 41.293 218.638 40.645 218.899 40.087C219.16 39.529 219.547 39.0565 220.06 38.6695C220.573 38.2735 221.203 37.954 221.95 37.711C222.598 37.522 223.332 37.3555 224.151 37.2115C224.97 37.0675 225.829 36.9325 226.729 36.8065C227.638 36.6805 228.538 36.5545 229.429 36.4285L228.403 36.9955C228.421 35.8525 228.178 35.0065 227.674 34.4575C227.179 33.8995 226.324 33.6205 225.109 33.6205C224.344 33.6205 223.642 33.8005 223.003 34.1605C222.364 34.5115 221.919 35.0965 221.667 35.9155L219.034 35.1055C219.394 33.8545 220.078 32.86 221.086 32.122C222.103 31.384 223.453 31.015 225.136 31.015C226.441 31.015 227.575 31.24 228.538 31.69C229.51 32.131 230.221 32.833 230.671 33.796C230.905 34.273 231.049 34.777 231.103 35.308C231.157 35.839 231.184 36.4105 231.184 37.0225V46H228.687V42.6655L229.173 43.0975C228.57 44.2135 227.8 45.046 226.864 45.595C225.937 46.135 224.794 46.405 223.435 46.405ZM223.935 44.0965C224.736 44.0965 225.424 43.957 226 43.678C226.576 43.39 227.04 43.0255 227.391 42.5845C227.742 42.1435 227.971 41.6845 228.079 41.2075C228.232 40.7755 228.318 40.2895 228.336 39.7495C228.363 39.2095 228.376 38.7775 228.376 38.4535L229.294 38.791C228.403 38.926 227.593 39.0475 226.864 39.1555C226.135 39.2635 225.474 39.3715 224.88 39.4795C224.295 39.5785 223.773 39.7 223.314 39.844C222.927 39.979 222.58 40.141 222.274 40.33C221.977 40.519 221.739 40.7485 221.559 41.0185C221.388 41.2885 221.302 41.617 221.302 42.004C221.302 42.382 221.397 42.733 221.586 43.057C221.775 43.372 222.063 43.624 222.45 43.813C222.837 44.002 223.332 44.0965 223.935 44.0965ZM244.383 46V38.8315C244.383 38.2645 244.333 37.684 244.234 37.09C244.144 36.487 243.964 35.929 243.694 35.416C243.433 34.903 243.06 34.489 242.574 34.174C242.097 33.859 241.471 33.7015 240.697 33.7015C240.193 33.7015 239.716 33.787 239.266 33.958C238.816 34.12 238.42 34.3855 238.078 34.7545C237.745 35.1235 237.48 35.6095 237.282 36.2125C237.093 36.8155 236.998 37.549 236.998 38.413L235.243 37.7515C235.243 36.4285 235.491 35.263 235.986 34.255C236.481 33.238 237.192 32.446 238.119 31.879C239.046 31.312 240.166 31.0285 241.48 31.0285C242.488 31.0285 243.334 31.1905 244.018 31.5145C244.702 31.8385 245.256 32.266 245.679 32.797C246.111 33.319 246.439 33.8905 246.664 34.5115C246.889 35.1325 247.042 35.74 247.123 36.334C247.204 36.928 247.245 37.45 247.245 37.9V46H244.383ZM234.136 46V31.42H236.661V35.632H236.998V46H234.136ZM258.564 46C257.646 46.18 256.746 46.2565 255.864 46.2295C254.982 46.2025 254.195 46.0315 253.502 45.7165C252.809 45.4015 252.287 44.9065 251.936 44.2315C251.621 43.6285 251.45 43.0165 251.423 42.3955C251.405 41.7655 251.396 41.0545 251.396 40.2625V27.37H254.231V40.1275C254.231 40.7125 254.235 41.221 254.244 41.653C254.262 42.085 254.357 42.4495 254.528 42.7465C254.852 43.3045 255.365 43.624 256.067 43.705C256.778 43.777 257.61 43.7455 258.564 43.6105V46ZM248.601 33.688V31.42H258.564V33.688H248.601ZM270.878 26.56H273.726L268.542 46H265.694L270.878 26.56ZM281.574 46V26.56H284.125L291.172 41.1805L298.179 26.56H300.757V45.9865H298.084V32.689L291.807 46H290.524L284.233 32.689V46H281.574ZM309.494 46.3915C308.486 46.3915 307.64 46.2295 306.956 45.9055C306.272 45.5815 305.714 45.1585 305.282 44.6365C304.859 44.1055 304.535 43.5295 304.31 42.9085C304.085 42.2875 303.932 41.68 303.851 41.086C303.77 40.492 303.73 39.97 303.73 39.52V31.42H306.592V38.5885C306.592 39.1555 306.637 39.7405 306.727 40.3435C306.826 40.9375 307.006 41.491 307.267 42.004C307.537 42.517 307.91 42.931 308.387 43.246C308.873 43.561 309.503 43.7185 310.277 43.7185C310.781 43.7185 311.258 43.6375 311.708 43.4755C312.158 43.3045 312.55 43.0345 312.883 42.6655C313.225 42.2965 313.49 41.8105 313.679 41.2075C313.877 40.6045 313.976 39.871 313.976 39.007L315.731 39.6685C315.731 40.9915 315.484 42.1615 314.989 43.1785C314.494 44.1865 313.783 44.974 312.856 45.541C311.929 46.108 310.808 46.3915 309.494 46.3915ZM314.314 46V41.788H313.976V31.42H316.825V46H314.314ZM320.341 46V26.155H323.163V46H320.341ZM335.02 46C334.102 46.18 333.202 46.2565 332.32 46.2295C331.438 46.2025 330.65 46.0315 329.957 45.7165C329.264 45.4015 328.742 44.9065 328.391 44.2315C328.076 43.6285 327.905 43.0165 327.878 42.3955C327.86 41.7655 327.851 41.0545 327.851 40.2625V27.37H330.686V40.1275C330.686 40.7125 330.691 41.221 330.7 41.653C330.718 42.085 330.812 42.4495 330.983 42.7465C331.307 43.3045 331.82 43.624 332.522 43.705C333.233 43.777 334.066 43.7455 335.02 43.6105V46ZM325.057 33.688V31.42H335.02V33.688H325.057ZM337.824 29.0305V26.29H340.645V29.0305H337.824ZM337.824 46V31.42H340.645V46H337.824ZM343.889 38.6155V36.3475H351.989V38.6155H343.889ZM362.004 46.405C360.609 46.405 359.349 46.1665 358.224 45.6895C357.108 45.2035 356.186 44.515 355.457 43.624C354.737 42.724 354.269 41.6575 354.053 40.4245L356.996 39.979C357.293 41.167 357.914 42.094 358.859 42.76C359.804 43.417 360.906 43.7455 362.166 43.7455C362.949 43.7455 363.669 43.624 364.326 43.381C364.983 43.129 365.51 42.7735 365.906 42.3145C366.311 41.8465 366.513 41.2885 366.513 40.6405C366.513 40.2895 366.45 39.979 366.324 39.709C366.207 39.439 366.041 39.205 365.825 39.007C365.618 38.8 365.361 38.6245 365.055 38.4805C364.758 38.3275 364.43 38.197 364.07 38.089L359.088 36.6175C358.602 36.4735 358.107 36.289 357.603 36.064C357.099 35.83 356.636 35.5285 356.213 35.1595C355.799 34.7815 355.461 34.318 355.2 33.769C354.939 33.211 354.809 32.536 354.809 31.744C354.809 30.547 355.115 29.5345 355.727 28.7065C356.348 27.8695 357.185 27.2395 358.238 26.8165C359.291 26.3845 360.47 26.1685 361.775 26.1685C363.089 26.1865 364.263 26.4205 365.298 26.8705C366.342 27.3205 367.206 27.9685 367.89 28.8145C368.583 29.6515 369.06 30.6685 369.321 31.8655L366.297 32.3785C366.162 31.6495 365.874 31.024 365.433 30.502C364.992 29.971 364.452 29.566 363.813 29.287C363.174 28.999 362.481 28.8505 361.734 28.8415C361.014 28.8235 360.353 28.9315 359.75 29.1655C359.156 29.3995 358.679 29.728 358.319 30.151C357.968 30.574 357.792 31.06 357.792 31.609C357.792 32.149 357.95 32.5855 358.265 32.9185C358.58 33.2515 358.967 33.517 359.426 33.715C359.894 33.904 360.357 34.0615 360.816 34.1875L364.407 35.2C364.857 35.326 365.366 35.497 365.933 35.713C366.509 35.92 367.062 36.2125 367.593 36.5905C368.133 36.9685 368.579 37.4725 368.93 38.1025C369.281 38.7235 369.456 39.5065 369.456 40.4515C369.456 41.4325 369.258 42.2965 368.862 43.0435C368.466 43.7815 367.922 44.4025 367.229 44.9065C366.545 45.4015 365.753 45.775 364.853 46.027C363.953 46.279 363.003 46.405 362.004 46.405ZM372.063 29.0305V26.29H374.885V29.0305H372.063ZM372.063 46V31.42H374.885V46H372.063ZM386.742 46C385.824 46.18 384.924 46.2565 384.042 46.2295C383.16 46.2025 382.372 46.0315 381.679 45.7165C380.986 45.4015 380.464 44.9065 380.113 44.2315C379.798 43.6285 379.627 43.0165 379.6 42.3955C379.582 41.7655 379.573 41.0545 379.573 40.2625V27.37H382.408V40.1275C382.408 40.7125 382.413 41.221 382.422 41.653C382.44 42.085 382.534 42.4495 382.705 42.7465C383.029 43.3045 383.542 43.624 384.244 43.705C384.955 43.777 385.788 43.7455 386.742 43.6105V46ZM376.779 33.688V31.42H386.742V33.688H376.779ZM395.056 46.405C393.607 46.405 392.334 46.09 391.236 45.46C390.147 44.821 389.296 43.9345 388.684 42.8005C388.081 41.6575 387.78 40.3345 387.78 38.8315C387.78 37.2385 388.077 35.857 388.671 34.687C389.274 33.517 390.111 32.6125 391.182 31.9735C392.253 31.3345 393.499 31.015 394.921 31.015C396.406 31.015 397.671 31.3615 398.715 32.0545C399.759 32.7385 400.537 33.715 401.05 34.984C401.572 36.253 401.779 37.7605 401.671 39.5065H398.85V38.4805C398.832 36.7885 398.508 35.5375 397.878 34.7275C397.257 33.9175 396.307 33.5125 395.029 33.5125C393.616 33.5125 392.554 33.958 391.843 34.849C391.132 35.74 390.777 37.027 390.777 38.71C390.777 40.312 391.132 41.554 391.843 42.436C392.554 43.309 393.58 43.7455 394.921 43.7455C395.803 43.7455 396.564 43.5475 397.203 43.1515C397.851 42.7465 398.355 42.1705 398.715 41.4235L401.482 42.301C400.915 43.606 400.056 44.6185 398.904 45.3385C397.752 46.0495 396.469 46.405 395.056 46.405ZM389.859 39.5065V37.306H400.267V39.5065H389.859ZM409.026 46V26.56H416.883C417.072 26.56 417.306 26.569 417.585 26.587C417.864 26.596 418.129 26.623 418.381 26.668C419.461 26.839 420.361 27.208 421.081 27.775C421.81 28.342 422.355 29.0575 422.715 29.9215C423.075 30.7855 423.255 31.7395 423.255 32.7835C423.255 34.3315 422.859 35.668 422.067 36.793C421.275 37.909 420.087 38.6065 418.503 38.8855L417.355 39.0205H411.847V46H409.026ZM420.393 46L416.559 38.089L419.407 37.36L423.619 46H420.393ZM411.847 36.3475H416.775C416.955 36.3475 417.153 36.3385 417.369 36.3205C417.594 36.3025 417.805 36.271 418.003 36.226C418.579 36.091 419.043 35.8435 419.394 35.4835C419.745 35.1145 419.997 34.6915 420.15 34.2145C420.303 33.7375 420.379 33.2605 420.379 32.7835C420.379 32.3065 420.303 31.834 420.15 31.366C419.997 30.889 419.745 30.4705 419.394 30.1105C419.043 29.7415 418.579 29.4895 418.003 29.3545C417.805 29.3005 417.594 29.2645 417.369 29.2465C417.153 29.2285 416.955 29.2195 416.775 29.2195H411.847V36.3475ZM432.513 46.405C431.064 46.405 429.79 46.09 428.692 45.46C427.603 44.821 426.753 43.9345 426.141 42.8005C425.538 41.6575 425.236 40.3345 425.236 38.8315C425.236 37.2385 425.533 35.857 426.127 34.687C426.73 33.517 427.567 32.6125 428.638 31.9735C429.709 31.3345 430.956 31.015 432.378 31.015C433.863 31.015 435.127 31.3615 436.171 32.0545C437.215 32.7385 437.994 33.715 438.507 34.984C439.029 36.253 439.236 37.7605 439.128 39.5065H436.306V38.4805C436.288 36.7885 435.964 35.5375 435.334 34.7275C434.713 33.9175 433.764 33.5125 432.486 33.5125C431.073 33.5125 430.011 33.958 429.3 34.849C428.589 35.74 428.233 37.027 428.233 38.71C428.233 40.312 428.589 41.554 429.3 42.436C430.011 43.309 431.037 43.7455 432.378 43.7455C433.26 43.7455 434.02 43.5475 434.659 43.1515C435.307 42.7465 435.811 42.1705 436.171 41.4235L438.939 42.301C438.372 43.606 437.512 44.6185 436.36 45.3385C435.208 46.0495 433.926 46.405 432.513 46.405ZM427.315 39.5065V37.306H437.724V39.5065H427.315ZM445.47 46.405C444.39 46.405 443.486 46.207 442.757 45.811C442.028 45.406 441.474 44.875 441.096 44.218C440.727 43.552 440.543 42.823 440.543 42.031C440.543 41.293 440.673 40.645 440.934 40.087C441.195 39.529 441.582 39.0565 442.095 38.6695C442.608 38.2735 443.238 37.954 443.985 37.711C444.633 37.522 445.367 37.3555 446.186 37.2115C447.005 37.0675 447.864 36.9325 448.764 36.8065C449.673 36.6805 450.573 36.5545 451.464 36.4285L450.438 36.9955C450.456 35.8525 450.213 35.0065 449.709 34.4575C449.214 33.8995 448.359 33.6205 447.144 33.6205C446.379 33.6205 445.677 33.8005 445.038 34.1605C444.399 34.5115 443.954 35.0965 443.702 35.9155L441.069 35.1055C441.429 33.8545 442.113 32.86 443.121 32.122C444.138 31.384 445.488 31.015 447.171 31.015C448.476 31.015 449.61 31.24 450.573 31.69C451.545 32.131 452.256 32.833 452.706 33.796C452.94 34.273 453.084 34.777 453.138 35.308C453.192 35.839 453.219 36.4105 453.219 37.0225V46H450.722V42.6655L451.208 43.0975C450.605 44.2135 449.835 45.046 448.899 45.595C447.972 46.135 446.829 46.405 445.47 46.405ZM445.97 44.0965C446.771 44.0965 447.459 43.957 448.035 43.678C448.611 43.39 449.075 43.0255 449.426 42.5845C449.777 42.1435 450.006 41.6845 450.114 41.2075C450.267 40.7755 450.353 40.2895 450.371 39.7495C450.398 39.2095 450.411 38.7775 450.411 38.4535L451.329 38.791C450.438 38.926 449.628 39.0475 448.899 39.1555C448.17 39.2635 447.509 39.3715 446.915 39.4795C446.33 39.5785 445.808 39.7 445.349 39.844C444.962 39.979 444.615 40.141 444.309 40.33C444.012 40.519 443.774 40.7485 443.594 41.0185C443.423 41.2885 443.337 41.617 443.337 42.004C443.337 42.382 443.432 42.733 443.621 43.057C443.81 43.372 444.098 43.624 444.485 43.813C444.872 44.002 445.367 44.0965 445.97 44.0965ZM461.976 46.405C460.617 46.405 459.443 46.0675 458.453 45.3925C457.472 44.7175 456.711 43.7995 456.171 42.6385C455.64 41.4685 455.375 40.1545 455.375 38.6965C455.375 37.2295 455.645 35.92 456.185 34.768C456.725 33.607 457.49 32.6935 458.48 32.0275C459.479 31.3525 460.662 31.015 462.03 31.015C463.407 31.015 464.564 31.3525 465.5 32.0275C466.445 32.6935 467.156 33.607 467.633 34.768C468.119 35.929 468.362 37.2385 468.362 38.6965C468.362 40.1545 468.119 41.464 467.633 42.625C467.147 43.786 466.431 44.7085 465.486 45.3925C464.541 46.0675 463.371 46.405 461.976 46.405ZM462.368 43.8535C463.295 43.8535 464.051 43.633 464.636 43.192C465.221 42.751 465.648 42.1435 465.918 41.3695C466.188 40.5955 466.323 39.7045 466.323 38.6965C466.323 37.6885 466.184 36.7975 465.905 36.0235C465.635 35.2495 465.212 34.6465 464.636 34.2145C464.069 33.7825 463.344 33.5665 462.462 33.5665C461.526 33.5665 460.757 33.796 460.154 34.255C459.551 34.714 459.101 35.3305 458.804 36.1045C458.516 36.8785 458.372 37.7425 458.372 38.6965C458.372 39.6595 458.516 40.5325 458.804 41.3155C459.101 42.0895 459.542 42.706 460.127 43.165C460.721 43.624 461.468 43.8535 462.368 43.8535ZM466.323 46V35.5105H465.999V26.56H468.834V46H466.323ZM474.043 52.48L476.864 44.7985L476.905 47.0665L470.546 31.42H473.489L478.241 43.5025H477.377L481.913 31.42H484.775L476.729 52.48H474.043Z" fill="white"/>
<g filter="url(#filter0_d_507_166)">
<rect width="131" height="128" rx="21" transform="matrix(-1 0 0 1 790 77)" fill="white"/>
<rect x="-0.5" y="0.5" width="130" height="127" rx="20.5" transform="matrix(-1 0 0 1 789 77)" stroke="#000B37"/>
</g>
<path fill-rule="evenodd" clip-rule="evenodd" d="M678.848 163.564C678.848 173.858 686.445 179 694.081 179C701.676 179 709.275 173.858 709.275 163.564C709.275 153.27 701.676 148.127 694.081 148.127C686.445 148.127 678.848 153.27 678.848 163.564ZM684.838 163.564C684.838 157.323 689.439 154.239 694.081 154.239C698.685 154.239 703.325 157.323 703.325 163.564C703.325 169.804 698.685 172.889 694.081 172.889C689.439 172.889 684.838 169.804 684.838 163.564Z" fill="#324086"/>
<path fill-rule="evenodd" clip-rule="evenodd" d="M757.32 166.563H767.058C767.615 166.563 768.068 166.111 768.068 165.554V161.574C768.068 161.017 767.615 160.564 767.058 160.564H757.32V154.68C757.32 154.509 757.359 154.362 757.457 154.264C757.556 154.166 757.702 154.126 757.874 154.126H770.226C770.586 154.126 770.871 153.996 771.074 153.793C771.276 153.591 771.406 153.306 771.406 152.946V149.308C771.406 148.948 771.276 148.663 771.074 148.46C770.871 148.258 770.586 148.127 770.226 148.127H752.163C751.803 148.127 751.518 148.258 751.315 148.46C751.113 148.663 750.982 148.948 750.982 149.308V177.82C750.982 178.18 751.113 178.465 751.315 178.667C751.518 178.87 751.803 179 752.163 179H770.226C770.586 179 770.871 178.87 771.074 178.667C771.276 178.465 771.406 178.18 771.406 177.82V174.182C771.406 173.822 771.276 173.536 771.074 173.334C770.871 173.132 770.586 173.001 770.226 173.001H757.874C757.702 173.001 757.556 172.962 757.458 172.864C757.359 172.765 757.32 172.619 757.32 172.447V166.563Z" fill="#324086"/>
<path fill-rule="evenodd" clip-rule="evenodd" d="M759.434 127.049C759.47 127.086 759.512 127.132 759.545 127.176C759.546 127.178 764.901 135.737 764.901 135.737C765.183 136.22 765.732 136.508 766.287 136.508H771.11C771.54 136.508 771.814 136.31 771.952 136.08C772.086 135.856 772.15 135.518 771.911 135.099C771.907 135.092 771.903 135.085 771.898 135.078L763.565 121.752C763.563 121.75 763.562 121.748 763.56 121.745C763.307 121.352 763.307 120.79 763.56 120.397C763.562 120.395 763.563 120.392 763.565 120.39L771.898 107.065C771.903 107.058 771.907 107.05 771.911 107.043C772.15 106.624 772.086 106.287 771.952 106.062C771.814 105.832 771.54 105.635 771.11 105.635H766.287C765.73 105.635 765.179 105.925 764.898 106.411C764.901 106.405 759.546 114.965 759.546 114.965C759.513 115.009 759.47 115.056 759.434 115.093C759.399 115.056 759.357 115.01 759.324 114.967C759.322 114.965 753.967 106.405 753.967 106.405C753.685 105.923 753.137 105.635 752.581 105.635H747.759C747.268 105.635 747.008 105.86 746.885 106.09C746.77 106.307 746.726 106.638 746.958 107.043C746.962 107.05 746.966 107.058 746.97 107.065L755.304 120.39C755.305 120.392 755.307 120.395 755.308 120.397C755.561 120.79 755.561 121.352 755.308 121.745C755.307 121.748 755.305 121.75 755.304 121.752L746.97 135.078C746.966 135.085 746.962 135.092 746.958 135.099C746.726 135.504 746.77 135.835 746.885 136.052C747.008 136.282 747.268 136.508 747.759 136.508H752.581C753.139 136.508 753.689 136.218 753.971 135.732C753.967 135.737 759.322 127.178 759.322 127.178C759.356 127.133 759.398 127.086 759.434 127.049Z" fill="#324086"/>
<path fill-rule="evenodd" clip-rule="evenodd" d="M717.52 121.071C717.52 129.086 722.808 137.142 733.421 137.142C737.265 137.142 739.828 136.206 742.214 134.354C742.739 133.989 742.851 133.276 742.491 132.735C742.486 132.728 742.482 132.722 742.477 132.715L740.156 129.508C739.96 129.22 739.683 129.064 739.39 129.028C739.109 128.992 738.798 129.067 738.517 129.301C738.517 129.301 738.517 129.301 738.517 129.301C737.578 130.084 736.007 130.847 733.464 130.847C727.213 130.847 724.1 125.953 724.1 121.071C724.1 116.189 727.213 111.295 733.464 111.295C735.551 111.295 737.324 112.083 738.505 112.95C738.508 112.951 738.51 112.953 738.512 112.954C738.825 113.178 739.126 113.235 739.394 113.19C739.663 113.145 739.929 112.994 740.153 112.681C740.154 112.679 740.155 112.678 740.156 112.676L742.44 109.419C742.443 109.415 742.446 109.411 742.449 109.407C742.82 108.85 742.759 108.119 742.11 107.748C739.435 106.213 736.492 105 733.421 105C722.808 105 717.52 113.012 717.52 121.071Z" fill="#324086"/>
<path fill-rule="evenodd" clip-rule="evenodd" d="M686.471 121.335L694.252 134.426C694.534 134.917 695.038 135.247 695.6 135.247H696.193C696.755 135.247 697.259 134.916 697.541 134.426L705.313 121.281L707.54 135.417C707.628 136.085 708.128 136.508 708.799 136.508H712.691C713.084 136.508 713.366 136.354 713.55 136.133C713.726 135.922 713.828 135.624 713.782 135.249C713.781 135.247 713.781 135.244 713.781 135.242L710.306 106.688C710.306 106.686 710.306 106.685 710.306 106.683C710.218 106.074 709.786 105.635 709.089 105.635H706.688C706.372 105.635 706.035 105.811 705.825 106.127C705.812 106.146 705.8 106.167 705.789 106.187L695.896 125.336L686.047 106.273C685.865 105.916 685.426 105.635 684.978 105.635H682.45C681.989 105.635 681.615 105.947 681.5 106.408C681.494 106.431 681.49 106.454 681.487 106.477L678.012 135.243C678.012 135.245 678.012 135.247 678.011 135.249C677.965 135.624 678.067 135.921 678.243 136.133C678.427 136.354 678.709 136.508 679.102 136.508H682.994C683.667 136.508 684.167 136.082 684.253 135.411L686.471 121.335Z" fill="#324086"/>
<path fill-rule="evenodd" clip-rule="evenodd" d="M722.221 160.223C723.838 161.861 725.477 163.498 727.126 165.14C731.076 169.137 735.465 173.574 739.383 177.693C742.303 180.764 744.648 177.765 744.648 175.432C744.648 171.336 744.691 166.038 744.717 163.198C744.723 162.458 744.393 162.364 744.101 163.044C742.289 167.253 739.482 168.235 737.529 166.905C735.912 165.266 734.273 163.629 732.624 161.988C728.674 157.991 724.285 153.553 720.367 149.434C717.446 146.364 715.102 149.362 715.102 151.696C715.102 155.792 715.059 161.09 715.033 163.93C715.027 164.67 715.357 164.764 715.649 164.084C717.461 159.874 720.268 158.892 722.221 160.223Z" fill="#324086"/>
<path fill-rule="evenodd" clip-rule="evenodd" d="M719.156 170.753C716.879 170.753 715.033 172.599 715.033 174.876C715.033 177.154 716.879 179 719.156 179C721.433 179 723.279 177.154 723.279 174.876C723.279 172.599 721.433 170.753 719.156 170.753Z" fill="#E8B25A"/>
<path fill-rule="evenodd" clip-rule="evenodd" d="M740.596 148.127C738.319 148.127 736.473 149.973 736.473 152.251C736.473 154.528 738.319 156.374 740.596 156.374C742.873 156.374 744.719 154.528 744.719 152.251C744.719 149.973 742.873 148.127 740.596 148.127Z" fill="#BA3350"/>
<path d="M654.75 139.25C655.716 139.25 656.5 140.034 656.5 141C656.5 141.966 655.716 142.75 654.75 142.75V139.25ZM521.333 36C521.333 41.1547 517.155 45.3333 512 45.3333C506.845 45.3333 502.667 41.1547 502.667 36C502.667 30.8453 506.845 26.6667 512 26.6667C517.155 26.6667 521.333 30.8453 521.333 36ZM654.75 141V142.75C630.396 142.75 615.012 136.075 604.241 125.864C593.563 115.74 587.593 102.277 581.776 89.2118C575.906 76.0269 570.188 63.2397 560.101 53.6762C550.105 44.2 535.646 37.75 512 37.75V36V34.25C536.354 34.25 551.738 40.925 562.509 51.1363C573.187 61.2603 579.157 74.7231 584.974 87.7882C590.844 100.973 596.562 113.76 606.649 123.324C616.645 132.8 631.104 139.25 654.75 139.25V141Z" fill="#FF4E46"/>
<path d="M654.75 139.25C655.716 139.25 656.5 140.034 656.5 141C656.5 141.966 655.716 142.75 654.75 142.75V139.25ZM522.333 248C522.333 253.155 518.155 257.333 513 257.333C507.845 257.333 503.667 253.155 503.667 248C503.667 242.845 507.845 238.667 513 238.667C518.155 238.667 522.333 242.845 522.333 248ZM654.75 141V142.75C631.112 142.75 616.724 149.319 606.823 158.972C596.827 168.717 591.23 181.751 585.484 195.188C579.792 208.501 573.952 222.217 563.37 232.534C552.693 242.944 537.362 249.75 513 249.75V248V246.25C536.638 246.25 551.026 239.681 560.927 230.028C570.923 220.283 576.52 207.249 582.266 193.812C587.958 180.499 593.798 166.783 604.38 156.466C615.057 146.056 630.388 139.25 654.75 139.25V141Z" fill="#00B4D8"/>
<path d="M654.75 139.25C655.716 139.25 656.5 140.034 656.5 141C656.5 141.966 655.716 142.75 654.75 142.75V139.25ZM523.333 142C523.333 147.155 519.155 151.333 514 151.333C508.845 151.333 504.667 147.155 504.667 142C504.667 136.845 508.845 132.667 514 132.667C519.155 132.667 523.333 136.845 523.333 142ZM654.75 141V142.75C606.758 142.75 595.584 143 584.414 143.25C573.209 143.5 562.008 143.75 514 143.75V142V140.25C561.992 140.25 573.166 140 584.336 139.75C595.541 139.5 606.742 139.25 654.75 139.25V141Z" fill="#FDC500"/>
<defs>
<filter id="filter0_d_507_166" x="627" y="45" width="195" height="192" filterUnits="userSpaceOnUse" color-interpolation-filters="sRGB">
<feFlood flood-opacity="0" result="BackgroundImageFix"/>
<feColorMatrix in="SourceAlpha" type="matrix" values="0 0 0 0 0 0 0 0 0 0 0 0 0 0 0 0 0 0 127 0" result="hardAlpha"/>
<feMorphology radius="8" operator="dilate" in="SourceAlpha" result="effect1_dropShadow_507_166"/>
<feOffset/>
<feGaussianBlur stdDeviation="12"/>
<feComposite in2="hardAlpha" operator="out"/>
<feColorMatrix type="matrix" values="0 0 0 0 0 0 0 0 0 0 0 0 0 0 0 0 0 0 0.21 0"/>
<feBlend mode="normal" in2="BackgroundImageFix" result="effect1_dropShadow_507_166"/>
<feBlend mode="normal" in="SourceGraphic" in2="effect1_dropShadow_507_166" result="shape"/>
</filter>
</defs>
</svg>
