<svg width="844" height="284" viewBox="0 0 844 284" fill="none" xmlns="http://www.w3.org/2000/svg">
<rect x="307.25" y="214.25" width="534.5" height="67.5" rx="33.75" stroke="white" stroke-opacity="0.42" stroke-width="3.5"/>
<path d="M342.008 258L336.365 238.56H339.321L343.412 253.261L347.502 238.573L350.472 238.56L354.563 253.261L358.653 238.56H361.623L355.967 258H353.159L348.987 243.46L344.816 258H342.008ZM368.071 258.405C366.613 258.405 365.349 258.077 364.278 257.419C363.207 256.762 362.379 255.858 361.794 254.706C361.218 253.545 360.93 252.208 360.93 250.696C360.93 249.175 361.227 247.839 361.821 246.687C362.415 245.526 363.247 244.626 364.318 243.987C365.389 243.339 366.64 243.015 368.071 243.015C369.529 243.015 370.794 243.343 371.865 244C372.936 244.657 373.764 245.562 374.349 246.714C374.934 247.866 375.226 249.193 375.226 250.696C375.226 252.217 374.929 253.558 374.335 254.719C373.75 255.871 372.922 256.776 371.851 257.433C370.78 258.081 369.52 258.405 368.071 258.405ZM368.071 255.745C369.466 255.745 370.506 255.277 371.19 254.341C371.883 253.396 372.229 252.181 372.229 250.696C372.229 249.175 371.878 247.96 371.176 247.051C370.483 246.133 369.448 245.674 368.071 245.674C367.126 245.674 366.348 245.89 365.736 246.322C365.124 246.745 364.669 247.335 364.372 248.091C364.075 248.838 363.927 249.706 363.927 250.696C363.927 252.226 364.278 253.45 364.98 254.368C365.682 255.286 366.712 255.745 368.071 255.745ZM377.653 258V243.42H380.164V246.957L379.813 246.498C379.993 246.03 380.227 245.602 380.515 245.215C380.803 244.819 381.136 244.495 381.514 244.243C381.883 243.973 382.292 243.766 382.742 243.622C383.201 243.469 383.669 243.379 384.146 243.352C384.623 243.316 385.082 243.339 385.523 243.42V246.066C385.046 245.94 384.515 245.904 383.93 245.958C383.354 246.012 382.823 246.196 382.337 246.511C381.878 246.808 381.514 247.168 381.244 247.591C380.983 248.014 380.794 248.487 380.677 249.009C380.56 249.522 380.501 250.066 380.501 250.642V258H377.653ZM387.541 258L387.554 238.56H390.416V250.44L396.14 243.42H399.731L393.683 250.71L400.352 258H396.518L390.416 250.98V258H387.541ZM406.485 258.392C404.712 258.392 403.268 258 402.152 257.217C401.036 256.434 400.352 255.331 400.1 253.909L402.989 253.464C403.169 254.22 403.583 254.818 404.231 255.259C404.888 255.691 405.702 255.907 406.674 255.907C407.556 255.907 408.245 255.727 408.74 255.367C409.244 255.007 409.496 254.512 409.496 253.882C409.496 253.513 409.406 253.216 409.226 252.991C409.055 252.757 408.69 252.537 408.132 252.33C407.574 252.123 406.724 251.866 405.581 251.56C404.33 251.236 403.335 250.89 402.597 250.521C401.868 250.143 401.346 249.706 401.031 249.211C400.725 248.707 400.572 248.1 400.572 247.389C400.572 246.507 400.806 245.737 401.274 245.08C401.742 244.423 402.399 243.915 403.245 243.555C404.1 243.195 405.099 243.015 406.242 243.015C407.358 243.015 408.353 243.19 409.226 243.541C410.099 243.892 410.805 244.392 411.345 245.04C411.885 245.679 412.209 246.43 412.317 247.294L409.428 247.821C409.329 247.119 409.001 246.565 408.443 246.16C407.885 245.755 407.16 245.535 406.269 245.499C405.414 245.463 404.721 245.607 404.19 245.931C403.659 246.246 403.394 246.682 403.394 247.24C403.394 247.564 403.493 247.839 403.691 248.064C403.898 248.289 404.294 248.505 404.879 248.712C405.464 248.919 406.328 249.166 407.471 249.454C408.695 249.769 409.667 250.12 410.387 250.507C411.107 250.885 411.62 251.34 411.926 251.871C412.241 252.393 412.398 253.027 412.398 253.774C412.398 255.214 411.872 256.344 410.819 257.163C409.775 257.982 408.33 258.392 406.485 258.392ZM426.042 258.405C424.584 258.405 423.32 258.077 422.249 257.419C421.178 256.762 420.35 255.858 419.765 254.706C419.189 253.545 418.901 252.208 418.901 250.696C418.901 249.175 419.198 247.839 419.792 246.687C420.386 245.526 421.218 244.626 422.289 243.987C423.36 243.339 424.611 243.015 426.042 243.015C427.5 243.015 428.765 243.343 429.836 244C430.907 244.657 431.735 245.562 432.32 246.714C432.905 247.866 433.197 249.193 433.197 250.696C433.197 252.217 432.9 253.558 432.306 254.719C431.721 255.871 430.893 256.776 429.822 257.433C428.751 258.081 427.491 258.405 426.042 258.405ZM426.042 255.745C427.437 255.745 428.477 255.277 429.161 254.341C429.854 253.396 430.2 252.181 430.2 250.696C430.2 249.175 429.849 247.96 429.147 247.051C428.454 246.133 427.419 245.674 426.042 245.674C425.097 245.674 424.319 245.89 423.707 246.322C423.095 246.745 422.64 247.335 422.343 248.091C422.046 248.838 421.898 249.706 421.898 250.696C421.898 252.226 422.249 253.45 422.951 254.368C423.653 255.286 424.683 255.745 426.042 255.745ZM445.857 258V250.831C445.857 250.264 445.807 249.684 445.708 249.09C445.618 248.487 445.438 247.929 445.168 247.416C444.907 246.903 444.534 246.489 444.048 246.174C443.571 245.859 442.945 245.701 442.171 245.701C441.667 245.701 441.19 245.787 440.74 245.958C440.29 246.12 439.894 246.385 439.552 246.754C439.219 247.123 438.954 247.609 438.756 248.212C438.567 248.815 438.472 249.549 438.472 250.413L436.717 249.751C436.717 248.428 436.965 247.263 437.46 246.255C437.955 245.238 438.666 244.446 439.593 243.879C440.52 243.312 441.64 243.028 442.954 243.028C443.962 243.028 444.808 243.19 445.492 243.514C446.176 243.838 446.73 244.266 447.153 244.797C447.585 245.319 447.913 245.89 448.138 246.511C448.363 247.132 448.516 247.74 448.597 248.334C448.678 248.928 448.719 249.45 448.719 249.9V258H445.857ZM435.61 258V243.42H438.135V247.632H438.472V258H435.61ZM456.56 258V238.56H464.417C464.606 238.56 464.84 238.569 465.119 238.587C465.398 238.596 465.664 238.623 465.916 238.668C466.996 238.839 467.896 239.208 468.616 239.775C469.345 240.342 469.889 241.057 470.249 241.921C470.609 242.785 470.789 243.739 470.789 244.783C470.789 245.836 470.609 246.795 470.249 247.659C469.889 248.523 469.345 249.238 468.616 249.805C467.896 250.372 466.996 250.741 465.916 250.912C465.664 250.948 465.394 250.975 465.106 250.993C464.827 251.011 464.597 251.02 464.417 251.02H459.382V258H456.56ZM459.382 248.347H464.309C464.489 248.347 464.687 248.338 464.903 248.32C465.128 248.302 465.34 248.271 465.538 248.226C466.114 248.091 466.577 247.843 466.928 247.483C467.279 247.114 467.531 246.691 467.684 246.214C467.837 245.737 467.914 245.26 467.914 244.783C467.914 244.306 467.837 243.834 467.684 243.366C467.531 242.889 467.279 242.47 466.928 242.11C466.577 241.741 466.114 241.489 465.538 241.354C465.34 241.3 465.128 241.264 464.903 241.246C464.687 241.228 464.489 241.219 464.309 241.219H459.382V248.347ZM472.948 258V243.42H475.459V246.957L475.108 246.498C475.288 246.03 475.522 245.602 475.81 245.215C476.098 244.819 476.431 244.495 476.809 244.243C477.178 243.973 477.588 243.766 478.038 243.622C478.497 243.469 478.965 243.379 479.442 243.352C479.919 243.316 480.378 243.339 480.819 243.42V246.066C480.342 245.94 479.811 245.904 479.226 245.958C478.65 246.012 478.119 246.196 477.633 246.511C477.174 246.808 476.809 247.168 476.539 247.591C476.278 248.014 476.089 248.487 475.972 249.009C475.855 249.522 475.797 250.066 475.797 250.642V258H472.948ZM483.119 241.03V238.29H485.941V241.03H483.119ZM483.119 258V243.42H485.941V258H483.119ZM493.397 258L488.105 243.42H490.953L494.828 254.463L498.702 243.42H501.551L496.259 258H493.397ZM506.743 258.405C505.663 258.405 504.759 258.207 504.03 257.811C503.301 257.406 502.747 256.875 502.369 256.218C502 255.552 501.816 254.823 501.816 254.031C501.816 253.293 501.946 252.645 502.207 252.087C502.468 251.529 502.855 251.056 503.368 250.669C503.881 250.273 504.511 249.954 505.258 249.711C505.906 249.522 506.64 249.355 507.459 249.211C508.278 249.067 509.137 248.932 510.037 248.806C510.946 248.68 511.846 248.554 512.737 248.428L511.711 248.995C511.729 247.852 511.486 247.006 510.982 246.457C510.487 245.899 509.632 245.62 508.417 245.62C507.652 245.62 506.95 245.8 506.311 246.16C505.672 246.511 505.227 247.096 504.975 247.915L502.342 247.105C502.702 245.854 503.386 244.86 504.394 244.122C505.411 243.384 506.761 243.015 508.444 243.015C509.749 243.015 510.883 243.24 511.846 243.69C512.818 244.131 513.529 244.833 513.979 245.796C514.213 246.273 514.357 246.777 514.411 247.308C514.465 247.839 514.492 248.41 514.492 249.022V258H511.995V254.665L512.481 255.097C511.878 256.213 511.108 257.046 510.172 257.595C509.245 258.135 508.102 258.405 506.743 258.405ZM507.243 256.096C508.044 256.096 508.732 255.957 509.308 255.678C509.884 255.39 510.348 255.025 510.699 254.584C511.05 254.143 511.279 253.684 511.387 253.207C511.54 252.775 511.626 252.289 511.644 251.749C511.671 251.209 511.684 250.777 511.684 250.453L512.602 250.791C511.711 250.926 510.901 251.047 510.172 251.155C509.443 251.263 508.782 251.371 508.188 251.479C507.603 251.578 507.081 251.7 506.622 251.844C506.235 251.979 505.888 252.141 505.582 252.33C505.285 252.519 505.047 252.748 504.867 253.018C504.696 253.288 504.61 253.617 504.61 254.004C504.61 254.382 504.705 254.733 504.894 255.057C505.083 255.372 505.371 255.624 505.758 255.813C506.145 256.002 506.64 256.096 507.243 256.096ZM525.801 258C524.883 258.18 523.983 258.257 523.101 258.23C522.219 258.203 521.431 258.031 520.738 257.716C520.045 257.401 519.523 256.906 519.172 256.231C518.857 255.628 518.686 255.016 518.659 254.395C518.641 253.765 518.632 253.054 518.632 252.262V239.37H521.467V252.127C521.467 252.712 521.472 253.221 521.481 253.653C521.499 254.085 521.593 254.449 521.764 254.746C522.088 255.304 522.601 255.624 523.303 255.705C524.014 255.777 524.847 255.745 525.801 255.61V258ZM515.838 245.688V243.42H525.801V245.688H515.838ZM534.116 258.405C532.667 258.405 531.393 258.09 530.295 257.46C529.206 256.821 528.356 255.934 527.744 254.8C527.141 253.657 526.839 252.334 526.839 250.831C526.839 249.238 527.136 247.857 527.73 246.687C528.333 245.517 529.17 244.612 530.241 243.973C531.312 243.334 532.559 243.015 533.981 243.015C535.466 243.015 536.73 243.361 537.774 244.055C538.818 244.738 539.597 245.715 540.11 246.984C540.632 248.253 540.839 249.76 540.731 251.506H537.909V250.48C537.891 248.788 537.567 247.537 536.937 246.727C536.316 245.917 535.367 245.512 534.089 245.512C532.676 245.512 531.614 245.958 530.903 246.849C530.192 247.74 529.836 249.027 529.836 250.71C529.836 252.312 530.192 253.554 530.903 254.436C531.614 255.309 532.64 255.745 533.981 255.745C534.863 255.745 535.623 255.547 536.262 255.151C536.91 254.746 537.414 254.17 537.774 253.423L540.542 254.301C539.975 255.606 539.115 256.618 537.963 257.338C536.811 258.049 535.529 258.405 534.116 258.405ZM528.918 251.506V249.306H539.327V251.506H528.918ZM552.999 238.56H555.847L550.663 258H547.815L552.999 238.56ZM571.809 258.405C569.865 258.405 568.209 257.982 566.841 257.136C565.473 256.281 564.424 255.093 563.695 253.572C562.975 252.051 562.615 250.287 562.615 248.28C562.615 246.273 562.975 244.509 563.695 242.988C564.424 241.467 565.473 240.283 566.841 239.437C568.209 238.582 569.865 238.155 571.809 238.155C574.05 238.155 575.904 238.722 577.371 239.856C578.847 240.99 579.873 242.515 580.449 244.433L577.587 245.202C577.209 243.843 576.534 242.776 575.562 242.002C574.599 241.228 573.348 240.841 571.809 240.841C570.432 240.841 569.284 241.152 568.366 241.773C567.448 242.394 566.755 243.262 566.287 244.378C565.828 245.494 565.599 246.795 565.599 248.28C565.59 249.765 565.815 251.065 566.274 252.181C566.742 253.297 567.435 254.166 568.353 254.787C569.28 255.408 570.432 255.718 571.809 255.718C573.348 255.718 574.599 255.331 575.562 254.557C576.534 253.774 577.209 252.708 577.587 251.358L580.449 252.127C579.873 254.044 578.847 255.57 577.371 256.704C575.904 257.838 574.05 258.405 571.809 258.405ZM589.21 258.405C587.752 258.405 586.487 258.077 585.416 257.419C584.345 256.762 583.517 255.858 582.932 254.706C582.356 253.545 582.068 252.208 582.068 250.696C582.068 249.175 582.365 247.839 582.959 246.687C583.553 245.526 584.386 244.626 585.457 243.987C586.528 243.339 587.779 243.015 589.21 243.015C590.668 243.015 591.932 243.343 593.003 244C594.074 244.657 594.902 245.562 595.487 246.714C596.072 247.866 596.365 249.193 596.365 250.696C596.365 252.217 596.068 253.558 595.474 254.719C594.889 255.871 594.061 256.776 592.99 257.433C591.919 258.081 590.659 258.405 589.21 258.405ZM589.21 255.745C590.605 255.745 591.644 255.277 592.328 254.341C593.021 253.396 593.368 252.181 593.368 250.696C593.368 249.175 593.017 247.96 592.315 247.051C591.622 246.133 590.587 245.674 589.21 245.674C588.265 245.674 587.486 245.89 586.874 246.322C586.262 246.745 585.808 247.335 585.511 248.091C585.214 248.838 585.065 249.706 585.065 250.696C585.065 252.226 585.416 253.45 586.118 254.368C586.82 255.286 587.851 255.745 589.21 255.745ZM616.26 258L616.274 248.914C616.274 247.861 616.004 247.042 615.464 246.457C614.924 245.863 614.213 245.566 613.331 245.566C612.791 245.566 612.296 245.692 611.846 245.944C611.405 246.187 611.045 246.556 610.766 247.051C610.496 247.537 610.361 248.149 610.361 248.887L608.997 248.199C608.979 247.173 609.195 246.273 609.645 245.499C610.104 244.725 610.725 244.126 611.508 243.703C612.291 243.271 613.169 243.056 614.141 243.056C615.716 243.056 616.935 243.528 617.799 244.473C618.663 245.418 619.095 246.673 619.095 248.239L619.082 258H616.26ZM598.778 258V243.42H601.289V247.632H601.613V258H598.778ZM607.526 258L607.539 248.968C607.539 247.906 607.269 247.074 606.729 246.471C606.198 245.868 605.483 245.566 604.583 245.566C603.692 245.566 602.972 245.872 602.423 246.484C601.883 247.096 601.613 247.897 601.613 248.887L600.263 248.023C600.263 247.069 600.492 246.219 600.951 245.472C601.41 244.725 602.031 244.135 602.814 243.703C603.597 243.271 604.484 243.056 605.474 243.056C606.509 243.056 607.391 243.276 608.12 243.717C608.849 244.149 609.402 244.756 609.78 245.539C610.167 246.322 610.361 247.231 610.361 248.266L610.347 258H607.526ZM639.53 258L639.543 248.914C639.543 247.861 639.273 247.042 638.733 246.457C638.193 245.863 637.482 245.566 636.6 245.566C636.06 245.566 635.565 245.692 635.115 245.944C634.674 246.187 634.314 246.556 634.035 247.051C633.765 247.537 633.63 248.149 633.63 248.887L632.267 248.199C632.249 247.173 632.465 246.273 632.915 245.499C633.374 244.725 633.995 244.126 634.778 243.703C635.561 243.271 636.438 243.056 637.41 243.056C638.985 243.056 640.205 243.528 641.069 244.473C641.933 245.418 642.365 246.673 642.365 248.239L642.351 258H639.53ZM622.047 258V243.42H624.558V247.632H624.882V258H622.047ZM630.795 258L630.809 248.968C630.809 247.906 630.539 247.074 629.999 246.471C629.468 245.868 628.752 245.566 627.852 245.566C626.961 245.566 626.241 245.872 625.692 246.484C625.152 247.096 624.882 247.897 624.882 248.887L623.532 248.023C623.532 247.069 623.762 246.219 624.221 245.472C624.68 244.725 625.301 244.135 626.084 243.703C626.867 243.271 627.753 243.056 628.743 243.056C629.778 243.056 630.66 243.276 631.389 243.717C632.118 244.149 632.672 244.756 633.05 245.539C633.437 246.322 633.63 247.231 633.63 248.266L633.617 258H630.795ZM651.612 258.405C650.163 258.405 648.89 258.09 647.792 257.46C646.703 256.821 645.852 255.934 645.24 254.8C644.637 253.657 644.336 252.334 644.336 250.831C644.336 249.238 644.633 247.857 645.227 246.687C645.83 245.517 646.667 244.612 647.738 243.973C648.809 243.334 650.055 243.015 651.477 243.015C652.962 243.015 654.227 243.361 655.271 244.055C656.315 244.738 657.093 245.715 657.606 246.984C658.128 248.253 658.335 249.76 658.227 251.506H655.406V250.48C655.388 248.788 655.064 247.537 654.434 246.727C653.813 245.917 652.863 245.512 651.585 245.512C650.172 245.512 649.11 245.958 648.399 246.849C647.688 247.74 647.333 249.027 647.333 250.71C647.333 252.312 647.688 253.554 648.399 254.436C649.11 255.309 650.136 255.745 651.477 255.745C652.359 255.745 653.12 255.547 653.759 255.151C654.407 254.746 654.911 254.17 655.271 253.423L658.038 254.301C657.471 255.606 656.612 256.618 655.46 257.338C654.308 258.049 653.025 258.405 651.612 258.405ZM646.415 251.506V249.306H656.823V251.506H646.415ZM660.716 258V243.42H663.227V246.957L662.876 246.498C663.056 246.03 663.29 245.602 663.578 245.215C663.866 244.819 664.199 244.495 664.577 244.243C664.946 243.973 665.356 243.766 665.806 243.622C666.265 243.469 666.733 243.379 667.21 243.352C667.687 243.316 668.146 243.339 668.587 243.42V246.066C668.11 245.94 667.579 245.904 666.994 245.958C666.418 246.012 665.887 246.196 665.401 246.511C664.942 246.808 664.577 247.168 664.307 247.591C664.046 248.014 663.857 248.487 663.74 249.009C663.623 249.522 663.565 250.066 663.565 250.642V258H660.716ZM676.591 258.405C675.097 258.405 673.828 258.072 672.784 257.406C671.74 256.74 670.939 255.826 670.381 254.665C669.832 253.504 669.553 252.186 669.544 250.71C669.553 249.207 669.841 247.879 670.408 246.727C670.975 245.566 671.785 244.657 672.838 244C673.891 243.343 675.155 243.015 676.631 243.015C678.224 243.015 679.583 243.411 680.708 244.203C681.842 244.995 682.589 246.079 682.949 247.456L680.141 248.266C679.862 247.447 679.403 246.813 678.764 246.363C678.134 245.904 677.41 245.674 676.591 245.674C675.664 245.674 674.903 245.895 674.309 246.336C673.715 246.768 673.274 247.362 672.986 248.118C672.698 248.874 672.55 249.738 672.541 250.71C672.55 252.213 672.892 253.428 673.567 254.355C674.251 255.282 675.259 255.745 676.591 255.745C677.5 255.745 678.233 255.538 678.791 255.124C679.358 254.701 679.79 254.098 680.087 253.315L682.949 253.99C682.472 255.412 681.685 256.506 680.587 257.271C679.489 258.027 678.157 258.405 676.591 258.405ZM685.034 241.03V238.29H687.856V241.03H685.034ZM685.034 258V243.42H687.856V258H685.034ZM695.487 258.405C694.407 258.405 693.503 258.207 692.774 257.811C692.045 257.406 691.491 256.875 691.113 256.218C690.744 255.552 690.56 254.823 690.56 254.031C690.56 253.293 690.69 252.645 690.951 252.087C691.212 251.529 691.599 251.056 692.112 250.669C692.625 250.273 693.255 249.954 694.002 249.711C694.65 249.522 695.384 249.355 696.203 249.211C697.022 249.067 697.881 248.932 698.781 248.806C699.69 248.68 700.59 248.554 701.481 248.428L700.455 248.995C700.473 247.852 700.23 247.006 699.726 246.457C699.231 245.899 698.376 245.62 697.161 245.62C696.396 245.62 695.694 245.8 695.055 246.16C694.416 246.511 693.971 247.096 693.719 247.915L691.086 247.105C691.446 245.854 692.13 244.86 693.138 244.122C694.155 243.384 695.505 243.015 697.188 243.015C698.493 243.015 699.627 243.24 700.59 243.69C701.562 244.131 702.273 244.833 702.723 245.796C702.957 246.273 703.101 246.777 703.155 247.308C703.209 247.839 703.236 248.41 703.236 249.022V258H700.739V254.665L701.225 255.097C700.622 256.213 699.852 257.046 698.916 257.595C697.989 258.135 696.846 258.405 695.487 258.405ZM695.987 256.096C696.788 256.096 697.476 255.957 698.052 255.678C698.628 255.39 699.092 255.025 699.443 254.584C699.794 254.143 700.023 253.684 700.131 253.207C700.284 252.775 700.37 252.289 700.388 251.749C700.415 251.209 700.428 250.777 700.428 250.453L701.346 250.791C700.455 250.926 699.645 251.047 698.916 251.155C698.187 251.263 697.526 251.371 696.932 251.479C696.347 251.578 695.825 251.7 695.366 251.844C694.979 251.979 694.632 252.141 694.326 252.33C694.029 252.519 693.791 252.748 693.611 253.018C693.44 253.288 693.354 253.617 693.354 254.004C693.354 254.382 693.449 254.733 693.638 255.057C693.827 255.372 694.115 255.624 694.502 255.813C694.889 256.002 695.384 256.096 695.987 256.096ZM706.472 258V238.155H709.293V258H706.472ZM725.907 258V254.611H717.132V251.938L723.45 238.56H726.677L720.359 251.938H725.907V246.673H728.769V251.938H730.7V254.611H728.769V258H725.907ZM741.352 258.405C740.047 258.405 738.846 258.18 737.748 257.73C736.65 257.271 735.696 256.605 734.886 255.732C734.076 254.859 733.446 253.797 732.996 252.546C732.546 251.295 732.321 249.873 732.321 248.28C732.321 246.183 732.703 244.383 733.468 242.88C734.233 241.368 735.295 240.207 736.654 239.397C738.013 238.578 739.579 238.168 741.352 238.168C743.638 238.168 745.461 238.699 746.82 239.761C748.188 240.823 749.119 242.29 749.614 244.162L746.752 244.675C746.356 243.514 745.717 242.587 744.835 241.894C743.953 241.201 742.846 240.85 741.514 240.841C740.137 240.832 738.99 241.138 738.072 241.759C737.163 242.38 736.479 243.253 736.02 244.378C735.561 245.494 735.327 246.795 735.318 248.28C735.309 249.765 735.534 251.065 735.993 252.181C736.452 253.288 737.14 254.152 738.058 254.773C738.985 255.394 740.137 255.709 741.514 255.718C742.621 255.736 743.571 255.534 744.363 255.111C745.164 254.679 745.798 254.049 746.266 253.221C746.734 252.393 747.036 251.376 747.171 250.17H743.391V247.902H750.168C750.186 248.064 750.199 248.28 750.208 248.55C750.217 248.811 750.222 248.977 750.222 249.049C750.222 250.849 749.875 252.456 749.182 253.869C748.489 255.282 747.481 256.393 746.158 257.203C744.835 258.004 743.233 258.405 741.352 258.405ZM763.623 258.405C762.534 258.405 761.517 258.248 760.572 257.932C759.627 257.608 758.835 257.104 758.196 256.42C757.701 255.871 757.332 255.268 757.089 254.611C756.855 253.945 756.725 253.239 756.698 252.492C756.698 251.763 756.801 251.056 757.008 250.373C757.224 249.679 757.562 249.063 758.021 248.523C758.228 248.271 758.457 248.055 758.709 247.875C758.961 247.686 759.213 247.519 759.465 247.375C758.889 246.745 758.453 246.147 758.156 245.58C757.859 245.004 757.71 244.324 757.71 243.541C757.71 242.443 757.998 241.458 758.574 240.585C759.15 239.703 759.938 239.068 760.937 238.681C761.396 238.492 761.864 238.366 762.341 238.303C762.818 238.231 763.281 238.195 763.731 238.195C764.541 238.195 765.324 238.312 766.08 238.546C766.836 238.78 767.484 239.163 768.024 239.694C768.366 240.009 768.654 240.364 768.888 240.76C769.131 241.156 769.316 241.561 769.442 241.975L766.661 242.623C766.508 242.191 766.256 241.827 765.905 241.53C765.608 241.269 765.261 241.093 764.865 241.003C764.478 240.904 764.091 240.855 763.704 240.855C763.065 240.855 762.489 240.976 761.976 241.219C761.508 241.444 761.157 241.755 760.923 242.151C760.689 242.538 760.572 243.006 760.572 243.555C760.572 244.041 760.658 244.432 760.829 244.729C761 245.026 761.229 245.337 761.517 245.661C761.688 245.85 761.891 246.052 762.125 246.268C762.368 246.484 762.615 246.709 762.867 246.943L768.159 251.871C768.177 251.673 768.191 251.461 768.2 251.236C768.209 251.011 768.213 250.795 768.213 250.588L768.2 248.064H770.724V251.398C770.724 251.965 770.706 252.478 770.67 252.937C770.643 253.387 770.589 253.756 770.508 254.044L772.938 256.299L771.116 258.257L769.158 256.393C768.744 256.807 768.281 257.158 767.768 257.446C767.255 257.725 766.737 257.932 766.215 258.068C765.774 258.203 765.338 258.293 764.906 258.338C764.483 258.383 764.055 258.405 763.623 258.405ZM763.704 255.705C764.064 255.705 764.397 255.687 764.703 255.651C765.009 255.606 765.302 255.525 765.581 255.408C765.959 255.255 766.265 255.097 766.499 254.935C766.742 254.773 766.944 254.616 767.106 254.463L761.571 249.387C761.292 249.486 761.031 249.616 760.788 249.778C760.554 249.931 760.352 250.111 760.181 250.318C759.974 250.579 759.816 250.885 759.708 251.236C759.609 251.578 759.564 251.947 759.573 252.343C759.573 252.775 759.641 253.171 759.776 253.531C759.92 253.882 760.104 254.197 760.329 254.476C760.689 254.908 761.189 255.223 761.828 255.421C762.476 255.61 763.101 255.705 763.704 255.705ZM785.205 258.405C784.206 258.405 783.274 258.203 782.41 257.797C781.555 257.383 780.822 256.816 780.21 256.096C779.598 255.367 779.161 254.53 778.9 253.585L781.614 252.856C781.767 253.432 782.028 253.932 782.397 254.355C782.775 254.778 783.216 255.106 783.72 255.34C784.224 255.565 784.746 255.678 785.286 255.678C785.997 255.678 786.64 255.507 787.216 255.165C787.801 254.823 788.26 254.364 788.593 253.788C788.935 253.212 789.106 252.577 789.106 251.884C789.106 251.173 788.931 250.53 788.58 249.954C788.238 249.378 787.774 248.923 787.189 248.59C786.613 248.248 785.979 248.077 785.286 248.077C784.494 248.077 783.823 248.235 783.274 248.55C782.725 248.865 782.298 249.229 781.992 249.643L779.535 248.779L780.129 238.56H790.618V241.219H781.573L782.721 240.153L782.248 247.807L781.695 247.092C782.208 246.579 782.82 246.187 783.531 245.917C784.242 245.647 784.948 245.512 785.65 245.512C786.856 245.512 787.932 245.791 788.877 246.349C789.831 246.907 790.582 247.668 791.131 248.631C791.68 249.585 791.955 250.669 791.955 251.884C791.955 253.09 791.644 254.188 791.023 255.178C790.402 256.159 789.579 256.942 788.553 257.527C787.527 258.113 786.411 258.405 785.205 258.405ZM802.593 258.405C801.288 258.405 800.086 258.18 798.988 257.73C797.89 257.271 796.936 256.605 796.126 255.732C795.316 254.859 794.686 253.797 794.236 252.546C793.786 251.295 793.561 249.873 793.561 248.28C793.561 246.183 793.944 244.383 794.709 242.88C795.474 241.368 796.536 240.207 797.895 239.397C799.254 238.578 800.82 238.168 802.593 238.168C804.879 238.168 806.701 238.699 808.06 239.761C809.428 240.823 810.36 242.29 810.855 244.162L807.993 244.675C807.597 243.514 806.958 242.587 806.076 241.894C805.194 241.201 804.087 240.85 802.755 240.841C801.378 240.832 800.23 241.138 799.312 241.759C798.403 242.38 797.719 243.253 797.26 244.378C796.801 245.494 796.567 246.795 796.558 248.28C796.549 249.765 796.774 251.065 797.233 252.181C797.692 253.288 798.381 254.152 799.299 254.773C800.226 255.394 801.378 255.709 802.755 255.718C803.862 255.736 804.811 255.534 805.603 255.111C806.404 254.679 807.039 254.049 807.507 253.221C807.975 252.393 808.276 251.376 808.411 250.17H804.631V247.902H811.408C811.426 248.064 811.44 248.28 811.449 248.55C811.458 248.811 811.462 248.977 811.462 249.049C811.462 250.849 811.116 252.456 810.423 253.869C809.73 255.282 808.722 256.393 807.399 257.203C806.076 258.004 804.474 258.405 802.593 258.405Z" fill="white"/>
<rect x="307.25" y="108.25" width="498.5" height="67.5" rx="33.75" stroke="white" stroke-opacity="0.42" stroke-width="3.5"/>
<path d="M338.16 152V132.56H340.982V152H338.16ZM354.729 152V144.831C354.729 144.264 354.679 143.684 354.58 143.09C354.49 142.487 354.31 141.929 354.04 141.416C353.779 140.903 353.406 140.489 352.92 140.174C352.443 139.859 351.817 139.701 351.043 139.701C350.539 139.701 350.062 139.787 349.612 139.958C349.162 140.12 348.766 140.385 348.424 140.754C348.091 141.123 347.826 141.609 347.628 142.212C347.439 142.815 347.344 143.549 347.344 144.413L345.589 143.751C345.589 142.428 345.837 141.263 346.332 140.255C346.827 139.238 347.538 138.446 348.465 137.879C349.392 137.312 350.512 137.028 351.826 137.028C352.834 137.028 353.68 137.19 354.364 137.514C355.048 137.838 355.602 138.266 356.025 138.797C356.457 139.319 356.785 139.89 357.01 140.511C357.235 141.132 357.388 141.74 357.469 142.334C357.55 142.928 357.591 143.45 357.591 143.9V152H354.729ZM344.482 152V137.42H347.007V141.632H347.344V152H344.482ZM368.91 152C367.992 152.18 367.092 152.257 366.21 152.23C365.328 152.203 364.54 152.031 363.847 151.716C363.154 151.401 362.632 150.906 362.281 150.231C361.966 149.628 361.795 149.016 361.768 148.395C361.75 147.765 361.741 147.054 361.741 146.262V133.37H364.576V146.127C364.576 146.712 364.581 147.221 364.59 147.653C364.608 148.085 364.702 148.449 364.873 148.746C365.197 149.304 365.71 149.624 366.412 149.705C367.123 149.777 367.956 149.745 368.91 149.61V152ZM358.947 139.688V137.42H368.91V139.688H358.947ZM377.225 152.405C375.776 152.405 374.502 152.09 373.404 151.46C372.315 150.821 371.465 149.934 370.853 148.8C370.25 147.657 369.948 146.334 369.948 144.831C369.948 143.238 370.245 141.857 370.839 140.687C371.442 139.517 372.279 138.612 373.35 137.973C374.421 137.334 375.668 137.015 377.09 137.015C378.575 137.015 379.839 137.361 380.883 138.055C381.927 138.738 382.706 139.715 383.219 140.984C383.741 142.253 383.948 143.76 383.84 145.506H381.018V144.48C381 142.788 380.676 141.537 380.046 140.727C379.425 139.917 378.476 139.512 377.198 139.512C375.785 139.512 374.723 139.958 374.012 140.849C373.301 141.74 372.945 143.027 372.945 144.71C372.945 146.312 373.301 147.554 374.012 148.436C374.723 149.309 375.749 149.745 377.09 149.745C377.972 149.745 378.732 149.547 379.371 149.151C380.019 148.746 380.523 148.17 380.883 147.423L383.651 148.301C383.084 149.606 382.224 150.618 381.072 151.338C379.92 152.049 378.638 152.405 377.225 152.405ZM372.027 145.506V143.306H382.436V145.506H372.027ZM386.329 152V137.42H388.84V140.957L388.489 140.498C388.669 140.03 388.903 139.602 389.191 139.215C389.479 138.819 389.812 138.495 390.19 138.243C390.559 137.973 390.968 137.766 391.418 137.622C391.877 137.469 392.345 137.379 392.822 137.352C393.299 137.316 393.758 137.339 394.199 137.42V140.066C393.722 139.94 393.191 139.904 392.606 139.958C392.03 140.012 391.499 140.196 391.013 140.511C390.554 140.808 390.19 141.168 389.92 141.591C389.659 142.014 389.47 142.487 389.353 143.009C389.236 143.522 389.177 144.066 389.177 144.642V152H386.329ZM402.298 152.405C400.84 152.405 399.575 152.077 398.504 151.419C397.433 150.762 396.605 149.858 396.02 148.706C395.444 147.545 395.156 146.208 395.156 144.696C395.156 143.175 395.453 141.839 396.047 140.687C396.641 139.526 397.474 138.626 398.545 137.987C399.616 137.339 400.867 137.015 402.298 137.015C403.756 137.015 405.02 137.343 406.091 138C407.162 138.657 407.99 139.562 408.575 140.714C409.16 141.866 409.453 143.193 409.453 144.696C409.453 146.217 409.156 147.558 408.562 148.719C407.977 149.871 407.149 150.776 406.078 151.433C405.007 152.081 403.747 152.405 402.298 152.405ZM402.298 149.745C403.693 149.745 404.732 149.277 405.416 148.341C406.109 147.396 406.456 146.181 406.456 144.696C406.456 143.175 406.105 141.96 405.403 141.051C404.71 140.133 403.675 139.674 402.298 139.674C401.353 139.674 400.574 139.89 399.962 140.322C399.35 140.745 398.896 141.335 398.599 142.091C398.302 142.838 398.153 143.706 398.153 144.696C398.153 146.226 398.504 147.45 399.206 148.368C399.908 149.286 400.939 149.745 402.298 149.745ZM418.724 152.405C417.329 152.405 416.159 152.068 415.214 151.392C414.269 150.708 413.553 149.786 413.067 148.625C412.581 147.464 412.338 146.154 412.338 144.696C412.338 143.238 412.577 141.929 413.054 140.768C413.54 139.607 414.251 138.693 415.187 138.027C416.132 137.352 417.293 137.015 418.67 137.015C420.038 137.015 421.217 137.352 422.207 138.027C423.206 138.693 423.975 139.607 424.515 140.768C425.055 141.92 425.325 143.229 425.325 144.696C425.325 146.154 425.055 147.468 424.515 148.638C423.984 149.799 423.224 150.717 422.234 151.392C421.253 152.068 420.083 152.405 418.724 152.405ZM411.866 158.48V137.42H414.377V147.909H414.701V158.48H411.866ZM418.332 149.853C419.232 149.853 419.975 149.624 420.56 149.165C421.154 148.706 421.595 148.089 421.883 147.315C422.18 146.532 422.328 145.659 422.328 144.696C422.328 143.742 422.18 142.878 421.883 142.104C421.595 141.33 421.149 140.714 420.546 140.255C419.943 139.796 419.174 139.566 418.238 139.566C417.356 139.566 416.627 139.782 416.051 140.214C415.484 140.646 415.061 141.249 414.782 142.023C414.512 142.797 414.377 143.688 414.377 144.696C414.377 145.704 414.512 146.595 414.782 147.369C415.052 148.143 415.479 148.751 416.064 149.192C416.649 149.633 417.405 149.853 418.332 149.853ZM434.233 152.405C432.784 152.405 431.51 152.09 430.412 151.46C429.323 150.821 428.473 149.934 427.861 148.8C427.258 147.657 426.956 146.334 426.956 144.831C426.956 143.238 427.253 141.857 427.847 140.687C428.45 139.517 429.287 138.612 430.358 137.973C431.429 137.334 432.676 137.015 434.098 137.015C435.583 137.015 436.847 137.361 437.891 138.055C438.935 138.738 439.714 139.715 440.227 140.984C440.749 142.253 440.956 143.76 440.848 145.506H438.026V144.48C438.008 142.788 437.684 141.537 437.054 140.727C436.433 139.917 435.484 139.512 434.206 139.512C432.793 139.512 431.731 139.958 431.02 140.849C430.309 141.74 429.953 143.027 429.953 144.71C429.953 146.312 430.309 147.554 431.02 148.436C431.731 149.309 432.757 149.745 434.098 149.745C434.98 149.745 435.74 149.547 436.379 149.151C437.027 148.746 437.531 148.17 437.891 147.423L440.659 148.301C440.092 149.606 439.232 150.618 438.08 151.338C436.928 152.049 435.646 152.405 434.233 152.405ZM429.035 145.506V143.306H439.444V145.506H429.035ZM443.337 152V137.42H445.848V140.957L445.497 140.498C445.677 140.03 445.911 139.602 446.199 139.215C446.487 138.819 446.82 138.495 447.198 138.243C447.567 137.973 447.976 137.766 448.426 137.622C448.885 137.469 449.353 137.379 449.83 137.352C450.307 137.316 450.766 137.339 451.207 137.42V140.066C450.73 139.94 450.199 139.904 449.614 139.958C449.038 140.012 448.507 140.196 448.021 140.511C447.562 140.808 447.198 141.168 446.928 141.591C446.667 142.014 446.478 142.487 446.361 143.009C446.244 143.522 446.185 144.066 446.185 144.642V152H443.337ZM456.96 152.405C455.88 152.405 454.975 152.207 454.246 151.811C453.517 151.406 452.964 150.875 452.586 150.218C452.217 149.552 452.032 148.823 452.032 148.031C452.032 147.293 452.163 146.645 452.424 146.087C452.685 145.529 453.072 145.056 453.585 144.669C454.098 144.273 454.728 143.954 455.475 143.711C456.123 143.522 456.856 143.355 457.675 143.211C458.494 143.067 459.354 142.932 460.254 142.806C461.163 142.68 462.063 142.554 462.954 142.428L461.928 142.995C461.946 141.852 461.703 141.006 461.199 140.457C460.704 139.899 459.849 139.62 458.634 139.62C457.869 139.62 457.167 139.8 456.528 140.16C455.889 140.511 455.443 141.096 455.191 141.915L452.559 141.105C452.919 139.854 453.603 138.86 454.611 138.122C455.628 137.384 456.978 137.015 458.661 137.015C459.966 137.015 461.1 137.24 462.063 137.69C463.035 138.131 463.746 138.833 464.196 139.796C464.43 140.273 464.574 140.777 464.628 141.308C464.682 141.839 464.709 142.41 464.709 143.022V152H462.212V148.665L462.698 149.097C462.094 150.213 461.325 151.046 460.389 151.595C459.462 152.135 458.319 152.405 456.96 152.405ZM457.459 150.096C458.26 150.096 458.949 149.957 459.525 149.678C460.101 149.39 460.565 149.025 460.915 148.584C461.266 148.143 461.496 147.684 461.604 147.207C461.757 146.775 461.843 146.289 461.86 145.749C461.887 145.209 461.901 144.777 461.901 144.453L462.819 144.791C461.928 144.926 461.118 145.047 460.389 145.155C459.66 145.263 458.998 145.371 458.405 145.479C457.819 145.578 457.297 145.7 456.838 145.844C456.451 145.979 456.105 146.141 455.799 146.33C455.502 146.519 455.263 146.748 455.083 147.018C454.912 147.288 454.827 147.617 454.827 148.004C454.827 148.382 454.921 148.733 455.11 149.057C455.299 149.372 455.587 149.624 455.974 149.813C456.361 150.002 456.856 150.096 457.459 150.096ZM476.018 152C475.1 152.18 474.2 152.257 473.318 152.23C472.436 152.203 471.648 152.031 470.955 151.716C470.262 151.401 469.74 150.906 469.389 150.231C469.074 149.628 468.903 149.016 468.876 148.395C468.858 147.765 468.849 147.054 468.849 146.262V133.37H471.684V146.127C471.684 146.712 471.689 147.221 471.698 147.653C471.716 148.085 471.81 148.449 471.981 148.746C472.305 149.304 472.818 149.624 473.52 149.705C474.231 149.777 475.064 149.745 476.018 149.61V152ZM466.055 139.688V137.42H476.018V139.688H466.055ZM484.333 152.405C482.884 152.405 481.61 152.09 480.512 151.46C479.423 150.821 478.573 149.934 477.961 148.8C477.358 147.657 477.056 146.334 477.056 144.831C477.056 143.238 477.353 141.857 477.947 140.687C478.55 139.517 479.387 138.612 480.458 137.973C481.529 137.334 482.776 137.015 484.198 137.015C485.683 137.015 486.947 137.361 487.991 138.055C489.035 138.738 489.814 139.715 490.327 140.984C490.849 142.253 491.056 143.76 490.948 145.506H488.126V144.48C488.108 142.788 487.784 141.537 487.154 140.727C486.533 139.917 485.584 139.512 484.306 139.512C482.893 139.512 481.831 139.958 481.12 140.849C480.409 141.74 480.053 143.027 480.053 144.71C480.053 146.312 480.409 147.554 481.12 148.436C481.831 149.309 482.857 149.745 484.198 149.745C485.08 149.745 485.84 149.547 486.479 149.151C487.127 148.746 487.631 148.17 487.991 147.423L490.759 148.301C490.192 149.606 489.332 150.618 488.18 151.338C487.028 152.049 485.746 152.405 484.333 152.405ZM479.135 145.506V143.306H489.544V145.506H479.135ZM499.012 152.392C497.239 152.392 495.794 152 494.678 151.217C493.562 150.434 492.878 149.331 492.626 147.909L495.515 147.464C495.695 148.22 496.109 148.818 496.757 149.259C497.414 149.691 498.229 149.907 499.201 149.907C500.083 149.907 500.771 149.727 501.266 149.367C501.77 149.007 502.022 148.512 502.022 147.882C502.022 147.513 501.932 147.216 501.752 146.991C501.581 146.757 501.217 146.537 500.659 146.33C500.101 146.123 499.25 145.866 498.107 145.56C496.856 145.236 495.862 144.89 495.124 144.521C494.395 144.143 493.873 143.706 493.558 143.211C493.252 142.707 493.099 142.1 493.099 141.389C493.099 140.507 493.333 139.737 493.801 139.08C494.269 138.423 494.926 137.915 495.772 137.555C496.627 137.195 497.626 137.015 498.769 137.015C499.885 137.015 500.879 137.19 501.752 137.541C502.625 137.892 503.332 138.392 503.872 139.04C504.412 139.679 504.736 140.43 504.844 141.294L501.955 141.821C501.856 141.119 501.527 140.565 500.969 140.16C500.411 139.755 499.687 139.535 498.796 139.499C497.941 139.463 497.248 139.607 496.717 139.931C496.186 140.246 495.92 140.682 495.92 141.24C495.92 141.564 496.019 141.839 496.217 142.064C496.424 142.289 496.82 142.505 497.405 142.712C497.99 142.919 498.854 143.166 499.997 143.454C501.221 143.769 502.193 144.12 502.913 144.507C503.633 144.885 504.146 145.34 504.452 145.871C504.767 146.393 504.925 147.027 504.925 147.774C504.925 149.214 504.398 150.344 503.345 151.163C502.301 151.982 500.857 152.392 499.012 152.392ZM515.342 152L510.887 137.406L513.682 137.42L516.733 147.423L519.811 137.42H522.241L525.319 147.423L528.37 137.42H531.151L526.696 152H524.428L521.026 141.443L517.61 152H515.342ZM533.298 135.03V132.29H536.12V135.03H533.298ZM533.298 152V137.42H536.12V152H533.298ZM547.977 152C547.059 152.18 546.159 152.257 545.277 152.23C544.395 152.203 543.607 152.031 542.914 151.716C542.221 151.401 541.699 150.906 541.348 150.231C541.033 149.628 540.862 149.016 540.835 148.395C540.817 147.765 540.808 147.054 540.808 146.262V133.37H543.643V146.127C543.643 146.712 543.648 147.221 543.657 147.653C543.675 148.085 543.769 148.449 543.94 148.746C544.264 149.304 544.777 149.624 545.479 149.705C546.19 149.777 547.023 149.745 547.977 149.61V152ZM538.014 139.688V137.42H547.977V139.688H538.014ZM560.744 152V144.831C560.744 144.264 560.694 143.684 560.595 143.09C560.505 142.487 560.325 141.929 560.055 141.416C559.794 140.903 559.421 140.489 558.935 140.174C558.458 139.859 557.832 139.701 557.058 139.701C556.554 139.701 556.077 139.787 555.627 139.958C555.177 140.12 554.781 140.385 554.439 140.754C554.106 141.123 553.841 141.609 553.643 142.212C553.454 142.815 553.359 143.549 553.359 144.413L551.604 143.751C551.604 142.428 551.852 141.263 552.347 140.255C552.842 139.238 553.553 138.446 554.48 137.879C555.407 137.312 556.527 137.028 557.841 137.028C558.849 137.028 559.695 137.19 560.379 137.514C561.063 137.838 561.617 138.266 562.04 138.797C562.472 139.319 562.8 139.89 563.025 140.511C563.25 141.132 563.403 141.74 563.484 142.334C563.565 142.928 563.606 143.45 563.606 143.9V152H560.744ZM550.497 152V132.56H553.022V143.049H553.359V152H550.497ZM571.717 152V132.56H574.539V149.34H583.341V152H571.717ZM585.093 152V132.56H587.644L594.691 147.18L601.698 132.56H604.276V151.986H601.603V138.689L595.326 152H594.043L587.752 138.689V152H585.093ZM607.519 152V132.56H615.376C615.565 132.56 615.799 132.569 616.078 132.587C616.357 132.596 616.622 132.623 616.874 132.668C617.954 132.839 618.854 133.208 619.574 133.775C620.303 134.342 620.848 135.057 621.208 135.921C621.568 136.785 621.748 137.739 621.748 138.783C621.748 140.331 621.352 141.668 620.56 142.793C619.768 143.909 618.58 144.606 616.996 144.885L615.848 145.02H610.34V152H607.519ZM618.886 152L615.052 144.089L617.9 143.36L622.112 152H618.886ZM610.34 142.347H615.268C615.448 142.347 615.646 142.338 615.862 142.32C616.087 142.302 616.298 142.271 616.496 142.226C617.072 142.091 617.536 141.843 617.887 141.483C618.238 141.114 618.49 140.691 618.643 140.214C618.796 139.737 618.872 139.26 618.872 138.783C618.872 138.306 618.796 137.834 618.643 137.366C618.49 136.889 618.238 136.47 617.887 136.11C617.536 135.741 617.072 135.489 616.496 135.354C616.298 135.3 616.087 135.264 615.862 135.246C615.646 135.228 615.448 135.219 615.268 135.219H610.34V142.347ZM624.269 155.227L624.445 153.971C624.832 153.998 625.133 153.926 625.349 153.755C625.565 153.584 625.709 153.346 625.781 153.04C625.853 152.734 625.867 152.387 625.822 152H624.269V148.746H627.253V152.27C627.253 153.332 626.996 154.133 626.483 154.673C625.979 155.213 625.241 155.398 624.269 155.227ZM641.542 152V135.219H635.076V132.56H650.83V135.219H644.364V152H641.542ZM652.451 152V132.56H664.871V135.219H655.272V140.673H663.251V143.333H655.272V149.34H664.871V152H652.451ZM672.419 152V135.219H665.953V132.56H681.707V135.219H675.241V152H672.419ZM683.328 152V132.56H691.185C691.374 132.56 691.608 132.569 691.887 132.587C692.166 132.596 692.431 132.623 692.683 132.668C693.763 132.839 694.663 133.208 695.383 133.775C696.112 134.342 696.657 135.057 697.017 135.921C697.377 136.785 697.557 137.739 697.557 138.783C697.557 140.331 697.161 141.668 696.369 142.793C695.577 143.909 694.389 144.606 692.805 144.885L691.657 145.02H686.149V152H683.328ZM694.695 152L690.861 144.089L693.709 143.36L697.921 152H694.695ZM686.149 142.347H691.077C691.257 142.347 691.455 142.338 691.671 142.32C691.896 142.302 692.107 142.271 692.305 142.226C692.881 142.091 693.345 141.843 693.696 141.483C694.047 141.114 694.299 140.691 694.452 140.214C694.605 139.737 694.681 139.26 694.681 138.783C694.681 138.306 694.605 137.834 694.452 137.366C694.299 136.889 694.047 136.47 693.696 136.11C693.345 135.741 692.881 135.489 692.305 135.354C692.107 135.3 691.896 135.264 691.671 135.246C691.455 135.228 691.257 135.219 691.077 135.219H686.149V142.347ZM698.998 152L705.316 132.56H709.38L715.698 152H712.768L706.95 134.261H707.679L701.928 152H698.998ZM702.279 147.612V144.966H712.431V147.612H702.279ZM717.31 155.227L717.485 153.971C717.872 153.998 718.174 153.926 718.39 153.755C718.606 153.584 718.75 153.346 718.822 153.04C718.894 152.734 718.907 152.387 718.862 152H717.31V148.746H720.293V152.27C720.293 153.332 720.037 154.133 719.524 154.673C719.02 155.213 718.282 155.398 717.31 155.227ZM729.736 152V132.56H737.593C737.782 132.56 738.016 132.569 738.295 132.587C738.574 132.596 738.839 132.623 739.091 132.668C740.171 132.839 741.071 133.208 741.791 133.775C742.52 134.342 743.065 135.057 743.425 135.921C743.785 136.785 743.965 137.739 743.965 138.783C743.965 139.836 743.785 140.795 743.425 141.659C743.065 142.523 742.52 143.238 741.791 143.805C741.071 144.372 740.171 144.741 739.091 144.912C738.839 144.948 738.569 144.975 738.281 144.993C738.002 145.011 737.773 145.02 737.593 145.02H732.557V152H729.736ZM732.557 142.347H737.485C737.665 142.347 737.863 142.338 738.079 142.32C738.304 142.302 738.515 142.271 738.713 142.226C739.289 142.091 739.753 141.843 740.104 141.483C740.455 141.114 740.707 140.691 740.86 140.214C741.013 139.737 741.089 139.26 741.089 138.783C741.089 138.306 741.013 137.834 740.86 137.366C740.707 136.889 740.455 136.47 740.104 136.11C739.753 135.741 739.289 135.489 738.713 135.354C738.515 135.3 738.304 135.264 738.079 135.246C737.863 135.228 737.665 135.219 737.485 135.219H732.557V142.347ZM746.124 152V132.56H753.765C754.998 132.56 756.033 132.812 756.87 133.316C757.707 133.82 758.337 134.472 758.76 135.273C759.183 136.065 759.394 136.902 759.394 137.784C759.394 138.855 759.129 139.773 758.598 140.538C758.076 141.303 757.369 141.825 756.478 142.104L756.451 141.443C757.693 141.749 758.647 142.347 759.313 143.238C759.979 144.12 760.312 145.151 760.312 146.33C760.312 147.473 760.083 148.467 759.624 149.313C759.174 150.159 758.512 150.821 757.639 151.298C756.775 151.766 755.727 152 754.494 152H746.124ZM748.986 149.313H754.062C754.701 149.313 755.272 149.192 755.776 148.949C756.289 148.706 756.69 148.359 756.978 147.909C757.275 147.45 757.423 146.906 757.423 146.276C757.423 145.691 757.293 145.164 757.032 144.696C756.78 144.219 756.411 143.846 755.925 143.576C755.448 143.297 754.885 143.157 754.237 143.157H748.986V149.313ZM748.986 140.498H753.724C754.246 140.498 754.714 140.394 755.128 140.187C755.551 139.971 755.884 139.665 756.127 139.269C756.379 138.864 756.505 138.378 756.505 137.812C756.505 137.055 756.253 136.434 755.749 135.948C755.245 135.462 754.57 135.219 753.724 135.219H748.986V140.498ZM760.021 152L766.65 142.158L760.197 132.56H763.653L768.391 139.769L773.103 132.56H776.572L770.119 142.158L776.734 152H773.278L768.391 144.562L763.491 152H760.021Z" fill="white"/>
<rect x="307.25" y="2.25" width="414.5" height="67.5" rx="33.75" stroke="white" stroke-opacity="0.42" stroke-width="3.5"/>
<path d="M337.89 46V26.56H345.747C345.936 26.56 346.17 26.569 346.449 26.587C346.728 26.596 346.994 26.623 347.246 26.668C348.326 26.839 349.226 27.208 349.945 27.775C350.675 28.342 351.219 29.0575 351.579 29.9215C351.939 30.7855 352.119 31.7395 352.119 32.7835C352.119 34.3315 351.723 35.668 350.931 36.793C350.139 37.909 348.951 38.6065 347.367 38.8855L346.22 39.0205H340.712V46H337.89ZM349.257 46L345.423 38.089L348.272 37.36L352.484 46H349.257ZM340.712 36.3475H345.639C345.819 36.3475 346.017 36.3385 346.233 36.3205C346.458 36.3025 346.67 36.271 346.868 36.226C347.444 36.091 347.907 35.8435 348.258 35.4835C348.609 35.1145 348.861 34.6915 349.014 34.2145C349.167 33.7375 349.244 33.2605 349.244 32.7835C349.244 32.3065 349.167 31.834 349.014 31.366C348.861 30.889 348.609 30.4705 348.258 30.1105C347.907 29.7415 347.444 29.4895 346.868 29.3545C346.67 29.3005 346.458 29.2645 346.233 29.2465C346.017 29.2285 345.819 29.2195 345.639 29.2195H340.712V36.3475ZM360.405 46.3915C359.397 46.3915 358.551 46.2295 357.867 45.9055C357.183 45.5815 356.625 45.1585 356.193 44.6365C355.77 44.1055 355.446 43.5295 355.221 42.9085C354.996 42.2875 354.843 41.68 354.762 41.086C354.681 40.492 354.641 39.97 354.641 39.52V31.42H357.503V38.5885C357.503 39.1555 357.548 39.7405 357.638 40.3435C357.737 40.9375 357.917 41.491 358.178 42.004C358.448 42.517 358.821 42.931 359.298 43.246C359.784 43.561 360.414 43.7185 361.188 43.7185C361.692 43.7185 362.169 43.6375 362.619 43.4755C363.069 43.3045 363.461 43.0345 363.794 42.6655C364.136 42.2965 364.401 41.8105 364.59 41.2075C364.788 40.6045 364.887 39.871 364.887 39.007L366.642 39.6685C366.642 40.9915 366.395 42.1615 365.9 43.1785C365.405 44.1865 364.694 44.974 363.767 45.541C362.84 46.108 361.719 46.3915 360.405 46.3915ZM365.225 46V41.788H364.887V31.42H367.736V46H365.225ZM381.215 46V38.8315C381.215 38.2645 381.165 37.684 381.066 37.09C380.976 36.487 380.796 35.929 380.526 35.416C380.265 34.903 379.892 34.489 379.406 34.174C378.929 33.859 378.303 33.7015 377.529 33.7015C377.025 33.7015 376.548 33.787 376.098 33.958C375.648 34.12 375.252 34.3855 374.91 34.7545C374.577 35.1235 374.312 35.6095 374.114 36.2125C373.925 36.8155 373.83 37.549 373.83 38.413L372.075 37.7515C372.075 36.4285 372.323 35.263 372.818 34.255C373.313 33.238 374.024 32.446 374.951 31.879C375.878 31.312 376.998 31.0285 378.312 31.0285C379.32 31.0285 380.166 31.1905 380.85 31.5145C381.534 31.8385 382.088 32.266 382.511 32.797C382.943 33.319 383.271 33.8905 383.496 34.5115C383.721 35.1325 383.874 35.74 383.955 36.334C384.036 36.928 384.077 37.45 384.077 37.9V46H381.215ZM370.968 46V31.42H373.493V35.632H373.83V46H370.968ZM392.629 46.3915C390.856 46.3915 389.411 46 388.295 45.217C387.179 44.434 386.495 43.3315 386.243 41.9095L389.132 41.464C389.312 42.22 389.726 42.8185 390.374 43.2595C391.031 43.6915 391.846 43.9075 392.818 43.9075C393.7 43.9075 394.388 43.7275 394.883 43.3675C395.387 43.0075 395.639 42.5125 395.639 41.8825C395.639 41.5135 395.549 41.2165 395.369 40.9915C395.198 40.7575 394.834 40.537 394.276 40.33C393.718 40.123 392.867 39.8665 391.724 39.5605C390.473 39.2365 389.479 38.89 388.741 38.521C388.012 38.143 387.49 37.7065 387.175 37.2115C386.869 36.7075 386.716 36.1 386.716 35.389C386.716 34.507 386.95 33.7375 387.418 33.0805C387.886 32.4235 388.543 31.915 389.389 31.555C390.244 31.195 391.243 31.015 392.386 31.015C393.502 31.015 394.496 31.1905 395.369 31.5415C396.242 31.8925 396.949 32.392 397.489 33.04C398.029 33.679 398.353 34.4305 398.461 35.2945L395.572 35.821C395.473 35.119 395.144 34.5655 394.586 34.1605C394.028 33.7555 393.304 33.535 392.413 33.499C391.558 33.463 390.865 33.607 390.334 33.931C389.803 34.246 389.537 34.6825 389.537 35.2405C389.537 35.5645 389.636 35.839 389.834 36.064C390.041 36.289 390.437 36.505 391.022 36.712C391.607 36.919 392.471 37.1665 393.614 37.4545C394.838 37.7695 395.81 38.1205 396.53 38.5075C397.25 38.8855 397.763 39.34 398.069 39.871C398.384 40.393 398.542 41.0275 398.542 41.7745C398.542 43.2145 398.015 44.344 396.962 45.163C395.918 45.982 394.474 46.3915 392.629 46.3915ZM413.968 46.405C412.024 46.405 410.368 45.982 409 45.136C407.632 44.281 406.583 43.093 405.854 41.572C405.134 40.051 404.774 38.287 404.774 36.28C404.774 34.273 405.134 32.509 405.854 30.988C406.583 29.467 407.632 28.2835 409 27.4375C410.368 26.5825 412.024 26.155 413.968 26.155C415.903 26.155 417.554 26.5825 418.922 27.4375C420.299 28.2835 421.348 29.467 422.068 30.988C422.788 32.509 423.148 34.273 423.148 36.28C423.148 38.287 422.788 40.051 422.068 41.572C421.348 43.093 420.299 44.281 418.922 45.136C417.554 45.982 415.903 46.405 413.968 46.405ZM413.968 43.7185C415.345 43.7365 416.488 43.435 417.397 42.814C418.315 42.184 419.003 41.311 419.462 40.195C419.921 39.07 420.151 37.765 420.151 36.28C420.151 34.795 419.921 33.499 419.462 32.392C419.003 31.276 418.315 30.4075 417.397 29.7865C416.488 29.1655 415.345 28.8505 413.968 28.8415C412.591 28.8235 411.443 29.125 410.525 29.746C409.616 30.367 408.932 31.24 408.473 32.365C408.014 33.49 407.78 34.795 407.771 36.28C407.762 37.765 407.987 39.0655 408.446 40.1815C408.905 41.2885 409.594 42.1525 410.512 42.7735C411.439 43.3945 412.591 43.7095 413.968 43.7185ZM435.533 46V38.8315C435.533 38.2645 435.484 37.684 435.385 37.09C435.295 36.487 435.115 35.929 434.845 35.416C434.584 34.903 434.21 34.489 433.724 34.174C433.247 33.859 432.622 33.7015 431.848 33.7015C431.344 33.7015 430.867 33.787 430.417 33.958C429.967 34.12 429.571 34.3855 429.229 34.7545C428.896 35.1235 428.63 35.6095 428.432 36.2125C428.243 36.8155 428.149 37.549 428.149 38.413L426.394 37.7515C426.394 36.4285 426.641 35.263 427.136 34.255C427.631 33.238 428.342 32.446 429.269 31.879C430.196 31.312 431.317 31.0285 432.631 31.0285C433.639 31.0285 434.485 31.1905 435.169 31.5145C435.853 31.8385 436.406 32.266 436.829 32.797C437.261 33.319 437.59 33.8905 437.815 34.5115C438.04 35.1325 438.193 35.74 438.274 36.334C438.355 36.928 438.395 37.45 438.395 37.9V46H435.533ZM425.287 46V31.42H427.811V35.632H428.149V46H425.287ZM441.102 38.6155V36.3475H449.202V38.6155H441.102ZM452.17 46V26.56H460.027C460.216 26.56 460.45 26.569 460.729 26.587C461.008 26.596 461.273 26.623 461.525 26.668C462.605 26.839 463.505 27.208 464.225 27.775C464.954 28.342 465.499 29.0575 465.859 29.9215C466.219 30.7855 466.399 31.7395 466.399 32.7835C466.399 33.8365 466.219 34.795 465.859 35.659C465.499 36.523 464.954 37.2385 464.225 37.8055C463.505 38.3725 462.605 38.7415 461.525 38.9125C461.273 38.9485 461.003 38.9755 460.715 38.9935C460.436 39.0115 460.207 39.0205 460.027 39.0205H454.991V46H452.17ZM454.991 36.3475H459.919C460.099 36.3475 460.297 36.3385 460.513 36.3205C460.738 36.3025 460.949 36.271 461.147 36.226C461.723 36.091 462.187 35.8435 462.538 35.4835C462.889 35.1145 463.141 34.6915 463.294 34.2145C463.447 33.7375 463.523 33.2605 463.523 32.7835C463.523 32.3065 463.447 31.834 463.294 31.366C463.141 30.889 462.889 30.4705 462.538 30.1105C462.187 29.7415 461.723 29.4895 461.147 29.3545C460.949 29.3005 460.738 29.2645 460.513 29.2465C460.297 29.2285 460.099 29.2195 459.919 29.2195H454.991V36.3475ZM468.557 46V31.42H471.068V34.957L470.717 34.498C470.897 34.03 471.131 33.6025 471.419 33.2155C471.707 32.8195 472.04 32.4955 472.418 32.2435C472.787 31.9735 473.197 31.7665 473.647 31.6225C474.106 31.4695 474.574 31.3795 475.051 31.3525C475.528 31.3165 475.987 31.339 476.428 31.42V34.066C475.951 33.94 475.42 33.904 474.835 33.958C474.259 34.012 473.728 34.1965 473.242 34.5115C472.783 34.8085 472.418 35.1685 472.148 35.5915C471.887 36.0145 471.698 36.487 471.581 37.009C471.464 37.522 471.406 38.0665 471.406 38.6425V46H468.557ZM484.662 46.405C483.213 46.405 481.939 46.09 480.841 45.46C479.752 44.821 478.902 43.9345 478.29 42.8005C477.687 41.6575 477.385 40.3345 477.385 38.8315C477.385 37.2385 477.682 35.857 478.276 34.687C478.879 33.517 479.716 32.6125 480.787 31.9735C481.858 31.3345 483.105 31.015 484.527 31.015C486.012 31.015 487.276 31.3615 488.32 32.0545C489.364 32.7385 490.143 33.715 490.656 34.984C491.178 36.253 491.385 37.7605 491.277 39.5065H488.455V38.4805C488.437 36.7885 488.113 35.5375 487.483 34.7275C486.862 33.9175 485.913 33.5125 484.635 33.5125C483.222 33.5125 482.16 33.958 481.449 34.849C480.738 35.74 480.382 37.027 480.382 38.71C480.382 40.312 480.738 41.554 481.449 42.436C482.16 43.309 483.186 43.7455 484.527 43.7455C485.409 43.7455 486.169 43.5475 486.808 43.1515C487.456 42.7465 487.96 42.1705 488.32 41.4235L491.088 42.301C490.521 43.606 489.661 44.6185 488.509 45.3385C487.357 46.0495 486.075 46.405 484.662 46.405ZM479.464 39.5065V37.306H489.873V39.5065H479.464ZM510.839 46L510.852 36.9145C510.852 35.8615 510.582 35.0425 510.042 34.4575C509.502 33.8635 508.791 33.5665 507.909 33.5665C507.369 33.5665 506.874 33.6925 506.424 33.9445C505.983 34.1875 505.623 34.5565 505.344 35.0515C505.074 35.5375 504.939 36.1495 504.939 36.8875L503.576 36.199C503.558 35.173 503.774 34.273 504.224 33.499C504.683 32.725 505.304 32.1265 506.087 31.7035C506.87 31.2715 507.747 31.0555 508.719 31.0555C510.294 31.0555 511.514 31.528 512.378 32.473C513.242 33.418 513.674 34.6735 513.674 36.2395L513.66 46H510.839ZM493.356 46V31.42H495.867V35.632H496.191V46H493.356ZM502.104 46L502.118 36.9685C502.118 35.9065 501.848 35.074 501.308 34.471C500.777 33.868 500.061 33.5665 499.161 33.5665C498.27 33.5665 497.55 33.8725 497.001 34.4845C496.461 35.0965 496.191 35.8975 496.191 36.8875L494.841 36.0235C494.841 35.0695 495.071 34.219 495.53 33.472C495.989 32.725 496.61 32.1355 497.393 31.7035C498.176 31.2715 499.062 31.0555 500.052 31.0555C501.087 31.0555 501.969 31.276 502.698 31.717C503.427 32.149 503.981 32.7565 504.359 33.5395C504.746 34.3225 504.939 35.2315 504.939 36.2665L504.926 46H502.104ZM526.419 26.56H529.267L524.083 46H521.235L526.419 26.56ZM545.229 46.405C543.285 46.405 541.629 45.982 540.261 45.136C538.893 44.281 537.844 43.093 537.115 41.572C536.395 40.051 536.035 38.287 536.035 36.28C536.035 34.273 536.395 32.509 537.115 30.988C537.844 29.467 538.893 28.2835 540.261 27.4375C541.629 26.5825 543.285 26.155 545.229 26.155C547.47 26.155 549.324 26.722 550.791 27.856C552.267 28.99 553.293 30.5155 553.869 32.4325L551.007 33.202C550.629 31.843 549.954 30.7765 548.982 30.0025C548.019 29.2285 546.768 28.8415 545.229 28.8415C543.852 28.8415 542.704 29.152 541.786 29.773C540.868 30.394 540.175 31.2625 539.707 32.3785C539.248 33.4945 539.019 34.795 539.019 36.28C539.01 37.765 539.235 39.0655 539.694 40.1815C540.162 41.2975 540.855 42.166 541.773 42.787C542.7 43.408 543.852 43.7185 545.229 43.7185C546.768 43.7185 548.019 43.3315 548.982 42.5575C549.954 41.7745 550.629 40.708 551.007 39.358L553.869 40.1275C553.293 42.0445 552.267 43.57 550.791 44.704C549.324 45.838 547.47 46.405 545.229 46.405ZM556.568 46V26.155H559.389V46H556.568ZM569.235 46.405C567.777 46.405 566.512 46.0765 565.441 45.4195C564.37 44.7625 563.542 43.858 562.957 42.706C562.381 41.545 562.093 40.2085 562.093 38.6965C562.093 37.1755 562.39 35.839 562.984 34.687C563.578 33.526 564.411 32.626 565.482 31.987C566.553 31.339 567.804 31.015 569.235 31.015C570.693 31.015 571.957 31.3435 573.028 32.0005C574.099 32.6575 574.927 33.562 575.512 34.714C576.097 35.866 576.39 37.1935 576.39 38.6965C576.39 40.2175 576.093 41.5585 575.499 42.7195C574.914 43.8715 574.086 44.776 573.015 45.433C571.944 46.081 570.684 46.405 569.235 46.405ZM569.235 43.7455C570.63 43.7455 571.669 43.2775 572.353 42.3415C573.046 41.3965 573.393 40.1815 573.393 38.6965C573.393 37.1755 573.042 35.9605 572.34 35.0515C571.647 34.1335 570.612 33.6745 569.235 33.6745C568.29 33.6745 567.511 33.8905 566.899 34.3225C566.287 34.7455 565.833 35.335 565.536 36.091C565.239 36.838 565.09 37.7065 565.09 38.6965C565.09 40.2265 565.441 41.4505 566.143 42.3685C566.845 43.2865 567.876 43.7455 569.235 43.7455ZM584.311 46.3915C583.303 46.3915 582.457 46.2295 581.773 45.9055C581.089 45.5815 580.531 45.1585 580.099 44.6365C579.676 44.1055 579.352 43.5295 579.127 42.9085C578.902 42.2875 578.749 41.68 578.668 41.086C578.587 40.492 578.546 39.97 578.546 39.52V31.42H581.408V38.5885C581.408 39.1555 581.453 39.7405 581.543 40.3435C581.642 40.9375 581.822 41.491 582.083 42.004C582.353 42.517 582.727 42.931 583.204 43.246C583.69 43.561 584.32 43.7185 585.094 43.7185C585.598 43.7185 586.075 43.6375 586.525 43.4755C586.975 43.3045 587.366 43.0345 587.699 42.6655C588.041 42.2965 588.307 41.8105 588.496 41.2075C588.694 40.6045 588.793 39.871 588.793 39.007L590.548 39.6685C590.548 40.9915 590.3 42.1615 589.805 43.1785C589.31 44.1865 588.599 44.974 587.672 45.541C586.745 46.108 585.625 46.3915 584.311 46.3915ZM589.13 46V41.788H588.793V31.42H591.641V46H589.13ZM600.679 46.405C599.32 46.405 598.146 46.0675 597.156 45.3925C596.175 44.7175 595.414 43.7995 594.874 42.6385C594.343 41.4685 594.078 40.1545 594.078 38.6965C594.078 37.2295 594.348 35.92 594.888 34.768C595.428 33.607 596.193 32.6935 597.183 32.0275C598.182 31.3525 599.365 31.015 600.733 31.015C602.11 31.015 603.267 31.3525 604.203 32.0275C605.148 32.6935 605.859 33.607 606.336 34.768C606.822 35.929 607.065 37.2385 607.065 38.6965C607.065 40.1545 606.822 41.464 606.336 42.625C605.85 43.786 605.134 44.7085 604.189 45.3925C603.244 46.0675 602.074 46.405 600.679 46.405ZM601.071 43.8535C601.998 43.8535 602.754 43.633 603.339 43.192C603.924 42.751 604.351 42.1435 604.621 41.3695C604.891 40.5955 605.026 39.7045 605.026 38.6965C605.026 37.6885 604.887 36.7975 604.608 36.0235C604.338 35.2495 603.915 34.6465 603.339 34.2145C602.772 33.7825 602.047 33.5665 601.165 33.5665C600.229 33.5665 599.46 33.796 598.857 34.255C598.254 34.714 597.804 35.3305 597.507 36.1045C597.219 36.8785 597.075 37.7425 597.075 38.6965C597.075 39.6595 597.219 40.5325 597.507 41.3155C597.804 42.0895 598.245 42.706 598.83 43.165C599.424 43.624 600.171 43.8535 601.071 43.8535ZM605.026 46V35.5105H604.702V26.56H607.537V46H605.026ZM620.554 26.56H623.402L618.218 46H615.37L620.554 26.56ZM631.25 46V26.56H643.67V29.2195H634.072V34.6735H642.05V37.333H634.072V43.3405H643.67V46H631.25ZM652.164 46.405C650.805 46.405 649.63 46.0675 648.64 45.3925C647.659 44.7175 646.899 43.7995 646.359 42.6385C645.828 41.4685 645.562 40.1545 645.562 38.6965C645.562 37.2295 645.832 35.92 646.372 34.768C646.912 33.607 647.677 32.6935 648.667 32.0275C649.666 31.3525 650.85 31.015 652.218 31.015C653.595 31.015 654.751 31.3525 655.687 32.0275C656.632 32.6935 657.343 33.607 657.82 34.768C658.306 35.929 658.549 37.2385 658.549 38.6965C658.549 40.1545 658.306 41.464 657.82 42.625C657.334 43.786 656.619 44.7085 655.674 45.3925C654.729 46.0675 653.559 46.405 652.164 46.405ZM652.555 43.8535C653.482 43.8535 654.238 43.633 654.823 43.192C655.408 42.751 655.836 42.1435 656.106 41.3695C656.376 40.5955 656.511 39.7045 656.511 38.6965C656.511 37.6885 656.371 36.7975 656.092 36.0235C655.822 35.2495 655.399 34.6465 654.823 34.2145C654.256 33.7825 653.532 33.5665 652.65 33.5665C651.714 33.5665 650.944 33.796 650.341 34.255C649.738 34.714 649.288 35.3305 648.991 36.1045C648.703 36.8785 648.559 37.7425 648.559 38.6965C648.559 39.6595 648.703 40.5325 648.991 41.3155C649.288 42.0895 649.729 42.706 650.314 43.165C650.908 43.624 651.655 43.8535 652.555 43.8535ZM656.511 46V35.5105H656.187V26.56H659.022V46H656.511ZM668.267 52.885C667.484 52.885 666.723 52.7635 665.985 52.5205C665.256 52.2775 664.59 51.9175 663.987 51.4405C663.384 50.9725 662.885 50.392 662.489 49.699L665.094 48.376C665.409 48.997 665.859 49.4515 666.444 49.7395C667.029 50.0275 667.646 50.1715 668.294 50.1715C669.095 50.1715 669.779 50.0275 670.346 49.7395C670.913 49.4605 671.34 49.0375 671.628 48.4705C671.925 47.9035 672.069 47.2015 672.06 46.3645V42.2875H672.398V31.42H674.895V46.3915C674.895 46.7785 674.882 47.1475 674.855 47.4985C674.828 47.8495 674.778 48.2005 674.706 48.5515C674.499 49.5325 674.103 50.3425 673.518 50.9815C672.942 51.6205 672.204 52.0975 671.304 52.4125C670.413 52.7275 669.401 52.885 668.267 52.885ZM668.051 46.405C666.692 46.405 665.517 46.0675 664.527 45.3925C663.546 44.7175 662.786 43.7995 662.246 42.6385C661.715 41.4685 661.449 40.1545 661.449 38.6965C661.449 37.2295 661.719 35.92 662.259 34.768C662.799 33.607 663.564 32.6935 664.554 32.0275C665.553 31.3525 666.737 31.015 668.105 31.015C669.482 31.015 670.638 31.3525 671.574 32.0275C672.519 32.6935 673.23 33.607 673.707 34.768C674.193 35.929 674.436 37.2385 674.436 38.6965C674.436 40.1545 674.193 41.464 673.707 42.625C673.221 43.786 672.506 44.7085 671.561 45.3925C670.616 46.0675 669.446 46.405 668.051 46.405ZM668.442 43.8535C669.369 43.8535 670.125 43.633 670.71 43.192C671.295 42.751 671.723 42.1435 671.993 41.3695C672.263 40.5955 672.398 39.7045 672.398 38.6965C672.398 37.6885 672.258 36.7975 671.979 36.0235C671.709 35.2495 671.286 34.6465 670.71 34.2145C670.143 33.7825 669.419 33.5665 668.537 33.5665C667.601 33.5665 666.831 33.796 666.228 34.255C665.625 34.714 665.175 35.3305 664.878 36.1045C664.59 36.8785 664.446 37.7425 664.446 38.6965C664.446 39.6595 664.59 40.5325 664.878 41.3155C665.175 42.0895 665.616 42.706 666.201 43.165C666.795 43.624 667.542 43.8535 668.442 43.8535ZM684.612 46.405C683.163 46.405 681.89 46.09 680.792 45.46C679.703 44.821 678.852 43.9345 678.24 42.8005C677.637 41.6575 677.336 40.3345 677.336 38.8315C677.336 37.2385 677.633 35.857 678.227 34.687C678.83 33.517 679.667 32.6125 680.738 31.9735C681.809 31.3345 683.055 31.015 684.477 31.015C685.962 31.015 687.227 31.3615 688.271 32.0545C689.315 32.7385 690.093 33.715 690.606 34.984C691.128 36.253 691.335 37.7605 691.227 39.5065H688.406V38.4805C688.388 36.7885 688.064 35.5375 687.434 34.7275C686.813 33.9175 685.863 33.5125 684.585 33.5125C683.172 33.5125 682.11 33.958 681.399 34.849C680.688 35.74 680.333 37.027 680.333 38.71C680.333 40.312 680.688 41.554 681.399 42.436C682.11 43.309 683.136 43.7455 684.477 43.7455C685.359 43.7455 686.12 43.5475 686.759 43.1515C687.407 42.7465 687.911 42.1705 688.271 41.4235L691.038 42.301C690.471 43.606 689.612 44.6185 688.46 45.3385C687.308 46.0495 686.025 46.405 684.612 46.405ZM679.415 39.5065V37.306H689.823V39.5065H679.415Z" fill="white"/>
<g filter="url(#filter0_d_507_165)">
<rect x="32" y="78" width="131" height="128" rx="15" fill="white"/>
</g>
<path d="M167.25 140.25C166.284 140.25 165.5 141.034 165.5 142C165.5 142.966 166.284 143.75 167.25 143.75V140.25ZM299.667 142C299.667 147.155 303.845 151.333 309 151.333C314.155 151.333 318.333 147.155 318.333 142C318.333 136.845 314.155 132.667 309 132.667C303.845 132.667 299.667 136.845 299.667 142ZM167.25 142V143.75H309V142V140.25H167.25V142Z" fill="#FDC500"/>
<path d="M167.25 140.25C166.284 140.25 165.5 141.034 165.5 142C165.5 142.966 166.284 143.75 167.25 143.75V140.25ZM299.667 248C299.667 253.155 303.845 257.333 309 257.333C314.155 257.333 318.333 253.155 318.333 248C318.333 242.845 314.155 238.667 309 238.667C303.845 238.667 299.667 242.845 299.667 248ZM167.25 142V143.75C190.892 143.75 205.283 150.26 215.183 159.821C225.177 169.474 230.773 182.382 236.518 195.693C242.21 208.882 248.052 222.474 258.636 232.696C269.314 243.01 284.642 249.75 309 249.75V248V246.25C285.358 246.25 270.967 239.74 261.067 230.179C251.073 220.526 245.477 207.618 239.732 194.307C234.04 181.118 228.198 167.526 217.614 157.304C206.936 146.99 191.608 140.25 167.25 140.25V142Z" fill="#00B4D8"/>
<path d="M167.25 140.25C166.284 140.25 165.5 141.034 165.5 142C165.5 142.966 166.284 143.75 167.25 143.75V140.25ZM299.667 36C299.667 41.1547 303.845 45.3333 309 45.3333C314.155 45.3333 318.333 41.1547 318.333 36C318.333 30.8453 314.155 26.6667 309 26.6667C303.845 26.6667 299.667 30.8453 299.667 36ZM167.25 142V143.75C191.608 143.75 206.936 137.01 217.614 126.696C228.198 116.474 234.04 102.882 239.732 89.6935C245.477 76.3818 251.073 63.4738 261.067 53.8213C270.967 44.2597 285.358 37.75 309 37.75V36V34.25C284.642 34.25 269.314 40.9903 258.636 51.3037C248.052 61.5262 242.21 75.1182 236.518 88.3065C230.773 101.618 225.177 114.526 215.183 124.179C205.283 133.74 190.892 140.25 167.25 140.25V142Z" fill="#FF4E46"/>
<path fill-rule="evenodd" clip-rule="evenodd" d="M49.8594 167.354C49.8594 177.787 57.5595 182.999 65.2983 182.999C72.9948 182.999 80.6963 177.788 80.6963 167.354C80.6963 156.921 72.9948 151.709 65.2983 151.709C57.5595 151.709 49.8594 156.922 49.8594 167.354ZM55.93 167.354C55.93 161.03 60.5936 157.903 65.2983 157.903C69.9645 157.903 74.6668 161.03 74.6668 167.354C74.6668 173.679 69.9645 176.805 65.2983 176.805C60.5936 176.805 55.93 173.679 55.93 167.354Z" fill="#324086"/>
<path fill-rule="evenodd" clip-rule="evenodd" d="M129.393 170.395H139.263C139.828 170.395 140.286 169.936 140.286 169.372V165.338C140.286 164.773 139.828 164.315 139.263 164.315H129.393V158.351C129.393 158.178 129.433 158.029 129.533 157.93C129.633 157.83 129.781 157.79 129.955 157.79H142.474C142.838 157.79 143.128 157.658 143.333 157.453C143.538 157.247 143.67 156.958 143.67 156.593V152.906C143.67 152.542 143.538 152.252 143.333 152.047C143.128 151.842 142.838 151.71 142.474 151.71H124.167C123.802 151.71 123.513 151.842 123.308 152.047C123.103 152.252 122.971 152.542 122.971 152.906V181.803C122.971 182.168 123.103 182.457 123.308 182.662C123.513 182.868 123.802 183 124.167 183H142.474C142.838 183 143.128 182.867 143.333 182.662C143.538 182.457 143.67 182.168 143.67 181.803V178.116C143.67 177.751 143.538 177.462 143.333 177.257C143.128 177.052 142.838 176.92 142.474 176.92H129.955C129.781 176.92 129.633 176.88 129.533 176.78C129.433 176.681 129.393 176.532 129.393 176.358V170.395Z" fill="#324086"/>
<path fill-rule="evenodd" clip-rule="evenodd" d="M131.536 130.347C131.572 130.385 131.615 130.431 131.648 130.476C131.65 130.477 137.077 139.152 137.077 139.152C137.363 139.642 137.919 139.933 138.482 139.933H143.369C143.805 139.933 144.082 139.733 144.222 139.5C144.359 139.272 144.424 138.93 144.181 138.506C144.177 138.498 144.173 138.491 144.168 138.484L135.722 124.979C135.721 124.976 135.719 124.974 135.718 124.972C135.462 124.573 135.462 124.004 135.718 123.605C135.719 123.603 135.721 123.6 135.722 123.598L144.168 110.093C144.173 110.086 144.177 110.078 144.181 110.071C144.424 109.646 144.359 109.304 144.222 109.077C144.082 108.843 143.805 108.644 143.369 108.644H138.482C137.917 108.644 137.359 108.937 137.074 109.43C137.077 109.424 131.65 118.099 131.65 118.099C131.616 118.145 131.573 118.192 131.536 118.23C131.5 118.192 131.458 118.146 131.424 118.101C131.423 118.099 125.996 109.424 125.996 109.424C125.71 108.935 125.154 108.644 124.591 108.644H119.703C119.206 108.644 118.942 108.872 118.818 109.105C118.701 109.325 118.657 109.661 118.891 110.071C118.896 110.078 118.9 110.086 118.904 110.093L127.35 123.598C127.352 123.6 127.353 123.603 127.355 123.605C127.611 124.004 127.611 124.573 127.355 124.972C127.353 124.974 127.352 124.976 127.35 124.979L118.904 138.484C118.9 138.491 118.896 138.498 118.891 138.506C118.657 138.916 118.701 139.252 118.818 139.472C118.942 139.705 119.206 139.933 119.703 139.933H124.591C125.156 139.933 125.714 139.639 125.999 139.147C125.996 139.153 131.423 130.477 131.423 130.477C131.457 130.432 131.5 130.385 131.536 130.347Z" fill="#324086"/>
<path fill-rule="evenodd" clip-rule="evenodd" d="M89.0547 124.288C89.0547 132.411 94.4142 140.576 105.171 140.576C109.067 140.576 111.663 139.628 114.082 137.75C114.614 137.38 114.728 136.657 114.363 136.11C114.358 136.103 114.353 136.096 114.349 136.09L111.996 132.839C111.797 132.547 111.516 132.389 111.22 132.352C110.935 132.316 110.62 132.392 110.335 132.629C110.335 132.629 110.335 132.629 110.335 132.629C109.383 133.422 107.791 134.196 105.214 134.196C98.8783 134.196 95.7239 129.236 95.7239 124.288C95.7239 119.34 98.8783 114.38 105.214 114.38C107.329 114.38 109.126 115.179 110.323 116.057C110.326 116.059 110.328 116.06 110.33 116.062C110.648 116.289 110.952 116.346 111.224 116.301C111.497 116.255 111.766 116.102 111.993 115.784C111.994 115.783 111.995 115.781 111.996 115.78L114.311 112.479C114.314 112.474 114.317 112.47 114.32 112.466C114.696 111.902 114.634 111.161 113.977 110.785C111.266 109.23 108.283 108 105.171 108C94.4142 108 89.0547 116.12 89.0547 124.288Z" fill="#324086"/>
<path fill-rule="evenodd" clip-rule="evenodd" d="M57.5856 124.556L65.4708 137.824C65.7569 138.321 66.2679 138.655 66.8374 138.655H67.4377C68.0073 138.655 68.5184 138.321 68.8045 137.823L76.6808 124.501L78.9382 138.828C79.0276 139.505 79.5335 139.933 80.2137 139.933H84.158C84.5565 139.933 84.8425 139.778 85.0293 139.553C85.2077 139.339 85.3112 139.038 85.2637 138.658C85.2634 138.655 85.2631 138.653 85.2627 138.651L81.7416 109.711C81.7414 109.709 81.7413 109.708 81.7411 109.706C81.6526 109.088 81.2145 108.644 80.5083 108.644H78.0743C77.754 108.644 77.4131 108.822 77.1997 109.142C77.1866 109.162 77.1746 109.183 77.1637 109.204L67.1376 128.611L57.155 109.29C56.9705 108.929 56.5258 108.644 56.0722 108.644H53.5097C53.0422 108.644 52.6636 108.96 52.5469 109.428C52.5412 109.45 52.5367 109.474 52.5336 109.497L49.0124 138.651C49.0121 138.653 49.0117 138.656 49.0115 138.658C48.9641 139.038 49.0676 139.339 49.2458 139.553C49.4327 139.777 49.7186 139.933 50.1172 139.933H54.0614C54.7434 139.933 55.2502 139.502 55.3377 138.822L57.5856 124.556Z" fill="#324086"/>
<path fill-rule="evenodd" clip-rule="evenodd" d="M93.8177 163.968C95.457 165.629 97.118 167.289 98.7887 168.952C102.792 173.003 107.24 177.5 111.211 181.675C114.171 184.787 116.547 181.748 116.547 179.383C116.547 175.232 116.59 169.862 116.617 166.984C116.623 166.234 116.289 166.138 115.992 166.828C114.156 171.094 111.312 172.09 109.332 170.741C107.693 169.08 106.032 167.421 104.361 165.758C100.357 161.707 95.9094 157.209 91.9386 153.034C88.979 149.923 86.6025 152.962 86.6025 155.327C86.6025 159.478 86.5594 164.848 86.5333 167.725C86.5265 168.476 86.8609 168.571 87.1576 167.882C88.9939 163.615 91.8381 162.62 93.8177 163.968Z" fill="#324086"/>
<path fill-rule="evenodd" clip-rule="evenodd" d="M90.7119 174.642C88.4041 174.642 86.5332 176.512 86.5332 178.82C86.5332 181.128 88.4041 182.999 90.7119 182.999C93.0196 182.999 94.8904 181.128 94.8904 178.82C94.8904 176.512 93.0196 174.642 90.7119 174.642Z" fill="#E8B25A"/>
<path fill-rule="evenodd" clip-rule="evenodd" d="M112.434 151.71C110.127 151.71 108.256 153.581 108.256 155.889C108.256 158.197 110.127 160.067 112.434 160.067C114.742 160.067 116.613 158.197 116.613 155.889C116.613 153.581 114.742 151.71 112.434 151.71Z" fill="#BA3350"/>
<defs>
<filter id="filter0_d_507_165" x="0" y="46" width="195" height="192" filterUnits="userSpaceOnUse" color-interpolation-filters="sRGB">
<feFlood flood-opacity="0" result="BackgroundImageFix"/>
<feColorMatrix in="SourceAlpha" type="matrix" values="0 0 0 0 0 0 0 0 0 0 0 0 0 0 0 0 0 0 127 0" result="hardAlpha"/>
<feMorphology radius="8" operator="dilate" in="SourceAlpha" result="effect1_dropShadow_507_165"/>
<feOffset/>
<feGaussianBlur stdDeviation="12"/>
<feComposite in2="hardAlpha" operator="out"/>
<feColorMatrix type="matrix" values="0 0 0 0 0 0 0 0 0 0 0 0 0 0 0 0 0 0 0.21 0"/>
<feBlend mode="normal" in2="BackgroundImageFix" result="effect1_dropShadow_507_165"/>
<feBlend mode="normal" in="SourceGraphic" in2="effect1_dropShadow_507_165" result="shape"/>
</filter>
</defs>
</svg>
