<svg width="158" height="160" viewBox="0 0 158 160" fill="none" xmlns="http://www.w3.org/2000/svg">
<path fill-rule="evenodd" clip-rule="evenodd" d="M13.6838 1.54466C11.9607 3.39534 9.5832 7.29699 8.40303 10.211C4.42301 20.0386 5.49355 31.3089 11.2558 40.2443C14.084 44.6302 15.9279 45.8735 17.4056 44.3912C18.4403 43.3532 18.2048 42.0665 16.6247 40.1205C12.6413 35.215 10.5531 29.1617 10.5531 22.5192C10.5531 15.9298 12.6042 9.89662 16.488 5.06167C18.2711 2.84167 18.5471 1.35969 17.3361 0.508871C16.1111 -0.351946 15.2128 -0.0972938 13.6838 1.54466ZM59.4546 0.64729C58.4133 1.69183 58.6734 2.78293 60.5653 5.3057C64.54 10.6059 66.355 16.002 66.355 22.5192C66.355 29.0364 64.54 34.4326 60.5653 39.7328C58.6734 42.2555 58.4133 43.3466 59.4546 44.3912C60.7528 45.6935 62.0625 45.0983 64.2924 42.1912C68.8187 36.2901 71.2971 28.1684 70.8433 20.7242C70.411 13.6317 67.5563 6.47616 63.1611 1.46686C61.7286 -0.165409 60.5292 -0.430685 59.4546 0.64729ZM20.3132 7.32979C18.5322 9.37357 17.1355 11.8767 16.0675 14.9387C15.2492 17.2853 15.0935 18.2376 14.9779 21.6081C14.8661 24.8758 14.9533 25.9766 15.494 28.1213C16.3269 31.4258 17.898 34.6747 19.8105 37.0485C21.47 39.1082 22.4748 39.5044 23.811 38.6264C25.037 37.8205 24.8467 36.2857 23.2753 34.3054C19.7432 29.8532 18.4269 23.4435 19.8771 17.7561C20.5814 14.9934 21.5329 13.0215 23.2974 10.6675C24.7925 8.67336 24.9909 7.22793 23.8771 6.44554C22.6405 5.57629 21.6207 5.82938 20.3132 7.32979ZM52.9136 6.58396C51.9468 7.55382 52.1387 8.74147 53.5711 10.6534C56.3233 14.3279 57.5857 18.0695 57.5857 22.5517C57.5857 26.863 56.2261 30.8809 53.5817 34.3841C52.138 36.2964 51.9437 37.4815 52.9136 38.4545C53.2562 38.7982 53.9461 39.0794 54.4467 39.0794C56.3869 39.0794 60.2766 32.9618 61.4994 27.9872C62.199 25.1417 62.2036 19.9793 61.5094 17.0512C60.3438 12.1351 56.4112 5.95905 54.4467 5.95905C53.9461 5.95905 53.2562 6.24026 52.9136 6.58396ZM34.8727 11.766C32.864 12.4978 31.383 13.5202 29.9268 15.1796C25.4494 20.2824 26.7485 28.6774 32.5429 32.0838C33.297 32.5269 33.9137 32.935 33.9137 32.9903C33.9137 33.2149 9.26238 154.573 9.11412 155.079C8.97302 155.56 8.50737 155.626 5.22288 155.626C1.67705 155.626 1.45404 155.664 0.727681 156.393C-0.24256 157.366 -0.24256 158.26 0.727681 159.233L1.49204 160H63.1555H124.819L125.464 159.177C126.279 158.138 126.279 157.488 125.464 156.449L124.819 155.626L117.6 155.625L110.381 155.624L105.933 139.49C103.487 130.616 101.538 123.304 101.602 123.24C101.666 123.176 102.28 123.323 102.968 123.566C106.192 124.707 109.427 125.141 114.741 125.146C119.148 125.15 120.581 125.03 123.282 124.427C130.603 122.794 136.672 119.751 142.418 114.83C145.089 112.543 145.823 111.16 145.806 108.451C145.772 103.224 140.789 94.118 132.551 84.2331C131.407 82.8602 130.471 81.6132 130.471 81.4619C130.471 81.3104 131.114 79.3216 131.901 77.0419L133.331 72.8972L134.938 72.7603C142.085 72.1517 145.226 63.2845 140.111 58.1542C136.819 54.851 131.461 54.7522 128.203 57.9352C126.564 59.5362 125.729 61.2385 125.551 63.3426L125.415 64.9527L121.32 66.389C119.067 67.1789 117.085 67.8254 116.914 67.8254C116.743 67.8254 115.483 66.8865 114.115 65.7388C106.769 59.5784 99.384 54.9503 93.9911 53.1271C91.3168 52.2232 88.364 52.1935 86.7048 53.0537C83.1036 54.9209 76.8588 64.7527 74.8943 71.6483C71.0265 85.2245 73.8325 99.007 82.7232 110.102L84.4267 112.228L78.7716 132.755C75.6612 144.045 72.9638 153.81 72.7773 154.454L72.4377 155.626H70.1824H67.927L67.432 153.36C66.0014 146.811 42.9464 33.9358 42.9464 33.4811C42.9464 33.1846 43.4834 32.6428 44.1481 32.2679C45.8432 31.3121 47.8437 29.0283 48.8078 26.9483C49.4939 25.4679 49.6291 24.7367 49.6269 22.5192C49.6244 20.2686 49.489 19.5668 48.7383 17.9193C47.6917 15.6214 45.2215 13.1202 43.0246 12.1335C41.0471 11.2455 36.8241 11.0552 34.8727 11.766ZM36.2497 15.9767C34.8565 16.387 32.9749 18.0892 32.323 19.5287C31.0734 22.2886 31.8623 25.9244 34.1149 27.7872C38.545 31.4502 45.2255 28.2828 45.2255 22.5192C45.2255 17.8199 40.8415 14.6247 36.2497 15.9767ZM38.1843 34.5488C37.9697 35.2637 32.679 61.3775 32.5784 62.2196C32.5339 62.5914 33.472 63.4972 35.4334 64.9764C37.903 66.8393 38.4338 67.1208 38.8683 66.7996C41.903 64.5546 44.1923 62.7024 44.1923 62.4911C44.1923 62.2315 38.6353 34.8256 38.4631 34.2363C38.4129 34.0645 38.2874 34.2051 38.1843 34.5488ZM129.96 40.457C125.091 41.3897 121.174 43.3319 117.778 46.4981C116.217 47.9535 116.02 49.1849 117.175 50.2735C118.271 51.3065 119.086 51.1084 121.312 49.2664C125.242 46.015 129.244 44.5886 134.364 44.6152C140.975 44.6489 146.666 47.7479 150.399 53.3474C152.589 56.632 153.583 59.8993 153.615 63.9197C153.655 69.004 152.296 72.8559 148.999 77.0063C148.059 78.1893 147.29 79.4653 147.29 79.8421C147.29 80.7398 148.529 81.8859 149.499 81.8859C150.583 81.8859 151.381 81.2382 153.06 78.9976C156.512 74.3907 158 69.9442 158 64.2321C158 58.5039 156.514 54.0754 153.032 49.4289C147.958 42.6577 138.226 38.8732 129.96 40.457ZM130.23 48.2803C126.768 49.1211 122.298 52.0813 121.895 53.7989C121.755 54.3951 121.903 54.8466 122.445 55.4784C123.493 56.7007 124.517 56.5951 126.43 55.0672C129.421 52.6784 133.257 51.7617 136.633 52.6294C139.294 53.3134 140.73 54.1073 142.478 55.8605C146.86 60.2571 147.1 67.0824 143.048 72.096C141.719 73.7408 141.65 75.0063 142.838 75.9443C143.42 76.4033 143.927 76.5517 144.474 76.4229C146.266 76.0011 149.323 71.1618 150.063 67.5757C152.163 57.4022 144.173 47.712 133.804 47.8548C132.741 47.8694 131.133 48.061 130.23 48.2803ZM88.4307 57.3472C87.6738 58.262 88.8381 62.3502 90.9596 66.2281C97.9369 78.9813 113.329 95.2397 127.199 104.507C132.995 108.38 138.93 110.824 140.638 110.043C143.229 108.859 138.965 99.585 131.315 89.7639C129.938 87.9963 128.713 86.6606 128.593 86.7956C128.473 86.9309 127.771 88.7781 127.033 90.9009C126.295 93.0234 125.457 95.0507 125.171 95.4053C124.099 96.7332 121.45 95.8193 121.433 94.1152C121.43 93.8336 122.292 91.0946 123.35 88.0285L125.272 82.454L120.58 77.7471L115.888 73.0403L110.331 74.9688C107.275 76.0296 104.544 76.8951 104.264 76.8919C102.565 76.8741 101.654 74.2173 102.977 73.1422C103.331 72.855 105.352 72.0142 107.468 71.274C109.584 70.5338 111.425 69.8295 111.56 69.7089C111.874 69.428 106.333 65.0808 102.238 62.3955C95.4171 57.9227 89.6875 55.828 88.4307 57.3472ZM132.047 60.5848C130.824 61.2432 129.848 62.8617 129.848 64.2321C129.848 66.3856 131.906 68.4503 134.053 68.4503C136.199 68.4503 138.258 66.3856 138.258 64.2321C138.258 62.0787 136.199 60.014 134.053 60.014C133.533 60.014 132.631 60.2708 132.047 60.5848ZM84.3875 64.1925C83.733 65.9191 83.3633 69.5702 83.5605 72.356C83.7844 75.5187 84.3183 78.0721 85.5172 81.7156C86.2656 83.9906 86.3709 84.1497 86.7571 83.5904C86.9895 83.2545 88.2242 81.381 89.5012 79.4272L91.8233 75.8749L91.0866 74.8966C89.652 72.9906 86.73 67.9494 85.7296 65.6548C84.7379 63.3807 84.7076 63.3476 84.3875 64.1925ZM31.1388 69.0793C30.9572 69.9285 30.7155 71.2077 30.6015 71.9226L30.3943 73.2221L32.4526 71.6955C33.5848 70.8559 34.5167 70.0935 34.5239 70.001C34.531 69.9089 33.8464 69.3164 33.0026 68.6846L31.4686 67.5357L31.1388 69.0793ZM43.7908 68.6368C42.9732 69.2758 42.3437 69.9101 42.3917 70.0466C42.4932 70.3341 46.1721 73.13 46.2914 73.0103C46.3353 72.9662 46.1253 71.7027 45.8245 70.2026L45.2775 67.4748L43.7908 68.6368ZM124.376 70.036C123.017 70.5019 121.59 71.0065 121.205 71.1574C120.551 71.4136 120.716 71.6424 123.728 74.6535L126.951 77.8755L128.049 74.6866L129.148 71.4977L127.997 70.3432L126.846 69.1889L124.376 70.036ZM34.366 75.7352C32.3021 77.3138 30.2346 78.9067 29.7714 79.2754C29.0718 79.8322 28.8242 80.4589 28.3068 82.9811C27.9645 84.6506 27.6842 86.1338 27.6842 86.2769C27.6842 86.8109 38.2728 94.7345 38.6643 94.4932C39.0602 94.2492 48.5116 86.9865 48.9479 86.5909C49.0794 86.4715 48.8775 84.9314 48.4994 83.1679L47.8117 79.9618L43.3554 76.5401C40.9044 74.6579 38.7235 73.0612 38.5089 72.9915C38.2943 72.9219 36.4298 74.1567 34.366 75.7352ZM78.5071 75.3518C76.9797 81.9903 77.4671 89.4636 79.8676 96.2008C81.0902 99.6325 81.5671 100.342 81.5739 98.743C81.5792 97.5494 82.4541 93.9121 83.3736 91.2596L83.9695 89.5411L82.9322 87.253C81.4867 84.0628 80.0586 79.4491 79.6409 76.6198C79.4472 75.3059 79.1958 74.122 79.0824 73.9892C78.969 73.8564 78.7102 74.4695 78.5071 75.3518ZM92.7368 82.4252C91.7694 83.9403 90.5148 86.1219 89.9488 87.2736L88.9197 89.3674L90.9894 92.437C95.0358 98.4371 99.9456 103.361 105.943 107.434L108.98 109.496L110.896 108.58C111.949 108.076 114.129 106.811 115.74 105.769L118.668 103.874L115.342 101.105C109.232 96.0193 101.137 87.7811 95.5856 81.0017L94.4954 79.6706L92.7368 82.4252ZM25.1211 98.6739C24.3324 102.587 23.7251 105.827 23.7715 105.874C23.9007 106.003 34.5385 97.7597 34.5226 97.5425C34.5064 97.3241 27.345 91.8233 26.8697 91.6643C26.6897 91.604 25.9415 94.6029 25.1211 98.6739ZM45.8104 94.5932C43.7027 96.2352 42.0207 97.6106 42.0728 97.6494C42.1251 97.6884 44.6511 99.6359 47.6865 101.978C52.9479 106.037 53.1958 106.188 53.0058 105.231C51.3606 96.9316 50.192 91.7589 49.9468 91.6914C49.7799 91.6455 47.9185 92.9513 45.8104 94.5932ZM86.5603 95.8684C84.9469 101.543 85.8031 107.421 88.6263 110.051C90.7278 112.008 94.4599 113.027 98.1618 112.654C100.135 112.456 103.27 111.776 103.561 111.485C103.629 111.416 102.388 110.393 100.803 109.21C97.1165 106.459 91.9591 101.285 89.2165 97.5869C88.0376 95.9974 87.0325 94.6966 86.9833 94.6966C86.9341 94.6966 86.7438 95.2241 86.5603 95.8684ZM30.3124 106.585L22.2334 112.809L21.693 115.548C21.3959 117.054 21.0825 118.585 20.9965 118.95C20.8554 119.547 21.7058 120.022 29.5808 123.746L38.3214 127.88L40.4005 126.932C42.729 125.871 55.8433 119.667 55.9249 119.587C56.0417 119.473 54.6087 113.26 54.386 112.915C54.2536 112.711 51.7306 110.682 48.7794 108.408C45.8282 106.134 42.2836 103.393 40.9025 102.317L38.3914 100.361L30.3124 106.585ZM118.79 108.949C116.906 110.215 115.09 111.442 114.755 111.676C114.197 112.065 114.355 112.169 116.624 112.921C120.256 114.123 122.802 114.659 125.954 114.884C128.731 115.081 132.371 114.71 134.092 114.054C134.934 113.733 134.901 113.702 132.634 112.708C130.338 111.7 125.319 108.771 123.405 107.321C122.86 106.908 122.37 106.587 122.315 106.608C122.261 106.629 120.675 107.682 118.79 108.949ZM106.175 115.395C104.719 115.89 102.512 116.458 101.27 116.658C100.028 116.858 99.0118 117.118 99.0118 117.234C99.0118 117.608 104.361 119.423 107.422 120.087C111.357 120.941 117.899 120.986 122 120.187C123.593 119.876 124.824 119.549 124.735 119.46C124.646 119.371 123.392 119.108 121.949 118.876C118.808 118.371 115.123 117.237 111.49 115.656L108.822 114.495L106.175 115.395ZM87.5231 117.734C85.3736 125.099 77.16 155.368 77.2784 155.488C77.3578 155.567 83.7938 155.595 91.5806 155.551L105.739 155.469L101.305 139.378C98.867 130.528 96.7215 122.775 96.5381 122.149C96.2587 121.197 95.8354 120.793 93.9482 119.676C92.7072 118.941 90.8929 117.727 89.9164 116.979L88.1404 115.618L87.5231 117.734ZM19.8952 124.32C19.8939 124.439 19.2788 127.524 18.5284 131.176C17.7781 134.828 17.2255 137.816 17.3003 137.816C17.4691 137.816 32.7756 130.603 32.9491 130.442C33.0182 130.378 31.126 129.394 28.7442 128.256C21.7438 124.911 19.8974 124.09 19.8952 124.32ZM50.3499 127.133C46.7981 128.798 43.8899 130.242 43.8868 130.342C43.8812 130.516 59.1456 137.816 59.5153 137.816C59.6611 137.816 57.2163 125.25 56.8967 124.357C56.8475 124.219 53.9013 125.469 50.3499 127.133ZM27.0644 138.133L16.0102 143.395L14.854 149.12C14.2179 152.268 13.6909 155.02 13.6828 155.235C13.671 155.544 18.82 155.626 38.4301 155.626C52.0493 155.626 63.1985 155.52 63.2063 155.391C63.2141 155.262 62.6895 152.525 62.041 149.308L60.8615 143.459L49.6366 138.138C43.4629 135.211 38.3457 132.828 38.265 132.843C38.1846 132.858 33.1444 135.238 27.0644 138.133Z" fill="#CB0447"/>
</svg>
