<svg width="166" height="161" viewBox="0 0 166 161" fill="none" xmlns="http://www.w3.org/2000/svg">
<path fill-rule="evenodd" clip-rule="evenodd" d="M9.46387 1.12292C5.0369 2.63228 1.56696 6.44715 0.499933 10.9775C-0.152319 13.7462 -0.172055 31.6318 0.474374 34.0627C1.09589 36.3999 2.43113 38.7226 4.09023 40.3528L5.50571 41.7436L3.93267 43.4087C0.392518 47.1559 0.0207736 48.8512 0.0308033 61.2085C0.0353328 66.5852 0.185454 71.5742 0.366312 72.3597C0.904032 74.6953 2.24316 77.1654 3.88834 78.8561L5.43712 80.4481L3.87476 82.1139C2.20465 83.895 0.896914 86.3223 0.366312 88.6271C-0.0601108 90.4785 -0.0740229 108.395 0.349165 110.629C1.34987 115.912 5.27762 120.081 10.5493 121.456C12.201 121.887 16.9243 121.952 46.1951 121.952H79.9369V130.484V139.016L78.5813 139.423C76.7484 139.973 73.4597 143.272 72.6686 145.354L72.084 146.892H46.9516H21.8191L21.0802 145.107C20.1338 142.822 17.9768 140.605 15.624 139.501C14.0584 138.767 13.3499 138.635 11.0233 138.648C7.60418 138.667 5.3805 139.623 3.1138 142.049C0.855825 144.465 0.191925 146.155 0.188043 149.49C0.185131 151.96 0.296751 152.478 1.24989 154.416C3.11315 158.206 6.16799 160.179 10.538 160.418C12.6701 160.534 13.4683 160.43 15.0653 159.827C17.5073 158.905 20.3483 156.179 21.2021 153.937L21.7881 152.399H46.9881H72.1882L72.5101 153.289C73.4635 155.925 75.8195 158.519 78.2432 159.602C80.5558 160.635 84.4286 160.757 86.7787 159.869C89.2946 158.919 91.34 157.024 92.5875 154.487L93.6144 152.399L118.725 152.403L143.836 152.407L144.771 154.358C148.899 162.963 161.719 162.397 164.86 153.471C165.162 152.614 165.541 151.66 165.703 151.351C166.117 150.561 166.09 146.897 165.674 147.54C165.426 147.926 165.358 147.859 165.349 147.216C165.314 144.857 162.257 141.009 159.244 139.53C157.686 138.765 157.029 138.638 154.674 138.644C152.392 138.651 151.61 138.797 150.081 139.507C147.697 140.614 145.645 142.693 144.638 145.025L143.836 146.881L118.725 146.887L93.6135 146.892L93.0288 145.354C92.2378 143.272 88.949 139.973 87.1162 139.423L85.7606 139.016V130.484V121.952H119.502C156.295 121.952 155.129 122.007 158.617 120.107C161.789 118.378 164.829 114.174 165.266 110.91C165.361 110.205 165.564 109.551 165.718 109.455C165.872 109.36 165.998 104.764 165.998 99.2412C165.998 93.609 165.874 89.2772 165.716 89.375C165.561 89.4712 165.354 89.0582 165.256 88.4574C164.959 86.6232 163.468 83.8681 161.823 82.1139L160.26 80.4481L161.809 78.8561C163.433 77.1871 164.955 74.3899 165.259 72.5152C165.357 71.9066 165.564 71.3307 165.718 71.2354C165.872 71.1402 165.998 66.4709 165.998 60.8594C165.998 55.1108 165.874 50.733 165.715 50.8318C165.559 50.928 165.344 50.4558 165.236 49.7821C164.933 47.8821 163.265 44.8498 161.653 43.2672L160.192 41.8317L161.768 40.1636C163.499 38.3303 164.851 35.9316 165.199 34.0737C165.323 33.4136 165.553 32.7933 165.711 32.6958C165.869 32.5983 165.998 27.9271 165.998 22.3155C165.998 16.567 165.874 12.1892 165.715 12.288C165.559 12.3842 165.335 11.8462 165.217 11.0925C164.754 8.14923 162.38 4.71656 159.452 2.75925C155.771 0.29795 162.268 0.488078 82.6371 0.513342C14.5402 0.535043 11.1042 0.563546 9.46387 1.12292ZM10.538 6.75906C8.62914 7.65075 6.74907 9.62102 6.12852 11.3798C5.78945 12.3408 5.68495 15.0006 5.68495 22.6777C5.68495 32.5115 5.70048 32.7499 6.43168 34.2363C6.84257 35.0713 7.74395 36.2655 8.4347 36.8903C10.9829 39.1951 5.40864 39.0345 82.8487 39.0345C160.289 39.0345 154.715 39.1951 157.263 36.8903C157.953 36.2655 158.855 35.0713 159.266 34.2363C159.997 32.7499 160.012 32.5115 160.012 22.6777C160.012 15.0006 159.908 12.3408 159.569 11.3798C158.948 9.62102 157.068 7.65075 155.159 6.75906L153.542 6.00341H82.8487H12.1557L10.538 6.75906ZM116.812 12.3217C115.8 13.3999 115.778 15.1389 116.765 16.1259L117.485 16.8475H132.512H147.538L148.259 16.1259C149.245 15.1389 149.223 13.3999 148.212 12.3217L147.443 11.5032H132.512H117.58L116.812 12.3217ZM0.167336 22.6777C0.16766 28.3783 0.211661 30.6647 0.265368 27.7586C0.318752 24.8526 0.318752 20.1885 0.265045 17.3939C0.211014 14.5993 0.167336 16.9771 0.167336 22.6777ZM18.1767 14.5375C16.7027 15.3725 16.5471 16.1223 16.5348 22.4509C16.5222 29.0899 16.7328 29.9602 18.5032 30.5782C19.1289 30.7965 22.1779 30.9371 26.2882 30.9371C33.4694 30.9371 34.8732 30.7 35.5863 29.3662C35.8024 28.9619 35.9357 26.3005 35.9357 22.3933C35.9357 16.1812 35.9225 16.0585 35.1554 15.1652L34.375 14.2563L26.6625 14.1779C20.6631 14.117 18.7782 14.1967 18.1767 14.5375ZM22.3471 22.5157V25.1069H26.3914H30.4356V22.5157V19.9245H26.3914H22.3471V22.5157ZM116.935 23.2834C115.686 24.3593 115.686 26.1783 116.935 27.2543L117.827 28.022H132.512H147.197L148.088 27.2543C148.767 26.6694 148.98 26.1962 148.98 25.2688C148.98 24.3415 148.767 23.8683 148.088 23.2834L147.197 22.5157H132.512H117.827L116.935 23.2834ZM11.8322 44.9103C8.8718 45.6054 6.40935 48.3096 5.81728 51.5165C5.61507 52.611 5.51995 56.9694 5.58142 62.3075C5.67719 70.5812 5.73639 71.3734 6.3605 72.7234C7.11984 74.3659 8.64888 76.0265 10.1679 76.859C11.1214 77.3814 15.6706 77.4164 82.8487 77.4164C150.027 77.4164 154.576 77.3814 155.53 76.859C157.049 76.0265 158.578 74.3659 159.337 72.7234C159.977 71.3394 160.012 70.7234 160.012 61.0595C160.012 50.9944 160.002 50.837 159.255 49.3992C158.246 47.4549 157.227 46.4229 155.391 45.4836L153.865 44.7027L83.4958 44.6544C40.6351 44.6253 12.6203 44.7254 11.8322 44.9103ZM117.474 50.4577C115.785 51.3242 115.52 53.3437 116.9 54.8245L117.58 55.5533H132.512H147.443L148.212 54.7348C149.223 53.6565 149.245 51.9179 148.259 50.9306L147.539 50.209L132.907 50.1277C121.579 50.0645 118.095 50.139 117.474 50.4577ZM0.167336 61.2215C0.16766 66.9221 0.211661 69.2085 0.265368 66.3025C0.318752 63.3965 0.318752 58.7323 0.265045 55.9377C0.211014 53.1432 0.167336 55.5209 0.167336 61.2215ZM17.5701 53.6086C16.5924 54.5204 16.4665 55.609 16.5827 62.1459L16.6852 67.919L17.5931 68.7C18.498 69.4783 18.5255 69.4809 26.2726 69.4809H34.0443L34.99 68.5341L35.9357 67.5874V61.0696C35.9357 54.5816 35.9322 54.5485 35.1414 53.7573L34.3475 52.9621H26.3053C18.7158 52.9621 18.2243 52.9984 17.5701 53.6086ZM22.3471 61.2215V63.9746H26.3914H30.4356V61.2215V58.4684H26.3914H22.3471V61.2215ZM117.431 61.5454C115.741 62.4653 115.547 64.9612 117.075 66.1243C117.885 66.7397 147.139 66.7397 147.948 66.1243C149.506 64.9392 149.276 62.4358 147.527 61.5302C146.196 60.8412 118.699 60.8552 117.431 61.5454ZM10.9754 83.8574C8.41173 84.7776 6.44526 87.1618 5.83928 90.085C5.59792 91.2488 5.50765 95.0092 5.57786 100.995C5.68139 109.835 5.70954 110.177 6.44203 111.588C7.45179 113.532 8.46996 114.564 10.306 115.503L11.8322 116.284H82.8487H153.865L155.391 115.503C157.227 114.564 158.246 113.532 159.255 111.588C160.002 110.15 160.012 109.992 160.012 99.9273C160.012 90.2635 159.977 89.6474 159.337 88.2634C158.578 86.6209 157.049 84.9603 155.53 84.1279C154.577 83.6061 149.977 83.5662 83.334 83.5021C25.3981 83.4467 11.936 83.5128 10.9754 83.8574ZM118.438 88.802C117.087 89.2477 116.482 89.7595 116.163 90.7266C115.697 92.1395 116.41 93.5669 117.829 94.0621C119.464 94.6325 145.964 94.5545 147.349 93.975C149.787 92.9554 149.561 89.6464 147.004 88.9358C145.777 88.5947 119.441 88.4713 118.438 88.802ZM0.167013 99.6034C0.167013 105.215 0.211337 107.511 0.265045 104.705C0.319076 101.899 0.319076 97.3079 0.265045 94.502C0.211337 91.6961 0.167013 93.9918 0.167013 99.6034ZM17.5931 92.2875L16.6852 93.0694V99.7112C16.6852 106.295 16.692 106.361 17.4695 107.189L18.2541 108.025H26.3008H34.3475L35.1414 107.23C35.9322 106.438 35.9357 106.405 35.9357 99.9172V93.3994L34.99 92.4527L34.0443 91.5059H26.2726C18.5236 91.5059 18.498 91.5082 17.5931 92.2875ZM22.3471 99.7653V102.518H26.3914H30.4356V99.7653V97.0122H26.3914H22.3471V99.7653ZM116.914 100.656C116.547 101.057 116.15 101.705 116.032 102.097C115.741 103.059 116.646 104.736 117.666 105.124C118.971 105.62 146.558 105.52 147.556 105.014C148.747 104.411 149.309 103.049 148.878 101.809C148.21 99.8913 148.713 99.9486 132.487 99.9376L117.58 99.9273L116.914 100.656ZM9.24387 144.464C5.67427 145.727 4.55969 150.109 7.05351 153.076C9.43152 155.905 13.952 155.467 15.7835 152.23C17.5245 149.153 15.8971 145.264 12.4792 144.333C10.8829 143.899 10.835 143.901 9.24387 144.464ZM81.0693 144.45C76.5951 146.059 76.1576 152.275 80.3746 154.319C82.1725 155.19 83.7051 155.168 85.45 154.244C91.207 151.196 87.2029 142.244 81.0693 144.45ZM152.945 144.439C149.6 145.662 148.214 149.225 149.914 152.23C152.318 156.48 158.565 155.559 159.855 150.765C160.937 146.742 156.859 143.009 152.945 144.439ZM0.12657 149.484C0.12657 150.642 0.185454 151.115 0.256956 150.536C0.328782 149.957 0.328782 149.01 0.256956 148.431C0.185454 147.852 0.12657 148.326 0.12657 149.484Z" fill="#CB0447"/>
</svg>
