<svg id="Layer_1" data-name="Layer 1" xmlns="http://www.w3.org/2000/svg" viewBox="0 0 152 36"><defs><style>.cls-1{fill:#f47424;}</style></defs><path class="cls-1" d="M65.22,18c0-9.52,2.61-16.17,12.42-16.17S90.07,8.48,90.07,18,87.45,34.17,77.64,34.17,65.22,27.52,65.22,18ZM72,18c0,7.27,1.58,10.14,5.69,10.14S83.33,25.27,83.33,18,81.76,7.86,77.64,7.86,72,10.73,72,18Z"/><path d="M17,33.58H10.37V2.42H20.92c8.31,0,11.18,4.86,11.18,10.18S29.23,22.78,20.92,22.78H17ZM17,16.8H21c3.33,0,3.95-2.54,3.95-4.16S24.29,8.48,21,8.48H17Z"/><path d="M42.15,33.58H35.51V2.42H46.1c8.4,0,11.14,3.82,11.14,9.76,0,3.87-1.08,6.82-4.36,8.4l5.52,13H50.63L46.44,21.91H42.15Zm0-17.7h4.53c3,0,3.33-2,3.33-3.7s-.37-3.7-3.33-3.7H42.15Z"/><path d="M61.48,18c0-9.52,2.61-16.17,12.42-16.17S86.33,8.48,86.33,18,83.71,34.17,73.9,34.17,61.48,27.52,61.48,18Zm6.73,0c0,7.27,1.58,10.14,5.69,10.14S79.59,25.27,79.59,18,78,7.86,73.9,7.86,68.21,10.73,68.21,18Z"/><path class="cls-1" d="M140.43,20.45h-12v7.07h13.21v6.06H121.77V2.42h19.86V8.48H128.42v6h12Z"/><path class="cls-1" d="M105.69,2.42c-4.74,0-11.6,1.87-11.6,10.43V33.69h10.75v-14H98.45V14.87c3.87-.33,7-1.82,8.15-6.12h4.91V33.69h5.77V12.85C117.28,4.29,110.43,2.42,105.69,2.42Z"/></svg>