<svg width="199" height="140" viewBox="0 0 199 140" fill="none" xmlns="http://www.w3.org/2000/svg">
<path fill-rule="evenodd" clip-rule="evenodd" d="M8.10003 0.732852C5.36344 1.78814 2.43386 4.50612 1.09533 7.2311L0.00583659 9.45023V59.6463V109.842L1.04203 111.806C3.18989 115.875 6.6829 118.356 11.1775 119.006C12.5234 119.201 24.1055 119.364 36.9153 119.368C58.9395 119.375 60.1913 119.413 59.9337 120.057C59.7839 120.431 58.785 123.189 57.7142 126.185C56.643 129.181 55.5916 132.115 55.3776 132.703L54.9881 133.773H49.406C44.113 133.773 43.7686 133.82 42.7644 134.684C41.4036 135.855 41.3414 137.672 42.6161 139.029L43.527 139.999H77.3291H111.131L112.086 139.044C112.611 138.518 113.041 137.722 113.041 137.274C113.041 136.156 112.039 134.308 111.273 134.015C110.926 133.882 108.154 133.773 105.112 133.773H99.5805L97.8922 129.006C96.9638 126.384 95.7976 123.145 95.3015 121.808L94.3992 119.376H103.915H113.43V120.41C113.43 121.207 114.467 122.494 117.964 126.034C120.823 128.929 122.893 130.711 123.569 130.859C124.373 131.036 125.532 130.646 128.224 129.294L131.809 127.494L135.169 128.939C137.016 129.734 139.084 130.538 139.764 130.727C140.91 131.045 141.09 131.342 142.244 134.804C144.044 140.209 143.67 139.999 151.52 139.999C159.547 139.999 159.379 140.088 161.111 134.895C162.285 131.374 162.377 131.234 163.851 130.711C164.69 130.414 166.743 129.548 168.415 128.787L171.454 127.402L175.03 129.236C176.996 130.245 178.94 131.066 179.349 131.06C180.26 131.047 189.643 121.861 189.935 120.695C190.068 120.166 189.481 118.548 188.312 116.221C186.743 113.097 186.54 112.436 186.893 111.598C187.12 111.06 187.989 108.967 188.824 106.946L190.343 103.271L193.958 102.066C196.203 101.317 197.844 100.524 198.291 99.9728C199.153 97.3905 199.348 87.6626 198.202 85.193C197.852 84.7836 195.892 83.8914 193.848 83.21L190.131 81.9719L189.47 79.9531C189.106 78.843 188.276 76.8313 187.624 75.4826L186.439 73.0304L188.324 69.1976C190.06 65.6706 190.172 65.2725 189.731 64.2087C189.468 63.5729 187.278 61.1043 184.864 58.7229C181.48 55.3831 180.238 54.3932 179.436 54.3932C178.864 54.3932 176.821 55.1839 174.898 56.1501L171.399 57.9069L169.75 57.0626C168.842 56.598 166.795 55.7411 165.199 55.1578L162.299 54.0979L161.019 50.2791C160.315 48.1782 159.558 46.2794 159.338 46.0587C159.117 45.8385 158.022 45.5657 156.903 45.4533L154.87 45.249L154.676 27.155C154.483 9.22571 154.473 9.04438 153.581 7.23499C152.392 4.81974 150.118 2.52785 147.588 1.19473L145.532 0.111432L77.8271 0.0320515C10.9098 -0.046161 10.0993 -0.0379886 8.10003 0.732852ZM10.1226 6.69412C8.6724 7.34161 6.99769 9.09847 6.45099 10.5456C6.1685 11.2927 6.03699 23.8273 6.03699 49.9437V88.2464H55.0469H104.056L104.307 86.9098C104.658 85.0432 105.319 84.5805 109.608 83.2077C113.19 82.061 113.385 81.9415 113.637 80.7469C113.782 80.0562 114.578 78.0332 115.405 76.2511L116.91 73.0109L115.17 69.5466C114.213 67.6411 113.43 65.6048 113.43 65.0216C113.43 63.4764 122.513 54.3932 124.058 54.3932C124.642 54.3932 126.692 55.1831 128.615 56.1489L132.111 57.9046L134.346 56.7801C135.576 56.1614 137.593 55.338 138.829 54.9501L141.076 54.245L142.227 50.5639C143.663 45.9685 144.108 45.4435 146.565 45.4435H148.45L148.444 28.2251C148.437 11.1262 148.431 10.9958 147.566 9.45023C146.993 8.42452 146.104 7.59531 144.961 7.01825L143.227 6.14274L77.2582 6.15792C23.0086 6.17037 11.0825 6.2657 10.1226 6.69412ZM0 59.6463C0 86.8261 0.0463037 97.8879 0.103113 84.2276C0.159923 70.5676 0.159923 48.3296 0.103113 34.8097C0.0463037 21.2903 0 32.4665 0 59.6463ZM80.4637 21.8047C79.838 22.4841 78.4586 27.9092 74.3053 46.0272C71.3621 58.8681 68.9512 69.8571 68.9481 70.4474C68.9403 71.9529 70.4625 73.4599 71.9905 73.4599C74.5193 73.4599 74.4691 73.6125 80.3614 47.9417C83.3536 34.9039 85.8022 23.9223 85.803 23.5382C85.8034 23.1538 85.3738 22.4098 84.8485 21.8845C83.596 20.6315 81.5781 20.5949 80.4637 21.8047ZM46.8982 37.281C39.732 41.3138 33.5453 45.0124 33.1503 45.5003C32.3639 46.4716 32.4939 48.3316 33.4122 49.2503C34.5375 50.3756 60.3773 64.5052 61.3138 64.5075C62.4384 64.5106 63.8232 63.3892 64.2135 62.16C64.8718 60.0856 63.9691 59.3296 54.5364 54.0512C49.5838 51.2795 44.7928 48.5923 43.89 48.0794L42.2492 47.1467L52.8936 41.1944C63.6127 35.2008 64.4029 34.6082 64.4029 32.5665C64.4029 31.3058 62.68 29.8738 61.2103 29.9139C60.3068 29.9384 56.0807 32.1139 46.8982 37.281ZM91.5583 30.4092C90.568 31.1618 90.0427 32.833 90.4556 33.9187C90.9256 35.1549 91.4634 35.4989 102.653 41.7236C111.079 46.4101 112.216 47.1521 111.603 47.5654C111.217 47.8257 106.591 50.4355 101.323 53.3648C96.0552 56.2944 91.4295 59.0397 91.0443 59.4657C89.9801 60.6417 90.1423 62.5149 91.4027 63.5989C91.9852 64.1001 92.8622 64.5103 93.3517 64.5103C94.5066 64.5103 119.967 50.3771 121.115 49.0989C122.292 47.7887 122.224 46.3914 120.921 45.1081C119.255 43.4676 94.5972 29.8765 93.3132 29.8913C92.7139 29.8979 91.9244 30.131 91.5583 30.4092ZM147.465 54.8796C146.888 56.645 146.041 58.4626 145.585 58.9187C145.127 59.3743 143.44 60.1323 141.835 60.6031C140.23 61.0736 137.634 62.1452 136.066 62.9845C134.498 63.8235 132.699 64.5103 132.069 64.5103C131.439 64.5103 129.553 63.8215 127.878 62.9795L124.834 61.4487L122.582 63.7242L120.33 65.9998L121.939 68.9816C122.823 70.6213 123.547 72.4615 123.547 73.0708C123.547 73.6802 122.86 75.4612 122.021 77.0293C121.182 78.5975 120.111 81.1936 119.64 82.7987C119.169 84.4039 118.411 86.0911 117.956 86.5483C117.5 87.0051 115.683 87.8514 113.917 88.4285L110.707 89.4775V92.6765V95.8754L113.528 96.7778C118.277 98.2973 118.312 98.328 119.453 102.07C120.011 103.897 121.16 106.708 122.007 108.317C122.854 109.925 123.547 111.675 123.547 112.204C123.547 112.734 122.833 114.588 121.959 116.325L120.371 119.484L122.598 121.735L124.825 123.985L128.464 122.177L132.104 120.37L135.705 122.176C137.685 123.17 140.49 124.342 141.937 124.781C145.918 125.988 145.922 125.993 147.281 130.072L148.514 133.773H151.717H154.92L155.834 130.608C156.338 128.867 157.114 127.045 157.56 126.56C158.018 126.064 159.57 125.328 161.115 124.874C162.624 124.432 165.475 123.267 167.452 122.284C171.489 120.278 171.245 120.272 175.726 122.515L178.682 123.995L180.687 121.965C181.789 120.848 182.691 119.718 182.691 119.452C182.691 119.187 181.991 117.576 181.135 115.874C180.279 114.171 179.578 112.54 179.578 112.248C179.578 111.956 180.443 110.021 181.499 107.946C182.556 105.871 183.638 103.2 183.904 102.01C184.604 98.8813 185.22 98.3074 189.267 97.014L192.808 95.8824V92.6605V89.4386L189.467 88.4195C187.629 87.8592 185.815 87.0899 185.436 86.7105C185.056 86.3312 184.353 84.7264 183.873 83.1451C183.394 81.5633 182.231 78.7659 181.29 76.9285C180.348 75.0911 179.578 73.3802 179.578 73.1269C179.578 72.8736 180.355 71.1206 181.303 69.2314L183.029 65.7963L180.774 63.5655L178.519 61.3343L175.361 62.9223C173.624 63.7958 171.773 64.5103 171.248 64.5103C170.722 64.5103 168.749 63.7429 166.862 62.8048C164.975 61.867 162.184 60.7308 160.661 60.2802C159.138 59.8292 157.714 59.2397 157.497 58.9696C157.281 58.7 156.609 56.947 156.004 55.0742L154.904 51.6694H151.709H148.514L147.465 54.8796ZM146.772 74.0444C140.218 75.846 134.758 81.2855 133.095 87.6685C129.232 102.499 143.507 115.798 157.952 110.826C166.791 107.784 172.289 98.5039 170.637 89.4137C169.311 82.1108 163.578 75.9231 156.41 74.0557C153.668 73.3417 149.347 73.3362 146.772 74.0444ZM148.172 80.2267C139.479 83.068 136.109 92.5224 141.102 100.061C143.442 103.594 149.012 106.156 153.075 105.57C163.865 104.014 168.343 91.2955 160.809 83.6034C157.641 80.3691 152.192 78.913 148.172 80.2267ZM6.03699 101.026C6.03699 107.134 6.09846 107.696 6.94166 109.295C7.50547 110.364 8.42143 111.337 9.37357 111.879L10.9008 112.748L63.9166 112.755C93.0754 112.758 116.932 112.666 116.932 112.551C116.932 112.435 116.555 111.604 116.094 110.702C115.632 109.801 114.777 107.758 114.194 106.161L113.133 103.258L110.85 102.537C105.649 100.893 105.204 100.662 104.636 99.3016C104.337 98.5852 104.092 97.2058 104.092 96.2357V94.4723H55.0644H6.03699V101.026ZM64.3131 126.471L61.7788 133.578L77.159 133.68C85.6182 133.736 92.5992 133.722 92.6719 133.649C92.7451 133.576 91.6848 130.379 90.3163 126.543L87.8275 119.57L77.3372 119.467L66.8473 119.363L64.3131 126.471Z" fill="#CB0447"/>
</svg>
